<svg width="52" height="52" viewBox="0 0 52 52" fill="none" xmlns="http://www.w3.org/2000/svg">
<path d="M38.8137 6.31445C39.366 6.31445 39.8137 6.76217 39.8137 7.31445L39.8137 13.3145C39.8137 13.8667 39.366 14.3145 38.8137 14.3145L13.8137 14.3145C13.2614 14.3145 12.8137 13.8667 12.8137 13.3145L12.8137 7.31445C12.8137 6.76217 13.2614 6.31445 13.8137 6.31445L38.8137 6.31445Z" fill="#C52229"/>
<path fill-rule="evenodd" clip-rule="evenodd" d="M40.8137 7.31445L40.8137 13.3145C40.8137 14.419 39.9183 15.3145 38.8137 15.3145L13.8137 15.3145C12.7091 15.3145 11.8137 14.419 11.8137 13.3145L11.8137 7.31445C11.8137 6.20988 12.7092 5.31445 13.8137 5.31445L38.8137 5.31445C39.9183 5.31445 40.8137 6.20988 40.8137 7.31445ZM39.8137 7.31445C39.8137 6.76217 39.366 6.31445 38.8137 6.31445L13.8137 6.31445C13.2614 6.31445 12.8137 6.76217 12.8137 7.31445L12.8137 13.3145C12.8137 13.8667 13.2614 14.3145 13.8137 14.3145L38.8137 14.3145C39.366 14.3145 39.8137 13.8667 39.8137 13.3145L39.8137 7.31445Z" fill="#9B0F15"/>
<path fill-rule="evenodd" clip-rule="evenodd" d="M13.7222 6.81445C13.7222 6.53831 13.9461 6.31445 14.2222 6.31445H38.6886C38.9647 6.31445 39.1886 6.53831 39.1886 6.81445C39.1886 7.0906 38.9647 7.31445 38.6886 7.31445H14.2222C13.9461 7.31445 13.7222 7.0906 13.7222 6.81445Z" fill="#DF3840"/>
<path fill-rule="evenodd" clip-rule="evenodd" d="M13.5323 9.7207C13.5323 9.44456 13.7562 9.2207 14.0323 9.2207H38.4987C38.7748 9.2207 38.9987 9.44456 38.9987 9.7207C38.9987 9.99685 38.7748 10.2207 38.4987 10.2207H14.0323C13.7562 10.2207 13.5323 9.99685 13.5323 9.7207Z" fill="#AF1B22"/>
<path fill-rule="evenodd" clip-rule="evenodd" d="M13.5323 7.87695C13.5323 7.60081 13.7562 7.37695 14.0323 7.37695H38.4987C38.7748 7.37695 38.9987 7.60081 38.9987 7.87695C38.9987 8.1531 38.7748 8.37695 38.4987 8.37695H14.0323C13.7562 8.37695 13.5323 8.1531 13.5323 7.87695Z" fill="#AF1B22"/>
<path fill-rule="evenodd" clip-rule="evenodd" d="M13.5323 11.5332C13.5323 11.2571 13.7562 11.0332 14.0323 11.0332H38.4987C38.7748 11.0332 38.9987 11.2571 38.9987 11.5332C38.9987 11.8093 38.7748 12.0332 38.4987 12.0332H14.0323C13.7562 12.0332 13.5323 11.8093 13.5323 11.5332Z" fill="#AF1B22"/>
<path fill-rule="evenodd" clip-rule="evenodd" d="M13.7222 13.1895C13.7222 12.9133 13.9461 12.6895 14.2222 12.6895H38.6886C38.9647 12.6895 39.1886 12.9133 39.1886 13.1895C39.1886 13.4656 38.9647 13.6895 38.6886 13.6895H14.2222C13.9461 13.6895 13.7222 13.4656 13.7222 13.1895Z" fill="#AF1B22"/>
<path d="M14.364 6.70711C13.9734 6.31658 13.3403 6.31658 12.9498 6.70711L8.70711 10.9497C8.31659 11.3403 8.31659 11.9734 8.70711 12.364L25.7635 29.4203C26.154 29.8108 26.7872 29.8108 27.1777 29.4203L31.4203 25.1777C31.8108 24.7871 31.8108 24.154 31.4203 23.7635L14.364 6.70711Z" fill="#F1333B"/>
<path fill-rule="evenodd" clip-rule="evenodd" d="M12.2426 6.00015L8.00001 10.2428C7.21896 11.0238 7.21896 12.2902 8.00001 13.0712L25.0564 30.1276C25.8374 30.9086 27.1037 30.9086 27.8848 30.1276L32.1274 25.8849C32.9085 25.1039 32.9085 23.8376 32.1274 23.0565L15.0711 6.00015C14.29 5.2191 13.0237 5.2191 12.2426 6.00015ZM12.9498 6.70726C13.3403 6.31673 13.9734 6.31673 14.364 6.70726L31.4203 23.7636C31.8108 24.1541 31.8108 24.7873 31.4203 25.1778L27.1777 29.4205C26.7872 29.811 26.154 29.811 25.7635 29.4205L8.70711 12.3641C8.31659 11.9736 8.31659 11.3404 8.70711 10.9499L12.9498 6.70726Z" fill="#9B0F15"/>
<path d="M38.2635 6.72664C38.6524 6.32695 39.2931 6.32256 39.6874 6.71687L43.9299 10.9594C44.3166 11.3461 44.3209 11.9718 43.9395 12.3638L27.3638 29.4008C26.9749 29.8005 26.3343 29.8049 25.9399 29.4105L21.6974 25.168C21.3107 24.7813 21.3064 24.1556 21.6878 23.7636L38.2635 6.72664Z" fill="#F1333B"/>
<path fill-rule="evenodd" clip-rule="evenodd" d="M40.3945 6.00992L44.637 10.2524C45.4105 11.0259 45.4191 12.2773 44.6563 13.0613L28.0805 30.0983C27.3028 30.8976 26.0215 30.9064 25.2328 30.1178L20.9903 25.8753C20.2168 25.1018 20.2083 23.8504 20.971 23.0664L37.5468 6.02946C38.3245 5.23007 39.6059 5.22128 40.3945 6.00992ZM39.6874 6.71703C39.2931 6.32271 38.6524 6.3271 38.2635 6.72679L21.6878 23.7637C21.3064 24.1558 21.3107 24.7814 21.6974 25.1682L25.9399 29.4107C26.3343 29.805 26.9749 29.8006 27.3638 29.4009L43.9395 12.364C44.3209 11.972 44.3166 11.3463 43.9299 10.9595L39.6874 6.71703Z" fill="#9B0F15"/>
<path fill-rule="evenodd" clip-rule="evenodd" d="M39.0718 7.14679C39.2679 7.34116 39.2694 7.65774 39.075 7.85389L28.8563 18.1664C28.6619 18.3625 28.3453 18.364 28.1492 18.1696C27.953 17.9752 27.9516 17.6587 28.1459 17.4625L38.3647 7.15002C38.5591 6.95387 38.8756 6.95242 39.0718 7.14679Z" fill="#FE666D"/>
<path fill-rule="evenodd" clip-rule="evenodd" d="M8.83505 11.3359C9.03031 11.1406 9.34689 11.1406 9.54215 11.3359L16.0422 17.8359C16.2374 18.0312 16.2374 18.3477 16.0422 18.543C15.8469 18.7383 15.5303 18.7383 15.335 18.543L8.83505 12.043C8.63978 11.8477 8.63978 11.5312 8.83505 11.3359Z" fill="#FE666D"/>
<path d="M41.1056 10.0151C40.9054 10.2153 40.5848 10.2193 40.3895 10.024C40.1941 9.82865 40.1981 9.50802 40.3983 9.30781C40.5985 9.10761 40.9191 9.10365 41.1145 9.29897C41.3098 9.49429 41.3058 9.81493 41.1056 10.0151Z" fill="#DB1B24"/>
<path d="M39.5849 11.2526C39.3358 11.5017 38.937 11.5066 38.694 11.2636C38.4511 11.0207 38.456 10.6218 38.705 10.3728C38.9541 10.1238 39.3529 10.1188 39.5959 10.3618C39.8388 10.6048 39.8339 11.0036 39.5849 11.2526Z" fill="#DB1B24"/>
<path d="M41.2052 11.6439C41.0807 11.7684 40.8812 11.7709 40.7598 11.6494C40.6383 11.5279 40.6407 11.3285 40.7653 11.204C40.8898 11.0795 41.0892 11.077 41.2107 11.1985C41.3322 11.32 41.3297 11.5194 41.2052 11.6439Z" fill="#DB1B24"/>
<path d="M37.6033 15.8665C37.4788 15.9911 37.2794 15.9935 37.1579 15.872C37.0364 15.7506 37.0389 15.5511 37.1634 15.4266C37.2879 15.3021 37.4873 15.2997 37.6088 15.4211C37.7303 15.5426 37.7278 15.742 37.6033 15.8665Z" fill="#DB1B24"/>
<path d="M39.4114 12.9974C39.2869 13.1219 39.0875 13.1244 38.966 13.0029C38.8445 12.8814 38.847 12.682 38.9715 12.5575C39.096 12.433 39.2954 12.4305 39.4169 12.552C39.5384 12.6735 39.5359 12.8729 39.4114 12.9974Z" fill="#DB1B24"/>
<path d="M37.5978 17.5892C37.4733 17.7137 37.2739 17.7162 37.1524 17.5947C37.0309 17.4732 37.0334 17.2738 37.1579 17.1493C37.2824 17.0248 37.4818 17.0223 37.6033 17.1438C37.7248 17.2653 37.7223 17.4647 37.5978 17.5892Z" fill="#DB1B24"/>
<path d="M38.0542 12.6165C37.9297 12.7411 37.7303 12.7435 37.6088 12.622C37.4873 12.5006 37.4898 12.3011 37.6143 12.1766C37.7388 12.0521 37.9383 12.0497 38.0597 12.1711C38.1812 12.2926 38.1788 12.492 38.0542 12.6165Z" fill="#DB1B24"/>
<path d="M39.0687 16.179C38.9442 16.3036 38.7448 16.306 38.6233 16.1845C38.5018 16.0631 38.5043 15.8636 38.6288 15.7391C38.7533 15.6146 38.9527 15.6122 39.0742 15.7336C39.1957 15.8551 39.1932 16.0545 39.0687 16.179Z" fill="#DB1B24"/>
<path d="M42.7148 10.8548C42.5902 10.9793 42.3908 10.9818 42.2693 10.8603C42.1479 10.7388 42.1503 10.5394 42.2748 10.4149C42.3994 10.2904 42.5988 10.2879 42.7203 10.4094C42.8417 10.5309 42.8393 10.7303 42.7148 10.8548Z" fill="#DB1B24"/>
<path d="M41.0656 13.4657C40.863 13.6683 40.5384 13.6723 40.3407 13.4746C40.143 13.2769 40.147 12.9524 40.3497 12.7497C40.5523 12.5471 40.8769 12.5431 41.0746 12.7408C41.2723 12.9385 41.2683 13.263 41.0656 13.4657Z" fill="#DB1B24"/>
<path d="M42.9974 12.2508C42.7948 12.4535 42.4702 12.4575 42.2725 12.2598C42.0748 12.0621 42.0788 11.7375 42.2815 11.5349C42.4841 11.3322 42.8086 11.3282 43.0063 11.5259C43.2041 11.7236 43.2 12.0482 42.9974 12.2508Z" fill="#DB1B24"/>
<path d="M39.0841 14.7567C38.8814 14.9593 38.5569 14.9633 38.3592 14.7656C38.1615 14.5679 38.1655 14.2434 38.3681 14.0408C38.5708 13.8381 38.8953 13.8341 39.093 14.0318C39.2907 14.2295 39.2867 14.5541 39.0841 14.7567Z" fill="#DB1B24"/>
<path d="M40.489 14.9759C40.3645 15.1004 40.1651 15.1029 40.0436 14.9814C39.9221 14.8599 39.9246 14.6605 40.0491 14.536C40.1736 14.4115 40.373 14.409 40.4945 14.5305C40.616 14.652 40.6135 14.8514 40.489 14.9759Z" fill="#DB1B24"/>
<path d="M39.9999 32.498C39.9999 39.9539 33.9557 45.998 26.4999 45.998C19.044 45.998 12.9999 39.9539 12.9999 32.498C12.9999 25.0422 19.044 18.998 26.4999 18.998C33.9557 18.998 39.9999 25.0422 39.9999 32.498Z" fill="#FFBB0D"/>
<path fill-rule="evenodd" clip-rule="evenodd" d="M40.9999 32.498C40.9999 40.5062 34.508 46.998 26.4999 46.998C18.4917 46.998 11.9999 40.5062 11.9999 32.498C11.9999 24.4899 18.4917 17.998 26.4999 17.998C34.508 17.998 40.9999 24.4899 40.9999 32.498ZM26.4999 45.998C33.9557 45.998 39.9999 39.9539 39.9999 32.498C39.9999 25.0422 33.9557 18.998 26.4999 18.998C19.044 18.998 12.9999 25.0422 12.9999 32.498C12.9999 39.9539 19.044 45.998 26.4999 45.998Z" fill="#E89B05"/>
<path fill-rule="evenodd" clip-rule="evenodd" d="M13.9999 32.998C13.7237 32.998 13.4999 32.7742 13.4999 32.498C13.4999 25.3183 19.3202 19.498 26.4999 19.498C26.776 19.498 26.9999 19.7219 26.9999 19.998C26.9999 20.2742 26.776 20.498 26.4999 20.498C19.8725 20.498 14.4999 25.8706 14.4999 32.498C14.4999 32.7742 14.276 32.998 13.9999 32.998Z" fill="#E8AA0A"/>
<path fill-rule="evenodd" clip-rule="evenodd" d="M38.9999 31.998C39.276 31.998 39.4999 32.2219 39.4999 32.498C39.4999 39.6777 33.6796 45.498 26.4999 45.498C26.2237 45.498 25.9999 45.2742 25.9999 44.998C25.9999 44.7219 26.2237 44.498 26.4999 44.498C33.1273 44.498 38.4999 39.1255 38.4999 32.498C38.4999 32.2219 38.7237 31.998 38.9999 31.998Z" fill="#E8AA0A"/>
<path d="M36.4999 32.498C36.4999 38.0209 32.0227 42.498 26.4999 42.498C20.977 42.498 16.4999 38.0209 16.4999 32.498C16.4999 26.9752 20.977 22.498 26.4999 22.498C32.0227 22.498 36.4999 26.9752 36.4999 32.498Z" fill="#FFDD28"/>
<path fill-rule="evenodd" clip-rule="evenodd" d="M37.4999 32.498C37.4999 38.5732 32.575 43.498 26.4999 43.498C20.4247 43.498 15.4999 38.5732 15.4999 32.498C15.4999 26.4229 20.4247 21.498 26.4999 21.498C32.575 21.498 37.4999 26.4229 37.4999 32.498ZM26.4999 42.498C32.0227 42.498 36.4999 38.0209 36.4999 32.498C36.4999 26.9752 32.0227 22.498 26.4999 22.498C20.977 22.498 16.4999 26.9752 16.4999 32.498C16.4999 38.0209 20.977 42.498 26.4999 42.498Z" fill="#E89B05"/>
<path fill-rule="evenodd" clip-rule="evenodd" d="M26.4999 40.998C31.1943 40.998 34.9999 37.1925 34.9999 32.498C34.9999 32.2219 35.2237 31.998 35.4999 31.998C35.776 31.998 35.9999 32.2219 35.9999 32.498C35.9999 37.7448 31.7466 41.998 26.4999 41.998C26.2237 41.998 25.9999 41.7742 25.9999 41.498C25.9999 41.2219 26.2237 40.998 26.4999 40.998Z" fill="#ECC704"/>
<path fill-rule="evenodd" clip-rule="evenodd" d="M26.4999 23.998C21.8055 23.998 17.9999 27.8036 17.9999 32.498C17.9999 32.7742 17.776 32.998 17.4999 32.998C17.2237 32.998 16.9999 32.7742 16.9999 32.498C16.9999 27.2513 21.2532 22.998 26.4999 22.998C26.776 22.998 26.9999 23.2219 26.9999 23.498C26.9999 23.7742 26.776 23.998 26.4999 23.998Z" fill="#FFEF9C"/>
<path d="M20.9999 31.198L24.4374 30.498L25.4686 28.748L26.4999 26.998L28.5624 30.498L31.9999 31.198L29.2499 33.998L29.9374 37.498L26.4999 35.748L23.0624 37.498L23.7499 33.998L20.9999 31.198Z" fill="#FFEF9C"/>
<path fill-rule="evenodd" clip-rule="evenodd" d="M24.4374 30.498L26.4999 26.998L28.5624 30.498L31.9999 31.198L29.2499 33.998L29.9374 37.498L26.4999 35.748L23.0624 37.498L23.7499 33.998L20.9999 31.198L24.4374 30.498ZM22.667 34.3226L20.2865 31.8988C20.0296 31.6372 19.9364 31.2562 20.0436 30.9056C20.1508 30.5551 20.4412 30.2913 20.8004 30.2182L23.8018 29.607L25.6384 26.4904C25.8181 26.1853 26.1458 25.998 26.4999 25.998C26.854 25.998 27.1817 26.1853 27.3614 26.4904L29.198 29.607L32.1994 30.2182C32.5586 30.2913 32.849 30.5551 32.9562 30.9056C33.0634 31.2562 32.9702 31.6372 32.7134 31.8988L30.3328 34.3226L30.9187 37.3053C30.9924 37.6807 30.8454 38.0654 30.5401 38.296C30.2348 38.5266 29.8247 38.5628 29.4837 38.3892L26.4999 36.8702L23.5161 38.3892C23.1751 38.5628 22.765 38.5266 22.4597 38.296C22.1544 38.0654 22.0074 37.6807 22.0812 37.3053L22.667 34.3226Z" fill="#E89B05"/>
</svg>
