<svg width="52" height="52" viewBox="0 0 52 52" fill="none" xmlns="http://www.w3.org/2000/svg">
<g filter="url(#filter0_d_606_13104)">
<path d="M21.2912 6.4855C21.1105 6.1843 20.785 6 20.4337 6H10.7661C9.98885 6 9.50874 6.84797 9.90865 7.51449L20.7086 25.5144C20.8893 25.8156 21.2148 25.9999 21.5661 25.9999H31.2336C32.0109 25.9999 32.491 25.1519 32.0911 24.4854L21.2912 6.4855Z" fill="#C52229"/>
<path fill-rule="evenodd" clip-rule="evenodd" d="M20.4337 5H10.7661C9.21154 5 8.25132 6.69593 9.05115 8.02897L19.8511 26.0289C20.2125 26.6313 20.8635 26.9999 21.5661 26.9999H31.2336C32.7882 26.9999 33.7484 25.3039 32.9486 23.9709L22.1487 5.971C21.7872 5.3686 21.1362 5 20.4337 5ZM20.4337 5.99999C20.7849 5.99999 21.1104 6.18429 21.2912 6.4855L32.0911 24.4854C32.491 25.1519 32.0109 25.9999 31.2336 25.9999H21.5661C21.2148 25.9999 20.8893 25.8156 20.7086 25.5144L9.90864 7.51448C9.50872 6.84796 9.98883 5.99999 10.7661 5.99999H20.4337Z" fill="#9B0F15"/>
<path d="M31.7086 6.4855C31.8893 6.1843 32.2148 6 32.5661 6H42.2336C43.0109 6 43.491 6.84797 43.0911 7.51449L32.2912 25.5144C32.1105 25.8156 31.7849 25.9999 31.4337 25.9999H21.7661C20.9888 25.9999 20.5087 25.1519 20.9086 24.4854L31.7086 6.4855Z" fill="#F1333B"/>
<path fill-rule="evenodd" clip-rule="evenodd" d="M32.5661 5H42.2336C43.7882 5 44.7484 6.69593 43.9486 8.02897L33.1487 26.0289C32.7872 26.6313 32.1362 26.9999 31.4337 26.9999H21.7661C20.2116 26.9999 19.2513 25.3039 20.0512 23.9709L30.8511 5.971C31.2125 5.3686 31.8636 5 32.5661 5ZM32.5661 5.99999C32.2148 5.99999 31.8893 6.18429 31.7086 6.4855L20.9087 24.4854C20.5087 25.1519 20.9888 25.9999 21.7661 25.9999H31.4337C31.785 25.9999 32.1105 25.8156 32.2912 25.5144L43.0911 7.51448C43.491 6.84796 43.0109 5.99999 42.2336 5.99999H32.5661Z" fill="#9B0F15"/>
<path fill-rule="evenodd" clip-rule="evenodd" d="M32.751 6.56769C32.9898 6.70635 33.071 7.01234 32.9323 7.25115L28.4323 15.0011C28.2937 15.2399 27.9877 15.3211 27.7489 15.1824C27.5101 15.0438 27.4289 14.7378 27.5676 14.499L32.0675 6.74901C32.2062 6.51021 32.5122 6.42903 32.751 6.56769Z" fill="#FE666D"/>
<path fill-rule="evenodd" clip-rule="evenodd" d="M10.7489 6.56769C10.5101 6.70635 10.4289 7.01234 10.5676 7.25115L15.0675 15.0011C15.2062 15.2399 15.5122 15.3211 15.751 15.1824C15.9898 15.0438 16.071 14.7378 15.9323 14.499L11.4323 6.74901C11.2937 6.51021 10.9877 6.42903 10.7489 6.56769Z" fill="#DF3840"/>
<path d="M20.25 7.64062C20.25 7.99443 19.9702 8.28124 19.625 8.28124C19.2798 8.28124 19 7.99443 19 7.64062C19 7.28682 19.2798 7 19.625 7C19.9702 7 20.25 7.28682 20.25 7.64062Z" fill="#AA161D"/>
<path d="M18.055 7.79687C18.055 8.23697 17.7069 8.59374 17.2776 8.59374C16.8482 8.59374 16.5001 8.23697 16.5001 7.79687C16.5001 7.35677 16.8482 7 17.2776 7C17.7069 7 18.055 7.35677 18.055 7.79687Z" fill="#AA161D"/>
<path d="M20 10.0781C20 10.5182 19.6519 10.875 19.2226 10.875C18.7932 10.875 18.4451 10.5182 18.4451 10.0781C18.4451 9.63802 18.7932 9.28125 19.2226 9.28125C19.6519 9.28125 20 9.63802 20 10.0781Z" fill="#AA161D"/>
<path d="M21.7774 8.99219C21.7774 9.21223 21.6034 9.39062 21.3887 9.39062C21.174 9.39062 21 9.21223 21 8.99219C21 8.77214 21.174 8.59375 21.3887 8.59375C21.6034 8.59375 21.7774 8.77214 21.7774 8.99219Z" fill="#AA161D"/>
<path d="M17.6662 9.67969C17.6662 9.89973 17.4922 10.0781 17.2775 10.0781C17.0628 10.0781 16.8888 9.89973 16.8888 9.67969C16.8888 9.45964 17.0628 9.28125 17.2775 9.28125C17.4922 9.28125 17.6662 9.45964 17.6662 9.67969Z" fill="#AA161D"/>
<path d="M15.5 7.24219C15.5 7.46223 15.3259 7.64062 15.1113 7.64062C14.8966 7.64062 14.7225 7.46223 14.7225 7.24219C14.7225 7.02214 14.8966 6.84375 15.1113 6.84375C15.3259 6.84375 15.5 7.02214 15.5 7.24219Z" fill="#AA161D"/>
<path d="M21.3888 11.7734C21.3888 11.9935 21.2147 12.1719 21 12.1719C20.7854 12.1719 20.6113 11.9935 20.6113 11.7734C20.6113 11.5534 20.7854 11.375 21 11.375C21.2147 11.375 21.3888 11.5534 21.3888 11.7734Z" fill="#AA161D"/>
<path d="M19.3888 12.1719C19.3888 12.3919 19.2147 12.5703 19 12.5703C18.7854 12.5703 18.6113 12.3919 18.6113 12.1719C18.6113 11.9518 18.7854 11.7734 19 11.7734C19.2147 11.7734 19.3888 11.9518 19.3888 12.1719Z" fill="#AA161D"/>
<path d="M23.2652 10.7266C23.2652 11.0847 22.982 11.375 22.6326 11.375C22.2832 11.375 22 11.0847 22 10.7266C22 10.3684 22.2832 10.0781 22.6326 10.0781C22.982 10.0781 23.2652 10.3684 23.2652 10.7266Z" fill="#AA161D"/>
<path d="M24.0899 12.5703C24.0899 12.7904 23.9159 12.9687 23.7012 12.9687C23.4865 12.9687 23.3125 12.7904 23.3125 12.5703C23.3125 12.3503 23.4865 12.1719 23.7012 12.1719C23.9159 12.1719 24.0899 12.3503 24.0899 12.5703Z" fill="#AA161D"/>
<path d="M39.9998 32.4999C39.9998 39.9557 33.9557 45.9998 26.4999 45.9998C19.0441 45.9998 13 39.9557 13 32.4999C13 25.0441 19.0441 19 26.4999 19C33.9557 19 39.9998 25.0441 39.9998 32.4999Z" fill="#FFBB0D"/>
<path fill-rule="evenodd" clip-rule="evenodd" d="M40.9998 32.4999C40.9998 40.508 34.508 46.9998 26.4999 46.9998C18.4918 46.9998 12 40.508 12 32.4999C12 24.4918 18.4918 18 26.4999 18C34.508 18 40.9998 24.4918 40.9998 32.4999ZM26.4999 45.9998C33.9557 45.9998 39.9998 39.9557 39.9998 32.4999C39.9998 25.0441 33.9557 19 26.4999 19C19.0441 19 13 25.0441 13 32.4999C13 39.9557 19.0441 45.9998 26.4999 45.9998Z" fill="#E89B05"/>
<path fill-rule="evenodd" clip-rule="evenodd" d="M14 33C13.7238 33 13.5 32.7761 13.5 32.5C13.5 25.3203 19.3202 19.5001 26.4999 19.5001C26.776 19.5001 26.9999 19.7239 26.9999 20.0001C26.9999 20.2762 26.776 20.5001 26.4999 20.5001C19.8725 20.5001 14.5 25.8726 14.5 32.5C14.5 32.7761 14.2761 33 14 33Z" fill="#E8AA0A"/>
<path fill-rule="evenodd" clip-rule="evenodd" d="M38.9998 32C39.2759 32 39.4998 32.2239 39.4998 32.5C39.4998 39.6797 33.6795 45.4999 26.4999 45.4999C26.2237 45.4999 25.9999 45.2761 25.9999 44.9999C25.9999 44.7238 26.2237 44.4999 26.4999 44.4999C33.1273 44.4999 38.4998 39.1274 38.4998 32.5C38.4998 32.2239 38.7237 32 38.9998 32Z" fill="#E8AA0A"/>
<path d="M36.4999 32.4999C36.4999 38.0228 32.0228 42.4999 26.4999 42.4999C20.9771 42.4999 16.5 38.0228 16.5 32.4999C16.5 26.9771 20.9771 22.5 26.4999 22.5C32.0228 22.5 36.4999 26.9771 36.4999 32.4999Z" fill="#FFDD28"/>
<path fill-rule="evenodd" clip-rule="evenodd" d="M37.4999 32.4999C37.4999 38.575 32.575 43.4999 26.4999 43.4999C20.4248 43.4999 15.5 38.575 15.5 32.4999C15.5 26.4248 20.4248 21.5 26.4999 21.5C32.575 21.5 37.4999 26.4248 37.4999 32.4999ZM26.4999 42.4999C32.0227 42.4999 36.4999 38.0227 36.4999 32.4999C36.4999 26.9771 32.0227 22.5 26.4999 22.5C20.9771 22.5 16.5 26.9771 16.5 32.4999C16.5 38.0227 20.9771 42.4999 26.4999 42.4999Z" fill="#E89B05"/>
<path fill-rule="evenodd" clip-rule="evenodd" d="M26.4999 41C31.1943 41 34.9999 37.1944 34.9999 32.5001C34.9999 32.2239 35.2237 32.0001 35.4999 32.0001C35.776 32.0001 35.9999 32.2239 35.9999 32.5001C35.9999 37.7467 31.7466 42 26.4999 42C26.2238 42 25.9999 41.7761 25.9999 41.5C25.9999 41.2239 26.2238 41 26.4999 41Z" fill="#ECC704"/>
<path fill-rule="evenodd" clip-rule="evenodd" d="M26.4999 24C21.8056 24 18 27.8056 18 32.4999C18 32.7761 17.7761 32.9999 17.5 32.9999C17.2239 32.9999 17 32.7761 17 32.4999C17 27.2533 21.2533 23 26.4999 23C26.7761 23 26.9999 23.2239 26.9999 23.5C26.9999 23.7761 26.7761 24 26.4999 24Z" fill="#FFEF9C"/>
</g>
<defs>
<filter id="filter0_d_606_13104" x="0" y="0" width="54" height="54" filterUnits="userSpaceOnUse" color-interpolation-filters="sRGB">
<feFlood flood-opacity="0" result="BackgroundImageFix"/>
<feColorMatrix in="SourceAlpha" type="matrix" values="0 0 0 0 0 0 0 0 0 0 0 0 0 0 0 0 0 0 127 0" result="hardAlpha"/>
<feOffset dx="2" dy="2"/>
<feColorMatrix type="matrix" values="0 0 0 0 0.637788 0 0 0 0 0.545996 0 0 0 0 0.47948 0 0 0 0.2 0"/>
<feBlend mode="normal" in2="BackgroundImageFix" result="effect1_dropShadow_606_13104"/>
<feBlend mode="normal" in="SourceGraphic" in2="effect1_dropShadow_606_13104" result="shape"/>
</filter>
</defs>
</svg>
