<svg width="52" height="52" viewBox="0 0 52 52" fill="none" xmlns="http://www.w3.org/2000/svg">
<g filter="url(#filter0_d_606_13246)">
<path d="M20.2913 6.4855C20.1106 6.1843 19.7851 6 19.4338 6H9.76619C8.98889 6 8.50878 6.84797 8.9087 7.5145L19.7087 25.5145C19.8894 25.8157 20.2149 26 20.5662 26H30.2338C31.0111 26 31.4912 25.152 31.0913 24.4855L20.2913 6.4855Z" fill="#C52229"/>
<path fill-rule="evenodd" clip-rule="evenodd" d="M19.4338 5H9.76623C8.21164 5 7.25142 6.69594 8.05124 8.02899L18.8512 26.029C19.2127 26.6314 19.8637 27 20.5662 27H30.2338C31.7884 27 32.7487 25.3041 31.9488 23.971L21.1488 5.97101C20.7874 5.3686 20.1364 5 19.4338 5ZM19.4338 6C19.7851 6 20.1106 6.1843 20.2913 6.4855L31.0913 24.4855C31.4913 25.152 31.0111 26 30.2338 26H20.5662C20.215 26 19.8895 25.8157 19.7087 25.5145L8.90874 7.5145C8.50882 6.84797 8.98894 6 9.76623 6H19.4338Z" fill="#9B0F15"/>
<path d="M30.7087 6.4855C30.8894 6.1843 31.2149 6 31.5662 6H41.2338C42.0111 6 42.4912 6.84797 42.0913 7.5145L31.2913 25.5145C31.1106 25.8157 30.7851 26 30.4338 26H20.7662C19.9889 26 19.5088 25.152 19.9087 24.4855L30.7087 6.4855Z" fill="#F1333B"/>
<path fill-rule="evenodd" clip-rule="evenodd" d="M31.5662 5H41.2338C42.7884 5 43.7486 6.69594 42.9488 8.02899L32.1488 26.029C31.7874 26.6314 31.1364 27 30.4338 27H20.7662C19.2116 27 18.2514 25.3041 19.0512 23.971L29.8512 5.97101C30.2127 5.3686 30.8637 5 31.5662 5ZM31.5662 6C31.215 6 30.8894 6.1843 30.7087 6.4855L19.9087 24.4855C19.5088 25.152 19.9889 26 20.7662 26H30.4338C30.7851 26 31.1106 25.8157 31.2913 25.5145L42.0913 7.5145C42.4912 6.84797 42.0111 6 41.2338 6H31.5662Z" fill="#9B0F15"/>
<path fill-rule="evenodd" clip-rule="evenodd" d="M31.7511 6.56769C31.9899 6.70635 32.0711 7.01235 31.9324 7.25115L27.4324 15.0012C27.2938 15.24 26.9878 15.3211 26.749 15.1825C26.5101 15.0438 26.429 14.7378 26.5676 14.499L31.0676 6.74901C31.2063 6.51021 31.5123 6.42903 31.7511 6.56769Z" fill="#FE666D"/>
<path fill-rule="evenodd" clip-rule="evenodd" d="M9.74891 6.56769C9.51011 6.70635 9.42892 7.01235 9.56758 7.25115L14.0676 15.0012C14.2062 15.24 14.5122 15.3211 14.751 15.1825C14.9899 15.0438 15.071 14.7378 14.9324 14.499L10.4324 6.74901C10.2937 6.51021 9.98772 6.42903 9.74891 6.56769Z" fill="#DF3840"/>
<path d="M19.25 7.64062C19.25 7.99443 18.9702 8.28125 18.625 8.28125C18.2798 8.28125 18 7.99443 18 7.64062C18 7.28682 18.2798 7 18.625 7C18.9702 7 19.25 7.28682 19.25 7.64062Z" fill="#AA161D"/>
<path d="M17.0549 7.79688C17.0549 8.23698 16.7068 8.59375 16.2774 8.59375C15.8481 8.59375 15.5 8.23698 15.5 7.79688C15.5 7.35677 15.8481 7 16.2774 7C16.7068 7 17.0549 7.35677 17.0549 7.79688Z" fill="#AA161D"/>
<path d="M18.9999 10.0781C18.9999 10.5182 18.6519 10.875 18.2225 10.875C17.7931 10.875 17.4451 10.5182 17.4451 10.0781C17.4451 9.63802 17.7931 9.28125 18.2225 9.28125C18.6519 9.28125 18.9999 9.63802 18.9999 10.0781Z" fill="#AA161D"/>
<path d="M20.7774 8.99219C20.7774 9.21224 20.6034 9.39062 20.3887 9.39062C20.174 9.39062 20 9.21224 20 8.99219C20 8.77214 20.174 8.59375 20.3887 8.59375C20.6034 8.59375 20.7774 8.77214 20.7774 8.99219Z" fill="#AA161D"/>
<path d="M16.6661 9.67969C16.6661 9.89974 16.4921 10.0781 16.2774 10.0781C16.0627 10.0781 15.8887 9.89974 15.8887 9.67969C15.8887 9.45964 16.0627 9.28125 16.2774 9.28125C16.4921 9.28125 16.6661 9.45964 16.6661 9.67969Z" fill="#AA161D"/>
<path d="M14.5 7.24219C14.5 7.46224 14.3259 7.64062 14.1113 7.64062C13.8966 7.64062 13.7225 7.46224 13.7225 7.24219C13.7225 7.02214 13.8966 6.84375 14.1113 6.84375C14.3259 6.84375 14.5 7.02214 14.5 7.24219Z" fill="#AA161D"/>
<path d="M20.3887 11.7734C20.3887 11.9935 20.2147 12.1719 20 12.1719C19.7853 12.1719 19.6113 11.9935 19.6113 11.7734C19.6113 11.5534 19.7853 11.375 20 11.375C20.2147 11.375 20.3887 11.5534 20.3887 11.7734Z" fill="#AA161D"/>
<path d="M18.3887 12.1719C18.3887 12.3919 18.2147 12.5703 18 12.5703C17.7853 12.5703 17.6113 12.3919 17.6113 12.1719C17.6113 11.9518 17.7853 11.7734 18 11.7734C18.2147 11.7734 18.3887 11.9518 18.3887 12.1719Z" fill="#AA161D"/>
<path d="M22.2652 10.7266C22.2652 11.0847 21.982 11.375 21.6326 11.375C21.2832 11.375 21 11.0847 21 10.7266C21 10.3684 21.2832 10.0781 21.6326 10.0781C21.982 10.0781 22.2652 10.3684 22.2652 10.7266Z" fill="#AA161D"/>
<path d="M23.0899 12.5703C23.0899 12.7904 22.9159 12.9688 22.7012 12.9688C22.4865 12.9688 22.3125 12.7904 22.3125 12.5703C22.3125 12.3503 22.4865 12.1719 22.7012 12.1719C22.9159 12.1719 23.0899 12.3503 23.0899 12.5703Z" fill="#AA161D"/>
<path d="M39 32.5C39 39.9558 32.9558 46 25.5 46C18.0442 46 12 39.9558 12 32.5C12 25.0442 18.0442 19 25.5 19C32.9558 19 39 25.0442 39 32.5Z" fill="#FFBB0D"/>
<path fill-rule="evenodd" clip-rule="evenodd" d="M40 32.5C40 40.5081 33.5081 47 25.5 47C17.4919 47 11 40.5081 11 32.5C11 24.4919 17.4919 18 25.5 18C33.5081 18 40 24.4919 40 32.5ZM25.5 46C32.9558 46 39 39.9558 39 32.5C39 25.0442 32.9558 19 25.5 19C18.0442 19 12 25.0442 12 32.5C12 39.9558 18.0442 46 25.5 46Z" fill="#E89B05"/>
<path fill-rule="evenodd" clip-rule="evenodd" d="M13 33C12.7239 33 12.5 32.7761 12.5 32.5C12.5 25.3203 18.3203 19.5 25.5 19.5C25.7761 19.5 26 19.7239 26 20C26 20.2761 25.7761 20.5 25.5 20.5C18.8726 20.5 13.5 25.8726 13.5 32.5C13.5 32.7761 13.2761 33 13 33Z" fill="#E8AA0A"/>
<path fill-rule="evenodd" clip-rule="evenodd" d="M38 32C38.2761 32 38.5 32.2239 38.5 32.5C38.5 39.6797 32.6797 45.5 25.5 45.5C25.2239 45.5 25 45.2761 25 45C25 44.7239 25.2239 44.5 25.5 44.5C32.1274 44.5 37.5 39.1274 37.5 32.5C37.5 32.2239 37.7239 32 38 32Z" fill="#E8AA0A"/>
<path d="M35.5 32.5C35.5 38.0228 31.0228 42.5 25.5 42.5C19.9772 42.5 15.5 38.0228 15.5 32.5C15.5 26.9772 19.9772 22.5 25.5 22.5C31.0228 22.5 35.5 26.9772 35.5 32.5Z" fill="#FFDD28"/>
<path fill-rule="evenodd" clip-rule="evenodd" d="M36.5 32.5C36.5 38.5751 31.5751 43.5 25.5 43.5C19.4249 43.5 14.5 38.5751 14.5 32.5C14.5 26.4249 19.4249 21.5 25.5 21.5C31.5751 21.5 36.5 26.4249 36.5 32.5ZM25.5 42.5C31.0228 42.5 35.5 38.0228 35.5 32.5C35.5 26.9772 31.0228 22.5 25.5 22.5C19.9772 22.5 15.5 26.9772 15.5 32.5C15.5 38.0228 19.9772 42.5 25.5 42.5Z" fill="#E89B05"/>
<path fill-rule="evenodd" clip-rule="evenodd" d="M25.5 41C30.1944 41 34 37.1944 34 32.5C34 32.2239 34.2239 32 34.5 32C34.7761 32 35 32.2239 35 32.5C35 37.7467 30.7467 42 25.5 42C25.2239 42 25 41.7761 25 41.5C25 41.2239 25.2239 41 25.5 41Z" fill="#ECC704"/>
<path fill-rule="evenodd" clip-rule="evenodd" d="M25.5 24C20.8056 24 17 27.8056 17 32.5C17 32.7761 16.7761 33 16.5 33C16.2239 33 16 32.7761 16 32.5C16 27.2533 20.2533 23 25.5 23C25.7761 23 26 23.2239 26 23.5C26 23.7761 25.7761 24 25.5 24Z" fill="#FFEF9C"/>
<path d="M20 31.2L23.4375 30.5L24.4688 28.75L25.5 27L27.5625 30.5L31 31.2L28.25 34L28.9375 37.5L25.5 35.75L22.0625 37.5L22.75 34L20 31.2Z" fill="#FFEF9C"/>
<path fill-rule="evenodd" clip-rule="evenodd" d="M23.4375 30.5L25.5 27L27.5625 30.5L31 31.2L28.25 34L28.9375 37.5L25.5 35.75L22.0625 37.5L22.75 34L20 31.2L23.4375 30.5ZM21.6672 34.3246L19.2866 31.9007C19.0297 31.6392 18.9365 31.2581 19.0437 30.9076C19.1509 30.557 19.4413 30.2933 19.8005 30.2201L22.8019 29.6089L24.6385 26.4923C24.8183 26.1872 25.1459 26 25.5 26C25.8541 26 26.1818 26.1872 26.3616 26.4923L28.1981 29.6089L31.1996 30.2201C31.5587 30.2933 31.8491 30.557 31.9563 30.9076C32.0635 31.2581 31.9703 31.6392 31.7135 31.9007L29.3329 34.3246L29.9188 37.3073C29.9925 37.6827 29.8456 38.0673 29.5403 38.2979C29.235 38.5286 28.8248 38.5648 28.4838 38.3912L25.5 36.8721L22.5162 38.3912C22.1752 38.5648 21.7651 38.5286 21.4598 38.2979C21.1545 38.0673 21.0075 37.6827 21.0813 37.3073L21.6672 34.3246Z" fill="#E89B05"/>
</g>
<defs>
<filter id="filter0_d_606_13246" x="0" y="0" width="54" height="54" filterUnits="userSpaceOnUse" color-interpolation-filters="sRGB">
<feFlood flood-opacity="0" result="BackgroundImageFix"/>
<feColorMatrix in="SourceAlpha" type="matrix" values="0 0 0 0 0 0 0 0 0 0 0 0 0 0 0 0 0 0 127 0" result="hardAlpha"/>
<feOffset dx="2" dy="2"/>
<feColorMatrix type="matrix" values="0 0 0 0 0.637788 0 0 0 0 0.545996 0 0 0 0 0.47948 0 0 0 0.2 0"/>
<feBlend mode="normal" in2="BackgroundImageFix" result="effect1_dropShadow_606_13246"/>
<feBlend mode="normal" in="SourceGraphic" in2="effect1_dropShadow_606_13246" result="shape"/>
</filter>
</defs>
</svg>
