<svg width="52" height="30" viewBox="0 0 52 30" fill="none" xmlns="http://www.w3.org/2000/svg">
<path d="M43.9998 23.7778C43.9998 33.5962 36.0404 41.5556 26.2221 41.5556C16.4037 41.5556 8.44427 33.5962 8.44427 23.7778C8.44427 13.9594 16.4037 6 26.2221 6C36.0404 6 43.9998 13.9594 43.9998 23.7778Z" fill="#FFBB0D"/>
<path fill-rule="evenodd" clip-rule="evenodd" d="M45.3167 23.7782C45.3167 34.3239 36.7677 42.8729 26.222 42.8729C15.6763 42.8729 7.12738 34.3239 7.12738 23.7782C7.12738 13.2326 15.6763 4.68359 26.222 4.68359C36.7677 4.68359 45.3167 13.2326 45.3167 23.7782ZM26.222 41.556C36.0404 41.556 43.9998 33.5966 43.9998 23.7782C43.9998 13.9598 36.0404 6.00047 26.222 6.00047C16.4036 6.00047 8.44425 13.9598 8.44425 23.7782C8.44425 33.5966 16.4036 41.556 26.222 41.556Z" fill="#E89B05"/>
<path fill-rule="evenodd" clip-rule="evenodd" d="M9.76115 24.4375C9.39751 24.4375 9.10272 24.1427 9.10272 23.7791C9.10272 14.3243 16.7673 6.65972 26.2221 6.65972C26.5857 6.65972 26.8805 6.95451 26.8805 7.31816C26.8805 7.6818 26.5857 7.97659 26.2221 7.97659C17.4946 7.97659 10.4196 15.0516 10.4196 23.7791C10.4196 24.1427 10.1248 24.4375 9.76115 24.4375Z" fill="#E8AA0A"/>
<path fill-rule="evenodd" clip-rule="evenodd" d="M42.6829 23.1191C43.0466 23.1191 43.3414 23.4139 43.3414 23.7776C43.3414 33.2323 35.6768 40.8969 26.222 40.8969C25.8584 40.8969 25.5636 40.6021 25.5636 40.2385C25.5636 39.8748 25.8584 39.58 26.222 39.58C34.9495 39.58 42.0245 32.505 42.0245 23.7776C42.0245 23.4139 42.3193 23.1191 42.6829 23.1191Z" fill="#E8AA0A"/>
<path d="M39.3907 23.7781C39.3907 31.051 33.4949 36.9468 26.222 36.9468C18.9491 36.9468 13.0533 31.051 13.0533 23.7781C13.0533 16.5052 18.9491 10.6094 26.222 10.6094C33.4949 10.6094 39.3907 16.5052 39.3907 23.7781Z" fill="#FFDD28"/>
<path fill-rule="evenodd" clip-rule="evenodd" d="M40.7076 23.7786C40.7076 31.7787 34.2222 38.2642 26.222 38.2642C18.2219 38.2642 11.7365 31.7787 11.7365 23.7786C11.7365 15.7784 18.2219 9.29297 26.222 9.29297C34.2222 9.29297 40.7076 15.7784 40.7076 23.7786ZM26.222 36.9473C33.4949 36.9473 39.3908 31.0515 39.3908 23.7786C39.3908 16.5057 33.4949 10.6098 26.222 10.6098C18.9492 10.6098 13.0533 16.5057 13.0533 23.7786C13.0533 31.0515 18.9492 36.9473 26.222 36.9473Z" fill="#E89B05"/>
<path fill-rule="evenodd" clip-rule="evenodd" d="M26.222 34.9722C32.404 34.9722 37.4154 29.9607 37.4154 23.7788C37.4154 23.4151 37.7102 23.1203 38.0739 23.1203C38.4375 23.1203 38.7323 23.4151 38.7323 23.7788C38.7323 30.688 33.1313 36.2891 26.222 36.2891C25.8584 36.2891 25.5636 35.9943 25.5636 35.6306C25.5636 35.267 25.8584 34.9722 26.222 34.9722Z" fill="#ECC704"/>
<path fill-rule="evenodd" clip-rule="evenodd" d="M26.222 12.5845C20.0401 12.5845 15.0286 17.5959 15.0286 23.7779C15.0286 24.1415 14.7338 24.4363 14.3702 24.4363C14.0065 24.4363 13.7117 24.1415 13.7117 23.7779C13.7117 16.8686 19.3128 11.2676 26.222 11.2676C26.5857 11.2676 26.8805 11.5624 26.8805 11.926C26.8805 12.2897 26.5857 12.5845 26.222 12.5845Z" fill="#FFEF9C"/>
<path d="M27.6462 28.5508H25.6253V20.7609L23.2128 21.5092V19.8659L27.4294 18.3555H27.6462V28.5508Z" fill="#FFEF9C"/>
<path fill-rule="evenodd" clip-rule="evenodd" d="M28.8396 28.5508C28.8396 29.2099 28.3053 29.7443 27.6462 29.7443H25.6253C24.9662 29.7443 24.4319 29.2099 24.4319 28.5508V22.3806L23.5663 22.6491C23.2042 22.7614 22.8102 22.6949 22.5049 22.47C22.1996 22.245 22.0194 21.8884 22.0194 21.5092V19.8659C22.0194 19.362 22.336 18.9124 22.8104 18.7424L27.027 17.232C27.1561 17.1858 27.2922 17.1621 27.4294 17.1621H27.6462C28.3053 17.1621 28.8396 17.6964 28.8396 18.3555V28.5508ZM25.6253 20.761V28.5508H27.6462V18.3555H27.4294L23.2128 19.8659V21.5092L25.6253 20.761Z" fill="#E89B05"/>
</svg>
