<svg width="52" height="52" viewBox="0 0 52 52" fill="none" xmlns="http://www.w3.org/2000/svg">
<path d="M43.9998 23.7778C43.9998 33.5962 36.0404 41.5556 26.2221 41.5556C16.4037 41.5556 8.44427 33.5962 8.44427 23.7778C8.44427 13.9594 16.4037 6 26.2221 6C36.0404 6 43.9998 13.9594 43.9998 23.7778Z" fill="#FFBB0D"/>
<path fill-rule="evenodd" clip-rule="evenodd" d="M45.3167 23.7782C45.3167 34.3239 36.7677 42.8729 26.222 42.8729C15.6763 42.8729 7.12738 34.3239 7.12738 23.7782C7.12738 13.2326 15.6763 4.68359 26.222 4.68359C36.7677 4.68359 45.3167 13.2326 45.3167 23.7782ZM26.222 41.556C36.0404 41.556 43.9998 33.5966 43.9998 23.7782C43.9998 13.9598 36.0404 6.00047 26.222 6.00047C16.4036 6.00047 8.44425 13.9598 8.44425 23.7782C8.44425 33.5966 16.4036 41.556 26.222 41.556Z" fill="#E89B05"/>
<path fill-rule="evenodd" clip-rule="evenodd" d="M9.76115 24.4375C9.39751 24.4375 9.10272 24.1427 9.10272 23.7791C9.10272 14.3243 16.7673 6.65972 26.2221 6.65972C26.5857 6.65972 26.8805 6.95451 26.8805 7.31816C26.8805 7.6818 26.5857 7.97659 26.2221 7.97659C17.4946 7.97659 10.4196 15.0516 10.4196 23.7791C10.4196 24.1427 10.1248 24.4375 9.76115 24.4375Z" fill="#E8AA0A"/>
<path fill-rule="evenodd" clip-rule="evenodd" d="M42.6829 23.1191C43.0466 23.1191 43.3414 23.4139 43.3414 23.7776C43.3414 33.2323 35.6768 40.8969 26.222 40.8969C25.8584 40.8969 25.5636 40.6021 25.5636 40.2385C25.5636 39.8748 25.8584 39.58 26.222 39.58C34.9495 39.58 42.0245 32.505 42.0245 23.7776C42.0245 23.4139 42.3193 23.1191 42.6829 23.1191Z" fill="#E8AA0A"/>
<path d="M39.3907 23.7781C39.3907 31.051 33.4949 36.9468 26.222 36.9468C18.9491 36.9468 13.0533 31.051 13.0533 23.7781C13.0533 16.5052 18.9491 10.6094 26.222 10.6094C33.4949 10.6094 39.3907 16.5052 39.3907 23.7781Z" fill="#FFDD28"/>
<path fill-rule="evenodd" clip-rule="evenodd" d="M40.7076 23.7786C40.7076 31.7787 34.2222 38.2642 26.222 38.2642C18.2219 38.2642 11.7365 31.7787 11.7365 23.7786C11.7365 15.7784 18.2219 9.29297 26.222 9.29297C34.2222 9.29297 40.7076 15.7784 40.7076 23.7786ZM26.222 36.9473C33.4949 36.9473 39.3908 31.0515 39.3908 23.7786C39.3908 16.5057 33.4949 10.6098 26.222 10.6098C18.9492 10.6098 13.0533 16.5057 13.0533 23.7786C13.0533 31.0515 18.9492 36.9473 26.222 36.9473Z" fill="#E89B05"/>
<path fill-rule="evenodd" clip-rule="evenodd" d="M26.222 34.9722C32.404 34.9722 37.4154 29.9607 37.4154 23.7788C37.4154 23.4151 37.7102 23.1203 38.0739 23.1203C38.4375 23.1203 38.7323 23.4151 38.7323 23.7788C38.7323 30.688 33.1313 36.2891 26.222 36.2891C25.8584 36.2891 25.5636 35.9943 25.5636 35.6306C25.5636 35.267 25.8584 34.9722 26.222 34.9722Z" fill="#ECC704"/>
<path fill-rule="evenodd" clip-rule="evenodd" d="M26.222 12.5845C20.0401 12.5845 15.0286 17.5959 15.0286 23.7779C15.0286 24.1415 14.7338 24.4363 14.3702 24.4363C14.0065 24.4363 13.7117 24.1415 13.7117 23.7779C13.7117 16.8686 19.3128 11.2676 26.222 11.2676C26.5857 11.2676 26.8805 11.5624 26.8805 11.926C26.8805 12.2897 26.5857 12.5845 26.222 12.5845Z" fill="#FFEF9C"/>
<path d="M6.09793 41.3073L4.40195 37.9153C4.21725 37.5459 4.48586 37.1113 4.89885 37.1113L12.3333 37.1113C12.6401 37.1113 12.8888 37.3601 12.8888 37.6669L12.8888 45.4447C12.8888 45.7515 12.6401 46.0002 12.3333 46.0002L4.89885 46.0002C4.48585 46.0002 4.21725 45.5656 4.40195 45.1962L6.09793 41.8042C6.17614 41.6478 6.17614 41.4637 6.09793 41.3073Z" fill="#C52229"/>
<path d="M46.3464 41.3073L48.0424 37.9153C48.2271 37.5459 47.9585 37.1113 47.5455 37.1113L40.111 37.1113C39.8042 37.1113 39.5555 37.3601 39.5555 37.6669L39.5555 45.4447C39.5555 45.7515 39.8042 46.0002 40.111 46.0002L47.5455 46.0002C47.9585 46.0002 48.2271 45.5656 48.0424 45.1962L46.3464 41.8042C46.2682 41.6478 46.2682 41.4637 46.3464 41.3073Z" fill="#C52229"/>
<path fill-rule="evenodd" clip-rule="evenodd" d="M4.9799 41.5556L3.40814 38.412C2.85406 37.3039 3.65987 36 4.89885 36L12.3333 36C13.2537 36 13.9999 36.7462 13.9999 37.6667L13.9999 45.4444C13.9999 46.3649 13.2537 47.1111 12.3333 47.1111L4.89885 47.1111C3.65987 47.1111 2.85406 45.8072 3.40814 44.6991L4.9799 41.5556ZM5.10381 41.8034C5.10392 41.8036 5.10402 41.8038 5.10413 41.804L5.60104 41.5555L5.10413 41.804L5.10381 41.8034ZM47.4644 41.5556L49.0362 38.412C49.5903 37.3039 48.7844 36 47.5455 36L40.1111 36C39.1906 36 38.4444 36.7462 38.4444 37.6667L38.4444 45.4444C38.4444 46.3649 39.1906 47.1111 40.1111 47.1111L47.5455 47.1111C48.7844 47.1111 49.5903 45.8073 49.0362 44.6991L47.4644 41.5556ZM48.0424 37.9151L46.3464 41.3071C46.2682 41.4635 46.2682 41.6476 46.3464 41.804L48.0424 45.196C48.2271 45.5654 47.9585 46 47.5455 46L40.1111 46C39.8042 46 39.5555 45.7513 39.5555 45.4444L39.5555 37.6667C39.5555 37.3598 39.8042 37.1111 40.1111 37.1111L47.5455 37.1111C47.9585 37.1111 48.2271 37.5457 48.0424 37.9151ZM4.40195 37.9151L6.09793 41.3071C6.17614 41.4635 6.17614 41.6476 6.09793 41.804L4.40195 45.196C4.21725 45.5654 4.48585 46 4.89885 46L12.3333 46C12.6401 46 12.8888 45.7513 12.8888 45.4444L12.8888 37.6667C12.8888 37.3598 12.6401 37.1111 12.3333 37.1111L4.89885 37.1111C4.48586 37.1111 4.21725 37.5457 4.40195 37.9151Z" fill="#9B0F15"/>
<path fill-rule="evenodd" clip-rule="evenodd" d="M5.19658 37.6129C5.29831 37.4514 5.47577 37.3535 5.66658 37.3535H8.02769C8.33452 37.3535 8.58325 37.6022 8.58325 37.9091C8.58325 38.2159 8.33452 38.4646 8.02769 38.4646H6.5481L7.69554 40.8638C7.82792 41.1406 7.71085 41.4723 7.43406 41.6047C7.15726 41.7371 6.82555 41.62 6.69317 41.3432L5.16539 38.1488C5.08307 37.9766 5.09484 37.7743 5.19658 37.6129Z" fill="#DF3840"/>
<path d="M41.7777 43.222L41.7777 35.4442C41.7777 35.1374 41.529 34.8887 41.2222 34.8887L11.2222 34.8887C10.9153 34.8887 10.6666 35.1374 10.6666 35.4442L10.6666 43.222C10.6666 43.5288 10.9153 43.7776 11.2222 43.7776L41.2222 43.7776C41.529 43.7776 41.7777 43.5288 41.7777 43.222Z" fill="#F1333B"/>
<path fill-rule="evenodd" clip-rule="evenodd" d="M42.8888 35.444L42.8888 43.2218C42.8888 44.1423 42.1426 44.8885 41.2221 44.8885L11.2221 44.8885C10.3017 44.8885 9.55546 44.1423 9.55546 43.2218L9.55546 35.444C9.55546 34.5235 10.3017 33.7773 11.2221 33.7773L41.2221 33.7773C42.1426 33.7773 42.8888 34.5235 42.8888 35.444ZM41.7777 35.444L41.7777 43.2218C41.7777 43.5286 41.529 43.7773 41.2221 43.7773L11.2221 43.7773C10.9153 43.7773 10.6666 43.5286 10.6666 43.2218L10.6666 35.444C10.6666 35.1372 10.9153 34.8885 11.2221 34.8885L41.2221 34.8885C41.529 34.8885 41.7777 35.1372 41.7777 35.444Z" fill="#9B0F15"/>
<path d="M40.2429 39.5431C39.9283 39.5431 39.6733 39.2943 39.6733 38.9874C39.6733 38.6804 39.9283 38.4316 40.2429 38.4316C40.5575 38.4316 40.8125 38.6804 40.8125 38.9874C40.8125 39.2943 40.5575 39.5431 40.2429 39.5431Z" fill="#DB1B24"/>
<path d="M38.0756 39.322C37.6843 39.322 37.367 39.0125 37.367 38.6307C37.367 38.2489 37.6843 37.9395 38.0756 37.9395C38.4669 37.9395 38.7841 38.2489 38.7841 38.6307C38.7841 39.0125 38.4669 39.322 38.0756 39.322Z" fill="#DB1B24"/>
<path d="M39.0411 40.9022C38.8455 40.9022 38.6868 40.7475 38.6868 40.5566C38.6868 40.3657 38.8455 40.2109 39.0411 40.2109C39.2368 40.2109 39.3954 40.3657 39.3954 40.5566C39.3954 40.7475 39.2368 40.9022 39.0411 40.9022Z" fill="#DB1B24"/>
<path d="M38.4298 37.246C38.2342 37.246 38.0756 37.0912 38.0756 36.9003C38.0756 36.7094 38.2342 36.5547 38.4298 36.5547C38.6255 36.5547 38.7841 36.7094 38.7841 36.9003C38.7841 37.0912 38.6255 37.246 38.4298 37.246Z" fill="#DB1B24"/>
<path d="M36.5682 40.5565C36.3725 40.5565 36.2139 40.4018 36.2139 40.2109C36.2139 40.02 36.3725 39.8652 36.5682 39.8652C36.7638 39.8652 36.9224 40.02 36.9224 40.2109C36.9224 40.4018 36.7638 40.5565 36.5682 40.5565Z" fill="#DB1B24"/>
<path d="M36.2139 38.7772C36.0182 38.7772 35.8596 38.6225 35.8596 38.4316C35.8596 38.2407 36.0182 38.0859 36.2139 38.0859C36.4096 38.0859 36.5682 38.2407 36.5682 38.4316C36.5682 38.6225 36.4096 38.7772 36.2139 38.7772Z" fill="#DB1B24"/>
<path d="M33.7987 42.787C33.603 42.787 33.4444 42.6322 33.4444 42.4413C33.4444 42.2504 33.603 42.0957 33.7987 42.0957C33.9943 42.0957 34.153 42.2504 34.153 42.4413C34.153 42.6322 33.9943 42.787 33.7987 42.787Z" fill="#DB1B24"/>
<path d="M40.8473 41.4667C40.6516 41.4667 40.493 41.3119 40.493 41.121C40.493 40.9301 40.6516 40.7754 40.8473 40.7754C41.0429 40.7754 41.2015 40.9301 41.2015 41.121C41.2015 41.3119 41.0429 41.4667 40.8473 41.4667Z" fill="#DB1B24"/>
<path d="M37.499 42.2246C37.1806 42.2246 36.9224 41.9728 36.9224 41.6621C36.9224 41.3514 37.1806 41.0996 37.499 41.0996C37.8174 41.0996 38.0756 41.3514 38.0756 41.6621C38.0756 41.9728 37.8174 42.2246 37.499 42.2246Z" fill="#DB1B24"/>
<path d="M39.972 42.7871C39.6535 42.7871 39.3954 42.5353 39.3954 42.2246C39.3954 41.9139 39.6535 41.6621 39.972 41.6621C40.2904 41.6621 40.5485 41.9139 40.5485 42.2246C40.5485 42.5353 40.2904 42.7871 39.972 42.7871Z" fill="#DB1B24"/>
<path d="M34.9288 41.6816C34.6104 41.6816 34.3522 41.4298 34.3522 41.1191C34.3522 40.8085 34.6104 40.5566 34.9288 40.5566C35.2472 40.5566 35.5054 40.8085 35.5054 41.1191C35.5054 41.4298 35.2472 41.6816 34.9288 41.6816Z" fill="#DB1B24"/>
<path d="M35.8596 42.9569C35.6639 42.9569 35.5053 42.8021 35.5053 42.6113C35.5053 42.4204 35.6639 42.2656 35.8596 42.2656C36.0553 42.2656 36.2139 42.4204 36.2139 42.6113C36.2139 42.8021 36.0553 42.9569 35.8596 42.9569Z" fill="#DB1B24"/>
<path fill-rule="evenodd" clip-rule="evenodd" d="M11.0139 35.6864C11.0139 35.3796 11.2626 35.1309 11.5694 35.1309H32.4027C32.7096 35.1309 32.9583 35.3796 32.9583 35.6864C32.9583 35.9932 32.7096 36.242 32.4027 36.242H12.125V40.1309C12.125 40.4377 11.8762 40.6864 11.5694 40.6864C11.2626 40.6864 11.0139 40.4377 11.0139 40.1309V35.6864Z" fill="#FE666D"/>
</svg>
