<svg width="20" height="20" viewBox="0 0 20 20" fill="none" xmlns="http://www.w3.org/2000/svg">
<path d="M10.8333 17.5H3.1C2.76863 17.5 2.5 17.2314 2.5 16.9V3.1C2.5 2.76863 2.76863 2.5 3.1 2.5H16.9C17.2314 2.5 17.5 2.76863 17.5 3.1V10.8333" stroke="#1E648C" stroke-width="1.5" stroke-linecap="round" stroke-linejoin="round"/>
<path d="M2.5 13.333L8.33333 10.833L12.9167 12.9163" stroke="#1E648C" stroke-width="1.5" stroke-linecap="round" stroke-linejoin="round"/>
<path d="M13.3333 8.33333C12.4129 8.33333 11.6667 7.58714 11.6667 6.66667C11.6667 5.74619 12.4129 5 13.3333 5C14.2538 5 15 5.74619 15 6.66667C15 7.58714 14.2538 8.33333 13.3333 8.33333Z" stroke="#1E648C" stroke-width="1.5" stroke-linecap="round" stroke-linejoin="round"/>
<path d="M13.3333 15.833H15.8333M18.3333 15.833H15.8333M15.8333 15.833V13.333M15.8333 15.833V18.333" stroke="#1E648C" stroke-width="1.5" stroke-linecap="round" stroke-linejoin="round"/>
</svg>
