<svg width="24" height="24" viewBox="0 0 24 24" fill="none" xmlns="http://www.w3.org/2000/svg">
<g clip-path="url(#clip0_518_4897)">
<path d="M10.5899 0C7.41867 0 4.84082 2.57785 4.84082 5.74854C4.84082 8.91923 7.41867 11.4976 10.5899 11.4976C13.7612 11.4976 16.3385 8.9198 16.3385 5.74854C16.3385 2.57728 13.7606 0 10.5899 0ZM10.5899 9.68226C8.42338 9.68226 6.65621 7.91509 6.65621 5.74854C6.65621 3.58199 8.42338 1.81539 10.5899 1.81539C12.7565 1.81539 14.5231 3.58256 14.5231 5.74854C14.5231 7.91453 12.7559 9.68226 10.5899 9.68226Z" fill="#2D2D2D"/>
<path d="M6.95918 15.1289H11.8C12.2964 15.1289 12.7077 14.7176 12.7077 14.2212C12.7077 13.7248 12.2964 13.3135 11.8 13.3135H6.95918C3.12247 13.3135 0 16.4359 0 20.2721C0 22.1119 1.48862 23.6005 3.3284 23.6005H11.7637C12.2601 23.6005 12.6714 23.1892 12.6714 22.6928C12.6714 22.1964 12.2601 21.7851 11.7637 21.7851H3.3284C2.49332 21.7851 1.81539 21.1072 1.81539 20.2721C1.8222 17.4338 4.12093 15.1351 6.95918 15.1283V15.1289Z" fill="#2D2D2D"/>
<path d="M17.7414 14.0479C14.9974 14.0479 12.7656 16.2802 12.7656 19.0237C12.7656 21.7672 14.9974 24.0002 17.7414 24.0002C20.4855 24.0002 22.7173 21.7678 22.7173 19.0237C22.7173 16.2796 20.4849 14.0479 17.7414 14.0479ZM17.7414 15.5229C18.4165 15.5229 19.0474 15.7152 19.5829 16.0476L17.8515 17.779L16.5682 19.0617L14.7648 20.8652C14.4329 20.3302 14.2406 19.6988 14.2406 19.0237C14.2406 17.0937 15.8109 15.5229 17.7414 15.5229ZM17.7414 22.5251C17.1435 22.5251 16.5796 22.3742 16.0866 22.1087L17.8515 20.3444L19.1716 19.0243L20.8259 17.3694C21.0914 17.8624 21.2423 18.4258 21.2423 19.0237C21.2423 20.9543 19.672 22.5251 17.7414 22.5251Z" fill="#2D2D2D"/>
</g>
<defs>
<clipPath id="clip0_518_4897">
<rect width="22.7173" height="24" fill="white"/>
</clipPath>
</defs>
</svg>
