<svg width="64" height="64" viewBox="0 0 56 64" fill="none" xmlns="http://www.w3.org/2000/svg">
<g clip-path="url(#clip0_455_2142)">
<path d="M40.1605 27.6141C38.0296 25.8224 35.1578 25.0946 32.3806 25.7301C29.878 26.301 27.2518 25.7749 25.1604 24.2825L24.581 23.8685C23.982 23.4414 23.1425 23.7354 22.9389 24.4433L22.1388 27.2331C21.884 28.1203 21.9247 29.0564 22.1993 29.9371C22.7169 31.5943 22.2558 33.4058 21.0051 34.6095L20.5321 35.0643C19.9515 35.622 19.5298 36.3247 19.3064 37.1012L14.6099 53.477C14.0765 55.3346 15.1459 57.2726 16.9956 57.8079L22.3214 59.3465L27.6473 60.885C29.4983 61.419 31.4295 60.3471 31.9629 58.4895L36.6594 42.1138C36.8814 41.3385 36.8959 40.5172 36.7015 39.7354L36.5425 39.0973C36.1195 37.3952 36.7015 35.6009 38.0415 34.475C38.7377 33.8896 39.2448 33.1078 39.4958 32.2311L40.4994 28.7308C40.6164 28.3234 40.4837 27.8857 40.1605 27.6141Z" fill="#1E648C"/>
<path d="M45.1802 4.56117L44.2856 7.67917C44.1345 8.20521 43.6602 8.52953 43.2267 8.40428L37.4161 6.72597L31.6055 5.04766C31.172 4.92109 30.9421 4.39374 31.0932 3.86902L31.9878 0.75102C32.1389 0.224982 32.6131 -0.0993423 33.0467 0.0259049L38.8573 1.70422L44.6679 3.38253C45.1014 3.50778 45.3313 4.03513 45.1802 4.56117Z" fill="#4B4B4B"/>
<path d="M43.5381 15.739C42.2427 14.3388 41.7632 12.3322 42.2887 10.4983L42.4963 9.77323C42.5659 9.52801 42.4253 9.27224 42.181 9.20237C42.139 9.1905 42.0956 9.18391 42.0536 9.18391C41.8539 9.18391 41.67 9.31575 41.6122 9.51878L41.4046 10.2439C40.7898 12.3889 41.3494 14.7343 42.8668 16.3665C44.4629 18.0844 45.0528 20.5537 44.4051 22.8121L41.9458 31.3869C41.6489 32.4258 41.0473 33.3527 40.2209 34.0461C38.3751 35.5966 37.5606 38.1134 38.1452 40.4562L38.3502 41.2762C38.5814 42.203 38.5643 43.176 38.3016 44.0949L33.9282 59.3408C33.1964 61.8906 30.5348 63.3685 27.9941 62.6341L15.7804 59.1061C14.5494 58.7502 13.53 57.9354 12.9099 56.8108C12.2898 55.6862 12.144 54.3863 12.4987 53.1509L16.8721 37.9051C17.1349 36.9875 17.638 36.1529 18.3238 35.4911L18.9307 34.9057C20.6675 33.2327 21.3099 30.6671 20.5689 28.3691C20.2352 27.3368 20.2182 26.2399 20.5164 25.1958L22.9757 16.621C23.6233 14.3639 25.431 12.5867 27.6932 11.9829C29.8425 11.4094 31.5595 9.72181 32.1744 7.57811L32.3819 6.85299C32.4516 6.60777 32.311 6.352 32.0666 6.28213C32.0246 6.27026 31.9812 6.26367 31.9392 6.26367C31.7395 6.26367 31.5556 6.39551 31.4978 6.59854L31.2902 7.32366C30.7634 9.15754 29.2947 10.6025 27.4568 11.0929C24.8832 11.7785 22.8272 13.7996 22.0915 16.3678L19.6322 24.9426C19.2815 26.1635 19.3038 27.4463 19.6927 28.6552C20.3259 30.6196 19.7767 32.8121 18.2922 34.2426L17.6853 34.8279C16.8813 35.6018 16.2954 36.5761 15.9867 37.6519L11.6133 52.8978C11.1916 54.3705 11.365 55.9196 12.1033 57.2591C12.8416 58.5985 14.0568 59.5715 15.5242 59.9947L27.7379 63.5227C28.2647 63.6744 28.7941 63.7469 29.317 63.7469C31.7999 63.7469 34.0911 62.1081 34.811 59.5979L39.1844 44.352C39.4918 43.2788 39.5128 42.1371 39.2422 41.0534L39.0373 40.2333C38.538 38.2307 39.2343 36.0804 40.8108 34.7554C41.7777 33.9433 42.4805 32.8596 42.8287 31.644L45.288 23.0692C46.025 20.501 45.3536 17.6928 43.5381 15.739Z" fill="#525252"/>
<path d="M51.6766 8.09402L49.4603 10.7097C49.3697 10.8165 49.2396 10.8719 49.1096 10.8719C49.0032 10.8719 48.8981 10.8363 48.8114 10.7624C48.6182 10.5963 48.5946 10.3063 48.7588 10.1125L50.9751 7.49679C51.1393 7.30167 51.4296 7.27926 51.6227 7.44406H51.624C51.8172 7.60885 51.8408 7.90022 51.6766 8.09402Z" fill="#32A5E8"/>
<path d="M55.2184 20.2773C55.2066 20.5238 55.0029 20.7163 54.7599 20.7163H54.7363L51.3193 20.5462C51.0657 20.533 50.87 20.3168 50.8831 20.0624C50.8962 19.8079 51.1143 19.6115 51.3652 19.6247L54.7822 19.7947C55.0345 19.8066 55.2302 20.0228 55.2184 20.2773Z" fill="#32A5E8"/>
<path d="M7.61035 61.5661L5.08275 63.8799C4.99473 63.9603 4.88306 63.9999 4.77271 63.9999C4.64265 63.9999 4.51916 63.9445 4.43246 63.8482C4.26167 63.661 4.27481 63.3697 4.46267 63.1983L6.99028 60.8845C7.17814 60.7118 7.46847 60.7263 7.64057 60.9148C7.81135 61.102 7.79822 61.3947 7.61035 61.5661Z" fill="#32A5E8"/>
<path d="M5.06961 51.1254C5.07092 51.3799 4.86467 51.5882 4.61112 51.5895C4.58353 51.5895 4.55726 51.5869 4.52967 51.5816L1.16128 50.9791C0.911675 50.9343 0.744832 50.6943 0.789499 50.4438C0.834165 50.1933 1.07326 50.0259 1.32287 50.0707L4.69126 50.6732C4.90934 50.7128 5.0683 50.9026 5.06961 51.1254Z" fill="#32A5E8"/>
</g>
<defs>
<clipPath id="clip0_455_2142">
<rect width="54.4368" height="64" fill="white" transform="translate(0.781616)"/>
</clipPath>
</defs>
</svg>
