<svg width="17" height="16" viewBox="0 0 17 16" fill="none" xmlns="http://www.w3.org/2000/svg">
<g clip-path="url(#clip0_1351_9174)">
<path d="M5.53332 4.66797H3.46666C3.30097 4.66797 3.16666 4.80228 3.16666 4.96797V11.0346C3.16666 11.2003 3.30097 11.3346 3.46666 11.3346H5.53332C5.69901 11.3346 5.83332 11.2003 5.83332 11.0346V4.96797C5.83332 4.80228 5.69901 4.66797 5.53332 4.66797Z" stroke="#174C6B" stroke-linecap="round" stroke-linejoin="round"/>
<path d="M13.5333 4.66797H11.4667C11.301 4.66797 11.1667 4.80228 11.1667 4.96797V11.0346C11.1667 11.2003 11.301 11.3346 11.4667 11.3346H13.5333C13.699 11.3346 13.8333 11.2003 13.8333 11.0346V4.96797C13.8333 4.80228 13.699 4.66797 13.5333 4.66797Z" stroke="#174C6B" stroke-linecap="round" stroke-linejoin="round"/>
<path d="M1.16666 9.7V6.3C1.16666 6.13431 1.30097 6 1.46666 6H2.86666C3.03234 6 3.16666 6.13431 3.16666 6.3V9.7C3.16666 9.86569 3.03234 10 2.86666 10H1.46666C1.30097 10 1.16666 9.86569 1.16666 9.7Z" stroke="#174C6B" stroke-linecap="round" stroke-linejoin="round"/>
<path d="M15.8333 9.7V6.3C15.8333 6.13431 15.699 6 15.5333 6H14.1333C13.9677 6 13.8333 6.13431 13.8333 6.3V9.7C13.8333 9.86569 13.9677 10 14.1333 10H15.5333C15.699 10 15.8333 9.86569 15.8333 9.7Z" stroke="#174C6B" stroke-linecap="round" stroke-linejoin="round"/>
<path d="M5.83334 8H11.1667" stroke="#174C6B" stroke-linecap="round" stroke-linejoin="round"/>
</g>
<defs>
<clipPath id="clip0_1351_9174">
<rect width="16" height="16" fill="white" transform="translate(0.5)"/>
</clipPath>
</defs>
</svg>
