<svg width="32" height="32" viewBox="0 0 32 32" fill="none" xmlns="http://www.w3.org/2000/svg">
<path fill-rule="evenodd" clip-rule="evenodd" d="M6.4 8.00078C4.63269 8.00078 3.2 9.43347 3.2 11.2008V24.0008C3.2 25.7681 4.63269 27.2008 6.4 27.2008H25.6C27.3673 27.2008 28.8 25.7681 28.8 24.0008V11.2008C28.8 9.43347 27.3673 8.00078 25.6 8.00078H23.0627C22.6384 8.00078 22.2314 7.83221 21.9314 7.53215L20.1373 5.73804C19.5371 5.13792 18.7232 4.80078 17.8745 4.80078H14.1255C13.2768 4.80078 12.4629 5.13792 11.8627 5.73804L10.0686 7.53215C9.76857 7.83221 9.3616 8.00078 8.93725 8.00078H6.4ZM16 22.4008C18.651 22.4008 20.8 20.2517 20.8 17.6008C20.8 14.9498 18.651 12.8008 16 12.8008C13.349 12.8008 11.2 14.9498 11.2 17.6008C11.2 20.2517 13.349 22.4008 16 22.4008Z" fill="white"/>
</svg>
