<svg width="16" height="16" viewBox="0 0 16 16" fill="none" xmlns="http://www.w3.org/2000/svg">
<path d="M13.0666 2.62665C12.2601 1.81971 11.2724 1.21719 10.1858 0.869302C9.09921 0.521411 7.94523 0.438217 6.81998 0.626654C5.69106 0.81428 4.62355 1.26978 3.70694 1.95497C2.79033 2.64017 2.05131 3.53509 1.55183 4.56475C1.05234 5.5944 0.806945 6.72878 0.836203 7.87282C0.86546 9.01685 1.16852 10.1372 1.71998 11.14C1.73533 11.1808 1.73533 11.2258 1.71998 11.2667L1.03331 13.6333C0.988411 13.7776 0.983937 13.9315 1.02038 14.0782C1.05682 14.2249 1.13278 14.3588 1.24 14.4653C1.34722 14.5719 1.4816 14.647 1.62852 14.6825C1.77544 14.7179 1.92928 14.7125 2.07331 14.6667L4.42665 13.96C4.46978 13.9447 4.51684 13.9447 4.55998 13.96C5.61079 14.5501 6.79484 14.8621 7.99998 14.8667C8.51741 14.8656 9.03338 14.812 9.53998 14.7067C10.7967 14.4298 11.9557 13.82 12.8957 12.9412C13.8357 12.0623 14.5219 10.9468 14.8826 9.71159C15.2432 8.47634 15.2649 7.16682 14.9454 5.9203C14.6259 4.67378 13.977 3.53615 13.0666 2.62665ZM5.33331 8.83332C5.1685 8.83332 5.00738 8.78445 4.87034 8.69288C4.7333 8.60131 4.62649 8.47116 4.56341 8.31889C4.50034 8.16662 4.48384 7.99906 4.51599 7.83741C4.54815 7.67576 4.62752 7.52728 4.74406 7.41073C4.8606 7.29419 5.00909 7.21482 5.17074 7.18267C5.33239 7.15051 5.49995 7.16702 5.65222 7.23009C5.80449 7.29316 5.93464 7.39997 6.02621 7.53701C6.11777 7.67405 6.16665 7.83517 6.16665 7.99999C6.16665 8.221 6.07885 8.43296 5.92257 8.58924C5.76629 8.74552 5.55433 8.83332 5.33331 8.83332ZM7.99998 8.83332C7.83516 8.83332 7.67405 8.78445 7.53701 8.69288C7.39996 8.60131 7.29315 8.47116 7.23008 8.31889C7.16701 8.16662 7.15051 7.99906 7.18266 7.83741C7.21481 7.67576 7.29418 7.52728 7.41073 7.41073C7.52727 7.29419 7.67576 7.21482 7.83741 7.18267C7.99906 7.15051 8.16661 7.16702 8.31888 7.23009C8.47116 7.29316 8.60131 7.39997 8.69287 7.53701C8.78444 7.67405 8.83331 7.83517 8.83331 7.99999C8.83331 8.221 8.74552 8.43296 8.58924 8.58924C8.43296 8.74552 8.22099 8.83332 7.99998 8.83332ZM10.6666 8.83332C10.5018 8.83332 10.3407 8.78445 10.2037 8.69288C10.0666 8.60131 9.95982 8.47116 9.89675 8.31889C9.83368 8.16662 9.81717 7.99906 9.84933 7.83741C9.88148 7.67576 9.96085 7.52728 10.0774 7.41073C10.1939 7.29419 10.3424 7.21482 10.5041 7.18267C10.6657 7.15051 10.8333 7.16702 10.9856 7.23009C11.1378 7.29316 11.268 7.39997 11.3595 7.53701C11.4511 7.67405 11.5 7.83517 11.5 7.99999C11.5 8.221 11.4122 8.43296 11.2559 8.58924C11.0996 8.74552 10.8877 8.83332 10.6666 8.83332Z" fill="#222222"/>
</svg>
