<svg width="16" height="16" viewBox="0 0 16 16" fill="none" xmlns="http://www.w3.org/2000/svg">
<g clip-path="url(#clip0_512_3392)">
<path fill-rule="evenodd" clip-rule="evenodd" d="M12.36 3.63817C9.95467 1.23151 6.04601 1.23151 3.64001 3.63817C1.75667 5.52217 1.34667 8.31417 2.40467 10.5988C2.40821 10.6065 2.41154 10.6143 2.41467 10.6222C2.47601 10.7755 2.47467 10.9482 2.47201 11.0462C2.46664 11.1826 2.45551 11.3187 2.43867 11.4542C2.42201 11.5902 2.40201 11.7408 2.38201 11.8928L2.37734 11.9248C2.35534 12.0902 2.33267 12.2595 2.31267 12.4295C2.27267 12.7735 2.24801 13.0955 2.25934 13.3528C2.26467 13.4808 2.27867 13.5762 2.29667 13.6415C2.30267 13.6635 2.30801 13.6782 2.31201 13.6882C2.32722 13.6943 2.34281 13.6994 2.35867 13.7035C2.42401 13.7215 2.51867 13.7355 2.64734 13.7408C2.90467 13.7522 3.22667 13.7275 3.57067 13.6875C3.74067 13.6675 3.91067 13.6448 4.07534 13.6228L4.10734 13.6188C4.25934 13.5982 4.40934 13.5782 4.54601 13.5622C4.69001 13.5455 4.83134 13.5315 4.95401 13.5288C5.05201 13.5255 5.22467 13.5242 5.37734 13.5855L5.40067 13.5955C7.68601 14.6528 10.4773 14.2442 12.3607 12.3602C14.7667 9.95351 14.7707 6.04884 12.36 3.63817ZM13.0673 2.93151C10.2713 0.133508 5.72934 0.133508 2.93334 2.93151C0.75734 5.10684 0.276006 8.32351 1.47267 10.9648V11.0182C1.46771 11.1252 1.45837 11.2319 1.44467 11.3382C1.43001 11.4655 1.41134 11.6075 1.39001 11.7628L1.38601 11.7915C1.36401 11.9562 1.34067 12.1342 1.31934 12.3142C1.27867 12.6688 1.24534 13.0555 1.26001 13.3962C1.26734 13.5668 1.28734 13.7428 1.33201 13.9062C1.37601 14.0662 1.45401 14.2502 1.60201 14.3982C1.75067 14.5468 1.93534 14.6242 2.09401 14.6682C2.25734 14.7128 2.43401 14.7328 2.60401 14.7402C2.94401 14.7548 3.33067 14.7215 3.68601 14.6802C3.86601 14.6602 4.04334 14.6362 4.20867 14.6135L4.23734 14.6102C4.39267 14.5895 4.53401 14.5702 4.66134 14.5555C4.79801 14.5395 4.90401 14.5302 4.98201 14.5282H5.03467C7.67667 15.7235 10.892 15.2435 13.068 13.0668C15.8633 10.2708 15.8687 5.73284 13.0673 2.93151Z" fill="#4B4B4B"/>
</g>
<defs>
<clipPath id="clip0_512_3392">
<rect width="16" height="16" fill="white"/>
</clipPath>
</defs>
</svg>
