<svg width="24" height="25" viewBox="0 0 24 25" fill="none" xmlns="http://www.w3.org/2000/svg">
<path d="M12 11C13.6569 11 15 9.65685 15 8C15 6.34315 13.6569 5 12 5C10.3431 5 9 6.34315 9 8C9 9.65685 10.3431 11 12 11Z" stroke="#8B8B8B" stroke-width="1.5"/>
<path d="M7.5 16.625C8.94975 16.625 10.125 15.4497 10.125 14C10.125 12.5503 8.94975 11.375 7.5 11.375C6.05025 11.375 4.875 12.5503 4.875 14C4.875 15.4497 6.05025 16.625 7.5 16.625Z" stroke="#8B8B8B" stroke-width="1.5"/>
<path d="M16.5 16.625C17.9497 16.625 19.125 15.4497 19.125 14C19.125 12.5503 17.9497 11.375 16.5 11.375C15.0503 11.375 13.875 12.5503 13.875 14C13.875 15.4497 15.0503 16.625 16.5 16.625Z" stroke="#8B8B8B" stroke-width="1.5"/>
<path d="M5.25 19.25C6.75 17 9.75 17 11.625 19.25" stroke="#8B8B8B" stroke-width="1.5" stroke-linecap="round"/>
<path d="M12.375 19.25C14.625 17 18.375 17 20.25 19.25" stroke="#8B8B8B" stroke-width="1.5" stroke-linecap="round"/>
</svg>
