<svg width="16" height="16" viewBox="0 0 16 16" fill="none" xmlns="http://www.w3.org/2000/svg">
<g clip-path="url(#clip0_1351_9334)">
<path d="M8.00004 15.9985C6.68371 15.9988 5.38763 15.6743 4.22666 15.054C3.06569 14.4336 2.07567 13.5364 1.34431 12.4419C0.612952 11.3475 0.162846 10.0895 0.0338715 8.77951C-0.0951027 7.46951 0.101038 6.14792 0.604913 4.93185C1.10879 3.71577 1.90484 2.64275 2.92254 1.80787C3.94023 0.97299 5.14815 0.402021 6.43926 0.145557C7.73036 -0.110908 9.0648 -0.0449495 10.3243 0.337587C11.5838 0.720124 12.7296 1.40743 13.66 2.3386C14.78 3.45744 15.5429 4.88346 15.8521 6.43612C16.1613 7.98877 16.0029 9.59826 15.3969 11.0608C14.7909 12.5234 13.7645 13.7733 12.4478 14.6522C11.1311 15.5312 9.58318 15.9997 8.00004 15.9985ZM8.00004 0.905386C6.35864 0.906265 4.76832 1.47625 3.50005 2.51822C2.23179 3.5602 1.36405 5.00969 1.04469 6.61973C0.72533 8.22976 0.974109 9.90072 1.74864 11.3479C2.52316 12.7951 3.77552 13.9289 5.29231 14.5562C6.80911 15.1836 8.4965 15.2656 10.067 14.7882C11.6374 14.3109 12.9938 13.3038 13.905 11.9386C14.8162 10.5733 15.2258 8.93434 15.064 7.30092C14.9023 5.66751 14.1791 4.14072 13.0179 2.98069C12.3595 2.32119 11.5773 1.79832 10.7161 1.44217C9.85497 1.08601 8.93192 0.903589 8.00004 0.905386Z" fill="#174C6B"/>
<path d="M10.895 12.6124H5.10504C4.77972 12.612 4.46784 12.4826 4.23781 12.2525C4.00777 12.0225 3.87835 11.7106 3.87793 11.3853V6.64333C3.87793 6.45625 4.02854 6.46893 4.21562 6.46893H11.7844C11.9715 6.46893 12.1221 6.45625 12.1221 6.64333V11.3853C12.1217 11.7106 11.9922 12.0225 11.7622 12.2525C11.5322 12.4826 11.2203 12.612 10.895 12.6124ZM4.55332 6.97943V11.3853C4.55374 11.5318 4.61222 11.6721 4.71594 11.7755C4.81966 11.8789 4.96015 11.937 5.10663 11.937H10.8966C11.043 11.937 11.1835 11.8789 11.2872 11.7755C11.391 11.6721 11.4494 11.5318 11.4499 11.3853V6.97468L4.55332 6.97943Z" fill="#174C6B"/>
<path d="M11.7844 6.97341H4.21564C4.15279 6.97326 4.09122 6.95558 4.03788 6.92235C3.98453 6.88912 3.94151 6.84166 3.91367 6.78532C3.88583 6.72897 3.87426 6.66597 3.88027 6.60341C3.88628 6.54085 3.90964 6.48121 3.9477 6.43119L5.70117 4.15295C5.76617 4.07051 5.85971 4.18466 5.9691 4.18466H10.2497C10.3623 4.18466 10.4669 4.07685 10.5288 4.17039L12.0666 6.45339C12.1004 6.50422 12.1198 6.56327 12.1228 6.62425C12.1257 6.68523 12.1121 6.74587 12.0833 6.79971C12.0545 6.85355 12.0116 6.89858 11.9593 6.93C11.9069 6.96142 11.847 6.97807 11.786 6.97816L11.7844 6.97341ZM4.7737 6.40741H11.2739L10.0658 4.69041H6.13874L4.7737 6.40741Z" fill="#174C6B"/>
<path d="M7.50851 12.5429C7.32302 12.5429 7.3357 12.3923 7.3357 12.2052V6.74349L5.85968 4.54769C5.82322 4.49061 5.63931 4.42561 5.63931 4.35902V3.76449C5.63973 3.53462 5.73123 3.31428 5.89377 3.15174C6.05632 2.98919 6.27666 2.89769 6.50653 2.89727H9.72334C9.95334 2.89727 10.1739 2.98864 10.3366 3.15128C10.4992 3.31391 10.5906 3.53449 10.5906 3.76449V4.29402C10.5906 4.38358 10.555 4.46948 10.4916 4.53281C10.4283 4.59614 10.3424 4.63172 10.2529 4.63172C10.1633 4.63172 10.0774 4.59614 10.0141 4.53281C9.95075 4.46948 9.91517 4.38358 9.91517 4.29402V3.76449C9.91517 3.7393 9.91021 3.71436 9.90057 3.69108C9.89093 3.66781 9.8768 3.64666 9.85898 3.62885C9.84117 3.61103 9.82002 3.5969 9.79675 3.58726C9.77347 3.57762 9.74853 3.57266 9.72334 3.57266H6.50177C6.47658 3.57266 6.45164 3.57762 6.42836 3.58726C6.40509 3.5969 6.38394 3.61103 6.36613 3.62885C6.34831 3.64666 6.33418 3.66781 6.32454 3.69108C6.3149 3.71436 6.30994 3.7393 6.30994 3.76449V4.25597L7.78913 6.45336C7.82623 6.50929 7.84608 6.5749 7.84621 6.64202V12.2052C7.84621 12.2948 7.81063 12.3807 7.7473 12.444C7.68397 12.5074 7.59807 12.5429 7.50851 12.5429ZM4.59135 11.7375C4.54654 11.6711 4.50831 11.6005 4.4772 11.5267C4.42964 11.4141 4.38683 11.2984 4.34402 11.1842L2.4225 13.1058C2.37684 13.1516 2.34577 13.21 2.33321 13.2735C2.32064 13.337 2.32714 13.4028 2.35188 13.4627C2.37662 13.5225 2.41851 13.5736 2.47226 13.6097C2.52601 13.6458 2.58924 13.6652 2.65397 13.6654C2.7413 13.6648 2.82495 13.6301 2.88703 13.5687L4.64525 11.8105C4.63257 11.7867 4.61513 11.7629 4.59135 11.7375ZM13.5711 2.4264C13.5407 2.39587 13.5044 2.37164 13.4646 2.35511C13.4247 2.33859 13.382 2.33008 13.3389 2.33008C13.2957 2.33008 13.253 2.33859 13.2132 2.35511C13.1733 2.37164 13.1371 2.39587 13.1066 2.4264L10.6873 4.84733C10.8016 4.98404 10.9029 5.13106 10.9901 5.28649C11.0123 5.32613 11.0361 5.36418 11.0583 5.40223L13.5711 2.89093C13.6017 2.86045 13.6259 2.82425 13.6424 2.78439C13.659 2.74454 13.6675 2.70181 13.6675 2.65867C13.6675 2.61552 13.659 2.5728 13.6424 2.53294C13.6259 2.49309 13.6017 2.45689 13.5711 2.4264Z" fill="#174C6B"/>
</g>
<defs>
<clipPath id="clip0_1351_9334">
<rect width="16" height="16" fill="white"/>
</clipPath>
</defs>
</svg>
