<svg width="25" height="24" viewBox="0 0 25 24" fill="none" xmlns="http://www.w3.org/2000/svg">
<path fill-rule="evenodd" clip-rule="evenodd" d="M5.61701 7.75176C5.81537 7.73858 6.01085 7.80471 6.16048 7.93559C6.31012 8.06647 6.40167 8.25141 6.41501 8.44976L6.87501 15.3498C6.96501 16.6968 7.02901 17.6348 7.16901 18.3398C7.30601 19.0248 7.49601 19.3868 7.76901 19.6428C8.04301 19.8988 8.41701 20.0648 9.10901 20.1548C9.82301 20.2478 10.763 20.2498 12.113 20.2498H12.887C14.237 20.2498 15.177 20.2478 15.891 20.1548C16.583 20.0648 16.957 19.8988 17.231 19.6428C17.504 19.3868 17.694 19.0248 17.831 18.3398C17.971 17.6348 18.035 16.6968 18.125 15.3498L18.585 8.44976C18.5916 8.35146 18.6174 8.25542 18.6611 8.16712C18.7048 8.07883 18.7655 7.99999 18.8396 7.93513C18.9137 7.87027 18.9999 7.82065 19.0933 7.7891C19.1866 7.75755 19.2852 7.74469 19.3835 7.75126C19.4818 7.75782 19.5778 7.78369 19.6661 7.82737C19.7544 7.87105 19.8333 7.9317 19.8981 8.00584C19.963 8.07999 20.0126 8.16619 20.0442 8.25951C20.0757 8.35284 20.0886 8.45146 20.082 8.54976L19.618 15.5018C19.533 16.7838 19.464 17.8198 19.302 18.6338C19.133 19.4788 18.847 20.1848 18.255 20.7378C17.664 21.2918 16.94 21.5308 16.085 21.6418C15.264 21.7498 14.225 21.7498 12.94 21.7498H12.06C10.775 21.7498 9.73701 21.7498 8.91501 21.6428C8.06001 21.5308 7.33601 21.2918 6.74501 20.7378C6.15301 20.1848 5.86701 19.4778 5.69801 18.6338C5.53601 17.8198 5.46801 16.7838 5.38201 15.5018L4.91801 8.54976C4.91149 8.45146 4.9244 8.35284 4.95601 8.25953C4.98761 8.16622 5.03729 8.08006 5.1022 8.00595C5.16711 7.93185 5.24598 7.87126 5.33432 7.82764C5.42265 7.78403 5.51871 7.75824 5.61701 7.75176ZM10.855 2.24976H10.809C10.593 2.24976 10.404 2.24976 10.226 2.27776C9.8793 2.3333 9.5504 2.46922 9.26562 2.67464C8.98085 2.88006 8.74811 3.14928 8.58601 3.46076C8.50201 3.62076 8.44301 3.79976 8.37501 4.00476L8.36001 4.04876L8.26301 4.33876C8.18643 4.61092 8.01985 4.84908 7.79046 5.01436C7.56107 5.17964 7.28242 5.26227 7.00001 5.24876H4.00001C3.80097 5.24876 3.61007 5.32783 3.46933 5.46857C3.32858 5.60932 3.24951 5.80021 3.24951 5.99926C3.24951 6.1983 3.32858 6.38919 3.46933 6.52994C3.61007 6.67069 3.80097 6.74976 4.00001 6.74976H21C21.1989 6.74976 21.3897 6.67074 21.5303 6.53009C21.671 6.38943 21.75 6.19867 21.75 5.99976C21.75 5.80084 21.671 5.61008 21.5303 5.46943C21.3897 5.32877 21.1989 5.24976 21 5.24976H17.91C17.6429 5.24335 17.3849 5.15153 17.1738 4.98776C16.9627 4.82399 16.8096 4.59688 16.737 4.33976L16.64 4.04876L16.626 4.00476C16.557 3.79976 16.498 3.62076 16.415 3.46076C16.2528 3.14916 16.0199 2.87986 15.735 2.67443C15.45 2.469 15.1209 2.33315 14.774 2.27776C14.5807 2.25322 14.3858 2.24386 14.191 2.24976H14.145H10.855ZM9.64501 4.93476C9.60501 5.04376 9.56001 5.14876 9.50801 5.24976H15.492C15.4402 5.14768 15.3948 5.04247 15.356 4.93476L15.316 4.82176L15.217 4.52176C15.1804 4.39642 15.136 4.27351 15.084 4.15376C15.03 4.04976 14.9524 3.95987 14.8574 3.89127C14.7624 3.82268 14.6527 3.77729 14.537 3.75876C14.4067 3.74752 14.2757 3.74452 14.145 3.74976H10.855C10.567 3.74976 10.507 3.75176 10.463 3.75976C10.3474 3.77819 10.2377 3.82342 10.1427 3.89184C10.0478 3.96025 9.97012 4.04995 9.91601 4.15376C9.89601 4.19376 9.87401 4.24876 9.78301 4.52276L9.68301 4.82276L9.64501 4.93476Z" fill="#174C6B"/>
</svg>
