<svg width="16" height="16" viewBox="0 0 16 16" fill="none" xmlns="http://www.w3.org/2000/svg">
<path d="M9.71429 10.002L10.2857 11.232C10.2857 11.232 12.8571 11.7781 12.8571 13.077C12.8571 13.9996 11.7143 13.9996 11.7143 13.9996H8.66667L7.16667 13.1662" stroke="#174C6B" stroke-linecap="round" stroke-linejoin="round"/>
<path d="M6.28571 10.002L5.71428 11.232C5.71428 11.232 3.14285 11.7781 3.14285 13.077C3.14285 13.9996 4.28571 13.9996 4.28571 13.9996H5.66666L7.16666 13.1662L9 11.9996" stroke="#174C6B" stroke-linecap="round" stroke-linejoin="round"/>
<path d="M2 10.6174C2 10.6174 3.42857 10.3099 4.28571 10.0024C5.14286 5.6973 7.71429 6.0048 8 6.0048C8.28571 6.0048 10.8571 5.6973 11.7143 10.0024C12.5714 10.3099 14 10.6174 14 10.6174" stroke="#174C6B" stroke-linecap="round" stroke-linejoin="round"/>
<path d="M8.00001 4.66667C8.73638 4.66667 9.33334 4.06971 9.33334 3.33333C9.33334 2.59695 8.73638 2 8.00001 2C7.26363 2 6.66667 2.59695 6.66667 3.33333C6.66667 4.06971 7.26363 4.66667 8.00001 4.66667Z" stroke="#174C6B" stroke-linecap="round" stroke-linejoin="round"/>
</svg>
