<svg width="24" height="24" viewBox="0 0 24 24" fill="none" xmlns="http://www.w3.org/2000/svg">
<path d="M20 22H4C3.46973 21.9995 2.96133 21.7886 2.58637 21.4136C2.21141 21.0387 2.00053 20.5303 2 20V4C2.00053 3.46973 2.21141 2.96133 2.58637 2.58637C2.96133 2.21141 3.46973 2.00053 4 2H20C20.5303 2.00053 21.0387 2.21141 21.4136 2.58637C21.7886 2.96133 21.9995 3.46973 22 4V20C21.9995 20.5303 21.7886 21.0387 21.4136 21.4136C21.0387 21.7886 20.5303 21.9995 20 22ZM4 4V20H20.001L20 4H4Z" fill="#8B8B8B"/>
<path d="M15 22H9C8.73478 22 8.48043 21.8946 8.29289 21.7071C8.10536 21.5196 8 21.2652 8 21V3C8 2.73478 8.10536 2.48043 8.29289 2.29289C8.48043 2.10536 8.73478 2 9 2H15C15.2652 2 15.5196 2.10536 15.7071 2.29289C15.8946 2.48043 16 2.73478 16 3V21C16 21.2652 15.8946 21.5196 15.7071 21.7071C15.5196 21.8946 15.2652 22 15 22ZM10 20H14V4H10V20Z" fill="#8B8B8B"/>
<path d="M21 16H3C2.73478 16 2.48043 15.8946 2.29289 15.7071C2.10536 15.5196 2 15.2652 2 15V9C2 8.73478 2.10536 8.48043 2.29289 8.29289C2.48043 8.10536 2.73478 8 3 8H21C21.2652 8 21.5196 8.10536 21.7071 8.29289C21.8946 8.48043 22 8.73478 22 9V15C22 15.2652 21.8946 15.5196 21.7071 15.7071C21.5196 15.8946 21.2652 16 21 16ZM4 14H20V10H4V14Z" fill="#8B8B8B"/>
</svg>
