<svg width="24" height="24" viewBox="0 0 24 24" fill="none" xmlns="http://www.w3.org/2000/svg">
<path d="M10 2H14V8H10V2ZM16 10H22V14H16V10ZM2 10H8V14H2V10ZM10 16H14V22H10V16ZM10 10H14V14H10V10ZM16 8H22V4C21.9992 3.46981 21.7882 2.96156 21.4133 2.58666C21.0384 2.21176 20.5302 2.00079 20 2H16V8ZM16 16V22H20C20.5302 21.9992 21.0384 21.7882 21.4133 21.4133C21.7882 21.0384 21.9992 20.5302 22 20V16H16ZM8 16H2V20C2.00079 20.5302 2.21176 21.0384 2.58666 21.4133C2.96156 21.7882 3.46981 21.9992 4 22H8V16ZM8 8V2H4C3.46981 2.00079 2.96156 2.21176 2.58666 2.58666C2.21176 2.96156 2.00079 3.46981 2 4V8H8Z" fill="#174C6B"/>
</svg>
