<svg width="19" height="24" viewBox="0 0 19 24" fill="none" xmlns="http://www.w3.org/2000/svg">
<g clip-path="url(#clip0_39_16191)">
<path d="M3.03021 10.4719C2.88844 10.2792 2.79321 10.0562 2.75197 9.82054C2.71072 9.58486 2.72459 9.34283 2.79247 9.1134L4.26983 4.19736C4.60699 3.07347 5.2975 2.08822 6.23889 1.38779C7.18028 0.687361 8.32239 0.309082 9.49577 0.309082C10.6691 0.309082 11.8113 0.687361 12.7527 1.38779C13.694 2.08822 14.3846 3.07347 14.7217 4.19736L16.2076 9.10491C16.2663 9.29779 16.2863 9.50039 16.2664 9.70103C16.2465 9.90167 16.187 10.0964 16.0916 10.274C15.9961 10.4515 15.8664 10.6085 15.71 10.7357C15.5535 10.8629 15.3735 10.9579 15.1802 11.0153C15.037 11.0586 14.8883 11.0814 14.7387 11.0832H4.26134C4.02264 11.0845 3.78696 11.0299 3.57316 10.9238C3.35937 10.8176 3.17342 10.6629 3.03021 10.4719Z" fill="#4B4B4B"/>
<path d="M18.5034 22.1552C18.5034 22.5627 18.3415 22.9536 18.0533 23.2418C17.7651 23.53 17.3742 23.692 16.9666 23.692H2.03679C1.62921 23.692 1.23832 23.53 0.950113 23.2418C0.661908 22.9536 0.5 22.5627 0.5 22.1552C0.5 17.1882 4.53302 13.1382 9.5 13.1382C14.467 13.1382 18.5034 17.1882 18.5034 22.1552Z" fill="#4B4B4B"/>
</g>
<defs>
<clipPath id="clip0_39_16191">
<rect width="18" height="23.3856" fill="white" transform="translate(0.5 0.307129)"/>
</clipPath>
</defs>
</svg>
