<svg width="25" height="24" viewBox="0 0 25 24" fill="none" xmlns="http://www.w3.org/2000/svg">
<g clip-path="url(#clip0_512_4221)">
<g clip-path="url(#clip1_512_4221)">
<path d="M7.33627 3C4.9208 3 2.95533 5.08359 2.95533 7.64484C2.95533 10.2061 4.92033 12.2897 7.3358 12.2897C9.75127 12.2897 11.7167 10.2061 11.7167 7.64484C11.7167 5.08359 9.75174 3 7.33627 3ZM17.2958 3.66469H17.2658C16.2519 3.67313 15.305 4.10109 14.5996 4.86984C13.9063 5.625 13.5294 6.62156 13.5383 7.67531C13.5472 8.72906 13.9405 9.71906 14.646 10.463C15.357 11.2125 16.2992 11.6241 17.3014 11.6241H17.3319C18.3458 11.6156 19.2927 11.1877 19.9981 10.4189C20.6914 9.66375 21.0683 8.66719 21.0594 7.61344C21.0411 5.42953 19.356 3.66422 17.2958 3.66422V3.66469ZM17.4805 12.3853H17.1167C15.6285 12.3853 14.2541 12.8827 13.1506 13.7194C12.92 13.8942 12.9106 14.2383 13.1286 14.4291C13.2711 14.5538 13.4089 14.6831 13.543 14.8167C14.3202 15.5939 14.9305 16.4995 15.3571 17.5083C15.6678 18.2423 15.8708 19.0087 15.9641 19.7958C16.0021 20.1173 16.2749 20.3597 16.5988 20.3597H23.2171C23.6797 20.3597 24.0552 19.9842 24.0552 19.5216V18.9595C24.0552 15.3347 21.1058 12.3853 17.4805 12.3853ZM14.6028 20.3597C14.4702 18.2227 13.3869 16.343 11.7702 15.1383C10.5941 14.2617 9.13533 13.7428 7.55518 13.7428H7.11736C3.21689 13.7428 0.0551758 16.9045 0.0551758 20.805C0.0551758 21.2677 0.430645 21.6431 0.893301 21.6431H13.7788C14.2414 21.6431 14.6169 21.2677 14.6169 20.805C14.6169 20.6555 14.6122 20.5069 14.6028 20.3597Z" fill="#174C6B"/>
</g>
</g>
<defs>
<clipPath id="clip0_512_4221">
<rect width="24" height="24" fill="white" transform="translate(0.0551758)"/>
</clipPath>
<clipPath id="clip1_512_4221">
<rect width="24" height="18.6431" fill="white" transform="translate(0.0551758 3)"/>
</clipPath>
</defs>
</svg>
