<svg width="25" height="20" viewBox="0 0 25 20" fill="none" xmlns="http://www.w3.org/2000/svg">
<g clip-path="url(#clip0_510_3248)">
<path d="M7.81955 0.597656C5.46549 0.597656 3.54971 2.62781 3.54971 5.12297C3.54971 7.61812 5.46502 9.64875 7.81955 9.64875C10.1741 9.64875 12.0889 7.61906 12.0889 5.12297C12.0889 2.62687 10.1741 0.597656 7.81955 0.597656ZM7.81955 8.2425C6.24033 8.2425 4.95596 6.84281 4.95596 5.12297C4.95596 3.40313 6.2408 2.00391 7.81955 2.00391C9.3983 2.00391 10.6827 3.40313 10.6827 5.12297C10.6827 6.84328 9.39783 8.2425 7.81955 8.2425ZM17.4496 1.24219C15.4274 1.25906 13.7956 3.01359 13.8135 5.15344C13.8219 6.18094 14.2058 7.14609 14.8935 7.87125C15.5872 8.6025 16.5064 9.00422 17.4842 9.00422H17.5138C19.536 8.98734 21.1672 7.23281 21.1499 5.09297C21.132 2.95312 19.4708 1.22625 17.4496 1.24219ZM17.5021 7.59797C16.9067 7.60219 16.3428 7.35609 15.9135 6.90328C15.4714 6.43734 15.2249 5.81156 15.2192 5.14125C15.208 3.77672 16.2139 2.65828 17.4608 2.64797H17.4781C18.7175 2.64797 19.7319 3.74578 19.7431 5.10375C19.7544 6.46875 18.7485 7.58719 17.5016 7.5975L17.5021 7.59797ZM24.0552 16.3317C24.0552 12.7772 21.2553 9.82031 17.7027 9.70266C15.6486 9.63469 13.7933 10.515 12.5427 11.9395C11.233 10.9327 9.59518 10.3336 7.81955 10.3336C3.53799 10.3336 0.0551758 13.8169 0.0551758 18.098C0.0551758 18.818 0.63877 19.402 1.35924 19.402H14.2794C14.9994 19.402 15.5835 18.8184 15.5835 18.098C15.5835 17.8884 15.575 17.6808 15.5586 17.4755H22.911C23.5428 17.4755 24.0552 16.9631 24.0552 16.3312V16.3317ZM1.95971 17.9963C1.68268 17.9963 1.46424 17.7577 1.49096 17.4816C1.80174 14.2641 4.52143 11.7398 7.81955 11.7398C9.29377 11.7398 10.6517 12.2442 11.7317 13.0889C12.1199 13.3936 12.4719 13.7414 12.7813 14.1262C13.2472 14.7066 13.6077 15.3647 13.8463 16.0697C14 16.5253 14.1013 16.9969 14.1477 17.4759L14.1486 17.4844C14.1753 17.7586 13.9602 17.9958 13.6846 17.9958H1.95971V17.9963ZM15.3144 16.0697C14.99 14.8716 14.3849 13.7878 13.5753 12.893C14.5236 11.7984 15.9228 11.1052 17.481 11.1052C20.0778 11.1052 22.2336 13.0308 22.5955 15.5287C22.6367 15.8138 22.4178 16.0697 22.13 16.0697H15.3139H15.3144Z" fill="#8B8B8B"/>
</g>
<defs>
<clipPath id="clip0_510_3248">
<rect width="24" height="18.8044" fill="white" transform="translate(0.0551758 0.597656)"/>
</clipPath>
</defs>
</svg>
