<svg width="64" height="64" viewBox="0 0 64 64" fill="none" xmlns="http://www.w3.org/2000/svg">
<path d="M60 23.9999H59.279C59.6924 22.7236 59.9072 21.3914 59.916 20.0499C59.916 16.1999 58.41 13.0069 55.783 11.2869C54.6293 10.5595 53.315 10.1257 51.9549 10.0236C50.5948 9.92141 49.2304 10.154 47.981 10.7009C47.8832 9.15807 47.2019 7.71027 46.0755 6.65145C44.9491 5.59263 43.4619 5.00216 41.916 4.99992C41.6508 4.99992 41.3964 5.10527 41.2089 5.29281C41.0214 5.48035 40.916 5.7347 40.916 5.99992C40.916 6.26513 41.0214 6.51949 41.2089 6.70702C41.3964 6.89456 41.6508 6.99992 41.916 6.99992C42.9281 7.00311 43.9027 7.3828 44.6502 8.06507C45.3977 8.74734 45.8646 9.68336 45.96 10.6909C43.8521 9.8197 41.4849 9.8197 39.377 10.6909C37.5864 11.4974 36.137 12.9086 35.283 14.6769C35.188 14.5599 35.095 14.4369 34.999 14.3299C33.4756 12.5895 32.6452 10.3498 32.666 8.03692V7.66692C32.6462 6.17711 32.0405 4.75502 30.98 3.70849C29.9194 2.66197 28.4894 2.0752 26.9995 2.0752C25.5096 2.0752 24.0796 2.66197 23.019 3.70849C21.9585 4.75502 21.3528 6.17711 21.333 7.66692V8.03692C21.354 10.3496 20.5241 12.5894 19.001 14.3299C18.793 14.5633 18.595 14.8049 18.407 15.0549C16.8864 14.2924 15.1956 13.9326 13.4962 14.0098C11.7969 14.087 10.1457 14.5987 8.7005 15.496C7.25529 16.3933 6.06432 17.6463 5.24139 19.1351C4.41845 20.6239 3.99104 22.2988 4 23.9999C3.02768 23.9987 2.08835 24.3524 1.35831 24.9946C0.628266 25.6368 0.157713 26.5234 0.0349665 27.488C-0.0877797 28.4525 0.145721 29.4287 0.691642 30.2333C1.23756 31.0379 2.05837 31.6156 3 31.8579V39.9999C3.00692 44.3314 4.66632 48.4971 7.63963 51.647C10.6129 54.7968 14.6761 56.6935 19 56.9499V59.9999C19.0005 60.5302 19.2114 61.0386 19.5864 61.4136C19.9613 61.7885 20.4697 61.9994 21 61.9999H43C43.5303 61.9994 44.0387 61.7885 44.4136 61.4136C44.7886 61.0386 44.9995 60.5302 45 59.9999V56.9499C49.3239 56.6935 53.3871 54.7968 56.3604 51.647C59.3337 48.4971 60.9931 44.3314 61 39.9999V31.8579C61.9416 31.6156 62.7624 31.0379 63.3084 30.2333C63.8543 29.4287 64.0878 28.4525 63.965 27.488C63.8423 26.5234 63.3717 25.6368 62.6417 24.9946C61.9116 24.3524 60.9723 23.9987 60 23.9999ZM40.175 12.5259C41.0273 12.1814 41.9413 12.0155 42.8603 12.0384C43.7793 12.0613 44.6839 12.2725 45.518 12.6589C45.9872 12.8575 46.4919 12.9587 47.0014 12.9563C47.511 12.9539 48.0147 12.848 48.482 12.6449C49.4594 12.1707 50.5406 11.951 51.6256 12.0063C52.7105 12.0615 53.7639 12.3899 54.688 12.9609C56.74 14.3039 57.916 16.8879 57.916 20.0509C57.8961 21.402 57.6375 22.7389 57.152 23.9999H44.926C45.077 22.9048 44.9968 21.7902 44.6906 20.7279C44.3844 19.6657 43.8591 18.6793 43.1484 17.8325C42.4378 16.9857 41.5576 16.2972 40.5645 15.8114C39.5715 15.3256 38.4877 15.0533 37.383 15.0119C38.0376 13.9173 39.012 13.0496 40.175 12.5259ZM37 16.9929C38.5907 16.9948 40.1158 17.6275 41.2406 18.7523C42.3654 19.8771 42.9981 21.4022 43 22.9929C42.9968 23.3307 42.9647 23.6676 42.904 23.9999H33.153C32.7827 22.9516 32.1292 22.0264 31.265 21.3269C31.6206 20.0797 32.3725 18.9821 33.4072 18.2002C34.4419 17.4183 35.7031 16.9945 37 16.9929ZM24.115 23.9039C24.4664 23.3204 24.9628 22.8377 25.5559 22.5028C26.1491 22.168 26.8188 21.9923 27.5 21.9929C28.5605 21.9942 29.5771 22.4161 30.327 23.166C31.0768 23.9158 31.4987 24.9325 31.5 25.9929C31.494 26.35 31.4392 26.7047 31.337 27.0469C29.8521 27.2047 28.4821 27.9194 27.503 29.0469C26.6826 28.1116 25.5915 27.4546 24.381 27.1669C24.6044 26.0761 24.5121 24.9442 24.115 23.9039ZM27 32.9999C27 33.791 26.7654 34.5644 26.3259 35.2222C25.8864 35.88 25.2616 36.3927 24.5307 36.6954C23.7998 36.9982 22.9956 37.0774 22.2196 36.9231C21.4437 36.7687 20.731 36.3878 20.1716 35.8283C19.6122 35.2689 19.2312 34.5562 19.0769 33.7803C18.9225 33.0044 19.0017 32.2001 19.3045 31.4692C19.6072 30.7383 20.1199 30.1136 20.7777 29.674C21.4355 29.2345 22.2089 28.9999 23 28.9999C24.0605 29.0012 25.0771 29.4231 25.827 30.173C26.5768 30.9228 26.9987 31.9395 27 32.9999ZM22.342 27.0379C20.8541 27.2035 19.4822 27.9207 18.497 29.0479C17.5176 27.9196 16.1468 27.2045 14.661 27.0469C14.5601 26.7068 14.506 26.3546 14.5 25.9999C14.5 24.9391 14.9214 23.9216 15.6716 23.1715C16.4217 22.4213 17.4391 21.9999 18.5 21.9999C19.5609 21.9999 20.5783 22.4213 21.3284 23.1715C22.0786 23.9216 22.5 24.9391 22.5 25.9999C22.4942 26.3514 22.4411 26.7006 22.342 27.0379ZM17.384 30.9079C16.8725 32.2553 16.8725 33.7435 17.384 35.0909C17.0325 35.6739 16.5361 36.1561 15.9432 36.4906C15.3502 36.8251 14.6808 37.0006 14 36.9999C12.9391 36.9999 11.9217 36.5785 11.1716 35.8283C10.4214 35.0782 10 34.0608 10 32.9999C10 31.9391 10.4214 30.9216 11.1716 30.1715C11.9217 29.4213 12.9391 28.9999 14 28.9999C14.6808 28.9993 15.3502 29.1747 15.9432 29.5092C16.5361 29.8437 17.0325 30.3249 17.384 30.9079ZM14.661 38.9529C16.1467 38.7956 17.5174 38.0809 18.497 36.9529C19.3174 37.8883 20.4085 38.5453 21.619 38.8329C21.3962 39.9221 21.4881 41.0521 21.884 42.0909C21.5339 42.6717 21.0401 43.1525 20.4502 43.4868C19.8603 43.8212 19.1941 43.9979 18.516 43.9999C18.49 43.9979 18.464 43.9939 18.446 43.9939H18.439C17.3899 43.9777 16.3891 43.5499 15.6523 42.8029C14.9155 42.0558 14.5017 41.0492 14.5 39.9999C14.5056 39.6453 14.5595 39.2931 14.66 38.9529H14.661ZM19.161 45.9529C20.6467 45.7956 22.0174 45.0809 22.997 43.9529C23.9822 45.0802 25.3541 45.7973 26.842 45.9629C26.941 46.2999 26.9941 46.6487 27 46.9999C27 48.0608 26.5786 49.0782 25.8284 49.8283C25.0783 50.5785 24.0609 50.9999 23 50.9999C21.9391 50.9999 20.9217 50.5785 20.1716 49.8283C19.4214 49.0782 19 48.0608 19 46.9999C19.0056 46.6453 19.0605 46.2931 19.161 45.9529ZM23.5 39.9999C23.5058 39.6484 23.5589 39.2992 23.658 38.9619C25.1459 38.7963 26.5178 38.0792 27.503 36.9519C28.4824 38.0803 29.8532 38.7953 31.339 38.9529C31.4399 39.293 31.494 39.6452 31.5 39.9999C31.4983 41.049 31.0846 42.0555 30.348 42.8025C29.6115 43.5495 28.611 43.9774 27.562 43.9939L27.554 43.9929L27.487 43.9989C26.4289 43.9944 25.4156 43.5713 24.6685 42.822C23.9214 42.0726 23.5013 41.058 23.5 39.9999ZM28.617 35.0909C29.1283 33.7438 29.1283 32.256 28.617 30.9089C28.9684 30.326 29.4646 29.8439 30.0574 29.5094C30.6502 29.175 31.3194 28.9994 32 28.9999C33.0609 28.9999 34.0783 29.4213 34.8284 30.1715C35.5786 30.9216 36 31.9391 36 32.9999C36 34.0608 35.5786 35.0782 34.8284 35.8283C34.0783 36.5785 33.0609 36.9999 32 36.9999C31.3192 37.0006 30.6498 36.8251 30.0568 36.4906C29.4639 36.1561 28.9675 35.6739 28.616 35.0909H28.617ZM20.494 15.6599C22.3443 13.5537 23.3551 10.8404 23.334 8.03692V7.66692C23.3499 6.70499 23.7432 5.78783 24.429 5.11319C25.1149 4.43855 26.0384 4.06047 27.0005 4.06047C27.9626 4.06047 28.8861 4.43855 29.572 5.11319C30.2578 5.78783 30.6511 6.70499 30.667 7.66692V8.03692C30.6456 10.8407 31.6565 13.5544 33.507 15.6609C33.533 15.6909 33.559 15.7259 33.585 15.7569C32.6298 16.2086 31.7738 16.8454 31.0666 17.6304C30.3594 18.4154 29.815 19.333 29.465 20.3299C28.3398 19.9338 27.1215 19.8854 25.9685 20.1911C24.8155 20.4968 23.7811 21.1424 23 22.0439C22.4389 21.4022 21.7471 20.8879 20.971 20.5354C20.1949 20.1828 19.3524 20.0003 18.5 19.9999C18.423 19.9999 18.348 20.0089 18.272 20.0109C18.638 18.3979 19.4019 16.9021 20.494 15.6599ZM14 15.9999C15.1582 16.0036 16.3016 16.2606 17.35 16.7529C16.7506 17.9225 16.3446 19.1815 16.148 20.4809C15.3856 20.8088 14.6992 21.2906 14.1317 21.8962C13.5642 22.5017 13.1278 23.2179 12.85 23.9999H6C6.00265 21.879 6.84635 19.8457 8.34607 18.346C9.84579 16.8463 11.8791 16.0026 14 15.9999ZM2 27.9999C2.00106 27.4698 2.21211 26.9617 2.58695 26.5869C2.9618 26.212 3.46989 26.001 4 25.9999H12.5C12.5008 26.3919 12.5407 26.7828 12.619 27.1669C11.8254 27.3562 11.0787 27.7049 10.4242 28.192C9.76972 28.679 9.22119 29.2941 8.812 29.9999H4C3.46973 29.9994 2.96133 29.7885 2.58637 29.4136C2.21141 29.0386 2.00053 28.5302 2 27.9999ZM43 59.9999H21V56.9999H43V59.9999ZM59 39.9999C58.9955 43.9768 57.4137 47.7895 54.6016 50.6016C51.7896 53.4136 47.9769 54.9954 44 54.9999H20C16.0231 54.9954 12.2104 53.4136 9.39837 50.6016C6.5863 47.7895 5.0045 43.9768 5 39.9999V31.9999H8.09C7.82496 33.5023 8.14715 35.0492 8.99002 36.3208C9.83288 37.5925 11.132 38.4918 12.619 38.8329C12.5407 39.217 12.5008 39.6079 12.5 39.9999C12.5024 41.3498 12.9595 42.6595 13.7975 43.7178C14.6355 44.7761 15.8056 45.5212 17.119 45.8329C17.0407 46.217 17.0008 46.6079 17 46.9999C17 48.5912 17.6321 50.1173 18.7574 51.2426C19.8826 52.3678 21.4087 52.9999 23 52.9999C24.5913 52.9999 26.1174 52.3678 27.2426 51.2426C28.3679 50.1173 29 48.5912 29 46.9999C28.9992 46.6079 28.9593 46.217 28.881 45.8329C30.1944 45.5212 31.3645 44.7761 32.2025 43.7178C33.0405 42.6595 33.4976 41.3498 33.5 39.9999C33.4992 39.6079 33.4593 39.217 33.381 38.8329C34.868 38.4918 36.1671 37.5925 37.01 36.3208C37.8528 35.0492 38.175 33.5023 37.91 31.9999H59V39.9999ZM61.413 29.4129C61.228 29.5993 61.0078 29.7472 60.7653 29.848C60.5228 29.9487 60.2626 30.0004 60 29.9999H37.188C36.7788 29.2939 36.2302 28.6785 35.5755 28.1913C34.9208 27.704 34.1738 27.3552 33.38 27.1659C33.4585 26.7822 33.4987 26.3916 33.5 25.9999H60C60.3956 25.9994 60.7825 26.1164 61.1116 26.3361C61.4407 26.5557 61.6971 26.8681 61.8485 27.2336C61.9998 27.5992 62.0392 28.0014 61.9617 28.3894C61.8842 28.7774 61.6932 29.1336 61.413 29.4129Z" fill="#1E648C"/>
</svg>
