<svg width="24" height="24" viewBox="0 0 24 24" fill="none" xmlns="http://www.w3.org/2000/svg">
<g clip-path="url(#clip0_61_626)">
<path d="M12 24C9.22385 23.9979 6.53432 23.0332 4.38964 21.2705C2.24495 19.5077 0.777793 17.0559 0.238132 14.3327C-0.301528 11.6095 0.119696 8.78345 1.43004 6.336C2.74038 3.88856 4.85877 1.97114 7.42429 0.910439C9.98981 -0.150264 12.8437 -0.288633 15.4998 0.518908C18.1559 1.32645 20.4499 3.02994 21.9909 5.33914C23.5318 7.64835 24.2245 10.4204 23.9508 13.183C23.6771 15.9457 22.454 18.5279 20.4899 20.4899C19.3757 21.6053 18.0521 22.4896 16.5951 23.0919C15.1382 23.6943 13.5766 24.0029 12 24ZM12 1.36028C9.53789 1.3616 7.15242 2.21658 5.25002 3.77954C3.34762 5.3425 2.04601 7.51674 1.56697 9.9318C1.08793 12.3468 1.4611 14.8533 2.62289 17.024C3.78468 19.1948 5.66321 20.8956 7.93841 21.8366C10.2136 22.7776 12.7447 22.9005 15.1004 22.1846C17.4561 21.4686 19.4907 19.958 20.8574 17.9101C22.2242 15.8622 22.8386 13.4037 22.596 10.9536C22.3533 8.50347 21.2687 6.21328 19.5268 4.47325C18.5392 3.48399 17.3658 2.69969 16.0741 2.16546C14.7824 1.63122 13.3978 1.35759 12 1.36028Z" fill="#174C6B"/>
<path d="M12.4162 18.7161H11.0345C10.2015 18.7154 9.4028 18.3842 8.81379 17.7952C8.22479 17.2062 7.8936 16.4075 7.89297 15.5746V14.766C7.89297 14.614 7.95336 14.4682 8.06084 14.3607C8.16832 14.2533 8.3141 14.1929 8.4661 14.1929H9.26515C10.0981 14.1935 10.8968 14.5247 11.4858 15.1137C12.0748 15.7027 12.406 16.5014 12.4066 17.3344L12.4162 18.7161ZM8.84898 15.1489V15.5769C8.84961 16.157 9.08032 16.7131 9.49049 17.1233C9.90066 17.5335 10.4568 17.7642 11.0369 17.7648H11.4649V17.3367C11.4643 16.7567 11.2336 16.2006 10.8234 15.7904C10.4132 15.3802 9.85711 15.1495 9.27704 15.1489H8.84898Z" fill="#174C6B"/>
<path d="M12.4162 15.389H11.0345C10.2013 15.389 9.40224 15.058 8.8131 14.4688C8.22395 13.8797 7.89297 13.0807 7.89297 12.2475V11.4413C7.89297 11.2893 7.95336 11.1435 8.06084 11.036C8.16832 10.9285 8.3141 10.8682 8.4661 10.8682H9.26515C10.0983 10.8682 10.8974 11.1991 11.4865 11.7883C12.0757 12.3774 12.4066 13.1765 12.4066 14.0097L12.4162 15.389ZM8.84898 11.8218V12.2475C8.84961 12.8278 9.08024 13.3841 9.49034 13.7947C9.90044 14.2052 10.4566 14.4365 11.0369 14.4377H11.4649V14.0097C11.4643 13.4296 11.2336 12.8735 10.8234 12.4633C10.4132 12.0531 9.85711 11.8224 9.27704 11.8218H8.84898Z" fill="#174C6B"/>
<path d="M12.4162 12.0642H11.0345C10.2015 12.0636 9.4028 11.7324 8.81379 11.1434C8.22479 10.5544 7.8936 9.75569 7.89297 8.9227V8.11414C7.89297 7.96214 7.95336 7.81636 8.06084 7.70888C8.16832 7.6014 8.3141 7.54102 8.4661 7.54102H9.26515C10.0981 7.54165 10.8968 7.87283 11.4858 8.46183C12.0748 9.05084 12.406 9.84953 12.4066 10.6825L12.4162 12.0642ZM8.84898 8.49702V8.92508C8.84961 9.50515 9.08032 10.0613 9.49049 10.4714C9.90066 10.8816 10.4568 11.1123 11.0369 11.113H11.4649V10.6849C11.4643 10.1048 11.2336 9.5487 10.8234 9.13853C10.4132 8.72836 9.85711 8.49765 9.27704 8.49702H8.84898ZM12.8323 18.7158H11.4506V17.3341C11.4506 16.5009 11.7816 15.7019 12.3708 15.1127C12.9599 14.5236 13.759 14.1926 14.5921 14.1926H15.3983C15.4737 14.1923 15.5483 14.2069 15.618 14.2356C15.6877 14.2643 15.751 14.3065 15.8043 14.3598C15.8576 14.4131 15.8998 14.4764 15.9285 14.5461C15.9572 14.6157 15.9718 14.6904 15.9715 14.7657V15.5743C15.9715 16.4071 15.6408 17.2058 15.0522 17.7948C14.4635 18.3839 13.6651 18.7152 12.8323 18.7158ZM12.4043 17.7646H12.8323C13.4124 17.7639 13.9685 17.5332 14.3787 17.1231C14.7889 16.7129 15.0196 16.1568 15.0202 15.5767V15.1486H14.5921C14.0121 15.1493 13.4559 15.38 13.0458 15.7901C12.6356 16.2003 12.4049 16.7564 12.4043 17.3365V17.7646Z" fill="#174C6B"/>
<path d="M12.8323 15.389H11.4507V14.0097C11.4503 13.597 11.5314 13.1884 11.6891 12.8071C11.8469 12.4258 12.0783 12.0794 12.3701 11.7876C12.6619 11.4958 13.0083 11.2644 13.3896 11.1067C13.7709 10.9489 14.1795 10.8679 14.5922 10.8682H15.3983C15.4737 10.8679 15.5484 10.8825 15.618 10.9112C15.6877 10.9398 15.751 10.9821 15.8043 11.0353C15.8576 11.0886 15.8998 11.1519 15.9285 11.2216C15.9572 11.2913 15.9718 11.3659 15.9715 11.4413V12.2475C15.9718 12.6599 15.8908 13.0684 15.7332 13.4495C15.5756 13.8306 15.3444 14.177 15.0529 14.4687C14.7614 14.7605 14.4152 14.9919 14.0342 15.1498C13.6532 15.3077 13.2448 15.389 12.8323 15.389ZM12.4043 14.4377H12.8323C13.4126 14.4365 13.9687 14.2052 14.3789 13.7947C14.789 13.3841 15.0196 12.8278 15.0202 12.2475V11.8218H14.5922C14.0121 11.8224 13.456 12.0531 13.0458 12.4633C12.6356 12.8735 12.4049 13.4296 12.4043 14.0097V14.4377Z" fill="#174C6B"/>
<path d="M12.8323 12.0642H11.4507V10.6825C11.4507 9.84934 11.7816 9.05028 12.3708 8.46114C12.9599 7.87199 13.759 7.54102 14.5922 7.54102H15.4863C15.5498 7.541 15.6126 7.55368 15.6711 7.57832C15.7296 7.60297 15.7826 7.63907 15.8269 7.6845C15.8712 7.72993 15.906 7.78378 15.9292 7.84286C15.9524 7.90195 15.9635 7.96508 15.9619 8.02853V8.9227C15.962 9.75383 15.6326 10.5511 15.046 11.1399C14.4595 11.7287 13.6635 12.0611 12.8323 12.0642ZM12.4043 11.113H12.8323C13.4124 11.1123 13.9685 10.8816 14.3787 10.4714C14.7889 10.0613 15.0196 9.50515 15.0202 8.92508V8.49702H14.5922C14.0121 8.49765 13.456 8.72836 13.0458 9.13853C12.6356 9.5487 12.4049 10.1048 12.4043 10.6849V11.113Z" fill="#174C6B"/>
<path d="M11.9358 10.0451L10.9298 9.03679C10.624 8.73133 10.3814 8.36859 10.2159 7.96931C10.0504 7.57002 9.96518 7.14203 9.96518 6.7098C9.96518 6.27756 10.0504 5.84957 10.2159 5.45028C10.3814 5.051 10.624 4.68826 10.9298 4.3828L11.6147 3.69791C11.6576 3.65484 11.7086 3.62066 11.7647 3.59734C11.8208 3.57402 11.881 3.56201 11.9417 3.56201C12.0025 3.56201 12.0627 3.57402 12.1188 3.59734C12.1749 3.62066 12.2259 3.65484 12.2687 3.69791L12.9536 4.3828C13.5701 5.00033 13.9163 5.83723 13.9163 6.7098C13.9163 7.58236 13.5701 8.41926 12.9536 9.03679L11.9358 10.0451ZM11.9358 4.71574L11.5981 5.05343C11.1608 5.49284 10.9154 6.08752 10.9154 6.70742C10.9154 7.32732 11.1608 7.922 11.5981 8.3614L11.9358 8.69909L12.2759 8.3614C12.7131 7.922 12.9586 7.32732 12.9586 6.70742C12.9586 6.08752 12.7131 5.49284 12.2759 5.05343L11.9358 4.71574Z" fill="#174C6B"/>
<path d="M11.9501 20.7232C11.8239 20.7232 11.7029 20.6731 11.6137 20.5839C11.5245 20.4947 11.4744 20.3737 11.4744 20.2476V9.37241C11.4744 9.24626 11.5245 9.12529 11.6137 9.03609C11.7029 8.94689 11.8239 8.89678 11.9501 8.89678C12.0762 8.89678 12.1972 8.94689 12.2864 9.03609C12.3756 9.12529 12.4257 9.24626 12.4257 9.37241V20.2452C12.426 20.3078 12.4139 20.3699 12.3902 20.4279C12.3664 20.4859 12.3314 20.5386 12.2872 20.583C12.243 20.6275 12.1905 20.6627 12.1326 20.6868C12.0748 20.7108 12.0127 20.7232 11.9501 20.7232ZM8.14268 16.2166C8.0429 15.9331 7.98366 15.6369 7.9667 15.3367L3.64328 19.6625C3.57478 19.7314 3.52818 19.8189 3.50933 19.9142C3.49048 20.0095 3.50023 20.1082 3.53734 20.1979C3.57446 20.2876 3.63728 20.3644 3.71791 20.4185C3.79854 20.4726 3.89338 20.5017 3.99048 20.502C4.12148 20.5011 4.24694 20.4491 4.34006 20.357L8.23305 16.464C8.20213 16.3807 8.17122 16.2999 8.14268 16.2166ZM20.3567 3.64351C20.311 3.59771 20.2567 3.56137 20.1969 3.53658C20.1371 3.51179 20.073 3.49902 20.0083 3.49902C19.9436 3.49902 19.8795 3.51179 19.8197 3.53658C19.76 3.56137 19.7056 3.59771 19.6599 3.64351L15.541 7.7648C15.8097 7.98834 15.8668 8.42354 15.8906 8.74458C15.8894 8.76438 15.8894 8.78424 15.8906 8.80404L20.3543 4.3403C20.4003 4.29474 20.4368 4.24055 20.4618 4.18086C20.4868 4.12116 20.4998 4.05712 20.5 3.9924C20.5002 3.92768 20.4877 3.86355 20.4631 3.80369C20.4385 3.74382 20.4024 3.68939 20.3567 3.64351Z" fill="#174C6B"/>
</g>
<defs>
<clipPath id="clip0_61_626">
<rect width="24" height="24" fill="white"/>
</clipPath>
</defs>
</svg>
