<svg width="16" height="16" viewBox="0 0 16 16" fill="none" xmlns="http://www.w3.org/2000/svg">
<g clip-path="url(#clip0_1351_9317)">
<path d="M8.00003 16C6.14927 15.9986 4.35625 15.3555 2.92645 14.1803C1.49666 13.0052 0.518559 11.3706 0.158786 9.55514C-0.200988 7.73968 0.0798275 5.85564 0.953389 4.224C1.82695 2.59237 3.23921 1.3141 4.94956 0.606959C6.65991 -0.100176 8.56253 -0.192422 10.3333 0.345939C12.104 0.884299 13.6333 2.01996 14.6606 3.55943C15.6879 5.0989 16.1497 6.94694 15.9672 8.78869C15.7847 10.6304 14.9694 12.352 13.66 13.6599C12.9172 14.4035 12.0348 14.993 11.0634 15.3946C10.0921 15.7962 9.05107 16.0019 8.00003 16ZM8.00003 0.906857C6.35863 0.907735 4.76831 1.47772 3.50004 2.51969C2.23178 3.56167 1.36404 5.01116 1.04468 6.6212C0.72532 8.23123 0.974098 9.90219 1.74863 11.3494C2.52315 12.7965 3.77551 13.9304 5.2923 14.5577C6.8091 15.185 8.49649 15.267 10.067 14.7897C11.6374 14.3124 12.9938 13.3053 13.905 11.94C14.8162 10.5748 15.2258 8.93581 15.064 7.30239C14.9023 5.66898 14.1791 4.14219 13.0179 2.98216C12.3595 2.32266 11.5772 1.79979 10.7161 1.44364C9.85496 1.08748 8.93191 0.905059 8.00003 0.906857Z" fill="#174C6B"/>
<path d="M8.27748 12.4764H7.35636C6.80103 12.476 6.26858 12.2552 5.8759 11.8625C5.48323 11.4698 5.26244 10.9374 5.26202 10.3821V9.84302C5.26202 9.74169 5.30228 9.6445 5.37393 9.57285C5.44559 9.50119 5.54277 9.46094 5.64411 9.46094H6.17681C6.73213 9.46136 7.26459 9.68214 7.65726 10.0748C8.04993 10.4675 8.27072 10.9999 8.27114 11.5553L8.27748 12.4764ZM5.89936 10.0983V10.3836C5.89978 10.7704 6.05359 11.1411 6.32703 11.4146C6.60048 11.688 6.97123 11.8418 7.35794 11.8422H7.64332V11.5569C7.6429 11.1701 7.48909 10.7994 7.21564 10.5259C6.9422 10.2525 6.57145 10.0987 6.18474 10.0983H5.89936Z" fill="#174C6B"/>
<path d="M8.27748 10.26H7.35636C6.80091 10.26 6.2682 10.0393 5.87544 9.64655C5.48268 9.25379 5.26202 8.72109 5.26202 8.16563V7.62818C5.26202 7.52684 5.30228 7.42966 5.37393 7.358C5.44559 7.28635 5.54277 7.24609 5.64411 7.24609H6.17681C6.73226 7.24609 7.26496 7.46675 7.65772 7.85951C8.05049 8.25227 8.27114 8.78497 8.27114 9.34043L8.27748 10.26ZM5.89936 7.88184V8.16563C5.89978 8.55249 6.05353 8.92341 6.32694 9.19711C6.60034 9.4708 6.97109 9.62496 7.35794 9.6258H7.64332V9.34043C7.6429 8.95371 7.48909 8.58296 7.21564 8.30952C6.9422 8.03607 6.57145 7.88226 6.18474 7.88184H5.89936Z" fill="#174C6B"/>
<path d="M8.27748 8.0428H7.35636C6.80103 8.04238 6.26858 7.82159 5.8759 7.42892C5.48323 7.03625 5.26244 6.50379 5.26202 5.94847V5.40943C5.26202 5.30809 5.30228 5.21091 5.37393 5.13925C5.44559 5.0676 5.54277 5.02734 5.64411 5.02734H6.17681C6.73213 5.02776 7.26459 5.24855 7.65726 5.64122C8.04993 6.0339 8.27072 6.56635 8.27114 7.12168L8.27748 8.0428ZM5.89936 5.66468V5.95005C5.89978 6.33677 6.05359 6.70752 6.32703 6.98096C6.60048 7.25441 6.97123 7.40822 7.35794 7.40864H7.64332V7.12326C7.6429 6.73655 7.48909 6.3658 7.21564 6.09235C6.9422 5.81891 6.57145 5.6651 6.18474 5.66468H5.89936ZM8.55493 12.4772H7.6338V11.5561C7.6338 11.0006 7.85446 10.4679 8.24722 10.0752C8.63998 9.6824 9.17268 9.46175 9.72814 9.46175H10.2656C10.3158 9.46154 10.3656 9.47128 10.4121 9.49041C10.4585 9.50953 10.5007 9.53767 10.5362 9.57319C10.5718 9.60871 10.5999 9.65092 10.619 9.69737C10.6381 9.74382 10.6479 9.7936 10.6477 9.84383V10.3829C10.6477 10.938 10.4272 11.4705 10.0348 11.8632C9.6424 12.2559 9.11011 12.4768 8.55493 12.4772ZM8.26955 11.843H8.55493C8.94164 11.8426 9.31239 11.6888 9.58584 11.4154C9.85928 11.1419 10.0131 10.7712 10.0135 10.3845V10.0991H9.72814C9.34143 10.0995 8.97067 10.2533 8.69723 10.5268C8.42378 10.8002 8.26997 11.171 8.26955 11.5577V11.843Z" fill="#174C6B"/>
<path d="M8.55491 10.26H7.63379V9.34043C7.63358 9.06534 7.68761 8.79291 7.79279 8.53872C7.89796 8.28453 8.05222 8.05357 8.24674 7.85905C8.44126 7.66453 8.67222 7.51027 8.92641 7.40509C9.1806 7.29992 9.45303 7.24589 9.72812 7.2461H10.2656C10.3158 7.24589 10.3656 7.25563 10.412 7.27475C10.4585 7.29388 10.5007 7.32202 10.5362 7.35754C10.5717 7.39306 10.5999 7.43526 10.619 7.48172C10.6381 7.52817 10.6479 7.57795 10.6477 7.62818V8.16564C10.6479 8.44059 10.5939 8.7129 10.4888 8.96698C10.3837 9.22107 10.2296 9.45196 10.0353 9.64646C9.84092 9.84096 9.61015 9.99525 9.35614 10.1005C9.10213 10.2058 8.82987 10.26 8.55491 10.26ZM8.26954 9.6258H8.55491C8.94177 9.62496 9.31252 9.47081 9.58592 9.19711C9.85932 8.92341 10.0131 8.55249 10.0135 8.16564V7.88185H9.72812C9.34141 7.88227 8.97066 8.03607 8.69721 8.30952C8.42377 8.58297 8.26996 8.95372 8.26954 9.34043V9.6258Z" fill="#174C6B"/>
<path d="M8.55491 8.0428H7.63379V7.12168C7.63379 6.56622 7.85444 6.03352 8.2472 5.64076C8.63997 5.248 9.17267 5.02734 9.72812 5.02734H10.3242C10.3666 5.02733 10.4084 5.03579 10.4474 5.05222C10.4864 5.06864 10.5217 5.09271 10.5513 5.123C10.5808 5.15329 10.604 5.18919 10.6195 5.22858C10.635 5.26797 10.6424 5.31005 10.6413 5.35235V5.94847C10.6413 6.50255 10.4218 7.03405 10.0307 7.42659C9.63966 7.81913 9.10899 8.0407 8.55491 8.0428ZM8.26954 7.40864H8.55491C8.94163 7.40822 9.31238 7.25441 9.58582 6.98096C9.85927 6.70752 10.0131 6.33677 10.0135 5.95005V5.66468H9.72812C9.34141 5.6651 8.97066 5.81891 8.69721 6.09235C8.42377 6.3658 8.26996 6.73655 8.26954 7.12326V7.40864Z" fill="#174C6B"/>
<path d="M7.95724 6.69707L7.28661 6.02485C7.08273 5.82121 6.92099 5.57939 6.81064 5.3132C6.70029 5.04701 6.64349 4.76168 6.64349 4.47352C6.64349 4.18537 6.70029 3.90004 6.81064 3.63385C6.92099 3.36766 7.08273 3.12583 7.28661 2.9222L7.7432 2.4656C7.77178 2.43688 7.80575 2.4141 7.84316 2.39855C7.88057 2.383 7.92069 2.375 7.9612 2.375C8.00171 2.375 8.04182 2.383 8.07923 2.39855C8.11664 2.4141 8.15061 2.43688 8.17919 2.4656L8.63579 2.9222C9.04677 3.33388 9.27759 3.89182 9.27759 4.47352C9.27759 5.05523 9.04677 5.61317 8.63579 6.02485L7.95724 6.69707ZM7.95724 3.14415L7.73211 3.36928C7.4406 3.66222 7.27695 4.05867 7.27695 4.47194C7.27695 4.8852 7.4406 5.28166 7.73211 5.57459L7.95724 5.79972L8.18395 5.57459C8.47546 5.28166 8.63911 4.8852 8.63911 4.47194C8.63911 4.05867 8.47546 3.66222 8.18395 3.36928L7.95724 3.14415Z" fill="#174C6B"/>
<path d="M7.96676 13.8148C7.88267 13.8148 7.80202 13.7814 7.74255 13.7219C7.68309 13.6625 7.64968 13.5818 7.64968 13.4977V6.24762C7.64968 6.16352 7.68309 6.08287 7.74255 6.02341C7.80202 5.96394 7.88267 5.93054 7.96676 5.93054C8.05086 5.93054 8.13151 5.96394 8.19097 6.02341C8.25044 6.08287 8.28385 6.16352 8.28385 6.24762V13.4961C8.28405 13.5379 8.27601 13.5793 8.26017 13.618C8.24432 13.6566 8.221 13.6918 8.19154 13.7214C8.16207 13.751 8.12705 13.7745 8.08847 13.7905C8.0499 13.8066 8.00854 13.8148 7.96676 13.8148ZM5.42852 10.8104C5.362 10.6214 5.3225 10.4239 5.31119 10.2238L2.42891 13.1077C2.38325 13.1536 2.35218 13.212 2.33962 13.2755C2.32705 13.339 2.33355 13.4048 2.35829 13.4646C2.38303 13.5244 2.42491 13.5756 2.47867 13.6117C2.53242 13.6478 2.59564 13.6671 2.66038 13.6674C2.74771 13.6668 2.83135 13.6321 2.89344 13.5706L5.48876 10.9753C5.46815 10.9198 5.44754 10.8659 5.42852 10.8104ZM13.5712 2.42836C13.5407 2.39782 13.5045 2.3736 13.4647 2.35707C13.4248 2.34054 13.3821 2.33203 13.3389 2.33203C13.2958 2.33203 13.2531 2.34054 13.2132 2.35707C13.1734 2.3736 13.1372 2.39782 13.1067 2.42836L10.3607 5.17588C10.5399 5.32491 10.5779 5.61504 10.5938 5.82907C10.593 5.84227 10.593 5.85551 10.5938 5.86871L13.5696 2.89288C13.6003 2.86251 13.6246 2.82639 13.6413 2.78659C13.6579 2.74679 13.6666 2.7041 13.6667 2.66095C13.6669 2.6178 13.6585 2.57505 13.6421 2.53514C13.6257 2.49523 13.6016 2.45894 13.5712 2.42836Z" fill="#174C6B"/>
</g>
<defs>
<clipPath id="clip0_1351_9317">
<rect width="16" height="16" fill="white"/>
</clipPath>
</defs>
</svg>
