<svg width="24" height="24" viewBox="0 0 24 24" fill="none" xmlns="http://www.w3.org/2000/svg">
<path d="M6.74534 4H17.3132C17.3132 4 16.4326 17.2571 12.0293 17.2571C9.87826 17.2571 8.56786 14.0935 7.79011 10.8571C6.97574 7.46844 6.74534 4 6.74534 4Z" stroke="#1E648C" stroke-width="1.5" stroke-linecap="round" stroke-linejoin="round"/>
<path d="M17.3132 3.99985C17.3132 3.99985 18.2344 3.01718 19 2.99984C20.5 2.96588 20.7773 3.99985 20.7773 3.99985C21.0709 4.60938 21.3057 6.19414 19.8967 7.65699C18.4876 9.11985 16.9103 10.3999 16.2684 10.857" stroke="#1E648C" stroke-width="1.5" stroke-linecap="round" stroke-linejoin="round"/>
<path d="M6.74527 4.0001C6.74527 4.0001 5.78547 3.00623 4.99995 3.0001C3.49995 2.98839 3.22264 4.0001 3.22264 4.0001C2.92908 4.60962 2.69424 6.19439 4.1033 7.65724C5.51235 9.1201 7.14823 10.4001 7.79004 10.8572" stroke="#1E648C" stroke-width="1.5" stroke-linecap="round" stroke-linejoin="round"/>
<path d="M8.50662 19.9997C8.50662 18.1711 12.0292 17.2568 12.0292 17.2568C12.0292 17.2568 15.5519 18.1711 15.5519 19.9997H8.50662Z" stroke="#1E648C" stroke-width="1.5" stroke-linecap="round" stroke-linejoin="round"/>
</svg>
