<svg width="25" height="24" viewBox="0 0 25 24" fill="none" xmlns="http://www.w3.org/2000/svg">
<mask id="mask0_562_4698" style="mask-type:luminance" maskUnits="userSpaceOnUse" x="0" y="0" width="25" height="24">
<path d="M24.1646 0H0.166504V23.9981H24.1646V0Z" fill="white"/>
</mask>
<g mask="url(#mask0_562_4698)">
<path d="M12.1657 7.0307C10.2271 7.0307 8.65039 5.45395 8.65039 3.51535C8.65039 1.57675 10.2276 0 12.1657 0C14.1039 0 15.6811 1.57675 15.6811 3.51535C15.6811 5.45395 14.1043 7.0307 12.1657 7.0307ZM12.1657 1.40614C11.0029 1.40614 10.0565 2.35247 10.0565 3.51535C10.0565 4.67823 11.0029 5.62456 12.1657 5.62456C13.3286 5.62456 14.275 4.67823 14.275 3.51535C14.275 2.35247 13.3286 1.40614 12.1657 1.40614Z" fill="#174C6B"/>
<path d="M3.687 21.8439C3.38187 21.8439 3.07439 21.8035 2.7716 21.7225C1.86464 21.4792 1.10673 20.8975 0.637084 20.0843C0.167433 19.2716 0.0427553 18.3243 0.286018 17.4173C0.528811 16.5104 1.11048 15.7525 1.9237 15.2828C3.60216 14.3135 5.75637 14.891 6.72567 16.5694C7.69497 18.2484 7.11752 20.4026 5.43905 21.3714C4.89722 21.684 4.29633 21.8439 3.687 21.8439ZM3.67763 16.2184C3.32 16.2184 2.95815 16.3093 2.62677 16.5005C2.13884 16.7822 1.78965 17.2369 1.64388 17.781C1.49811 18.3252 1.5731 18.8938 1.8548 19.3817C2.1365 19.8696 2.59115 20.2188 3.13533 20.3646C3.6795 20.5104 4.24805 20.4354 4.73598 20.1537C5.74325 19.572 6.08963 18.2798 5.50795 17.2725C5.11752 16.5966 4.40741 16.2184 3.67763 16.2184Z" fill="#174C6B"/>
<path d="M20.6442 21.8439C20.0348 21.8439 19.434 21.684 18.8921 21.3714C18.0789 20.9017 17.4972 20.1438 17.254 19.2369C17.0112 18.3299 17.1359 17.3826 17.605 16.5694C18.5743 14.891 20.7285 14.3135 22.407 15.2828C24.0859 16.2521 24.6629 18.4063 23.6936 20.0848C23.224 20.898 22.4661 21.4797 21.5591 21.7225C21.2563 21.8035 20.9488 21.8439 20.6437 21.8439H20.6442ZM20.6535 16.2184C19.9238 16.2184 19.2137 16.5966 18.8232 17.2725C18.5415 17.7604 18.4665 18.329 18.6123 18.8732C18.7581 19.4173 19.1073 19.872 19.5952 20.1537C20.0831 20.4354 20.6517 20.5104 21.1958 20.3646C21.74 20.2188 22.1947 19.8696 22.4764 19.3817C22.7581 18.8938 22.8331 18.3252 22.6873 17.781C22.5415 17.2369 22.1923 16.7822 21.7044 16.5001C21.373 16.3088 21.0107 16.2179 20.6535 16.2179V16.2184Z" fill="#174C6B"/>
<path d="M2.33847 13.5582C2.32535 13.5582 2.31222 13.5582 2.2991 13.5573C1.91147 13.5357 1.61431 13.2044 1.63587 12.8167C1.72774 11.15 2.22176 9.50997 3.06498 8.07383C3.88476 6.67753 5.03451 5.46966 6.38956 4.58098C6.71391 4.36818 7.14981 4.45864 7.36308 4.78346C7.57587 5.10828 7.48541 5.54419 7.16059 5.75698C4.73922 7.34498 3.19856 10.0134 3.04013 12.8945C3.01951 13.2691 2.70922 13.5592 2.33894 13.5592L2.33847 13.5582Z" fill="#174C6B"/>
<path d="M21.9933 13.5582C21.6225 13.5582 21.3127 13.2685 21.2921 12.8936C21.1337 10.0124 19.593 7.34401 17.1716 5.756C16.8468 5.54321 16.7564 5.1073 16.9692 4.78249C17.182 4.45767 17.6179 4.36721 17.9427 4.58C19.2977 5.46868 20.4475 6.67656 21.2673 8.07332C22.1105 9.50946 22.6045 11.1495 22.6964 12.8162C22.7179 13.2039 22.4208 13.5357 22.0331 13.5568C22.02 13.5577 22.0069 13.5577 21.9938 13.5577L21.9933 13.5582Z" fill="#174C6B"/>
<path d="M12.1654 23.9978C10.4931 23.9978 8.89382 23.6177 7.41175 22.8682C7.06537 22.6929 6.92663 22.2701 7.10146 21.9233C7.27676 21.5769 7.69954 21.4382 8.04639 21.613C9.33019 22.2622 10.7162 22.5917 12.1659 22.5917C13.6156 22.5917 15.0016 22.2626 16.285 21.613C16.6318 21.4377 17.0546 21.5764 17.2299 21.9233C17.4052 22.2696 17.2664 22.6929 16.9196 22.8682C15.4375 23.6177 13.8378 23.9978 12.1659 23.9978H12.1654Z" fill="#174C6B"/>
</g>
<circle cx="20.6646" cy="18.5" r="2.5" fill="#174C6B"/>
<ellipse cx="12.1646" cy="3.5" rx="3" ry="2.5" fill="#174C6B"/>
<circle cx="3.66455" cy="18.5" r="2.5" fill="#174C6B"/>
</svg>
