<svg width="25" height="24" viewBox="0 0 25 24" fill="none" xmlns="http://www.w3.org/2000/svg">
<g clip-path="url(#clip0_541_5389)">
<mask id="mask0_541_5389" style="mask-type:luminance" maskUnits="userSpaceOnUse" x="0" y="0" width="25" height="24">
<path d="M24.6655 0.000976562H0.667358V23.9991H24.6655V0.000976562Z" fill="white"/>
</mask>
<g mask="url(#mask0_541_5389)">
<path d="M12.6665 7.03168C10.7279 7.03168 9.15112 5.45493 9.15112 3.51633C9.15112 1.57773 10.7283 0.000976562 12.6665 0.000976562C14.6046 0.000976562 16.1818 1.57773 16.1818 3.51633C16.1818 5.45493 14.6051 7.03168 12.6665 7.03168ZM12.6665 1.40712C11.5036 1.40712 10.5573 2.35345 10.5573 3.51633C10.5573 4.6792 11.5036 5.62554 12.6665 5.62554C13.8294 5.62554 14.7757 4.6792 14.7757 3.51633C14.7757 2.35345 13.8294 1.40712 12.6665 1.40712Z" fill="#8B8B8B"/>
<path d="M4.18786 21.8448C3.88272 21.8448 3.57525 21.8045 3.27246 21.7234C2.3655 21.4802 1.60759 20.8985 1.13794 20.0853C0.668288 19.2725 0.54361 18.3253 0.786872 17.4183C1.02967 16.5113 1.61134 15.7534 2.42456 15.2838C4.10302 14.3145 6.25723 14.8919 7.22652 16.5704C8.19582 18.2493 7.61837 20.4035 5.93991 21.3724C5.39807 21.685 4.79718 21.8448 4.18786 21.8448ZM4.17848 16.2193C3.82085 16.2193 3.45901 16.3103 3.12763 16.5015C2.6397 16.7832 2.2905 17.2378 2.14473 17.782C1.99896 18.3262 2.07396 18.8948 2.35566 19.3827C2.63735 19.8706 3.092 20.2198 3.63618 20.3656C4.18036 20.5113 4.74891 20.4363 5.23684 20.1547C6.2441 19.573 6.59048 18.2807 6.00881 17.2735C5.61837 16.5976 4.90827 16.2193 4.17848 16.2193Z" fill="#8B8B8B"/>
<path d="M21.145 21.8448C20.5357 21.8448 19.9348 21.685 19.393 21.3724C18.5798 20.9027 17.9981 20.1448 17.7548 19.2378C17.512 18.3309 17.6367 17.3836 18.1059 16.5704C19.0752 14.8919 21.2294 14.3145 22.9079 15.2838C24.5868 16.2531 25.1638 18.4073 24.1945 20.0858C23.7248 20.899 22.9669 21.4806 22.06 21.7234C21.7572 21.8045 21.4497 21.8448 21.1446 21.8448H21.145ZM21.1544 16.2193C20.4246 16.2193 19.7145 16.5976 19.3241 17.2735C19.0424 17.7614 18.9674 18.33 19.1132 18.8741C19.2589 19.4183 19.6081 19.873 20.096 20.1547C20.584 20.4363 21.1525 20.5113 21.6967 20.3656C22.2409 20.2198 22.6955 19.8706 22.9772 19.3827C23.2589 18.8948 23.3339 18.3262 23.1881 17.782C23.0424 17.2378 22.6932 16.7832 22.2053 16.501C21.8739 16.3098 21.5116 16.2189 21.1544 16.2189V16.2193Z" fill="#8B8B8B"/>
<path d="M2.83932 13.5592C2.8262 13.5592 2.81308 13.5592 2.79995 13.5583C2.41233 13.5367 2.11516 13.2053 2.13672 12.8177C2.22859 11.151 2.72261 9.51095 3.56583 8.07481C4.38561 6.67851 5.53536 5.47064 6.89041 4.58196C7.21476 4.36916 7.65067 4.45962 7.86393 4.78444C8.07673 5.10926 7.98627 5.54516 7.66145 5.75796C5.24007 7.34596 3.69941 10.0143 3.54099 12.8955C3.52036 13.27 3.21008 13.5602 2.83979 13.5602L2.83932 13.5592Z" fill="#8B8B8B"/>
<path d="M22.4939 13.5592C22.1232 13.5592 21.8133 13.2695 21.7927 12.8945C21.6343 10.0134 20.0936 7.34498 17.6723 5.75698C17.3474 5.54418 17.257 5.10828 17.4698 4.78346C17.6826 4.45864 18.1185 4.36818 18.4433 4.58098C19.7983 5.46966 20.9481 6.67753 21.7679 8.0743C22.6111 9.51044 23.1051 11.1505 23.197 12.8172C23.2185 13.2048 22.9214 13.5367 22.5338 13.5578C22.5206 13.5587 22.5075 13.5587 22.4944 13.5587L22.4939 13.5592Z" fill="#8B8B8B"/>
<path d="M12.6664 23.9988C10.994 23.9988 9.3948 23.6186 7.91273 22.8692C7.56635 22.6939 7.42761 22.2711 7.60244 21.9242C7.77774 21.5779 8.20052 21.4391 8.54736 21.614C9.83117 22.2631 11.2172 22.5926 12.6669 22.5926C14.1166 22.5926 15.5026 22.2636 16.7859 21.614C17.1328 21.4387 17.5556 21.5774 17.7309 21.9242C17.9062 22.2706 17.7674 22.6939 17.4206 22.8692C15.9385 23.6186 14.3388 23.9988 12.6669 23.9988H12.6664Z" fill="#8B8B8B"/>
</g>
</g>
<defs>
<clipPath id="clip0_541_5389">
<rect width="24" height="23.9981" fill="white" transform="translate(0.665527 0.000976562)"/>
</clipPath>
</defs>
</svg>
