<svg width="32" height="32" viewBox="0 0 32 32" fill="none" xmlns="http://www.w3.org/2000/svg">
<path d="M10.0667 9.3335H5.93334C5.60197 9.3335 5.33334 9.60213 5.33334 9.9335V22.0668C5.33334 22.3982 5.60197 22.6668 5.93334 22.6668H10.0667C10.398 22.6668 10.6667 22.3982 10.6667 22.0668V9.9335C10.6667 9.60213 10.398 9.3335 10.0667 9.3335Z" stroke="#F6FAFC" stroke-width="2" stroke-linecap="round" stroke-linejoin="round"/>
<path d="M26.0667 9.3335H21.9333C21.602 9.3335 21.3333 9.60213 21.3333 9.9335V22.0668C21.3333 22.3982 21.602 22.6668 21.9333 22.6668H26.0667C26.398 22.6668 26.6667 22.3982 26.6667 22.0668V9.9335C26.6667 9.60213 26.398 9.3335 26.0667 9.3335Z" stroke="#F6FAFC" stroke-width="2" stroke-linecap="round" stroke-linejoin="round"/>
<path d="M1.33334 19.4V12.6C1.33334 12.2686 1.60197 12 1.93334 12H4.73334C5.06471 12 5.33334 12.2686 5.33334 12.6V19.4C5.33334 19.7314 5.06471 20 4.73334 20H1.93334C1.60197 20 1.33334 19.7314 1.33334 19.4Z" stroke="#F6FAFC" stroke-width="2" stroke-linecap="round" stroke-linejoin="round"/>
<path d="M30.6667 19.4V12.6C30.6667 12.2686 30.398 12 30.0667 12H27.2667C26.9353 12 26.6667 12.2686 26.6667 12.6V19.4C26.6667 19.7314 26.9353 20 27.2667 20H30.0667C30.398 20 30.6667 19.7314 30.6667 19.4Z" stroke="#F6FAFC" stroke-width="2" stroke-linecap="round" stroke-linejoin="round"/>
<path d="M10.6667 16H21.3333" stroke="#F6FAFC" stroke-width="2" stroke-linecap="round" stroke-linejoin="round"/>
</svg>
