<svg width="16" height="16" viewBox="0 0 16 16" fill="none" xmlns="http://www.w3.org/2000/svg">
<path d="M13.4482 2.55242C11.8233 0.927843 9.17949 0.927817 7.55454 2.55247C6.91089 3.19638 6.50329 4.01156 6.37579 4.90989C6.20561 6.10673 6.13477 7.28754 5.35946 8.06282C5.34576 8.07983 5.14441 8.25261 5.03438 8.57344C4.93291 8.86629 4.93949 9.18577 5.05292 9.4742L3.55667 10.9705C3.04896 10.4628 2.22292 10.4628 1.71526 10.9705C1.20602 11.4794 1.20599 12.303 1.71521 12.8122C2.01607 13.1131 2.42862 13.2357 2.82063 13.18C2.76495 13.5719 2.8875 13.9846 3.18834 14.2854C3.69737 14.7944 4.52099 14.7948 5.03006 14.2854C5.53777 13.7777 5.53777 12.9517 5.03045 12.4443L5.03008 12.444L6.5268 10.9473C7.03462 11.1469 7.59433 11.0037 7.94074 10.6378C8.67972 9.86987 9.96603 9.78467 11.0906 9.62485C11.989 9.49735 12.8042 9.08977 13.4482 8.44602C15.0728 6.82113 15.0728 4.17731 13.4482 2.55242ZM4.45441 12.283C4.33404 12.4034 4.35972 12.6054 4.50654 12.6917C4.94329 12.9486 5.02344 13.5554 4.66167 13.9172C4.35633 14.2227 3.86232 14.2228 3.5567 13.9171C3.25209 13.6125 3.25209 13.1169 3.5567 12.8124C3.60554 12.7635 3.63299 12.6973 3.63299 12.6282C3.63299 12.5591 3.60554 12.4929 3.5567 12.444C3.50785 12.3952 3.4416 12.3677 3.37252 12.3677C3.30344 12.3677 3.23719 12.3952 3.18834 12.444C2.88375 12.7486 2.38815 12.7486 2.08357 12.444C1.77805 12.1385 1.77784 11.6445 2.08357 11.3389C2.44472 10.9777 3.05167 11.0567 3.30899 11.4941C3.39532 11.6409 3.59722 11.6667 3.71766 11.5462L5.34469 9.9192C5.47136 10.0461 5.62288 10.1454 5.78975 10.2109C5.85525 10.3778 5.95456 10.5293 6.08144 10.656L4.45441 12.283ZM13.0799 8.07769C12.5164 8.64097 11.8033 8.99764 11.0175 9.10917C9.80089 9.28198 8.42704 9.38133 7.56417 10.278C7.56105 10.2813 7.55792 10.2844 7.55464 10.2877C7.12371 10.7187 6.39949 10.5083 6.24753 9.93784C6.23574 9.89353 6.21245 9.85313 6.18003 9.82071C6.14761 9.78828 6.1072 9.765 6.0629 9.75321C5.63186 9.63834 5.37683 9.17764 5.52699 8.74303C5.59232 8.55253 5.72003 8.4404 5.72607 8.43295C6.62188 7.56991 6.72108 6.18244 6.89154 4.98314C7.00311 4.19739 7.35977 3.48422 7.92295 2.92081C9.34475 1.49927 11.6581 1.49927 13.0799 2.92081C14.5014 4.34257 14.5014 6.65598 13.0799 8.07769Z" fill="#174C6B" stroke="#174C6B" stroke-width="0.5"/>
</svg>
