<svg width="17" height="16" viewBox="0 0 17 16" fill="none" xmlns="http://www.w3.org/2000/svg">
<g clip-path="url(#clip0_559_5806)">
<path d="M11.833 6.66699H13.833M15.833 6.66699H13.833M13.833 6.66699V4.66699M13.833 6.66699V8.66699" stroke="#174C6B" stroke-width="1.5" stroke-linecap="round" stroke-linejoin="round"/>
<path d="M1.16699 13.3333V12.6667C1.16699 10.0893 3.25633 8 5.83366 8V8C8.41099 8 10.5003 10.0893 10.5003 12.6667V13.3333" stroke="#174C6B" stroke-width="1.5" stroke-linecap="round" stroke-linejoin="round"/>
<path d="M5.83366 8.00033C7.30642 8.00033 8.50033 6.80642 8.50033 5.33366C8.50033 3.8609 7.30642 2.66699 5.83366 2.66699C4.3609 2.66699 3.16699 3.8609 3.16699 5.33366C3.16699 6.80642 4.3609 8.00033 5.83366 8.00033Z" stroke="#174C6B" stroke-width="1.5" stroke-linecap="round" stroke-linejoin="round"/>
</g>
<defs>
<clipPath id="clip0_559_5806">
<rect width="16" height="16" fill="white" transform="translate(0.5)"/>
</clipPath>
</defs>
</svg>
