<svg width="17" height="16" viewBox="0 0 17 16" fill="none" xmlns="http://www.w3.org/2000/svg">
<g clip-path="url(#clip0_1351_9234)">
<path d="M16.4983 8.54928V6.17584H16.498L16.4983 6.01706L16.4979 5.99647C16.4556 4.98225 15.7759 4.03934 14.5839 3.34147C12.6662 2.21875 10.0682 1.61537 7.26782 1.64144C5.8597 1.65475 4.56207 1.90109 3.51517 2.35384C2.24382 2.90369 1.37645 3.72728 0.937197 4.80178C0.922635 4.83744 0.907979 4.8729 0.893385 4.90825C0.725041 5.31584 0.534197 5.77784 0.534197 6.37503V8.88612C0.338385 10.4826 0.993322 12.1933 2.20835 13.2528C3.04651 13.9837 4.08473 14.3592 5.22201 14.3592C5.71279 14.3592 6.22204 14.2892 6.74157 14.1478C7.57667 13.9205 8.27373 13.5197 8.94785 13.1322C9.23564 12.9668 9.50748 12.8105 9.79082 12.666C10.6456 12.23 11.3383 12.1327 12.2976 12.0339C14.1406 11.8442 15.3708 11.2091 16.0585 10.0923C16.3697 9.58712 16.5176 9.068 16.4983 8.54928ZM15.5188 6.02784V6.1625C15.5184 6.17109 15.5178 6.17972 15.5173 6.18828C15.5167 6.19678 15.5163 6.20522 15.5156 6.21372C15.5148 6.22319 15.5138 6.23265 15.5128 6.24212C15.5119 6.25056 15.5112 6.25897 15.5102 6.26744C15.509 6.27703 15.5076 6.28668 15.5063 6.29634C15.5051 6.30469 15.504 6.31303 15.5027 6.32137C15.5012 6.33112 15.4994 6.34094 15.4977 6.35072C15.4962 6.35897 15.4949 6.36725 15.4933 6.37553C15.4914 6.38547 15.4892 6.3954 15.4871 6.40534C15.4854 6.4135 15.4837 6.42165 15.4819 6.42984C15.4796 6.43997 15.4769 6.45012 15.4744 6.46028C15.4724 6.46831 15.4706 6.47631 15.4684 6.48434C15.4657 6.49465 15.4627 6.505 15.4597 6.51537C15.4575 6.52325 15.4554 6.53115 15.453 6.53903C15.4499 6.54953 15.4464 6.56006 15.443 6.57059C15.4405 6.57837 15.4382 6.58609 15.4356 6.59387C15.432 6.60459 15.4281 6.61528 15.4243 6.62603C15.4215 6.63362 15.419 6.64125 15.4161 6.64884C15.4121 6.65969 15.4078 6.67056 15.4035 6.68144C15.4006 6.68894 15.3978 6.6965 15.3947 6.704C15.3902 6.71509 15.3854 6.72622 15.3806 6.73734C15.3775 6.74462 15.3745 6.7519 15.3713 6.75919C15.3662 6.77075 15.3608 6.78231 15.3554 6.79387C15.3522 6.80075 15.3492 6.80765 15.3459 6.81453C15.3404 6.82606 15.3346 6.83759 15.3289 6.84909C15.3254 6.85609 15.3221 6.86306 15.3185 6.87006C15.3128 6.88122 15.3067 6.8924 15.3008 6.90356C15.2969 6.9109 15.2931 6.91825 15.2891 6.92562C15.2831 6.93647 15.2769 6.94734 15.2707 6.95819C15.2664 6.96584 15.2622 6.97356 15.2577 6.98128C15.2533 6.98887 15.2485 6.9965 15.244 7.00409C15.2375 7.015 15.2312 7.02587 15.2245 7.03678C14.9131 7.5425 14.4474 7.91384 13.798 8.16528C13.6271 8.23147 13.4434 8.28931 13.2465 8.33912C13.1678 8.35903 13.0869 8.37772 13.0039 8.39509C12.7547 8.44725 12.4862 8.48794 12.1973 8.51765C12.1443 8.52311 12.0913 8.52867 12.0384 8.53434C12.7412 7.36397 13.6809 5.79481 14.4814 4.44394C14.9577 4.79303 15.4854 5.33315 15.5188 6.02784ZM13.6404 3.94197C12.6674 5.5839 11.4872 7.55081 10.7792 8.72822C10.3146 8.8344 9.85501 8.99187 9.34582 9.25159C9.04057 9.40725 8.74529 9.57697 8.45973 9.74115C8.34666 9.80633 8.23334 9.87106 8.11976 9.93534C9.20876 8.14812 10.9957 5.20753 12.1205 3.3155C12.6613 3.4925 13.1702 3.70187 13.6404 3.94197ZM11.1448 3.03953C9.67467 5.50647 7.24392 9.49159 6.5396 10.6449C6.52113 10.6502 6.50288 10.6557 6.48426 10.6608C6.43357 10.6746 6.3831 10.6873 6.33276 10.6995C6.27026 10.7147 6.20801 10.7288 6.1461 10.7414L6.13923 10.7429C6.13488 10.7437 6.13054 10.7445 6.1262 10.7453C5.98146 10.7745 5.83548 10.7971 5.6887 10.813C5.67014 10.815 5.65167 10.8166 5.63317 10.8183C5.61476 10.8201 5.59629 10.8221 5.57795 10.8236C5.52238 10.8281 5.46674 10.8315 5.41104 10.8339C5.35723 10.8363 5.30363 10.8381 5.25045 10.8385C5.20829 10.8387 5.16642 10.8382 5.12467 10.8373C4.94946 10.8334 4.77471 10.8177 4.60163 10.7902C5.58707 9.17065 8.21904 4.83781 9.45263 2.7374C10.0374 2.80762 10.6032 2.90894 11.1448 3.03953ZM7.27707 2.62087C7.64167 2.61731 8.00629 2.62524 8.37038 2.64465C7.00157 4.9585 4.4492 9.15706 3.6372 10.491C3.45734 10.4048 3.28533 10.3031 3.12313 10.187C3.11463 10.1809 3.10635 10.1745 3.09792 10.1684C3.07845 10.1542 3.05898 10.1401 3.03979 10.1255C3.0301 10.1181 3.02063 10.1104 3.01098 10.1029C2.99332 10.0892 2.97557 10.0756 2.9582 10.0615C2.94757 10.0529 2.9372 10.044 2.9267 10.0353C2.91057 10.022 2.89435 10.0088 2.87845 9.99518C2.86735 9.98569 2.85651 9.97584 2.84554 9.96618C2.83048 9.95297 2.81532 9.93987 2.80045 9.92637C2.78957 9.91656 2.77901 9.90637 2.76826 9.89637C2.75354 9.88272 2.73876 9.86919 2.72426 9.85528C2.71385 9.84528 2.7037 9.835 2.69342 9.82487C2.67888 9.81059 2.66423 9.79643 2.64992 9.7819C2.63985 9.77168 2.63007 9.76122 2.6201 9.75087C2.60585 9.73609 2.59154 9.7214 2.57751 9.70637C2.56763 9.69584 2.55807 9.685 2.54832 9.67428C2.53451 9.65912 2.52063 9.64412 2.50704 9.62875C2.49745 9.61787 2.48807 9.60672 2.47857 9.59572C2.4652 9.58022 2.45173 9.56481 2.43857 9.54906C2.42967 9.5384 2.42101 9.5275 2.41223 9.51675C3.60192 7.53915 5.51979 4.34056 6.49723 2.65437C6.75001 2.63469 7.0101 2.6234 7.27707 2.62087ZM1.51379 6.3749C1.51373 5.97215 1.64579 5.6524 1.79873 5.28215C1.81379 5.24569 1.82885 5.20915 1.84392 5.17237C2.31723 4.01447 3.54448 3.19197 5.26142 2.82872C4.31042 4.44969 2.8742 6.84719 1.83626 8.5739C1.83348 8.56759 1.83057 8.56137 1.82782 8.55503C1.82151 8.5405 1.81548 8.52584 1.80935 8.51125C1.80157 8.49278 1.79373 8.47431 1.7862 8.45572C1.7802 8.44084 1.77445 8.42578 1.76857 8.41081C1.76132 8.39231 1.75404 8.37381 1.74707 8.35515C1.74135 8.3399 1.73595 8.32456 1.73038 8.30925C1.72367 8.29069 1.71688 8.27212 1.71045 8.2534C1.70507 8.23784 1.69998 8.22215 1.69473 8.2065C1.68854 8.18787 1.68229 8.16931 1.67635 8.15056C1.67129 8.13465 1.66651 8.11862 1.66167 8.10262C1.65598 8.08397 1.65026 8.06537 1.64482 8.04659C1.64017 8.03044 1.63576 8.01419 1.63126 7.99794C1.62607 7.97922 1.62085 7.96053 1.61595 7.94175C1.6116 7.92522 1.60757 7.90862 1.60345 7.892C1.59882 7.87334 1.5941 7.85472 1.58973 7.836C1.58579 7.81912 1.58207 7.80219 1.57832 7.78522C1.5742 7.76665 1.57004 7.74806 1.56617 7.72937C1.56257 7.71212 1.55932 7.69484 1.55595 7.67756C1.55235 7.65909 1.5487 7.64059 1.54535 7.62203C1.5422 7.60447 1.53932 7.58687 1.53638 7.56925C1.53332 7.55084 1.53017 7.53237 1.52735 7.5139C1.5246 7.49603 1.52217 7.47809 1.5196 7.46015C1.5176 7.4459 1.51564 7.43172 1.51376 7.41744L1.51379 6.3749ZM15.2246 9.57869C14.7 10.4304 13.7382 10.901 12.1974 11.0596C11.161 11.1663 10.3498 11.2814 9.34582 11.7935C9.04057 11.9492 8.74529 12.1189 8.4597 12.2831C7.81076 12.6562 7.19779 13.0085 6.48432 13.2027C4.69345 13.6903 3.52067 13.0977 2.8521 12.5147C2.1132 11.8703 1.63198 10.9265 1.5096 9.94987C1.51385 9.95559 1.5182 9.96115 1.52248 9.96687C1.52995 9.97687 1.53751 9.98675 1.54504 9.99672C1.56248 10.0197 1.58013 10.0426 1.59795 10.0652C1.60548 10.0748 1.61301 10.0844 1.62057 10.0939C1.64338 10.1225 1.66648 10.1509 1.68992 10.1789C1.69201 10.1814 1.69404 10.184 1.6961 10.1865C1.72171 10.2169 1.74769 10.2471 1.77404 10.2769C1.78148 10.2854 1.78904 10.2937 1.79654 10.3021C1.84568 10.357 1.89605 10.4108 1.94763 10.4635C1.95313 10.4691 1.95854 10.4748 1.96407 10.4804C1.99198 10.5086 2.02023 10.5363 2.04879 10.5637C2.05554 10.5702 2.06242 10.5766 2.06917 10.583C2.10035 10.6126 2.13194 10.6417 2.16392 10.6705C2.18613 10.6904 2.20857 10.7101 2.23117 10.7296C2.23888 10.7362 2.24648 10.743 2.25423 10.7496C2.28429 10.7752 2.31467 10.8004 2.34535 10.8252C2.35017 10.8291 2.35504 10.8328 2.35985 10.8367C2.38592 10.8576 2.41217 10.8782 2.43863 10.8985C2.4482 10.9058 2.45782 10.913 2.46748 10.9203C2.49067 10.9377 2.51404 10.955 2.53754 10.972C2.5467 10.9786 2.55579 10.9852 2.56501 10.9918C2.59712 11.0147 2.62953 11.0371 2.66223 11.0592L2.66588 11.0616C2.68673 11.0755 2.70801 11.0894 2.72957 11.1034C2.7367 11.108 2.74392 11.1126 2.75113 11.1172C2.76917 11.1287 2.78745 11.1401 2.80595 11.1515C2.81195 11.1552 2.81785 11.1589 2.82395 11.1626C2.8477 11.1771 2.87185 11.1915 2.89642 11.2059C2.90279 11.2096 2.90929 11.2133 2.9157 11.217C2.94298 11.2328 2.97044 11.2483 2.99807 11.2634C3.02438 11.2779 3.05082 11.2922 3.07742 11.3061C3.07982 11.3074 3.08232 11.3086 3.08473 11.3099C3.10957 11.3228 3.13485 11.3356 3.16038 11.3483C3.16851 11.3524 3.17673 11.3564 3.18498 11.3605C3.20804 11.3718 3.23138 11.3829 3.25501 11.394C3.26085 11.3967 3.26657 11.3995 3.27245 11.4022C3.30129 11.4156 3.33057 11.4287 3.36023 11.4417C3.3677 11.4449 3.37529 11.4481 3.38282 11.4513C3.4067 11.4616 3.43082 11.4717 3.4552 11.4817L3.47998 11.4919C3.51107 11.5044 3.54251 11.5167 3.57448 11.5287L3.58585 11.5329C3.62376 11.5471 3.66187 11.5607 3.70017 11.5737C3.72892 11.5835 3.75798 11.5932 3.78745 11.6026C3.79238 11.6042 3.79723 11.6058 3.80217 11.6074C3.83623 11.6182 3.87076 11.6285 3.90567 11.6386C3.91423 11.6411 3.92288 11.6435 3.93148 11.6459C3.95976 11.6539 3.98829 11.6617 4.0171 11.6692C4.02585 11.6715 4.03457 11.6738 4.04335 11.6761C4.07954 11.6853 4.11607 11.6942 4.15313 11.7027C4.15826 11.7039 4.16351 11.7049 4.16867 11.7061C4.20104 11.7134 4.23379 11.7204 4.26688 11.7271C4.27695 11.7291 4.28701 11.7311 4.2971 11.7331C4.33198 11.7398 4.36713 11.7463 4.40273 11.7525C4.40638 11.7531 4.41001 11.7538 4.41367 11.7544C4.49585 11.7682 4.57839 11.7798 4.6612 11.7891C4.67026 11.7902 4.67929 11.7913 4.68842 11.7922C4.7296 11.7967 4.77117 11.8007 4.8132 11.8041C4.82007 11.8047 4.82707 11.8051 4.83395 11.8056C4.92357 11.8125 5.01336 11.817 5.10323 11.8191C5.10442 11.8191 5.10554 11.8192 5.10673 11.8192C5.14254 11.8199 5.17867 11.8204 5.21507 11.8204C5.22473 11.8204 5.23454 11.8202 5.24423 11.8201L5.26663 11.8199C5.31145 11.8195 5.3566 11.8185 5.40232 11.8169C5.40717 11.8167 5.41207 11.8164 5.41692 11.8162C5.46307 11.8145 5.50963 11.8121 5.5567 11.809C5.55923 11.8088 5.56176 11.8087 5.56429 11.8085C5.61167 11.8054 5.65957 11.8013 5.70782 11.7968C5.71532 11.7961 5.72282 11.7955 5.73035 11.7947C5.77797 11.7901 5.82553 11.7848 5.87301 11.7789C5.88076 11.778 5.88848 11.7769 5.89626 11.7759C5.94563 11.7696 5.99535 11.7627 6.04563 11.755L6.05476 11.7535C6.10435 11.7458 6.15442 11.7373 6.20485 11.7281L6.22185 11.7251C6.27207 11.7157 6.32276 11.7056 6.37388 11.6948L6.40126 11.689C6.45195 11.6781 6.50301 11.6665 6.55451 11.654C6.56251 11.6521 6.57054 11.65 6.57854 11.6481C6.63251 11.6348 6.68682 11.621 6.7417 11.6061C7.57679 11.3787 8.27389 10.978 8.94801 10.5905C9.23582 10.425 9.50764 10.2688 9.79095 10.1242C9.81767 10.1106 9.8442 10.0973 9.8706 10.0843C10.6892 9.68222 11.3684 9.58787 12.2977 9.49219C12.3504 9.48678 12.4024 9.48084 12.4541 9.47472C12.4686 9.473 12.4829 9.47115 12.4973 9.46937C12.5352 9.46472 12.5727 9.45984 12.6101 9.45475L12.6565 9.44834C12.6967 9.44265 12.7365 9.43675 12.7759 9.43062C12.7862 9.42903 12.7965 9.42753 12.8067 9.42594C12.8562 9.41806 12.9051 9.40984 12.9535 9.40125C12.9635 9.39947 12.9734 9.39756 12.9834 9.39572C13.0215 9.38882 13.0594 9.38165 13.0973 9.37419C13.1119 9.37131 13.1265 9.36837 13.141 9.36544C13.1754 9.35844 13.2097 9.35121 13.244 9.34375C13.257 9.3409 13.2701 9.33812 13.283 9.33525C13.3737 9.31501 13.464 9.29291 13.5538 9.26897C13.566 9.26565 13.5781 9.26231 13.5904 9.25897C13.6701 9.23718 13.7494 9.21381 13.8282 9.18887C13.8367 9.18615 13.8453 9.18359 13.8537 9.18084C13.8954 9.16739 13.937 9.15345 13.9784 9.13903C13.9866 9.13615 13.9947 9.13315 14.0029 9.13025C14.0356 9.11869 14.0679 9.10694 14.0999 9.0949C14.1121 9.09034 14.1241 9.08568 14.1362 9.08106C14.1655 9.06981 14.1946 9.05831 14.2234 9.04662C14.2342 9.04225 14.2451 9.0379 14.2559 9.03347C14.3323 9.0019 14.4078 8.96835 14.4824 8.93284C14.4927 8.92797 14.5028 8.92297 14.513 8.91803C14.5399 8.90497 14.5666 8.89169 14.593 8.87819C14.604 8.87256 14.615 8.867 14.6259 8.86131C14.6541 8.84662 14.6821 8.83161 14.7099 8.81628C14.7171 8.81234 14.7244 8.8085 14.7315 8.80456C14.7659 8.78538 14.8001 8.7657 14.834 8.74553C14.841 8.74131 14.8479 8.73697 14.8549 8.73275C14.8917 8.71056 14.9281 8.68779 14.9641 8.66444C14.9876 8.64915 15.0109 8.63365 15.034 8.61797C15.0432 8.61172 15.0524 8.60553 15.0615 8.59922C15.1237 8.55615 15.1845 8.51119 15.2439 8.4644C15.2528 8.4574 15.2615 8.45031 15.2704 8.44322C15.2913 8.42647 15.3119 8.40953 15.3323 8.39234C15.3635 8.36614 15.3943 8.33938 15.4246 8.31209C15.4312 8.30615 15.4379 8.30031 15.4444 8.29431C15.4697 8.27122 15.4946 8.2479 15.519 8.22419V8.55897L15.5195 8.57934C15.5327 8.90297 15.4336 9.23925 15.2246 9.57869Z" fill="#174C6B"/>
</g>
<defs>
<clipPath id="clip0_1351_9234">
<rect width="16" height="16" fill="white" transform="translate(0.5)"/>
</clipPath>
</defs>
</svg>
