<svg width="24" height="24" viewBox="0 0 24 24" fill="none" xmlns="http://www.w3.org/2000/svg">
<g clip-path="url(#clip0_61_622)">
<path d="M23.9975 12.8239V9.26376H23.997L23.9975 9.02559L23.9969 8.9947C23.9334 7.47337 22.9139 6.05901 21.1259 5.0122C18.2494 3.32812 14.3523 2.42306 10.1518 2.46215C8.03958 2.48212 6.09314 2.85164 4.52278 3.53076C2.61576 4.35553 1.3147 5.59092 0.655827 7.20267C0.633983 7.25615 0.611998 7.30936 0.590108 7.36237C0.337592 7.97376 0.0513266 8.66676 0.0513266 9.56254V13.3292C-0.242392 15.7238 0.740014 18.29 2.56256 19.8793C3.8198 20.9756 5.37712 21.5387 7.08305 21.5387C7.81922 21.5387 8.58309 21.4338 9.36239 21.2217C10.615 20.8807 11.6606 20.2796 12.6718 19.6983C13.1035 19.4502 13.5112 19.2158 13.9363 18.9989C15.2184 18.345 16.2575 18.199 17.6964 18.0509C20.4609 17.7663 22.3062 16.8136 23.3378 15.1384C23.8045 14.3807 24.0264 13.602 23.9975 12.8239ZM22.5283 9.04176V9.24375C22.5277 9.25664 22.5268 9.26958 22.5259 9.28242C22.5251 9.29517 22.5244 9.30782 22.5234 9.32057C22.5222 9.33478 22.5207 9.34898 22.5192 9.36318C22.518 9.37584 22.5168 9.38845 22.5153 9.40115C22.5135 9.41554 22.5114 9.43003 22.5094 9.44451C22.5076 9.45703 22.5061 9.46954 22.5041 9.48206C22.5018 9.49668 22.4991 9.5114 22.4965 9.52607C22.4944 9.53845 22.4924 9.55087 22.49 9.56329C22.4871 9.5782 22.4838 9.59311 22.4807 9.60801C22.4781 9.62025 22.4756 9.63248 22.4729 9.64476C22.4694 9.65995 22.4655 9.67518 22.4617 9.69042C22.4587 9.70247 22.4559 9.71447 22.4527 9.72651C22.4486 9.74198 22.4441 9.7575 22.4396 9.77306C22.4362 9.78487 22.4331 9.79673 22.4295 9.80854C22.4248 9.82429 22.4196 9.84009 22.4145 9.85589C22.4108 9.86756 22.4073 9.87914 22.4034 9.89081C22.398 9.90689 22.3921 9.92292 22.3864 9.93904C22.3823 9.95043 22.3785 9.96187 22.3742 9.97326C22.3682 9.98953 22.3617 10.0058 22.3553 10.0222C22.3509 10.0334 22.3467 10.0447 22.3421 10.056C22.3353 10.0726 22.3281 10.0893 22.3209 10.106C22.3162 10.1169 22.3118 10.1279 22.307 10.1388C22.2993 10.1561 22.2912 10.1735 22.2831 10.1908C22.2783 10.2011 22.2738 10.2115 22.2689 10.2218C22.2607 10.2391 22.2519 10.2564 22.2433 10.2736C22.2381 10.2841 22.2331 10.2946 22.2277 10.3051C22.2192 10.3218 22.2101 10.3386 22.2012 10.3553C22.1953 10.3664 22.1897 10.3774 22.1836 10.3884C22.1747 10.4047 22.1653 10.421 22.1561 10.4373C22.1496 10.4488 22.1433 10.4603 22.1366 10.4719C22.13 10.4833 22.1228 10.4947 22.1161 10.5061C22.1063 10.5225 22.0968 10.5388 22.0867 10.5552C21.6196 11.3137 20.9212 11.8708 19.947 12.2479C19.6906 12.3472 19.4152 12.434 19.1198 12.5087C19.0017 12.5385 18.8804 12.5666 18.7558 12.5926C18.3821 12.6709 17.9793 12.7319 17.546 12.7765C17.4665 12.7847 17.387 12.793 17.3076 12.8015C18.3618 11.0459 19.7714 8.69222 20.9721 6.6659C21.6865 7.18954 22.4781 7.99973 22.5283 9.04176ZM19.7106 5.91295C18.2512 8.37586 16.4808 11.3262 15.4188 13.0923C14.722 13.2516 14.0325 13.4878 13.2688 13.8774C12.8109 14.1109 12.368 14.3654 11.9396 14.6117C11.77 14.7095 11.6 14.8066 11.4297 14.903C13.0632 12.2222 15.7436 7.81129 17.4307 4.97325C18.242 5.23875 19.0053 5.55281 19.7106 5.91295ZM15.9673 4.55929C13.762 8.2597 10.1159 14.2374 9.05944 15.9673C9.03173 15.9752 9.00436 15.9836 8.97642 15.9912C8.90039 16.0119 8.82469 16.031 8.74917 16.0493C8.65542 16.072 8.56205 16.0932 8.46919 16.1121L8.45887 16.1143C8.45236 16.1156 8.44584 16.1167 8.43933 16.118C8.22222 16.1618 8.00325 16.1956 7.78308 16.2195C7.75523 16.2225 7.72753 16.2248 7.69978 16.2275C7.67217 16.2301 7.64447 16.2331 7.61695 16.2353C7.5336 16.2421 7.45014 16.2473 7.36659 16.2509C7.28587 16.2545 7.20548 16.2571 7.1257 16.2577C7.06247 16.2581 6.99965 16.2574 6.93703 16.2559C6.67422 16.2501 6.4121 16.2266 6.15248 16.1853C7.63064 13.756 11.5786 7.25672 13.429 4.10611C14.3061 4.21143 15.1549 4.3634 15.9673 4.55929ZM10.1656 3.93131C10.7125 3.92597 11.2595 3.93786 11.8056 3.96698C9.75239 7.43775 5.92383 13.7356 4.70583 15.7365C4.43603 15.6072 4.17803 15.4546 3.93473 15.2804C3.92198 15.2714 3.90956 15.2618 3.8969 15.2526C3.8677 15.2313 3.8385 15.2101 3.80972 15.1882C3.79519 15.1772 3.78098 15.1656 3.7665 15.1544C3.74001 15.1338 3.71339 15.1134 3.68733 15.0923C3.67139 15.0794 3.65583 15.066 3.64008 15.053C3.61589 15.033 3.59156 15.0132 3.5677 14.9928C3.55106 14.9785 3.5348 14.9638 3.51834 14.9493C3.49575 14.9294 3.47301 14.9098 3.4507 14.8896C3.43439 14.8748 3.41855 14.8596 3.40242 14.8446C3.38034 14.8241 3.35817 14.8038 3.33642 14.7829C3.32081 14.7679 3.30558 14.7525 3.29015 14.7373C3.26836 14.7159 3.24637 14.6947 3.2249 14.6729C3.20981 14.6575 3.19514 14.6418 3.18019 14.6263C3.15881 14.6041 3.13734 14.5821 3.1163 14.5596C3.10148 14.5438 3.08714 14.5275 3.07251 14.5114C3.0518 14.4887 3.03098 14.4662 3.01059 14.4431C2.9962 14.4268 2.98214 14.4101 2.96789 14.3936C2.94783 14.3703 2.92762 14.3472 2.90789 14.3236C2.89453 14.3076 2.88155 14.2912 2.86837 14.2751C4.6529 11.3087 7.52972 6.51084 8.99587 3.98156C9.37505 3.95203 9.76519 3.93511 10.1656 3.93131ZM1.52072 9.56236C1.52062 8.95823 1.71872 8.47861 1.94812 7.92323C1.97072 7.86853 1.99331 7.81373 2.0159 7.75856C2.72587 6.0217 4.56675 4.78795 7.14215 4.24308C5.71565 6.67453 3.56133 10.2708 2.00442 12.8609C2.00025 12.8514 1.99589 12.8421 1.99176 12.8325C1.9823 12.8107 1.97325 12.7888 1.96406 12.7669C1.95239 12.7392 1.94062 12.7115 1.92933 12.6836C1.92033 12.6613 1.9117 12.6387 1.90289 12.6162C1.89201 12.5885 1.88109 12.5607 1.87064 12.5327C1.86206 12.5099 1.85395 12.4868 1.84561 12.4639C1.83553 12.436 1.82536 12.4082 1.8157 12.3801C1.80764 12.3568 1.8 12.3332 1.79212 12.3097C1.78284 12.2818 1.77347 12.254 1.76456 12.2258C1.75697 12.202 1.7498 12.1779 1.74253 12.1539C1.734 12.1259 1.72542 12.0981 1.71726 12.0699C1.71028 12.0457 1.70367 12.0213 1.69692 11.9969C1.68914 11.9688 1.68131 11.9408 1.67395 11.9126C1.66744 11.8878 1.66139 11.8629 1.6552 11.838C1.64826 11.81 1.64119 11.7821 1.63462 11.754C1.62872 11.7287 1.62314 11.7033 1.61751 11.6778C1.61133 11.65 1.60509 11.6221 1.59928 11.5941C1.59389 11.5682 1.58901 11.5423 1.58395 11.5163C1.57856 11.4886 1.57308 11.4609 1.56806 11.433C1.56333 11.4067 1.55901 11.3803 1.55461 11.3539C1.55001 11.3263 1.54528 11.2986 1.54106 11.2709C1.53694 11.244 1.53328 11.2171 1.52944 11.1902C1.52644 11.1689 1.52348 11.1476 1.52067 11.1262L1.52072 9.56236ZM22.0869 14.368C21.3001 15.6456 19.8573 16.3514 17.5461 16.5894C15.9915 16.7494 14.7748 16.9221 13.2688 17.6902C12.8109 17.9238 12.368 18.1784 11.9396 18.4246C10.9662 18.9842 10.0467 19.5128 8.97651 19.8041C6.2902 20.5354 4.53103 19.6465 3.52819 18.772C2.41983 17.8055 1.698 16.3898 1.51444 14.9248C1.52081 14.9334 1.52733 14.9417 1.53375 14.9503C1.54495 14.9653 1.5563 14.9801 1.56759 14.9951C1.59375 15.0296 1.62023 15.0638 1.64695 15.0978C1.65825 15.1122 1.66955 15.1266 1.68089 15.1409C1.71511 15.1837 1.74975 15.2263 1.7849 15.2684C1.78805 15.2721 1.79109 15.276 1.79419 15.2797C1.83259 15.3254 1.87156 15.3706 1.91109 15.4154C1.92225 15.4281 1.93359 15.4405 1.94484 15.4531C2.01855 15.5355 2.09411 15.6163 2.17148 15.6952C2.17973 15.7037 2.18784 15.7122 2.19614 15.7206C2.238 15.7628 2.28037 15.8045 2.32322 15.8456C2.33334 15.8553 2.34365 15.8649 2.35378 15.8745C2.40055 15.9189 2.44793 15.9626 2.4959 16.0057C2.52923 16.0356 2.56289 16.0652 2.59678 16.0944C2.60836 16.1044 2.61975 16.1144 2.63137 16.1243C2.67647 16.1627 2.72203 16.2007 2.76806 16.2379C2.77528 16.2437 2.78259 16.2493 2.78981 16.2551C2.8289 16.2864 2.86828 16.3173 2.90798 16.3477C2.92233 16.3587 2.93676 16.3695 2.95125 16.3804C2.98603 16.4066 3.02109 16.4324 3.05634 16.4579C3.07008 16.4678 3.08372 16.4778 3.09755 16.4877C3.14572 16.522 3.19433 16.5557 3.24337 16.5887L3.24886 16.5923C3.28012 16.6132 3.31205 16.6342 3.34439 16.6551C3.35508 16.6619 3.3659 16.6688 3.37673 16.6757C3.40378 16.693 3.4312 16.7101 3.45895 16.7272C3.46795 16.7328 3.47681 16.7384 3.48595 16.7439C3.52158 16.7657 3.55781 16.7873 3.59465 16.8088C3.60422 16.8144 3.61397 16.8199 3.62358 16.8255C3.6645 16.8492 3.70569 16.8724 3.74714 16.8952C3.78659 16.9169 3.82627 16.9382 3.86615 16.9592C3.86976 16.9611 3.87351 16.9629 3.87712 16.9648C3.91439 16.9842 3.95231 17.0034 3.99061 17.0225C4.0028 17.0286 4.01512 17.0346 4.0275 17.0407C4.06209 17.0577 4.09711 17.0744 4.13255 17.091C4.14131 17.0951 4.14989 17.0993 4.1587 17.1033C4.20197 17.1233 4.24589 17.143 4.29037 17.1625C4.30158 17.1674 4.31297 17.1722 4.32426 17.177C4.36008 17.1924 4.39626 17.2076 4.43283 17.2226L4.47 17.2378C4.51664 17.2566 4.5638 17.2751 4.61175 17.2931L4.62881 17.2994C4.68567 17.3206 4.74283 17.341 4.80028 17.3606C4.8434 17.3753 4.887 17.3898 4.9312 17.4039C4.93861 17.4062 4.94587 17.4087 4.95328 17.4111C5.00437 17.4272 5.05617 17.4427 5.10853 17.4579C5.12137 17.4616 5.13436 17.4652 5.14725 17.4689C5.18967 17.4809 5.23247 17.4925 5.27569 17.5038C5.28881 17.5072 5.30189 17.5108 5.31506 17.5141C5.36934 17.528 5.42414 17.5413 5.47973 17.554C5.48742 17.5558 5.4953 17.5574 5.50303 17.5592C5.55159 17.5701 5.60072 17.5806 5.65036 17.5906C5.66545 17.5936 5.68055 17.5967 5.69569 17.5996C5.748 17.6098 5.80073 17.6195 5.85412 17.6287C5.85961 17.6296 5.86505 17.6307 5.87053 17.6317C5.99381 17.6523 6.11762 17.6696 6.24183 17.6837C6.25542 17.6852 6.26897 17.6869 6.28265 17.6884C6.34444 17.695 6.40678 17.7011 6.46983 17.7062C6.48014 17.707 6.49064 17.7076 6.50095 17.7084C6.63539 17.7188 6.77008 17.7255 6.90487 17.7286C6.90665 17.7287 6.90834 17.7288 6.91012 17.7288C6.96384 17.7299 7.01803 17.7306 7.07264 17.7306C7.08712 17.7306 7.10184 17.7303 7.11637 17.7302L7.14998 17.7299C7.2172 17.7292 7.28494 17.7278 7.35351 17.7253C7.36078 17.7251 7.36814 17.7247 7.3754 17.7244C7.44464 17.7217 7.51448 17.7181 7.58508 17.7135C7.58887 17.7133 7.59267 17.7131 7.59647 17.7128C7.66753 17.7081 7.73939 17.702 7.81176 17.6953C7.82301 17.6942 7.83426 17.6932 7.84556 17.6921C7.91699 17.6851 7.98833 17.6772 8.05955 17.6684C8.07117 17.6669 8.08275 17.6654 8.09442 17.6639C8.16848 17.6544 8.24306 17.6441 8.31848 17.6325L8.33217 17.6303C8.40656 17.6187 8.48165 17.6059 8.55731 17.5921L8.58281 17.5876C8.65814 17.5736 8.73417 17.5584 8.81086 17.5423L8.85192 17.5335C8.92795 17.5171 9.00455 17.4997 9.08179 17.481C9.09379 17.4781 9.10584 17.475 9.11784 17.4721C9.1988 17.4523 9.28026 17.4315 9.36258 17.4091C10.6152 17.0681 11.6609 16.467 12.672 15.8857C13.1038 15.6375 13.5115 15.4032 13.9365 15.1864C13.9765 15.1659 14.0163 15.146 14.0559 15.1265C15.2838 14.5233 16.3026 14.3818 17.6966 14.2383C17.7756 14.2302 17.8537 14.2213 17.9312 14.2121C17.9529 14.2095 17.9744 14.2067 17.996 14.2041C18.0528 14.1971 18.1091 14.1898 18.1651 14.1821L18.2348 14.1725C18.295 14.164 18.3547 14.1551 18.414 14.1459C18.4293 14.1435 18.4448 14.1413 18.4601 14.1389C18.5343 14.1271 18.6076 14.1148 18.6802 14.1019C18.6953 14.0992 18.7102 14.0963 18.7252 14.0936C18.7822 14.0832 18.8392 14.0725 18.896 14.0613C18.918 14.057 18.9397 14.0526 18.9615 14.0482C19.0131 14.0377 19.0647 14.0268 19.1161 14.0156C19.1356 14.0114 19.1552 14.0072 19.1745 14.0029C19.3106 13.9725 19.446 13.9394 19.5807 13.9034C19.5991 13.8985 19.6172 13.8935 19.6356 13.8885C19.7552 13.8558 19.8741 13.8207 19.9923 13.7833C20.005 13.7792 20.0179 13.7754 20.0306 13.7713C20.0932 13.7511 20.1555 13.7302 20.2176 13.7085C20.23 13.7042 20.2421 13.6997 20.2545 13.6954C20.3034 13.678 20.3519 13.6604 20.4 13.6424C20.4182 13.6355 20.4362 13.6285 20.4544 13.6216C20.4983 13.6047 20.5419 13.5875 20.5852 13.5699C20.6014 13.5634 20.6177 13.5569 20.6339 13.5502C20.7484 13.5028 20.8617 13.4525 20.9737 13.3993C20.9891 13.392 21.0042 13.3844 21.0195 13.377C21.0599 13.3575 21.1 13.3375 21.1396 13.3173C21.156 13.3088 21.1725 13.3005 21.1889 13.292C21.2311 13.2699 21.2731 13.2474 21.3149 13.2244C21.3256 13.2185 21.3366 13.2127 21.3472 13.2068C21.3989 13.1781 21.4502 13.1486 21.501 13.1183C21.5116 13.112 21.5219 13.1054 21.5325 13.0991C21.5876 13.0658 21.6421 13.0317 21.6961 12.9967C21.7314 12.9737 21.7664 12.9505 21.801 12.927C21.8148 12.9176 21.8287 12.9083 21.8423 12.8988C21.9356 12.8342 22.0268 12.7668 22.116 12.6966C22.1293 12.6861 22.1423 12.6755 22.1556 12.6648C22.1869 12.6397 22.2179 12.6143 22.2485 12.5885C22.2953 12.5492 22.3415 12.5091 22.3869 12.4681C22.3968 12.4592 22.4069 12.4505 22.4167 12.4415C22.4546 12.4068 22.4919 12.3719 22.5286 12.3363V12.8385L22.5292 12.869C22.5491 13.3544 22.4004 13.8589 22.0869 14.368Z" fill="#F6FAFC"/>
</g>
<defs>
<clipPath id="clip0_61_622">
<rect width="24" height="24" fill="white"/>
</clipPath>
</defs>
</svg>
