<svg width="24" height="24" viewBox="0 0 24 24" fill="none" xmlns="http://www.w3.org/2000/svg">
<g clip-path="url(#clip0_14756_110485)">
<path d="M23.9896 14.465C23.9896 13.5638 23.5053 12.7734 22.7833 12.3406C23.0696 11.9278 23.2228 11.4374 23.2222 10.9351C23.2222 9.57038 22.1119 8.4601 20.7472 8.4601H15.5226C15.6828 7.73447 15.9018 6.64561 16.0543 5.50575C16.4511 2.53946 16.1799 0.894378 15.2008 0.328644C14.5904 -0.0239967 13.9323 -0.095528 13.3476 0.127035C12.896 0.299066 12.2861 0.722019 11.9385 1.76007L10.5653 5.35543C9.65464 7.60463 6.28644 10.0006 5.48923 10.5444H0.717781C0.325672 10.5444 0.0078125 10.8623 0.0078125 11.2544V21.6821C0.0078125 22.0742 0.325719 22.392 0.717781 22.392H5.57042C8.27548 23.4589 11.1212 24 14.0311 24H19.7239C21.0886 24 22.1989 22.8897 22.1989 21.525C22.1994 21.0644 22.0706 20.6128 21.8271 20.2217C22.6522 19.8199 23.2221 18.9727 23.2221 17.995C23.2227 17.4927 23.0695 17.0022 22.7833 16.5895C23.5053 16.1566 23.9896 15.3663 23.9896 14.465ZM4.99527 20.9722H1.42775V11.9644H4.99527V20.9722ZM21.5146 15.52H20.7472C20.3551 15.52 20.0372 15.8379 20.0372 16.23C20.0372 16.6221 20.3551 16.94 20.7472 16.94C21.3289 16.94 21.8022 17.4133 21.8022 17.995C21.8022 18.5768 21.3289 19.05 20.7472 19.05H19.724C19.3318 19.05 19.014 19.368 19.014 19.76C19.014 20.1521 19.3319 20.47 19.724 20.47C20.3057 20.47 20.779 20.9433 20.779 21.525C20.779 22.1067 20.3057 22.58 19.724 22.58H14.0312C11.4163 22.58 8.85673 22.1148 6.4153 21.1964V11.6322C7.48747 10.8925 10.8636 8.41444 11.8848 5.88033L11.8895 5.86824L13.2706 2.25216C13.2745 2.24203 13.2782 2.23177 13.2815 2.2215C13.4154 1.81603 13.6184 1.54346 13.8531 1.45407C14.0808 1.3673 14.3254 1.46278 14.4904 1.55818C14.4965 1.56169 15.0888 2.00339 14.6483 5.30658C14.3982 7.18257 13.9438 8.97685 13.9393 8.99475C13.9126 9.09957 13.9102 9.2091 13.9323 9.31498C13.9544 9.42086 14.0004 9.52029 14.0667 9.6057C14.1331 9.6911 14.2181 9.76022 14.3153 9.80777C14.4124 9.85532 14.5191 9.88006 14.6273 9.88008H20.7473C21.329 9.88008 21.8023 10.3534 21.8023 10.9351C21.8023 11.5168 21.329 11.9901 20.7473 11.9901C20.3552 11.9901 20.0374 12.308 20.0374 12.7001C20.0374 13.0922 20.3553 13.41 20.7473 13.41H21.5147C22.0964 13.41 22.5697 13.8833 22.5697 14.4651C22.5697 15.0467 22.0963 15.52 21.5146 15.52Z" fill="#474747"/>
</g>
<defs>
<clipPath id="clip0_14756_110485">
<rect width="24" height="24" fill="white"/>
</clipPath>
</defs>
</svg>
