<svg width="24" height="24" viewBox="0 0 24 24" fill="none" xmlns="http://www.w3.org/2000/svg">
<g clip-path="url(#clip0_14756_110486)">
<path d="M0.717781 10.5444C0.325672 10.5444 0.0078125 10.8623 0.0078125 11.2544V21.6821C0.0078125 22.0742 0.325719 22.3921 0.717781 22.3921H4.99527V10.5444H0.717781ZM23.9896 14.465C23.9896 13.5638 23.5053 12.7734 22.7833 12.3406C23.0696 11.9278 23.2228 11.4374 23.2222 10.9351C23.2222 9.57038 22.1119 8.4601 20.7472 8.4601H15.5226C15.6828 7.73447 15.9018 6.64561 16.0543 5.50575C16.4511 2.53946 16.1799 0.894378 15.2008 0.328644C14.5904 -0.0239967 13.9323 -0.095528 13.3476 0.127035C12.896 0.299066 12.2861 0.722019 11.9385 1.76007L10.5653 5.35543C9.86919 7.07466 7.73736 8.87958 6.41525 9.8776V22.7063C8.86559 23.5648 11.4225 24 14.0311 24H19.7239C21.0886 24 22.1989 22.8897 22.1989 21.525C22.1994 21.0644 22.0706 20.6128 21.8271 20.2217C22.6522 19.8199 23.2221 18.9727 23.2221 17.995C23.2227 17.4927 23.0695 17.0022 22.7833 16.5895C23.5053 16.1566 23.9896 15.3663 23.9896 14.465Z" fill="#37B5FF"/>
</g>
<defs>
<clipPath id="clip0_14756_110486">
<rect width="24" height="24" fill="white"/>
</clipPath>
</defs>
</svg>
