<svg width="16" height="16" viewBox="0 0 16 16" fill="none" xmlns="http://www.w3.org/2000/svg">
<g clip-path="url(#clip0_512_3387)">
<path d="M15.31 10.8775C15.6379 10.4592 15.7951 10.0109 15.775 9.54914C15.755 9.04057 15.5274 8.64241 15.3401 8.39816C15.5576 7.85613 15.6412 7.00293 14.9151 6.34044C14.3832 5.85529 13.4798 5.63781 12.2284 5.69803C11.3484 5.73818 10.6123 5.90213 10.5822 5.90882H10.5789C10.4116 5.93894 10.2343 5.97574 10.0536 6.01589C10.0402 5.80176 10.077 5.26976 10.4718 4.07194C10.9402 2.64659 10.9135 1.55583 10.3848 0.826432C9.82941 0.0602259 8.94275 0 8.68177 0C8.43083 0 8.19997 0.103722 8.03602 0.294437C7.66463 0.726056 7.70812 1.52238 7.75496 1.89042C7.31331 3.07486 6.07533 5.97909 5.02807 6.78545C5.008 6.79883 4.99127 6.81556 4.97454 6.83229C4.66672 7.15684 4.45927 7.50816 4.31875 7.81598C4.12134 7.70891 3.89717 7.64868 3.65626 7.64868H1.61527C0.845722 7.64868 0.223389 8.27436 0.223389 9.04057V14.4776C0.223389 15.2472 0.849068 15.8695 1.61527 15.8695H3.65626C3.95405 15.8695 4.23175 15.7758 4.45927 15.6152L5.24555 15.7089C5.36601 15.7256 7.50737 15.9967 9.70561 15.9532C10.1038 15.9833 10.4785 16 10.8265 16C11.4254 16 11.9474 15.9532 12.3823 15.8595C13.4062 15.642 14.1054 15.207 14.4601 14.568C14.7311 14.0795 14.7311 13.5943 14.6876 13.2865C15.3535 12.6842 15.4706 12.0184 15.4471 11.55C15.4338 11.279 15.3735 11.0481 15.31 10.8775ZM1.61527 14.9661C1.34426 14.9661 1.12678 14.7453 1.12678 14.4776V9.03722C1.12678 8.76621 1.3476 8.54872 1.61527 8.54872H3.65626C3.92728 8.54872 4.14476 8.76955 4.14476 9.03722V14.4743C4.14476 14.7453 3.92393 14.9628 3.65626 14.9628H1.61527V14.9661ZM14.4534 10.486C14.3129 10.6332 14.2861 10.8574 14.3932 11.0314C14.3932 11.0347 14.5304 11.2689 14.5471 11.5901C14.5705 12.0284 14.3597 12.4166 13.9181 12.7478C13.7608 12.8683 13.6972 13.0757 13.7642 13.2631C13.7642 13.2664 13.908 13.7081 13.6738 14.1263C13.4497 14.5278 12.9511 14.8156 12.1949 14.9762C11.5893 15.1066 10.7663 15.1301 9.7558 15.0498H9.70896C7.55756 15.0966 5.38274 14.8156 5.35931 14.8122H5.35597L5.01804 14.7721C5.03811 14.6784 5.04815 14.578 5.04815 14.4776V9.03722C5.04815 8.89335 5.02473 8.75282 4.98458 8.62233C5.0448 8.39816 5.2121 7.89962 5.60691 7.4747C7.10921 6.28356 8.57805 2.26516 8.64162 2.09118C8.66839 2.02091 8.67508 1.94396 8.6617 1.867C8.60482 1.49226 8.62489 1.03388 8.70519 0.896696C8.88253 0.900042 9.36099 0.95023 9.64873 1.34839C9.99001 1.82016 9.97663 2.66332 9.60858 3.78084C9.04648 5.4839 8.99963 6.38059 9.44464 6.77541C9.66546 6.97281 9.9599 6.98285 10.174 6.9059C10.3781 6.85905 10.5722 6.8189 10.7562 6.78879C10.7696 6.78545 10.7863 6.7821 10.7997 6.77875C11.8269 6.55458 13.6671 6.4174 14.3062 6.99958C14.8482 7.49477 14.4635 8.15056 14.42 8.22083C14.2962 8.4082 14.333 8.65245 14.5003 8.80301C14.5036 8.80636 14.8549 9.1376 14.8717 9.5826C14.885 9.88038 14.7445 10.1849 14.4534 10.486Z" fill="#4B4B4B"/>
</g>
<defs>
<clipPath id="clip0_512_3387">
<rect width="16" height="16" fill="white"/>
</clipPath>
</defs>
</svg>
