<svg width="36" height="36" viewBox="0 0 36 36" fill="none" xmlns="http://www.w3.org/2000/svg">
<g clip-path="url(#clip0_1117_5237)">
<path d="M18.7783 0.77874C18.7783 0.348654 18.4299 0 18 0C17.5701 0 17.2217 0.348654 17.2217 0.77874V5.37765C17.2217 5.80774 17.5701 6.15639 18 6.15639C18.4299 6.15639 18.7783 5.80774 18.7783 5.37765V0.77874Z" fill="#1E648C"/>
<path d="M10.0641 2.69687C9.84908 2.3244 9.37297 2.19669 9.00071 2.41162C8.62844 2.62655 8.50099 3.10272 8.71603 3.47519L11.0155 7.45796C11.2305 7.83043 11.7066 7.95814 12.0789 7.74321C12.4512 7.52828 12.5786 7.05211 12.3636 6.67964L10.0641 2.69687Z" fill="#1E648C"/>
<path d="M3.47498 8.7151C3.10251 8.50006 2.62634 8.62752 2.41141 8.99978C2.19648 9.37205 2.32419 9.84815 2.69666 10.0632L6.67943 12.3627C7.05189 12.5777 7.52807 12.4502 7.743 12.078C7.95793 11.7057 7.83022 11.2296 7.45775 11.0146L3.47498 8.7151Z" fill="#2781B5"/>
<path d="M0.77874 17.2227C0.348654 17.2227 0 17.5711 0 18.001C0 18.4308 0.348654 18.7793 0.77874 18.7793H5.37765C5.80774 18.7793 6.15639 18.4308 6.15639 18.001C6.15639 17.5711 5.80774 17.2227 5.37765 17.2227H0.77874Z" fill="#2781B5"/>
<path d="M2.69653 25.9364C2.32407 26.1514 2.19636 26.6275 2.41128 26.9998C2.62621 27.372 3.10239 27.4995 3.47485 27.2845L7.45763 24.985C7.83009 24.77 7.9578 24.2939 7.74287 23.9216C7.52795 23.5493 7.05177 23.4219 6.6793 23.6369L2.69653 25.9364Z" fill="#32A5E8"/>
<path d="M8.71501 32.5238C8.49997 32.8963 8.62742 33.3725 8.99969 33.5874C9.37196 33.8023 9.84806 33.6746 10.0631 33.3022L12.3626 29.3194C12.5776 28.9469 12.4501 28.4707 12.0779 28.2558C11.7056 28.0409 11.2295 28.1686 11.0145 28.5411L8.71501 32.5238Z" fill="#32A5E8"/>
<path d="M17.2217 35.2213C17.2217 35.6513 17.5701 36 18 36C18.4299 36 18.7783 35.6513 18.7783 35.2213V30.6224C18.7783 30.1923 18.4299 29.8436 18 29.8436C17.5701 29.8436 17.2217 30.1923 17.2217 30.6224V35.2213Z" fill="#37B5FF"/>
<path d="M25.9363 33.3031C26.1513 33.6756 26.6275 33.8033 26.9997 33.5884C27.372 33.3735 27.4994 32.8973 27.2844 32.5248L24.9849 28.542C24.7699 28.1696 24.2938 28.0419 23.9215 28.2568C23.5493 28.4717 23.4218 28.9479 23.6368 29.3204L25.9363 33.3031Z" fill="#37B5FF"/>
<path d="M32.5247 27.2849C32.8972 27.4999 33.3734 27.3725 33.5883 27.0002C33.8032 26.628 33.6755 26.1518 33.303 25.9368L29.3203 23.6373C28.9478 23.4223 28.4716 23.5498 28.2567 23.922C28.0418 24.2943 28.1695 24.7704 28.5419 24.9854L32.5247 27.2849Z" fill="#5FC4FF"/>
<path d="M35.2204 18.7773C35.6505 18.7773 35.9992 18.4289 35.9992 17.999C35.9992 17.5692 35.6505 17.2207 35.2204 17.2207H30.6215C30.1914 17.2207 29.8428 17.5692 29.8428 17.999C29.8428 18.4289 30.1914 18.7773 30.6215 18.7773H35.2204Z" fill="#5FC4FF"/>
<path d="M33.3037 10.0636C33.6762 9.84859 33.8039 9.37248 33.589 9.00022C33.3741 8.62795 32.8979 8.5005 32.5254 8.71554L28.5426 11.015C28.1702 11.23 28.0425 11.7061 28.2574 12.0784C28.4723 12.4507 28.9485 12.5781 29.321 12.3631L33.3037 10.0636Z" fill="#C1E8FF"/>
<path d="M27.2846 3.47421C27.4996 3.10175 27.3721 2.62557 26.9999 2.41065C26.6276 2.19572 26.1515 2.32343 25.9365 2.69589L23.637 6.67867C23.422 7.05113 23.5494 7.52731 23.9217 7.74223C24.294 7.95716 24.7701 7.82945 24.9851 7.45699L27.2846 3.47421Z" fill="#C1E8FF"/>
</g>
<defs>
<clipPath id="clip0_1117_5237">
<rect width="36" height="36" fill="white"/>
</clipPath>
</defs>
</svg>
