<svg width="209" height="85" viewBox="0 0 209 85" fill="none" xmlns="http://www.w3.org/2000/svg">
<g clip-path="url(#clip0_18_346)">
<path d="M64.7822 0L71.9912 15.2769L73.7407 18.9837L75.1718 22.0167L79.2002 30.5537H89.1243L85.0981 22.0167L83.6671 18.9837L81.9176 15.2769L78.9489 8.98639H130.841L127.872 15.2769L126.122 18.9837L124.687 22.0167L120.661 30.5537H130.585L134.613 22.0167L136.044 18.9837L137.794 15.2769L145.003 0H64.7822ZM104.892 63.9696L92.0929 36.8442H82.1687L104.892 85L127.616 36.8442H117.692L104.892 63.9696Z" fill="#32A5E8"/>
<path d="M60.6496 0H52.4626V44.0333H60.6496V0Z" fill="#32A5E8"/>
<path d="M48.6495 0H44.5V44.0333H48.6495V0Z" fill="#32A5E8"/>
<path d="M148.35 44.0332H156.537V-9.91821e-05H148.35V44.0332Z" fill="#32A5E8"/>
<path d="M160.35 44.0332H164.5V-9.91821e-05H160.35V44.0332Z" fill="#32A5E8"/>
<path d="M149.023 15.2769H60.6495V18.9837H149.023V15.2769Z" fill="#32A5E8"/>
<path d="M149.023 22.0166H60.6495V30.5537H149.023V22.0166Z" fill="#32A5E8"/>
</g>
<defs>
<clipPath id="clip0_18_346">
<rect width="120" height="85" fill="white" transform="translate(44.5)"/>
</clipPath>
</defs>
</svg>
