<svg width="32" height="32" viewBox="0 0 32 32" fill="none" xmlns="http://www.w3.org/2000/svg">
<path d="M19.4286 20.0049L20.5714 22.4649C20.5714 22.4649 25.7143 23.5571 25.7143 26.155C25.7143 28.0001 23.4286 28.0001 23.4286 28.0001H17.3333L14.3333 26.3334" stroke="#174C6B" stroke-width="2" stroke-linecap="round" stroke-linejoin="round"/>
<path d="M12.5714 20.0049L11.4286 22.4649C11.4286 22.4649 6.28571 23.5571 6.28571 26.155C6.28571 28.0001 8.57142 28.0001 8.57142 28.0001H11.3333L14.3333 26.3334L18 24.0001" stroke="#174C6B" stroke-width="2" stroke-linecap="round" stroke-linejoin="round"/>
<path d="M4 21.2348C4 21.2348 6.85714 20.6198 8.57143 20.0048C10.2857 11.3946 15.4286 12.0096 16 12.0096C16.5714 12.0096 21.7143 11.3946 23.4286 20.0048C25.1429 20.6198 28 21.2348 28 21.2348" stroke="#174C6B" stroke-width="2" stroke-linecap="round" stroke-linejoin="round"/>
<path d="M16 9.33333C17.4728 9.33333 18.6667 8.13943 18.6667 6.66667C18.6667 5.19391 17.4728 4 16 4C14.5273 4 13.3333 5.19391 13.3333 6.66667C13.3333 8.13943 14.5273 9.33333 16 9.33333Z" stroke="#174C6B" stroke-width="2" stroke-linecap="round" stroke-linejoin="round"/>
</svg>
