<svg width="18" height="24" viewBox="0 0 18 24" fill="none" xmlns="http://www.w3.org/2000/svg">
<g clip-path="url(#clip0_39_16201)">
<path d="M4.06714 5.01187C4.0689 4.01924 4.36412 3.0494 4.91552 2.22491C5.46691 1.40042 6.24973 0.758281 7.16504 0.379635C8.08036 0.00098943 9.0871 -0.0971687 10.058 0.097563C11.029 0.292295 11.9206 0.771175 12.6201 1.4737C13.3197 2.17622 13.7958 3.07085 13.9883 4.04454C14.1808 5.01823 14.0811 6.02728 13.7018 6.94419C13.3225 7.8611 12.6805 8.64471 11.8571 9.196C11.0337 9.7473 10.0657 10.0415 9.07553 10.0415C7.74611 10.0401 6.47169 9.50948 5.53248 8.56628C4.59328 7.62309 4.0662 6.34457 4.06714 5.01187Z" fill="#4B4B4B"/>
<path d="M18 22.46C18.0005 22.8671 17.84 23.2577 17.5537 23.5464C17.2674 23.8351 16.8787 23.9982 16.4726 24.0001H1.53626C1.12889 23.9999 0.738274 23.8375 0.45022 23.5488C0.162166 23.26 0.00023527 22.8684 0 22.46C0 17.4749 4.04046 13.4155 8.99556 13.4155C13.9507 13.4155 18 17.4749 18 22.46Z" fill="#4B4B4B"/>
</g>
<defs>
<clipPath id="clip0_39_16201">
<rect width="18" height="24" fill="white"/>
</clipPath>
</defs>
</svg>
