<svg width="42" height="32" viewBox="0 0 42 32" fill="none" xmlns="http://www.w3.org/2000/svg">
<g clip-path="url(#clip0_69_1036)">
<path d="M7.48385 31.8415V29.7236C7.48385 28.9115 6.98954 28.3822 6.14226 28.3822C5.7187 28.3822 5.25977 28.5233 4.94202 28.9823C4.69502 28.5939 4.34206 28.3822 3.81253 28.3822C3.45941 28.3822 3.1066 28.488 2.82407 28.8763V28.4528H2.08276V31.8415H2.82407V29.9706C2.82407 29.3706 3.14182 29.0881 3.63613 29.0881C4.13012 29.0881 4.37744 29.4058 4.37744 29.9706V31.8415H5.11874V29.9706C5.11874 29.3706 5.47155 29.0881 5.93048 29.0881C6.42479 29.0881 6.67179 29.4058 6.67179 29.9706V31.8415H7.48385ZM18.4621 28.4528H17.262V27.4291H16.5207V28.4528H15.85V29.1233H16.5206V30.6767C16.5206 31.4534 16.8383 31.9121 17.6856 31.9121C18.0033 31.9121 18.3561 31.8063 18.6034 31.6651L18.3915 31.0296C18.1797 31.1708 17.9327 31.2062 17.7562 31.2062C17.4032 31.2062 17.262 30.9944 17.262 30.6413V29.1233H18.4621V28.4528ZM24.7457 28.382C24.3221 28.382 24.0397 28.5939 23.8632 28.8763V28.4528H23.1219V31.8415H23.8632V29.9354C23.8632 29.3706 24.1102 29.0529 24.5691 29.0529C24.7103 29.0529 24.8869 29.0883 25.0281 29.1235L25.2398 28.4175C25.0986 28.3822 24.8869 28.3822 24.7457 28.3822V28.382ZM15.2499 28.7351C14.8968 28.488 14.4026 28.3822 13.8731 28.3822C13.026 28.3822 12.4612 28.8057 12.4612 29.4764C12.4612 30.0413 12.8848 30.3589 13.6261 30.4649L13.979 30.5003C14.3674 30.5707 14.5792 30.6767 14.5792 30.8532C14.5792 31.1002 14.2968 31.2768 13.8025 31.2768C13.3083 31.2768 12.92 31.1002 12.6728 30.9238L12.3199 31.4886C12.7082 31.7709 13.2377 31.9121 13.7671 31.9121C14.7556 31.9121 15.3205 31.4534 15.3205 30.8179C15.3205 30.2177 14.8615 29.9 14.1554 29.7942L13.8025 29.7588C13.4847 29.7234 13.2377 29.653 13.2377 29.4412C13.2377 29.1941 13.4847 29.0529 13.8731 29.0529C14.2968 29.0529 14.7204 29.2293 14.9321 29.3352L15.2499 28.7351ZM34.9476 28.3822C34.5238 28.3822 34.2415 28.5939 34.0649 28.8763V28.4528H33.3236V31.8415H34.0649V29.9354C34.0649 29.3706 34.3121 29.0529 34.7708 29.0529C34.9122 29.0529 35.0888 29.0883 35.2299 29.1235L35.4417 28.4175C35.3005 28.3822 35.0888 28.3822 34.9476 28.3822ZM25.487 30.1471C25.487 31.1708 26.1929 31.9121 27.2873 31.9121C27.7815 31.9121 28.1345 31.8063 28.4874 31.524L28.1345 30.9238C27.8521 31.1356 27.5697 31.2414 27.252 31.2414C26.6518 31.2414 26.2283 30.8179 26.2283 30.1471C26.2283 29.5118 26.6518 29.0881 27.252 29.0529C27.5697 29.0529 27.8521 29.1587 28.1345 29.3706L28.4874 28.7705C28.1345 28.488 27.7815 28.3822 27.2873 28.3822C26.1929 28.3822 25.487 29.1235 25.487 30.1471ZM32.3353 30.1471V28.4528H31.594V28.8763C31.3468 28.5587 30.9939 28.3822 30.5349 28.3822C29.5819 28.3822 28.8406 29.1235 28.8406 30.1471C28.8406 31.1708 29.5819 31.9121 30.5349 31.9121C31.0291 31.9121 31.3822 31.7357 31.594 31.418V31.8415H32.3353V30.1471ZM29.6171 30.1471C29.6171 29.547 30.0054 29.0529 30.6408 29.0529C31.2409 29.0529 31.6646 29.5118 31.6646 30.1471C31.6646 30.7473 31.2409 31.2414 30.6408 31.2414C30.0054 31.206 29.6171 30.7473 29.6171 30.1471ZM20.7568 28.3822C19.7683 28.3822 19.0622 29.0881 19.0622 30.1471C19.0622 31.2062 19.7682 31.9121 20.792 31.9121C21.2861 31.9121 21.7805 31.7709 22.1688 31.4534L21.8157 30.9238C21.5333 31.1356 21.1803 31.2768 20.8274 31.2768C20.3684 31.2768 19.9095 31.065 19.8035 30.4647H22.31V30.1825C22.3454 29.0881 21.7099 28.3822 20.7566 28.3822H20.7568ZM20.7568 29.0175C21.2155 29.0175 21.5335 29.3 21.6039 29.8296H19.8389C19.9095 29.3706 20.2272 29.0175 20.7568 29.0175ZM39.1483 30.1471V27.1113H38.4069V28.8763C38.1598 28.5587 37.8068 28.3822 37.3479 28.3822C36.3948 28.3822 35.6535 29.1235 35.6535 30.1471C35.6535 31.1708 36.3948 31.9121 37.3479 31.9121C37.8422 31.9121 38.1952 31.7357 38.4069 31.418V31.8415H39.1483V30.1471ZM36.4302 30.1471C36.4302 29.547 36.8184 29.0529 37.4539 29.0529C38.054 29.0529 38.4775 29.5118 38.4775 30.1471C38.4775 30.7473 38.054 31.2414 37.4539 31.2414C36.8184 31.206 36.4302 30.7473 36.4302 30.1471ZM11.6492 30.1471V28.4528H10.9078V28.8763C10.6607 28.5587 10.3077 28.3822 9.84879 28.3822C8.89571 28.3822 8.1544 29.1235 8.1544 30.1471C8.1544 31.1708 8.89571 31.9121 9.84879 31.9121C10.3431 31.9121 10.6961 31.7357 10.9078 31.418V31.8415H11.6492V30.1471ZM8.89571 30.1471C8.89571 29.547 9.28405 29.0529 9.91939 29.0529C10.5195 29.0529 10.9432 29.5118 10.9432 30.1471C10.9432 30.7473 10.5195 31.2414 9.91939 31.2414C9.28405 31.206 8.89571 30.7473 8.89571 30.1471Z" fill="black"/>
<path d="M15.0027 2.71875H26.1223V22.6988H15.0027V2.71875Z" fill="#FF5F00"/>
<path d="M15.7088 12.7082C15.7088 8.64868 17.615 5.04796 20.5448 2.71807C18.3916 1.02368 15.6736 0 12.7083 0C5.6833 0 0 5.6833 0 12.7082C0 19.7329 5.6833 25.4164 12.7082 25.4164C15.6734 25.4164 18.3915 24.3927 20.5448 22.6981C17.615 20.4036 15.7088 16.7677 15.7088 12.7082Z" fill="#EB001B"/>
<path d="M41.125 12.7082C41.125 19.7329 35.4417 25.4164 28.4168 25.4164C25.4516 25.4164 22.7335 24.3927 20.5802 22.6981C23.5454 20.3684 25.4164 16.7677 25.4164 12.7082C25.4164 8.64868 23.51 5.04796 20.5802 2.71807C22.7334 1.02368 25.4516 0 28.4168 0C35.4417 0 41.1252 5.71867 41.1252 12.7082H41.125Z" fill="#F79E1B"/>
</g>
<defs>
<clipPath id="clip0_69_1036">
<rect width="41.1658" height="32" fill="white"/>
</clipPath>
</defs>
</svg>
