<svg width="24" height="24" viewBox="0 0 25 24" fill="none" xmlns="http://www.w3.org/2000/svg">
<path d="M20.4603 3.94047C19.2504 2.73005 17.7689 1.82628 16.139 1.30444C14.5091 0.782604 12.7781 0.657814 11.0903 0.940469C9.39688 1.22191 7.79562 1.90516 6.4207 2.93295C5.04578 3.96074 3.93725 5.30313 3.18803 6.84761C2.4388 8.39209 2.07071 10.0937 2.11459 11.8097C2.15848 13.5258 2.61307 15.2063 3.44026 16.7105C3.46328 16.7717 3.46328 16.8392 3.44026 16.9005L2.41026 20.4505C2.34291 20.667 2.3362 20.8978 2.39086 21.1178C2.44552 21.3378 2.55946 21.5387 2.72029 21.6985C2.88112 21.8583 3.08269 21.9709 3.30307 22.0242C3.52345 22.0774 3.75421 22.0692 3.97026 22.0005L7.50026 20.9405C7.56497 20.9176 7.63556 20.9176 7.70026 20.9405C9.27648 21.8256 11.0525 22.2937 12.8603 22.3005C13.6364 22.2988 14.4104 22.2184 15.1703 22.0605C17.0553 21.6452 18.7939 20.7305 20.2038 19.4122C21.6138 18.094 22.6432 16.4207 23.1841 14.5679C23.7251 12.715 23.7576 10.7507 23.2784 8.88094C22.7992 7.01116 21.8258 5.30471 20.4603 3.94047ZM8.86026 13.2505C8.61304 13.2505 8.37136 13.1772 8.1658 13.0398C7.96024 12.9025 7.80002 12.7072 7.70541 12.4788C7.6108 12.2504 7.58605 11.9991 7.63428 11.7566C7.68251 11.5141 7.80156 11.2914 7.97638 11.1166C8.15119 10.9418 8.37392 10.8227 8.6164 10.7745C8.85888 10.7263 9.11021 10.751 9.33862 10.8456C9.56702 10.9402 9.76225 11.1004 9.8996 11.306C10.037 11.5116 10.1103 11.7532 10.1103 12.0005C10.1103 12.332 9.97857 12.6499 9.74415 12.8844C9.50973 13.1188 9.19178 13.2505 8.86026 13.2505ZM12.8603 13.2505C12.613 13.2505 12.3714 13.1772 12.1658 13.0398C11.9602 12.9025 11.8 12.7072 11.7054 12.4788C11.6108 12.2504 11.586 11.9991 11.6343 11.7566C11.6825 11.5141 11.8016 11.2914 11.9764 11.1166C12.1512 10.9418 12.3739 10.8227 12.6164 10.7745C12.8589 10.7263 13.1102 10.751 13.3386 10.8456C13.567 10.9402 13.7622 11.1004 13.8996 11.306C14.037 11.5116 14.1103 11.7532 14.1103 12.0005C14.1103 12.332 13.9786 12.6499 13.7441 12.8844C13.5097 13.1188 13.1918 13.2505 12.8603 13.2505ZM16.8603 13.2505C16.613 13.2505 16.3714 13.1772 16.1658 13.0398C15.9602 12.9025 15.8 12.7072 15.7054 12.4788C15.6108 12.2504 15.586 11.9991 15.6343 11.7566C15.6825 11.5141 15.8016 11.2914 15.9764 11.1166C16.1512 10.9418 16.3739 10.8227 16.6164 10.7745C16.8589 10.7263 17.1102 10.751 17.3386 10.8456C17.567 10.9402 17.7622 11.1004 17.8996 11.306C18.037 11.5116 18.1103 11.7532 18.1103 12.0005C18.1103 12.332 17.9786 12.6499 17.7441 12.8844C17.5097 13.1188 17.1918 13.2505 16.8603 13.2505Z" fill="#174C6B"/>
</svg>
