<svg width="24" height="24" viewBox="0 0 22 22" fill="none" xmlns="http://www.w3.org/2000/svg">
<path d="M10.8197 21.7499C9.01722 21.7615 7.24148 21.3141 5.65967 20.4499C5.62799 20.4367 5.594 20.4299 5.55967 20.4299C5.52535 20.4299 5.49136 20.4367 5.45967 20.4499L1.92967 21.4499C1.71362 21.5187 1.48286 21.5268 1.26248 21.4736C1.0421 21.4204 0.840534 21.3077 0.679703 21.1479C0.518871 20.9881 0.40493 20.7873 0.350269 20.5672C0.295608 20.3472 0.302319 20.1164 0.369673 19.8999L1.42967 16.3499C1.45269 16.2887 1.45269 16.2211 1.42967 16.1599C0.345575 14.1785 -0.0869128 11.906 0.193591 9.66491C0.474096 7.42382 1.45334 5.328 2.99234 3.67493C4.53135 2.02186 6.55191 0.895507 8.76727 0.455747C10.9826 0.0159864 13.2802 0.285157 15.3339 1.22506C17.3877 2.16495 19.0932 3.72783 20.2084 5.69186C21.3237 7.65589 21.792 9.92129 21.5469 12.1665C21.3018 14.4118 20.3558 16.5228 18.8431 18.2C17.3303 19.8771 15.3278 21.0352 13.1197 21.5099C12.363 21.6672 11.5925 21.7476 10.8197 21.7499ZM5.52967 18.8799C5.82655 18.884 6.1181 18.9594 6.37967 19.0999C7.67378 19.8096 9.11893 20.1993 10.5944 20.2365C12.0699 20.2737 13.5328 19.9573 14.8611 19.3137C16.1893 18.6701 17.3442 17.7181 18.2294 16.537C19.1146 15.356 19.7043 13.9802 19.9492 12.5248C20.1942 11.0693 20.0873 9.57634 19.6376 8.1706C19.1878 6.76486 18.4081 5.48716 17.3638 4.44424C16.3194 3.40131 15.0406 2.62343 13.6343 2.17559C12.2279 1.72774 10.7348 1.62293 9.27967 1.86991C7.82173 2.11213 6.44327 2.70091 5.26023 3.58674C4.07719 4.47256 3.12416 5.62952 2.48131 6.96031C1.83845 8.29111 1.52456 9.75681 1.56604 11.2342C1.60752 12.7115 2.00316 14.1573 2.71967 15.4499C2.83234 15.654 2.90358 15.8783 2.92933 16.1099C2.95507 16.3416 2.9348 16.5761 2.86967 16.7999L1.93967 19.8899L5.02967 18.9599C5.19151 18.9089 5.35998 18.8819 5.52967 18.8799Z" fill="#8B8B8B"/>
<path d="M6.8197 12.7002C7.51006 12.7002 8.0697 12.1406 8.0697 11.4502C8.0697 10.7598 7.51006 10.2002 6.8197 10.2002C6.12935 10.2002 5.5697 10.7598 5.5697 11.4502C5.5697 12.1406 6.12935 12.7002 6.8197 12.7002Z" fill="#8B8B8B"/>
<path d="M10.8197 12.7002C11.5101 12.7002 12.0697 12.1406 12.0697 11.4502C12.0697 10.7598 11.5101 10.2002 10.8197 10.2002C10.1293 10.2002 9.5697 10.7598 9.5697 11.4502C9.5697 12.1406 10.1293 12.7002 10.8197 12.7002Z" fill="#8B8B8B"/>
<path d="M14.8197 12.7002C15.5101 12.7002 16.0697 12.1406 16.0697 11.4502C16.0697 10.7598 15.5101 10.2002 14.8197 10.2002C14.1293 10.2002 13.5697 10.7598 13.5697 11.4502C13.5697 12.1406 14.1293 12.7002 14.8197 12.7002Z" fill="#8B8B8B"/>
</svg>
