<svg width="210" height="205" viewBox="0 0 210 205" fill="none" xmlns="http://www.w3.org/2000/svg">
<g clip-path="url(#clip0_200_672)">
<path d="M63.9727 63.3427C78.4916 48.8534 78.4916 25.3615 63.9727 10.8721C49.4538 -3.61725 25.9139 -3.61724 11.395 10.8721C-3.12389 25.3615 -3.12389 48.8534 11.395 63.3427C25.9139 77.8321 49.4538 77.8321 63.9727 63.3427Z" fill="#EBEBEB"/>
<path d="M9.5896 31.5049C9.9917 32.2282 10.9969 32.355 11.8329 31.79C12.6688 31.2251 13.018 30.1796 12.6159 29.4615C12.2138 28.7435 11.2086 28.6115 10.3726 29.1764C9.53669 29.7414 9.1875 30.7868 9.5896 31.5049Z" fill="white"/>
<path d="M26.3188 23.1634C26.5675 23.9606 27.541 24.3619 28.488 24.061C29.4351 23.76 30.0012 22.873 29.7525 22.0757C29.5038 21.2784 28.5303 20.8772 27.5833 21.1781C26.6363 21.4791 26.0702 22.3661 26.3188 23.1634Z" fill="white"/>
<path d="M29.5885 28.8127C30.0382 29.7103 32.0011 29.4938 33.9692 28.327C35.9374 27.1601 37.1701 25.4863 36.7151 24.5887C36.2654 23.6912 34.3025 23.9076 32.3344 25.0745C30.3662 26.2414 29.1335 27.9151 29.5885 28.8127Z" fill="#F0F0F0"/>
<path d="M6.27752 38.2844C6.60025 39.2031 8.52079 39.3404 10.5789 38.5906C12.6317 37.8409 14.039 36.4839 13.7163 35.5652C13.3936 34.6465 11.473 34.5092 9.41493 35.259C7.36212 36.0087 5.95478 37.3657 6.27752 38.2844Z" fill="#F0F0F0"/>
<path d="M32.8211 31.759C29.4086 32.3609 20.7159 34.3832 12.8645 40.2387C12.3724 40.603 12.309 41.4055 12.6952 42.0022C18.0759 50.3234 32.3926 44.1986 34.1385 33.3166C34.2761 32.456 33.5724 31.627 32.8211 31.759Z" fill="#E0E0E0"/>
<path d="M20.5784 40.513C21.1551 40.3915 21.7424 40.3598 22.3085 40.4021C22.9804 39.2722 24.2343 38.3957 25.8268 38.0736C27.959 37.6459 30.1282 38.3165 31.4244 39.6523C30.2446 41.2522 28.7738 42.5986 27.1601 43.6229C25.8903 44.4307 24.5412 45.0432 23.1762 45.4233C20.8747 46.0675 18.5362 46.0569 16.5151 45.228C16.2665 43.0737 17.9489 41.0462 20.5784 40.5182V40.513Z" fill="white"/>
<path d="M182.263 17.5236C182.681 18.5374 183.221 19.4456 183.814 20.1742C184.221 20.6758 185.036 20.3959 185.083 19.7465C185.168 18.5004 185.649 17.5817 186.496 17.3177C186.792 17.228 187.11 17.2174 187.438 17.286C187.993 17.4022 188.491 16.9112 188.311 16.3726C188.237 16.1509 188.152 15.9291 188.062 15.7073C186.829 12.7083 184.533 10.6861 182.93 11.1877C181.327 11.6893 181.031 14.5193 182.263 17.5184V17.5236Z" fill="#EBEBEB"/>
<path d="M183.729 55.1176C195.568 43.3026 195.568 24.1467 183.729 12.3317C171.89 0.516654 152.695 0.516649 140.856 12.3317C129.017 24.1467 129.017 43.3026 140.856 55.1176C152.695 66.9326 171.89 66.9326 183.729 55.1176Z" fill="#F5F5F5"/>
<path d="M49.2958 158.945C59.3456 148.916 59.3456 132.655 49.2958 122.625C39.246 112.596 22.952 112.596 12.9022 122.625C2.85242 132.655 2.85243 148.916 12.9022 158.945C22.952 168.974 39.246 168.974 49.2958 158.945Z" fill="#FAFAFA"/>
<path d="M17.9172 158.272C18.8219 158.652 19.6261 159.122 20.2768 159.634C20.7266 159.982 20.4673 160.627 19.8906 160.637C18.7743 160.653 17.9542 161.007 17.7108 161.677C17.6262 161.91 17.6209 162.168 17.6791 162.438C17.7796 162.892 17.3352 163.272 16.859 163.103C16.6633 163.034 16.4622 162.955 16.2665 162.876C13.5946 161.762 11.8011 159.824 12.2561 158.557C12.7111 157.284 15.2454 157.163 17.9172 158.277V158.272Z" fill="#EBEBEB"/>
<path d="M26.7104 141.022C27.5199 141.307 28.2394 141.82 28.832 142.474C29.2341 142.923 29.0278 144.27 28.5146 144.56C27.5305 145.125 26.8162 146.181 26.6205 147.569C26.5517 148.05 26.5517 148.541 26.6152 149.021C26.7157 149.835 26.3348 150.764 25.9062 150.674C25.7316 150.637 25.5518 150.584 25.3772 150.526C22.991 149.687 21.3562 146.873 21.7213 144.248C22.0916 141.624 24.3243 140.178 26.7104 141.022Z" fill="#EBEBEB"/>
<path d="M195.303 159.02C214.224 140.136 214.224 109.52 195.303 90.6367C176.381 71.7533 145.702 71.7533 126.78 90.6367C107.858 109.52 107.858 140.136 126.78 159.02C145.702 177.903 176.381 177.903 195.303 159.02Z" fill="#F0F0F0"/>
<path d="M151.768 142.643C150.297 144.2 151.715 146.45 154.937 147.674C158.159 148.899 161.963 148.625 163.434 147.073C164.904 145.52 163.486 143.266 160.264 142.041C157.042 140.816 153.238 141.09 151.768 142.643Z" fill="white"/>
<path d="M186.893 146.297C187.041 147.976 189.723 148.683 192.877 147.886C196.035 147.089 198.474 145.082 198.326 143.403C198.178 141.724 195.495 141.017 192.342 141.814C189.189 142.611 186.745 144.617 186.893 146.297Z" fill="white"/>
<path d="M154.773 157.992C160.444 158.921 171.825 160.505 181.448 160.135C182.639 160.088 183.179 161.598 182.221 162.311C176.137 166.867 163.952 169.576 153.741 160.061C152.873 159.248 153.593 157.802 154.767 157.992H154.773Z" fill="#E0E0E0"/>
<path d="M105.013 205C161.668 205 207.595 202.324 207.595 199.023C207.595 195.722 161.668 193.046 105.013 193.046C48.3587 193.046 2.43115 195.722 2.43115 199.023C2.43115 202.324 48.3587 205 105.013 205Z" fill="#F5F5F5"/>
<g clip-path="url(#clip1_200_672)">
<path d="M96.4998 169.918L105.946 179.71C105.946 179.71 100.397 191.079 98.5794 190.121C98.3633 190.03 88.9108 179.559 88.9108 179.559L96.4992 169.918H96.4998Z" fill="white"/>
<path d="M93.4541 184.707C93.4541 184.707 95.2641 182.604 100.985 186.288C101.711 185.589 103.041 183.385 103.706 182.379C101.626 180.763 101.157 177.022 101.614 175.618L107.326 180.703C107.326 180.703 96.0797 199.145 95.5247 198.619C94.1433 197.31 89.9196 197.613 93.4553 184.707H93.4541Z" fill="#222222"/>
<path d="M95.0227 199.679C95.0365 199.679 95.0504 199.678 95.0648 199.675C95.2677 199.64 95.8064 199.547 101.735 190.137C104.649 185.511 107.467 180.849 107.495 180.803C107.528 180.749 107.519 180.682 107.473 180.638L98.8918 172.269C98.8352 172.214 98.7419 172.212 98.6829 172.266C98.6239 172.319 98.6227 172.406 98.6787 172.462L107.183 180.756C106.779 181.424 104.195 185.685 101.52 189.933C96.4781 197.938 95.3074 199.239 95.0383 199.39C92.3092 197.239 92.0528 193.397 92.3207 190.546C92.6144 187.421 93.5823 184.779 93.5919 184.752C93.6088 184.707 93.5991 184.656 93.566 184.618L89.8967 180.46C89.845 180.401 89.7517 180.393 89.6891 180.442C89.6265 180.49 89.6174 180.578 89.6698 180.637L93.2867 184.736C93.1266 185.191 92.296 187.657 92.0269 190.521C91.8524 192.381 91.9445 194.044 92.302 195.463C92.7516 197.249 93.6232 198.653 94.8927 199.637C94.9288 199.665 94.9739 199.68 95.0215 199.68L95.0227 199.679Z" fill="#222222"/>
<path d="M100.985 186.426C100.992 186.426 100.999 186.426 101.006 186.424C101.048 186.418 101.086 186.395 101.109 186.362C102.123 184.874 103.679 182.611 103.811 182.475C103.84 182.449 103.855 182.413 103.854 182.375C103.853 182.337 103.835 182.302 103.805 182.276C101.097 179.95 101.753 175.682 101.76 175.639C101.772 175.563 101.717 175.492 101.637 175.481C101.556 175.47 101.481 175.521 101.469 175.597C101.461 175.642 101.29 176.721 101.464 178.112C101.621 179.374 102.104 181.129 103.509 182.395C103.086 182.956 101.473 185.316 100.952 186.081C100.608 185.821 99.6267 185.12 98.3892 184.581C96.3559 183.697 94.6187 183.702 93.3656 184.597C93.3005 184.643 93.2879 184.73 93.3373 184.791C93.3866 184.852 93.4793 184.864 93.5443 184.818C96.3679 182.802 100.845 186.357 100.89 186.393C100.917 186.415 100.951 186.426 100.986 186.426L100.985 186.426Z" fill="#222222"/>
<path d="M86.1823 144.869C90.4613 134.395 96.0622 125.462 96.0622 125.462L107.367 100.805L86.9124 93.8574C85.8874 94.8725 75.4892 115.996 68.321 137.35C67.0461 141.149 66.3389 144.869 68.4672 149C74.8608 161.936 85.1157 175.617 89.0866 181.2C90.303 180.168 101.452 169.918 101.452 169.918L86.1823 144.869Z" fill="white"/>
<path d="M89.0866 181.338C89.1227 181.338 89.1582 181.326 89.1853 181.303C90.3903 180.281 101.443 170.12 101.555 170.017C101.603 169.973 101.613 169.904 101.579 169.849L86.3099 144.8C86.2696 144.733 86.1793 144.711 86.1083 144.749C86.0378 144.786 86.0132 144.871 86.0535 144.938L101.266 169.894C100.279 170.801 90.7274 179.578 89.1124 180.988C88.664 180.359 88.1452 179.639 87.5511 178.815C82.8964 172.357 74.2324 160.338 68.6003 148.942C66.582 145.024 67.0852 141.491 68.4612 137.392C75.6632 115.936 86.1227 94.9194 87.099 93.953C87.155 93.8976 87.1526 93.8099 87.0936 93.7568C87.0346 93.7042 86.9413 93.7064 86.8847 93.7618C86.3099 94.3313 83.2684 100.287 79.8236 107.922C76.6503 114.957 72.0541 125.765 68.1795 137.309C66.7825 141.471 66.2738 145.062 68.3336 149.06C73.9748 160.474 82.6472 172.507 87.3067 178.971C87.9435 179.854 88.4931 180.617 88.9626 181.277C88.9866 181.31 89.0246 181.332 89.0673 181.337C89.0733 181.338 89.0793 181.338 89.0854 181.338H89.0866Z" fill="#222222"/>
<path d="M82.9018 145.008H86.1823C86.2437 145.008 86.2985 144.972 86.3201 144.919C90.5456 134.576 96.1332 125.622 96.1892 125.533C96.2307 125.466 96.2072 125.382 96.1368 125.343C96.0664 125.304 95.9761 125.326 95.9346 125.392C95.8786 125.481 90.3108 134.403 86.0806 144.73H82.9012C82.82 144.73 82.7538 144.793 82.7538 144.869C82.7538 144.945 82.82 145.008 82.9012 145.008H82.9018Z" fill="#222222"/>
<path d="M114.622 188.411C114.634 188.767 114.827 193.478 114.827 193.478C114.827 193.478 112.171 194.331 111.072 198.765L106.354 198.798C106.354 198.798 106.639 192.996 102.278 191.583C102.271 191.647 102.555 188.411 102.555 188.411H114.622Z" fill="white"/>
<path d="M102.555 191.584C102.555 191.584 106.079 192.427 106.186 198.766C107.934 199.14 109.771 198.683 111.072 198.766C111.483 197.36 112.758 193.816 114.669 193.34L114.827 200.552C114.827 200.552 87.9025 201.083 88.0849 200.362C88.5387 198.569 89.0208 195.575 102.555 191.585V191.584Z" fill="#222222"/>
<path d="M100.531 201C100.912 201 101.302 201 101.707 200.999C108.232 200.987 114.76 200.88 114.825 200.879C114.864 200.878 114.902 200.863 114.929 200.836C114.956 200.81 114.971 200.774 114.97 200.737L114.641 184.852C114.639 184.776 114.574 184.716 114.493 184.716C114.492 184.716 114.492 184.716 114.49 184.716C114.409 184.718 114.344 184.78 114.346 184.857L114.672 200.604C113.672 200.62 107.772 200.71 101.839 200.721C90.6581 200.743 88.5773 200.471 88.245 200.33C89.066 197.296 92.887 195.123 95.9598 193.832C99.3318 192.415 102.555 191.726 102.588 191.719C102.657 191.704 102.706 191.645 102.702 191.577L102.426 185.399C102.423 185.323 102.353 185.265 102.273 185.266C102.191 185.269 102.128 185.334 102.131 185.41L102.403 191.474C101.783 191.613 98.8695 192.305 95.8394 193.578C93.8392 194.418 92.1786 195.345 90.9043 196.332C89.2984 197.575 88.3016 198.919 87.9416 200.328C87.9272 200.384 87.9416 200.44 87.9814 200.487C88.1138 200.642 88.4196 200.998 100.532 200.998L100.531 201Z" fill="#222222"/>
<path d="M109.378 85.4844C109.378 85.4844 118.881 95.7687 118.275 118.266C118.012 120.892 115.761 188.386 115.761 188.386L100.528 188.733L95.125 112.173L91.7097 90.6703L109.38 85.4844H109.378Z" fill="white"/>
<path d="M100.527 188.871C100.527 188.871 100.53 188.871 100.531 188.871L115.764 188.524C115.842 188.523 115.906 188.464 115.908 188.39C115.93 187.715 118.162 120.871 118.421 118.279C118.421 118.275 118.422 118.271 118.422 118.267C118.47 108.685 117.036 101.787 115.824 97.6869C114.509 93.2372 113.161 91.0228 113.148 91.0007C113.107 90.9346 113.016 90.9119 112.946 90.9504C112.876 90.9888 112.851 91.0737 112.892 91.1398C112.906 91.1613 114.24 93.3548 115.544 97.7757C116.749 101.856 118.174 108.722 118.127 118.26C117.87 120.903 115.729 184.899 115.617 188.251L100.664 188.592L95.2706 112.164C95.2688 112.138 95.2592 112.113 95.243 112.092L91.8277 107.663C91.7795 107.601 91.6874 107.587 91.6218 107.632C91.5556 107.677 91.5412 107.764 91.5887 107.825L94.9793 112.222L100.38 188.742C100.385 188.815 100.45 188.872 100.527 188.872V188.871Z" fill="#222222"/>
<path d="M109.561 198.938C110.431 198.938 111.059 198.926 111.136 198.891C111.177 198.872 111.206 198.837 111.216 198.795C112.153 194.638 114.705 193.477 114.731 193.466C114.805 193.433 114.837 193.351 114.803 193.282C114.769 193.212 114.681 193.182 114.607 193.214C114.579 193.226 113.912 193.521 113.122 194.354C112.41 195.105 111.46 196.455 110.949 198.643C110.448 198.678 107.973 198.655 106.33 198.63C106.318 198.222 106.249 196.96 105.875 195.607C105.268 193.416 104.137 191.98 102.606 191.454C102.529 191.428 102.444 191.464 102.417 191.536C102.389 191.608 102.428 191.688 102.504 191.714C105.996 192.911 106.038 198.707 106.038 198.765C106.038 198.841 106.103 198.903 106.183 198.904C107.326 198.922 108.593 198.938 109.561 198.938L109.561 198.938Z" fill="#222222"/>
<path d="M57.6447 56.0801L60.6103 56.144C60.8246 56.7242 61.5192 57.1997 62.1344 57.1997C62.5286 57.1997 62.8356 56.7055 63.2305 56.5822C63.4718 56.4974 63.7343 56.3928 63.8595 56.2147L65.1271 56.2424C67.2489 57.3513 69.3917 63.6597 69.3917 63.6597C70.7484 65.2691 74.0518 72.1254 74.0518 72.1254L64.3862 75.8135L62.7459 70.0388C62.7459 70.0388 60.1516 68.7139 57.8674 67.5423C57.7253 66.9666 57.5459 66.0245 57.5935 64.867C57.7024 62.1866 58.89 61.6466 58.4085 60.0005C58.0955 58.9301 57.3353 58.2753 57.6447 56.0801Z" fill="white"/>
<path d="M74.3817 72.2559C74.3817 72.2559 75.2846 74.6643 76.0833 75.8133C76.1375 75.4848 85.2607 83.0237 85.2607 83.0237L85.7928 87.8308C85.7928 87.8308 81.6775 96.8864 75.6337 94.6295C75.5584 94.6052 68.6887 93.4856 64.6673 76.9641C64.5614 77.0156 64.0859 75.6771 64.3856 75.3966C68.9289 71.1465 74.3817 72.2554 74.3817 72.2554V72.2559Z" fill="#222222"/>
<path d="M77.1126 94.9767C78.683 94.9767 80.2974 94.4038 81.7522 93.3136C83.7229 91.8371 85.3499 89.5012 86.5886 86.3718C88.0416 82.6996 88.915 78.009 89.1859 72.43C89.1895 72.3537 89.1269 72.2886 89.045 72.2853C88.9644 72.2824 88.8946 72.3407 88.8909 72.4176C88.6219 77.9683 87.7539 82.6306 86.3117 86.2757C85.0922 89.3575 83.4966 91.6528 81.568 93.0976C79.8519 94.3829 77.9138 94.9229 76.1098 94.6164C76.0291 94.6029 75.9527 94.6532 75.9383 94.7284C75.9238 94.8036 75.9768 94.876 76.0574 94.8896C76.4053 94.9484 76.7581 94.9778 77.1126 94.9778V94.9767Z" fill="#222222"/>
<path d="M65.9788 56.8961C65.9788 56.8961 64.1966 54.8456 61.5102 57.7595C60.8848 58.1893 60.4839 61.1654 63.957 60.1583C64.1875 60.1487 65.1927 59.9954 65.1927 59.9954C65.1927 59.9954 62.401 63.5749 64.1899 66.9101C64.5397 67.0305 69.3917 63.6597 69.3917 63.6597C69.3917 63.6597 67.1207 57.8687 65.9788 56.8966V56.8961Z" fill="white"/>
<path d="M62.746 70.1782C62.7918 70.1782 62.8369 70.1584 62.8658 70.1205C62.9134 70.0583 62.8983 69.9718 62.8321 69.9271C62.7785 69.8909 61.4796 69.0229 57.9313 67.4181C57.8578 67.3847 57.7694 67.4141 57.7344 67.4831C57.6989 67.5521 57.7296 67.6352 57.8037 67.668C61.3291 69.2627 62.6473 70.1437 62.6605 70.1521C62.6864 70.1697 62.7165 70.1782 62.7466 70.1782H62.746Z" fill="#222222"/>
<path d="M69.2437 63.6831C69.2582 63.6831 69.2726 63.6814 69.287 63.6769C69.3647 63.6543 69.4086 63.5768 69.3852 63.5039C69.3785 63.4841 68.7315 61.5072 67.8184 59.6072C66.5652 57.0003 65.4209 55.7738 64.4163 55.961C64.3886 55.9661 61.5253 56.8522 60.9601 58.3558C60.741 58.9376 60.8921 59.5274 61.4079 60.1082C61.4103 60.111 61.4133 60.1138 61.4158 60.1167C62.0977 60.7692 62.7803 60.8252 65.4781 59.8678C65.5545 59.8407 65.5931 59.761 65.5642 59.6892C65.5353 59.6173 65.4498 59.5817 65.374 59.6083C62.6762 60.5656 62.179 60.4497 61.6306 59.9267C61.2069 59.4477 61.0679 58.9704 61.2177 58.5073C61.6565 57.1524 64.3694 56.2663 64.4801 56.2318C66.2064 55.9242 68.4022 61.4336 69.1029 63.5853C69.1221 63.6452 69.1805 63.6837 69.2437 63.6837V63.6831Z" fill="#222222"/>
<path d="M76.0839 94.8907C76.1507 94.8907 76.2109 94.8483 76.2271 94.7844C76.2464 94.7097 76.1976 94.6351 76.1182 94.617C73.2037 93.9554 70.7256 90.8939 69.16 88.4425C67.3723 85.6434 65.8458 82.1177 65.2722 79.4611C64.3477 75.1838 62.9036 70.0544 62.8892 70.0035C62.8681 69.9294 62.7875 69.8853 62.7086 69.9051C62.6298 69.9249 62.5828 70.0007 62.6039 70.0748C62.6183 70.1262 64.0605 75.2477 64.9833 79.5165C65.5635 82.202 67.1038 85.7616 68.9078 88.5856C70.5023 91.0822 73.0357 94.2025 76.0495 94.8867C76.061 94.8895 76.073 94.8907 76.0845 94.8907H76.0839Z" fill="#222222"/>
<path d="M78.3423 81.9226C78.3592 81.9226 78.376 81.9198 78.3929 81.9141C78.4693 81.8881 78.509 81.8084 78.4807 81.7365C74.3853 71.1718 69.4189 63.5469 69.3695 63.4711C69.3268 63.4061 69.2359 63.3857 69.1667 63.4259C69.0974 63.466 69.0758 63.5514 69.1185 63.6164C69.1679 63.6922 74.1192 71.2945 78.2039 81.831C78.2255 81.8875 78.2821 81.922 78.3423 81.922V81.9226Z" fill="#222222"/>
<path d="M64.3784 67.0494C64.4115 67.0494 64.4446 67.0392 64.4717 67.0183C64.5349 66.9696 64.5439 66.8825 64.4921 66.8232C63.3581 65.5209 63.1842 63.9545 63.9745 62.167C64.5716 60.8167 65.5238 59.8418 65.5334 59.8322C65.5888 59.7762 65.5852 59.6886 65.5256 59.6365C65.466 59.5845 65.3727 59.5879 65.3174 59.6439C65.277 59.6846 64.3236 60.6595 63.7054 62.0539C62.8784 63.9194 63.071 65.6294 64.264 66.999C64.2929 67.0324 64.3356 67.0499 64.3784 67.0499V67.0494Z" fill="#222222"/>
<path d="M57.0078 55.0892C57.0078 55.0892 62.2638 54.7301 60.5026 57.7865C60.3551 58.0426 61.1376 59.3071 59.7303 59.8194C59.6876 60.0823 61.7431 61.6996 59.1187 62.5195C60.0734 62.8226 60.6253 63.4633 60.5326 63.9637C60.4508 64.4054 59.8832 64.6542 59.6448 64.7588C58.8166 65.1218 58.007 64.9047 57.7476 64.8238C57.7801 65.7303 57.8126 66.6367 57.8457 67.5426C57.8457 67.5426 52.7486 65.6511 55.2833 62.7881C55.045 62.5535 53.5721 60.9956 55.6487 59.9828C55.6589 60.1383 53.9284 58.6387 55.5626 57.3805C55.4892 57.4947 54.5195 55.5834 57.0084 55.0886L57.0078 55.0892Z" fill="white"/>
<path d="M58.2134 67.8391C58.267 67.8391 58.3188 67.8113 58.3453 67.7633C58.3826 67.6949 58.3537 67.6117 58.2809 67.5767C54.6663 65.8446 54.6368 64.652 54.6248 64.1431C54.6236 64.0911 54.6224 64.0464 54.6182 64.0046C54.6019 63.6427 54.7301 63.356 55.01 63.1281C55.7889 62.4942 57.4923 62.5603 57.6862 62.5897C57.6982 62.5931 57.7108 62.5954 57.7235 62.596C59.2626 62.6542 59.8946 62.9918 60.1534 63.2649C60.384 63.5081 60.3653 63.7405 60.3581 63.8281L60.3569 63.8423C60.3208 64.1748 60.1781 64.4157 59.9205 64.5774C59.1404 65.0688 57.6049 64.6481 57.5899 64.6436C57.5122 64.6215 57.4297 64.6633 57.4063 64.7369C57.3828 64.8104 57.4273 64.8873 57.5056 64.9093C57.5736 64.9286 59.1886 65.3713 60.0848 64.8075C60.4159 64.5989 60.6067 64.2828 60.6512 63.8677C60.6512 63.866 60.6512 63.8638 60.6512 63.8621L60.6524 63.8485C60.6614 63.7405 60.6879 63.4114 60.3737 63.08C59.944 62.6259 59.0615 62.3703 57.7518 62.3189C57.7066 62.3098 57.6344 62.3042 57.5074 62.2997C57.3828 62.2946 57.183 62.2912 56.9362 62.3025C56.5202 62.3217 55.9153 62.3873 55.3977 62.5903C54.6633 62.8781 54.2913 63.3729 54.3226 64.0204C54.3226 64.0232 54.3226 64.0255 54.3226 64.0283C54.3263 64.06 54.3269 64.1013 54.3281 64.1488C54.3419 64.7075 54.3738 66.016 58.1454 67.8232C58.1671 67.8334 58.19 67.8385 58.2122 67.8385L58.2134 67.8391Z" fill="#222222"/>
<path d="M55.2834 62.9281C55.3231 62.9281 55.3628 62.9128 55.3923 62.8834C55.4477 62.8269 55.4435 62.7392 55.3833 62.6878C54.7663 62.1551 54.7122 61.5964 54.6893 61.3578L54.6851 61.3171C54.6682 60.9552 54.7964 60.6685 55.0769 60.44C55.8552 59.8061 57.5592 59.8723 57.7531 59.9017C57.7651 59.9051 57.7777 59.9073 57.7904 59.9079C59.3295 59.9662 59.9609 60.3026 60.2197 60.5746C60.4503 60.8172 60.4316 61.0513 60.425 61.1395L60.4238 61.1548C60.3859 61.5048 60.2269 61.7825 59.9531 61.9804C59.188 62.5317 57.7675 62.323 57.7531 62.3208C57.673 62.3083 57.5966 62.3598 57.5839 62.4356C57.5707 62.5114 57.6255 62.5826 57.7055 62.5945C57.7687 62.6041 59.2651 62.8252 60.1318 62.2009C60.4743 61.9544 60.6712 61.6111 60.7175 61.1808C60.7175 61.1785 60.7175 61.1763 60.7175 61.1746L60.7187 61.1599C60.7271 61.0513 60.753 60.7205 60.4388 60.3903C60.0091 59.9379 59.1272 59.6828 57.8175 59.6314C57.7723 59.6223 57.7001 59.6167 57.5731 59.6122C57.4485 59.6071 57.2481 59.6037 57.0019 59.615C56.5853 59.6342 55.981 59.6998 55.4634 59.9028C54.7296 60.1906 54.3576 60.6854 54.3889 61.3329C54.3889 61.3357 54.3889 61.338 54.3889 61.3408L54.3932 61.3832C54.4196 61.6535 54.481 62.2874 55.1817 62.8925C55.21 62.9168 55.2461 62.9292 55.2816 62.9292L55.2834 62.9281Z" fill="#222222"/>
<path d="M60.4033 57.926C60.4478 57.926 60.4923 57.9068 60.5212 57.8706C61.0407 57.2215 61.2128 56.6565 61.0329 56.1912C60.7933 55.5703 60.0174 55.3723 59.9289 55.3514C59.6262 55.2576 59.2783 55.175 58.8936 55.1066C58.8503 55.0919 58.7799 55.076 58.6547 55.054C58.5325 55.0319 58.3351 55.0014 58.0895 54.9788C57.6748 54.9409 57.0668 54.9234 56.5233 55.0529C55.7516 55.2372 55.3074 55.676 55.2376 56.3212C55.2376 56.324 55.2376 56.3263 55.2376 56.3291L55.2352 56.3715C55.2237 56.5638 55.2003 56.9642 55.4272 57.438C55.4609 57.5081 55.5482 57.5392 55.6222 57.5076C55.6968 57.4759 55.73 57.3939 55.6962 57.3244C55.4988 56.9121 55.5187 56.5706 55.5295 56.3868L55.5319 56.3455C55.5717 55.9853 55.7426 55.719 56.0556 55.5312C56.9242 55.0104 58.5993 55.309 58.7871 55.3644C58.7985 55.3695 58.8106 55.3735 58.8232 55.3752C59.2036 55.4425 59.5461 55.5233 59.8417 55.6155C59.8459 55.6166 59.8501 55.6178 59.8543 55.6189C59.8609 55.6206 60.5622 55.7823 60.7554 56.2862C60.898 56.6577 60.7397 57.1344 60.2847 57.7032C60.2359 57.7643 60.2486 57.8514 60.3142 57.8972C60.3407 57.9159 60.372 57.9249 60.4027 57.9249L60.4033 57.926Z" fill="#222222"/>
<path d="M59.1862 60.0311C59.5997 60.0311 60.2348 59.9287 60.617 59.3706C60.6182 59.3683 60.62 59.3666 60.6212 59.3644C60.9402 58.8419 60.9854 58.3788 60.7548 57.988C60.2125 57.0669 58.3634 56.9266 58.1581 56.9142C58.1136 56.9051 58.0408 56.8995 57.912 56.8944C57.7874 56.8893 57.5875 56.8859 57.3413 56.8972C56.9254 56.9164 56.3211 56.982 55.804 57.1845C55.0685 57.4723 54.6965 57.9671 54.7278 58.6151C54.7278 58.618 54.7278 58.6202 54.7278 58.623C54.7302 58.6479 54.732 58.6762 54.7332 58.7073C54.7453 58.9646 54.7657 59.3955 55.4248 59.9638C55.485 60.0158 55.5783 60.0119 55.6331 59.9553C55.6885 59.8988 55.6843 59.8111 55.6241 59.7597C55.0552 59.2683 55.039 58.9233 55.0276 58.6949C55.0258 58.6598 55.0245 58.6281 55.0215 58.5993C55.0053 58.2374 55.1335 57.9507 55.4134 57.7228C56.1923 57.0889 57.8957 57.1551 58.0895 57.1845C58.1016 57.1879 58.1142 57.1901 58.1268 57.1907C58.5199 57.2054 60.0747 57.4073 60.496 58.1226C60.6724 58.4223 60.6284 58.7927 60.366 59.2241C59.8856 59.9208 58.8534 59.7285 58.8431 59.7269C58.7631 59.711 58.6854 59.7591 58.6686 59.8343C58.6517 59.9089 58.7029 59.9824 58.7823 59.9983C58.7998 60.0017 58.9599 60.0322 59.185 60.0322L59.1862 60.0311Z" fill="#222222"/>
<path d="M64.3862 75.5358C64.4253 75.5358 64.4639 75.5216 64.4933 75.4928C64.5048 75.4815 65.6418 74.3698 67.3946 73.4463C69.0017 72.5998 71.472 71.742 74.1144 72.4652C74.1927 72.4867 74.2745 72.4443 74.2974 72.3708C74.3203 72.2973 74.2751 72.2204 74.1969 72.1989C71.4533 71.448 68.9006 72.3335 67.2429 73.2083C65.454 74.1521 64.3272 75.2547 64.2803 75.3011C64.2243 75.3565 64.2261 75.4442 64.2851 75.4973C64.3134 75.5228 64.3501 75.5358 64.3868 75.5358H64.3862Z" fill="#222222"/>
<path d="M93.8628 53.754C93.6052 53.569 93.4589 53.4424 93.4589 53.4424C93.4589 53.4424 93.5799 53.6035 93.8032 53.8376L93.8628 53.7545V53.754Z" fill="white"/>
<path d="M96.436 55.8408C97.8222 55.8408 99.4672 55.0254 101.34 53.4065C101.4 53.3544 101.404 53.2668 101.348 53.2108C101.293 53.1543 101.2 53.1509 101.14 53.2029C98.9682 55.0803 97.139 55.8442 95.704 55.4733C94.1475 55.0712 93.6051 53.4189 93.5997 53.4025C93.5762 53.329 93.4944 53.2877 93.4161 53.3092C93.3379 53.3312 93.2933 53.4081 93.3168 53.4817C93.3403 53.5557 93.9085 55.2957 95.6234 55.7402C95.8834 55.8075 96.1543 55.8414 96.4353 55.8414L96.436 55.8408Z" fill="#222222"/>
<path d="M98.072 97.8497C100.261 97.8497 102.373 97.5087 104.373 96.8307C107.551 95.7529 110.452 93.8167 112.995 91.0742C113.072 91.0244 113.066 90.9996 112.96 90.5132C110.958 81.3627 111.962 76.3283 113.156 73.7164C113.188 73.6462 113.154 73.5642 113.078 73.5343C113.003 73.5043 112.916 73.5365 112.885 73.6072C111.148 77.4055 111.074 83.2706 112.67 90.5692C112.703 90.7179 112.732 90.8514 112.746 90.921C108.64 95.3345 103.704 97.5721 98.0738 97.5721C98.0479 97.5721 98.0226 97.5721 97.9967 97.5721C91.8626 97.55 87.0424 94.8063 86.6283 94.4608C86.3641 91.1556 83.6976 67.9174 83.6705 67.6822C83.662 67.6058 83.5886 67.551 83.508 67.5595C83.4267 67.5679 83.3683 67.6358 83.3773 67.7121C83.4044 67.9479 86.0775 91.2433 86.3352 94.4942C86.3207 94.5898 86.4303 94.6684 86.5001 94.7187C87.1839 95.2107 91.0422 97.2984 96.0983 97.7587C96.7622 97.8192 97.4207 97.8492 98.072 97.8492V97.8497ZM86.6072 94.5841C86.6072 94.5841 86.6072 94.5841 86.6072 94.5847C86.6072 94.5847 86.6072 94.5847 86.6072 94.5841ZM86.6121 94.5768C86.6121 94.5768 86.609 94.5818 86.6072 94.5841C86.609 94.5818 86.6102 94.579 86.6121 94.5768Z" fill="#222222"/>
<path d="M76.0839 75.9529C76.1555 75.9529 76.2187 75.9037 76.2295 75.8347C76.2446 75.7391 77.7783 66.2527 79.5473 62.9046C81.2429 59.6943 84.3362 57.4879 86.6325 56.202C89.2503 54.7363 91.9601 53.8287 93.4841 53.5793C93.5642 53.5663 93.6184 53.4945 93.6045 53.4187C93.5907 53.3435 93.5136 53.2932 93.4336 53.3056C91.8824 53.5595 89.1311 54.4795 86.4814 55.9633C84.1514 57.2679 81.0106 59.51 79.2831 62.7807C77.4936 66.1679 76.0008 75.4016 75.9382 75.7929C75.9262 75.8686 75.9816 75.9393 76.0622 75.9506C76.0694 75.9518 76.0773 75.9523 76.0845 75.9523L76.0839 75.9529Z" fill="#222222"/>
<path d="M125.292 98.6195C125.292 98.6195 128.285 104.282 128.751 105.627C128.751 105.627 127.171 110.369 128.103 113.121C128.239 113.806 128.683 115.989 128.12 116.823C128.351 117.151 128.597 118.572 130.476 116.97C130.698 117.046 131.554 114.509 130.987 112.538C131.066 112.724 132.313 117.443 134.73 116.476C135.149 116.673 135.466 115.526 135.466 115.526C135.466 115.526 137.584 116.214 137.729 114.359C137.729 114.359 140.154 115.179 139.9 112.99C139.9 112.98 142.344 113.127 141.8 110.574C141.613 110.635 136.743 101.151 136.743 101.151L133.986 94.2568C133.986 94.2568 130.763 99.3772 125.293 98.6189L125.292 98.6195Z" fill="white"/>
<path d="M128.74 105.768C128.763 105.768 128.786 105.764 128.807 105.756C128.882 105.727 128.919 105.646 128.888 105.575C128.87 105.534 128.834 105.506 128.793 105.494C128.724 105.398 128.578 105.044 128.397 104.603C128.016 103.679 127.379 102.133 126.22 99.8044C126.185 99.7348 126.097 99.7054 126.023 99.7377C125.949 99.7699 125.917 99.8525 125.952 99.922C127.108 102.242 127.742 103.783 128.121 104.703C128.459 105.524 128.535 105.7 128.668 105.754C128.692 105.763 128.716 105.768 128.74 105.768V105.768Z" fill="#222222"/>
<path d="M140.541 113.09C140.704 113.09 140.882 113.053 141.076 112.969C141.084 112.965 141.093 112.96 141.101 112.955C141.127 112.938 141.161 112.918 141.201 112.895C141.706 112.604 142.887 111.921 140.84 108.141C140.242 107.055 137.049 101.399 136.88 101.099C136.808 100.874 135.835 97.9 133.933 93.9671C133.899 93.8976 133.812 93.8665 133.737 93.8981C133.663 93.9298 133.63 94.0118 133.664 94.0819C135.623 98.1347 136.592 101.162 136.601 101.192C136.604 101.201 136.608 101.209 136.612 101.217C136.646 101.276 139.968 107.159 140.577 108.267C142.5 111.819 141.481 112.407 141.046 112.658C141.007 112.68 140.971 112.701 140.939 112.722C140.213 113.03 139.808 112.499 139.355 111.772C139.324 111.723 139.294 111.676 139.265 111.63C139.223 111.564 139.132 111.543 139.063 111.582C138.993 111.622 138.97 111.707 139.012 111.772C139.041 111.817 139.07 111.864 139.101 111.912C139.405 112.4 139.835 113.09 140.541 113.09Z" fill="#222222"/>
<path d="M138.757 114.611C138.857 114.611 138.956 114.6 139.051 114.579C139.444 114.49 140.096 114.127 140.048 112.698C140.046 112.621 139.976 112.56 139.896 112.564C139.814 112.566 139.75 112.63 139.753 112.707C139.784 113.621 139.51 114.19 138.982 114.31C138.269 114.471 137.271 113.82 136.803 112.888C136.768 112.819 136.68 112.789 136.607 112.822C136.533 112.855 136.502 112.937 136.536 113.006C137.01 113.949 137.954 114.611 138.758 114.611L138.757 114.611Z" fill="#222222"/>
<path d="M134.245 116.865C134.34 116.865 134.435 116.855 134.53 116.833C134.882 116.751 135.355 116.464 135.608 115.562C135.628 115.488 135.581 115.413 135.502 115.393C135.423 115.374 135.343 115.418 135.322 115.492C135.152 116.101 134.853 116.472 134.459 116.563C134.044 116.66 133.504 116.444 133.083 116.013C132.643 115.564 132.323 115.117 132.104 114.648C131.453 113.252 131.047 112.341 131.017 112.211C131.001 112.136 130.922 112.088 130.843 112.103C130.763 112.119 130.712 112.193 130.728 112.267C130.772 112.463 131.353 113.73 131.833 114.759C132.065 115.257 132.402 115.728 132.865 116.2C133.198 116.541 133.713 116.865 134.245 116.865V116.865Z" fill="#222222"/>
<path d="M136.411 115.867C137.056 115.867 137.766 115.477 137.876 114.373C137.883 114.296 137.823 114.229 137.743 114.222C137.661 114.215 137.59 114.271 137.582 114.347C137.503 115.144 137.05 115.607 136.374 115.589C135.592 115.566 134.734 114.89 134.701 113.919C134.699 113.843 134.63 113.782 134.549 113.785C134.468 113.788 134.403 113.851 134.406 113.928C134.444 115.055 135.449 115.84 136.365 115.866C136.38 115.866 136.396 115.867 136.411 115.867H136.411Z" fill="#222222"/>
<path d="M129.132 117.669C129.274 117.669 129.428 117.653 129.596 117.621C129.611 117.618 129.625 117.613 129.638 117.607C129.649 117.604 129.664 117.601 129.682 117.596C129.896 117.547 130.465 117.416 130.855 116.656C131.321 115.751 131.376 114.257 131.018 112.216C131.005 112.141 130.929 112.09 130.848 112.102C130.768 112.115 130.713 112.186 130.727 112.262C131.097 114.37 131.203 116.961 129.612 117.327C129.574 117.336 129.544 117.343 129.518 117.353C129.085 117.432 128.773 117.391 128.593 117.229C128.28 116.948 128.382 116.328 128.437 115.994C128.454 115.893 128.466 115.82 128.466 115.765L128.468 115.624C128.486 114.443 128.495 113.85 127.996 112.158C127.551 109.483 128.185 107.888 128.604 106.832C128.814 106.303 128.967 105.92 128.896 105.6C128.879 105.525 128.801 105.476 128.721 105.492C128.641 105.508 128.59 105.582 128.607 105.656C128.66 105.899 128.521 106.25 128.328 106.736C127.898 107.82 127.246 109.458 127.706 112.209C127.707 112.214 127.708 112.219 127.71 112.224C128.199 113.884 128.191 114.464 128.173 115.62L128.172 115.762C128.172 115.797 128.159 115.872 128.146 115.952C128.082 116.335 127.965 117.048 128.39 117.429C128.568 117.589 128.816 117.669 129.133 117.669L129.132 117.669Z" fill="#222222"/>
<path d="M111.336 72.4232C115.743 79.9378 119.645 88.3629 126.681 101.505C126.917 101.908 132.588 102.431 135.723 98.5081C135.723 98.5081 129.74 71.4546 120.664 62.1859C120.687 62.2119 117 58.5674 117 58.5674C117 58.5674 111.174 68.9229 111.336 72.4227L111.336 72.4232Z" fill="#222222"/>
<path d="M128.657 101.966C129.126 101.966 129.634 101.925 130.157 101.839C131.309 101.651 134.171 100.959 135.845 98.5843C135.883 98.5328 135.912 98.491 135.736 97.5172C135.612 96.8347 135.425 95.9373 135.21 94.9896C134.488 91.8122 132.408 83.5279 128.701 75.2415C124.561 65.9903 119.774 59.7299 114.471 56.6356C110.75 54.4636 105.804 53.167 101.241 53.167C101.159 53.167 101.093 53.2292 101.093 53.3055C101.093 53.3819 101.159 53.4441 101.241 53.4441C105.751 53.4441 110.639 54.7254 114.315 56.8714C122.105 61.4178 127.466 72.3004 130.591 80.6293C134.008 89.7352 135.57 97.856 135.58 98.4593C133.966 100.722 131.217 101.386 130.107 101.567C128.674 101.8 127.325 101.691 126.733 101.297C125.267 98.8625 123.073 94.5016 120.751 89.8856C117.466 83.3555 113.743 75.9545 111.457 72.8365C111.411 72.7737 111.32 72.7573 111.252 72.8009C111.185 72.8444 111.168 72.9309 111.214 72.9937C113.486 76.0931 117.204 83.4838 120.484 90.0038C122.816 94.6407 125.02 99.0208 126.492 101.46C126.502 101.476 126.515 101.491 126.531 101.502C126.962 101.805 127.733 101.966 128.657 101.966ZM135.6 98.4305C135.6 98.4305 135.599 98.4316 135.599 98.4327C135.599 98.4322 135.6 98.4316 135.6 98.4305Z" fill="#222222"/>
<path d="M93.4589 53.4423C93.4589 53.4423 95.1695 58.6617 101.241 53.3049C101.241 53.3049 111.994 52.8367 117.579 59.053C117.572 59.1327 113.021 73.9052 113.021 73.9052C113.021 73.9052 110.088 80.9397 112.899 90.9667C113.127 91.3591 102.213 103.366 86.4851 94.5083L85.7935 87.8306L76.0845 76.3967C76.0845 76.3967 77.5568 64.4521 80.201 61.5541C80.1866 61.5756 84.9743 54.8436 93.4595 53.4417L93.4589 53.4423Z" fill="#222222"/>
<path d="M112.33 76.3913C112.394 76.3913 112.454 76.3528 112.473 76.2923C112.501 76.2103 113.149 74.2792 113.278 73.5746C113.293 73.4977 113.237 73.4248 113.155 73.4112C113.074 73.3982 112.996 73.4496 112.981 73.5265C112.856 74.2125 112.193 76.1871 112.186 76.2069C112.161 76.2815 112.205 76.3607 112.284 76.3845C112.3 76.389 112.315 76.3913 112.33 76.3913H112.33Z" fill="white"/>
<path d="M85.436 90.2127C85.519 90.2127 85.5858 90.1499 85.5864 90.0719C85.5894 89.3277 85.6629 71.8308 85.5864 70.4584C85.5822 70.3803 85.5094 70.321 85.4281 70.3244C85.3451 70.3283 85.2813 70.395 85.2855 70.4731C85.3619 71.8376 85.2855 89.8887 85.2855 90.0708C85.2855 90.1488 85.3523 90.2121 85.4354 90.2127H85.436Z" fill="white"/>
<path d="M77.9511 80.3483C77.9625 80.3483 77.9739 80.3472 77.9854 80.3444C78.066 80.3269 78.1166 80.2505 78.0979 80.1747C77.7067 78.5988 75.9431 75.3936 75.8684 75.2579C75.8299 75.1884 75.739 75.1618 75.6656 75.1974C75.5915 75.2336 75.5633 75.3184 75.6012 75.388C75.6192 75.4208 77.422 78.6972 77.8048 80.2392C77.8211 80.3042 77.8831 80.3483 77.9511 80.3483Z" fill="white"/>
<path d="M87.2513 34.1867C87.2513 34.1867 85.1373 49.6909 93.3595 49.1486C93.7002 49.3369 93.3595 53.6396 93.3595 53.6396C93.3595 53.6396 97.1655 59.9068 101.24 52.9899C101.219 52.693 101.057 42.6378 101.057 42.6378C101.057 42.6378 104.806 43.3327 104.127 38.5895C104.028 38.3724 102.935 36.1721 100.418 38.5895C100.499 38.5895 99.3847 40.3216 98.7461 37.5722C98.7419 37.5626 97.9389 33.5489 97.9389 33.5489C97.9389 33.5489 92.6764 31.7976 87.2519 34.1856L87.2513 34.1867Z" fill="white"/>
<path d="M103.252 37.5268C105.108 35.5974 104.01 32.869 103.833 32.3477C102.28 27.9856 99.0917 29.0566 99.0917 29.0566C99.0917 29.0566 97.3557 25.8187 92.8395 27.4224C88.2571 25.7112 88.9866 28.2451 89.0083 28.5629C86.6602 26.1483 83.4731 27.3443 84.9809 30.0343C81.0485 29.2296 81.7083 31.5775 83.0842 34.1866C81.5289 39.3635 85.3396 39.022 87.022 38.9643L87.4788 34.0503C87.4788 34.0503 94.2342 31.5633 97.9384 33.5499C97.9384 33.5499 98.3266 37.204 98.9827 38.0035C99.0724 38.1862 99.1717 40.1241 101.484 37.6196C101.524 37.5981 102.762 37.1067 103.252 37.5268H103.252Z" fill="#222222"/>
<path d="M92.9388 49.3019C93.0802 49.3019 93.2241 49.2969 93.3703 49.2872C93.4829 49.2816 96.2228 49.1233 98.3338 46.8291C98.3873 46.7714 98.3801 46.6838 98.3187 46.6335C98.2573 46.5831 98.164 46.5899 98.1104 46.6476C96.0808 48.8535 93.4624 49.0051 93.3523 49.0107C91.8884 49.1102 90.6659 48.6828 89.7155 47.7412C87.8369 45.8797 87.3054 42.3042 87.191 39.6323C87.0658 36.7229 87.3951 34.2298 87.3981 34.2049C87.4083 34.1291 87.3512 34.0596 87.2699 34.0499C87.1898 34.0403 87.1152 34.094 87.105 34.1704C87.1014 34.1953 86.7697 36.7122 86.8955 39.6442C87.0652 43.5991 87.9422 46.3881 89.5006 47.9324C90.4197 48.8428 91.5742 49.3031 92.9382 49.3031L92.9388 49.3019Z" fill="#222222"/>
<path d="M100.873 40.8344C100.876 40.8344 100.879 40.8344 100.882 40.8344C100.945 40.8304 100.996 40.7909 101.014 40.7371C101.043 40.6936 101.197 40.5053 102 39.6995C102.505 39.1923 103.017 38.6912 103.022 38.6862C103.079 38.6307 103.077 38.5431 103.018 38.4899C102.959 38.4368 102.866 38.4385 102.809 38.4939C102.804 38.499 102.29 39.0011 101.784 39.5101C100.717 40.5811 100.72 40.6252 100.726 40.7049C100.731 40.7784 100.796 40.835 100.873 40.835V40.8344Z" fill="#222222"/>
<path d="M102.498 40.4296C102.532 40.4296 102.565 40.4188 102.593 40.3973C102.656 40.3481 102.664 40.261 102.612 40.2022L102.006 39.5157C101.954 39.4569 101.86 39.449 101.798 39.4977C101.735 39.5468 101.726 39.6339 101.779 39.6927L102.385 40.3792C102.414 40.412 102.456 40.4296 102.499 40.4296H102.498Z" fill="#222222"/>
<path d="M86.1768 34.5944C86.1937 34.5944 86.2111 34.5916 86.228 34.5859C86.3122 34.5565 94.7108 31.6862 97.8564 33.6648C97.9244 33.7072 98.0159 33.6902 98.0611 33.6269C98.1062 33.5635 98.0882 33.477 98.0208 33.4346C96.6412 32.5666 94.2154 32.4541 90.8116 33.1016C88.295 33.5799 86.1473 34.3185 86.1262 34.3258C86.0498 34.3524 86.0107 34.4321 86.039 34.5039C86.0612 34.5599 86.1172 34.5944 86.1774 34.5944H86.1768Z" fill="#222222"/>
<path d="M96.4046 38.2959C96.4432 38.2959 96.4811 38.2818 96.51 38.2541C96.5672 38.1992 96.566 38.1116 96.5076 38.0579C95.0299 36.699 93.4077 37.9906 93.3914 38.0036C93.33 38.0539 93.3234 38.1416 93.3764 38.1992C93.43 38.2569 93.5233 38.2631 93.5847 38.2134C93.6448 38.1647 95.0202 37.0785 96.3011 38.2564C96.33 38.2829 96.3673 38.2959 96.4046 38.2959Z" fill="#222222"/>
<path d="M91.1565 43.9906C91.2083 43.9906 91.2582 43.9652 91.2853 43.92C91.325 43.8532 91.2998 43.7684 91.2287 43.7311C91.2239 43.7288 90.7622 43.4851 90.3234 43.2363C90.1609 43.1441 90.0514 42.9903 90.0225 42.8145C89.9942 42.6426 90.0478 42.4695 90.1694 42.34C91.0295 41.4228 91.5032 40.2981 91.4364 39.3311C91.366 38.6887 91.0951 38.2245 90.631 37.9463C89.6451 37.3548 88.1535 37.8264 88.0903 37.8468C88.0133 37.8716 87.9724 37.9502 87.9988 38.0226C88.0253 38.095 88.109 38.1335 88.186 38.1086C88.2005 38.104 89.6078 37.6602 90.4727 38.1804C90.8567 38.4111 91.0819 38.8064 91.1421 39.3543C91.2035 40.2438 90.7574 41.2933 89.9478 42.1562C89.7685 42.3474 89.6896 42.6024 89.7312 42.8563C89.7733 43.1142 89.934 43.3387 90.1712 43.4732C90.6142 43.7243 91.0801 43.9697 91.0849 43.9726C91.1077 43.9844 91.1324 43.9901 91.1571 43.9901L91.1565 43.9906Z" fill="#222222"/>
<path d="M95.494 40.1271C95.5235 40.5659 95.3308 40.9352 95.0642 40.951C94.7969 40.9668 94.5568 40.6236 94.5267 40.1848C94.4972 39.746 94.6898 39.3767 94.9565 39.3609C95.2237 39.345 95.4639 39.6883 95.494 40.1271Z" fill="#222222"/>
<path d="M89.5217 40.4826C89.5512 40.9214 89.3586 41.2906 89.0919 41.3065C88.8247 41.3223 88.5845 40.9791 88.5544 40.5402C88.5249 40.1014 88.7175 39.7322 88.9842 39.7163C89.2514 39.7005 89.4916 40.0438 89.5217 40.4826Z" fill="#222222"/>
<path d="M95.3043 44.6543C95.2484 44.6543 95.1942 44.6848 95.1695 44.7357C95.1286 44.8205 94.1432 46.7941 91.6158 46.1347C91.5375 46.1144 91.4557 46.1573 91.434 46.2314C91.4123 46.3049 91.4581 46.3818 91.5369 46.4022C94.313 47.1266 95.4277 44.8731 95.4386 44.85C95.4723 44.7798 95.4386 44.6978 95.3645 44.6667C95.3447 44.6583 95.3242 44.6543 95.3043 44.6543Z" fill="#222222"/>
<path d="M97.0866 56.3262C98.4921 56.3262 99.9283 55.3378 101.361 53.3841C101.38 53.3597 101.389 53.3303 101.387 53.3009L101.02 42.6106C101.018 42.5343 100.948 42.4749 100.868 42.4766C100.787 42.4789 100.722 42.5433 100.725 42.6197L101.091 53.2642C99.6514 55.2145 98.2333 56.1487 96.8742 56.0407C94.9564 55.888 93.743 53.6725 93.6057 53.4095L93.507 49.1458C93.5052 49.0695 93.4366 49.0095 93.3565 49.0101C93.2753 49.0118 93.2103 49.0751 93.2121 49.1515L93.3114 53.4451C93.3114 53.4644 93.3162 53.483 93.3252 53.5005C93.3782 53.608 94.6489 56.1402 96.8483 56.3166C96.9277 56.3228 97.0078 56.3262 97.0872 56.3262H97.0866Z" fill="#222222"/>
<path d="M101.365 42.7775C102.343 42.7775 103.111 42.4902 103.654 41.9214C104.55 40.9798 104.532 39.5854 104.379 38.9096C104.292 38.5217 104.112 38.1587 103.857 37.8607C103.495 37.4366 103.068 37.2217 102.588 37.2217C102.583 37.2217 102.577 37.2217 102.572 37.2217C101.434 37.233 100.424 38.4539 100.382 38.5059C100.332 38.5664 100.344 38.6535 100.409 38.7004C100.473 38.7473 100.566 38.7355 100.616 38.675C100.625 38.6631 101.582 37.5084 102.576 37.4993C102.967 37.4976 103.32 37.6758 103.626 38.0343C103.852 38.2989 104.013 38.6212 104.091 38.9673C104.273 39.7771 104.145 40.9889 103.433 41.7364C102.867 42.3313 102.01 42.5807 100.887 42.4778C100.806 42.4704 100.734 42.5258 100.726 42.6022C100.718 42.6785 100.777 42.7464 100.858 42.7537C101.033 42.7696 101.202 42.7775 101.365 42.7775Z" fill="#222222"/>
<path d="M86.1413 39.1611C86.4242 39.1611 86.7239 39.1419 87.0418 39.1018C87.1158 39.0922 87.1712 39.0322 87.1694 38.9621C87.1682 38.9027 87.1694 37.6734 87.1694 37.0282L87.3186 34.3948C88.1276 34.0967 94.411 31.8829 97.8065 33.6393C97.895 34.0713 98.4186 36.5956 98.8406 38.0398C98.843 38.0472 98.8454 38.0539 98.849 38.0613C98.8538 38.072 98.8616 38.0896 98.8713 38.1128C98.9766 38.361 99.2565 39.0203 99.7699 39.0961C100.048 39.1374 100.331 38.9977 100.61 38.6816C100.678 38.6126 102.245 37.044 103.168 37.6412C103.229 37.6802 103.311 37.6717 103.361 37.6208C103.995 36.9722 104.32 35.9181 104.302 34.5734C104.288 33.5482 104.075 32.6033 103.974 32.3059C103.974 32.3053 103.974 32.3048 103.973 32.3042C103.403 30.7005 102.548 29.6301 101.435 29.1217C100.412 28.6546 99.487 28.8124 99.1632 28.8927C99.0097 28.6495 98.5613 28.0235 97.7397 27.5225C96.8073 26.9537 95.2026 26.4521 92.8412 27.2743C91.0794 26.6234 89.875 26.5233 89.2616 26.978C88.8277 27.2992 88.7873 27.8194 88.8126 28.183C87.4463 27.004 85.7591 26.9282 84.8905 27.5802C84.344 27.9907 84.0298 28.7869 84.6744 29.841C83.3285 29.6498 82.3564 30.0468 81.9826 30.9544C81.5529 31.9994 82.0549 33.4849 83.0228 34.1697C82.3769 34.5633 82.0826 35.5738 82.3486 36.621C82.6748 37.9041 83.8408 39.1617 86.1413 39.1617V39.1611ZM86.8738 38.8422C84.2537 39.1295 82.9668 37.8583 82.6357 36.5566C82.3769 35.5381 82.7043 34.5344 83.3658 34.3184C83.4206 34.3009 83.4591 34.2545 83.4646 34.2002C83.47 34.1465 83.4417 34.0939 83.3911 34.0673C82.3937 33.5267 81.843 32.0627 82.2577 31.0545C82.6086 30.2012 83.5645 29.8873 84.9489 30.1706C85.0085 30.1825 85.0693 30.1593 85.103 30.1124C85.1367 30.0649 85.1361 30.0033 85.1012 29.9563C84.4517 29.0793 84.4415 28.2723 85.0741 27.7973C85.9047 27.1736 87.6033 27.3252 88.8987 28.6574C88.9408 28.701 89.0076 28.7146 89.0654 28.6914C89.1232 28.6682 89.1587 28.6139 89.1551 28.5551C89.1533 28.5262 89.1473 28.4884 89.14 28.4409C89.0979 28.1666 88.9998 27.5248 89.444 27.1957C89.8088 26.9254 90.6852 26.7676 92.7847 27.5519C92.819 27.5649 92.8569 27.5649 92.8912 27.5531C94.712 26.9067 96.2854 26.9723 97.5669 27.7487C98.5252 28.3289 98.9555 29.1126 98.9597 29.1206C98.9935 29.1828 99.0711 29.2122 99.1409 29.1884C99.1512 29.185 100.178 28.8548 101.311 29.3745C102.347 29.85 103.149 30.8651 103.693 32.3918C103.875 32.9302 104.503 35.8967 103.222 37.3494C102.075 36.7816 100.46 38.4255 100.389 38.4978C100.388 38.4995 100.386 38.5012 100.384 38.5029C100.176 38.7404 99.9842 38.8479 99.8151 38.823C99.5845 38.7891 99.3588 38.5159 99.1445 38.011C99.1355 37.9889 99.1277 37.9708 99.1217 37.9578C98.6648 36.3909 98.0888 33.5533 98.0828 33.5251C98.0749 33.4855 98.0484 33.4504 98.0111 33.4306C96.4425 32.5892 94.13 32.4597 91.1378 33.0444C88.9222 33.4776 87.1375 34.1646 87.1194 34.1714C87.067 34.1917 87.0315 34.2387 87.0285 34.2924L86.8744 37.018C86.8744 37.018 86.8744 37.0231 86.8744 37.0253C86.8744 37.0909 86.8732 38.4215 86.8744 38.8433L86.8738 38.8422Z" fill="#222222"/>
<path d="M54.091 36.3857C52.0384 35.0082 51.0573 33.8857 49.8986 32.2849C44.5987 24.9591 44.7029 10.6204 51.5689 3.59546C54.1078 0.997662 57.162 0.213347 60.9149 0.141531C67.2911 0.0193887 72.1943 3.82108 73.9988 9.44078C75.6011 14.4317 75.4055 19.9745 74.3269 25.0355C73.427 29.2573 70.6329 33.7743 66.9925 36.3891C63.024 39.2396 58.0937 39.3069 54.091 36.3863V36.3857Z" fill="#32A5E8"/>
<path d="M60.5219 38.6876C62.7827 38.6876 65.0507 37.9582 67.0828 36.4987C70.6347 33.9473 73.5354 29.4585 74.4726 25.0619C75.6987 19.3094 75.5837 13.8938 74.1409 9.39996C73.2308 6.5658 71.5442 4.18911 69.2629 2.52774C66.9119 0.816609 64.0245 -0.0570509 60.9125 0.00288948C56.604 0.0854489 53.7774 1.13158 51.4606 3.50149C49.7927 5.20809 48.4691 7.38291 47.5265 9.96657C46.6573 12.3495 46.1378 15.0655 46.0241 17.8222C45.9133 20.5127 46.1866 23.2479 46.8144 25.7315C47.4597 28.2835 48.4841 30.5765 49.7764 32.3628C50.9869 34.036 51.9728 35.1348 54.0025 36.497C56.0051 37.9576 58.2593 38.6876 60.5213 38.6876H60.5219ZM61.2141 0.277145C67.1996 0.277145 72.0282 3.7814 73.858 9.48083C75.287 13.9311 75.3989 19.3003 74.183 25.0082C73.2597 29.342 70.4024 33.7663 66.9034 36.2787C64.9273 37.6981 62.7207 38.4077 60.5219 38.4077C58.3213 38.4077 56.1291 37.6975 54.1819 36.2765L54.1771 36.2731C52.1817 34.934 51.212 33.8534 50.0208 32.2067C47.4765 28.69 46.0927 23.3163 46.319 17.8323C46.5562 12.086 48.5094 6.93053 51.6779 3.68866C53.9345 1.37982 56.6979 0.36027 60.9186 0.279407C61.0173 0.277711 61.116 0.27658 61.2141 0.27658V0.277145Z" fill="#2781B5"/>
<path d="M60.7206 23.2444C60.8109 23.2444 60.8994 23.202 60.9505 23.1245C61.0294 23.0052 60.9909 22.8486 60.8645 22.7739C60.8482 22.7643 60.4588 22.5376 59.2248 21.958C58.9106 21.8104 58.7132 21.6204 58.638 21.3936C58.523 21.047 58.7198 20.7037 58.7222 20.7003C58.7246 20.6958 58.7282 20.6902 58.7301 20.6856L60.4106 17.364C60.475 17.2374 60.4172 17.0853 60.2824 17.0248C60.1476 16.9643 59.9857 17.0185 59.9213 17.1452L58.2437 20.4612C58.2004 20.5381 57.9488 21.0159 58.1185 21.5378C58.2377 21.9048 58.5284 22.1994 58.9829 22.4126C60.1855 22.9775 60.5743 23.2031 60.5779 23.2054C60.6225 23.2314 60.6718 23.2439 60.7206 23.2439V23.2444Z" fill="#091E1D"/>
<path d="M53.4368 15.5666C52.7144 14.888 52.7144 13.7878 53.4368 13.1091C54.1592 12.4305 55.3303 12.4305 56.0527 13.1091C56.775 13.7878 56.775 14.888 56.0527 15.5666C55.3303 16.2453 54.1592 16.2453 53.4368 15.5666Z" fill="#091E1D"/>
<path d="M64.7748 14.736C64.5401 13.802 65.1559 12.8661 66.1502 12.6456C67.1444 12.4251 68.1406 13.0036 68.3753 13.9377C68.6099 14.8717 67.9942 15.8076 66.9999 16.0281C66.0057 16.2485 65.0095 15.6701 64.7748 14.736Z" fill="#091E1D"/>
<path d="M65.7417 27.0293L54.4154 27.0395C54.4154 27.0395 59.4793 35.4102 65.7417 27.0293Z" fill="#091E1D"/>
<path d="M59.6954 38.5342H61.6185V86.672H59.6954V38.5342Z" fill="#222222"/>
</g>
</g>
<defs>
<clipPath id="clip0_200_672">
<rect width="209" height="205" fill="white" transform="translate(0.5)"/>
</clipPath>
<clipPath id="clip1_200_672">
<rect width="96" height="201" fill="white" transform="matrix(-1 0 0 1 142 0)"/>
</clipPath>
</defs>
</svg>
