<svg width="64" height="64" viewBox="0 0 64 64" fill="none" xmlns="http://www.w3.org/2000/svg">
<g clip-path="url(#clip0_455_2201)">
<path d="M52.218 51.1961C44.5194 53.5427 36.1654 52.1271 29.6704 47.3745C26.4668 45.0306 23.8532 41.9728 22.0366 38.4435C20.22 34.9141 19.2504 31.0101 19.2046 27.0409C19.1806 17.3976 24.4978 8.53453 33.0165 4.01551C33.4382 3.79559 33.7724 3.43859 33.964 3.00333C34.1556 2.56807 34.1933 2.08052 34.0707 1.621C33.9628 1.15779 33.7006 0.745034 33.3272 0.450506C32.9537 0.155978 32.4912 -0.00281536 32.0156 0.00019722H32.0087C27.6676 -0.0150913 23.3692 0.858644 19.3786 2.56758C15.3879 4.27651 11.7894 6.78444 8.80474 9.93687C5.82019 13.0895 3.51279 16.8199 2.02468 20.8982C0.536581 24.9765 -0.100699 29.3163 0.152105 33.6502C0.327898 37.8784 1.3539 42.0279 3.16885 45.8508C4.98381 49.6738 7.55049 53.0918 10.7157 55.9008C16.6394 61.1075 24.2524 63.9858 32.1392 64.0005C32.7728 64.0005 33.4088 63.9813 34.0418 63.9432C38.6592 63.6524 43.1593 62.3674 47.2339 60.176C49.8484 58.7227 52.2373 56.8963 54.3252 54.7543C54.6614 54.4195 54.8763 53.9823 54.9361 53.5117C54.9959 53.041 54.8971 52.5639 54.6554 52.1557C54.4136 51.7475 54.0427 51.4316 53.6013 51.2578C53.1599 51.084 52.6731 51.0623 52.218 51.1962V51.1961ZM46.2222 58.2957C42.4206 60.3414 38.2218 61.5412 33.9133 61.8128C25.9473 62.2668 18.1225 59.5691 12.1289 54.3023C9.17767 51.6808 6.7849 48.4916 5.09341 44.925C3.40192 41.3584 2.4464 37.4876 2.28388 33.5435C2.04594 29.4977 2.63931 25.4459 4.0274 21.6382C5.41549 17.8304 7.56887 14.3474 10.3548 11.4039C13.1408 8.4605 16.5003 6.11909 20.2261 4.524C23.9518 2.92892 27.9648 2.11399 32.0176 2.12947C22.7945 7.02565 17.0406 16.6259 17.0698 27.0678C17.1715 35.7825 21.3691 43.9412 28.4008 49.0898C35.432 54.239 44.4773 55.7781 52.8158 53.2443C50.875 55.2395 48.6538 56.9412 46.2222 58.2958V58.2957Z" fill="#1E648C"/>
<path d="M35.7501 18.1139C38.6918 18.1139 41.0853 20.9856 41.0853 24.5164C41.0838 24.6575 41.1103 24.7975 41.1632 24.9284C41.2161 25.0592 41.2945 25.1782 41.3938 25.2785C41.493 25.3788 41.6112 25.4585 41.7414 25.5128C41.8716 25.5672 42.0113 25.5952 42.1524 25.5952C42.2936 25.5952 42.4333 25.5672 42.5635 25.5128C42.6937 25.4585 42.8119 25.3788 42.9111 25.2785C43.0104 25.1782 43.0887 25.0592 43.1417 24.9284C43.1946 24.7975 43.2211 24.6575 43.2196 24.5164C43.2196 20.9856 45.6136 18.1137 48.5553 18.1137C48.6968 18.1159 48.8374 18.0899 48.9687 18.0372C49.1001 17.9846 49.2197 17.9063 49.3205 17.807C49.4213 17.7077 49.5014 17.5894 49.5561 17.4588C49.6107 17.3283 49.6389 17.1882 49.6389 17.0467C49.6389 16.9051 49.6107 16.765 49.5561 16.6345C49.5014 16.504 49.4213 16.3856 49.3205 16.2863C49.2197 16.187 49.1001 16.1087 48.9687 16.0561C48.8374 16.0034 48.6968 15.9774 48.5553 15.9796C45.6136 15.9796 43.2196 13.1073 43.2196 9.5769C43.2196 9.29388 43.1072 9.02245 42.907 8.82232C42.7069 8.6222 42.4355 8.50977 42.1524 8.50977C41.8694 8.50977 41.598 8.6222 41.3979 8.82232C41.1977 9.02245 41.0853 9.29388 41.0853 9.5769C41.0853 13.1073 38.6918 15.9796 35.7501 15.9796C35.4671 15.9796 35.1956 16.092 34.9955 16.2921C34.7954 16.4923 34.6829 16.7637 34.6829 17.0467C34.6829 17.3297 34.7954 17.6012 34.9955 17.8013C35.1956 18.0014 35.4671 18.1139 35.7501 18.1139ZM42.1528 13.9705C42.7991 15.221 43.7605 16.2812 44.9419 17.0464C43.7605 17.812 42.7991 18.8724 42.1526 20.123C41.5059 18.8726 40.5446 17.8123 39.3635 17.0464C40.5447 16.2809 41.5061 15.2208 42.1528 13.9705ZM56.4824 28.2514C54.297 28.2514 52.5189 26.0971 52.5189 23.4496C52.5189 23.1666 52.4064 22.8952 52.2063 22.6951C52.0062 22.495 51.7348 22.3825 51.4518 22.3825C51.1688 22.3825 50.8974 22.495 50.6973 22.6951C50.4971 22.8952 50.3847 23.1666 50.3847 23.4496C50.3847 26.0971 48.6071 28.2514 46.4211 28.2514C46.138 28.2514 45.8665 28.3639 45.6664 28.564C45.4662 28.7642 45.3538 29.0356 45.3537 29.3187C45.3537 29.9078 45.8319 30.3855 46.4211 30.3855C48.607 30.3855 50.3847 32.5398 50.3847 35.1879C50.3847 35.7769 50.8624 36.2547 51.452 36.2547C52.041 36.2547 52.5189 35.777 52.5189 35.1879C52.5189 32.5398 54.297 30.3855 56.4824 30.3855C56.7654 30.3855 57.0368 30.2731 57.2369 30.073C57.4371 29.8729 57.5495 29.6014 57.5495 29.3184C57.5495 29.0354 57.4371 28.764 57.2369 28.5639C57.0368 28.3638 56.7654 28.2514 56.4824 28.2514ZM51.452 31.2711C50.9953 30.5064 50.3882 29.8422 49.6675 29.3187C50.3883 28.7951 50.9954 28.1307 51.452 27.3657C51.9084 28.1307 52.5153 28.7951 53.2359 29.3187C52.5154 29.8422 51.9086 30.5064 51.452 31.2711Z" fill="#1E648C"/>
</g>
<defs>
<clipPath id="clip0_455_2201">
<rect width="64" height="64" fill="white"/>
</clipPath>
</defs>
</svg>
