<svg width="24" height="24" viewBox="0 0 24 24" fill="none" xmlns="http://www.w3.org/2000/svg">
<path d="M23.0923 19.5076C21.4308 18.1184 16.5441 14.021 14.3033 12.0225C15.5164 10.9106 17.2148 9.25692 18.8667 7.64781C20.7578 5.80555 22.5444 4.0658 23.354 3.38223C23.7646 3.03606 24 2.52724 24 1.98626C24 1.30949 23.6479 0.709398 23.0581 0.381277C22.4711 0.055124 21.7803 0.0712019 21.2094 0.425714C19.3666 1.56875 12 6.85924 12 7.99984C12 8.3363 11.9863 8.73206 11.8664 9.18121C11.3156 8.2366 11.0001 7.37115 11.0001 6.99986C11.0001 6.28845 8.5826 3.97107 3.81458 0.11128C3.61681 -0.0493593 3.32779 -0.0347344 3.14662 0.146436L0.146648 3.1464C0.0591877 3.23366 0.00718408 3.35025 0.000690616 3.47363C-0.00580285 3.597 0.0336749 3.71841 0.111492 3.81436C3.97133 8.58239 6.28866 10.9999 7.00007 10.9999C7.42457 10.9999 8.49176 11.4105 9.58881 12.1179C7.37188 14.0885 2.85337 17.8809 0.908921 19.5066C0.331334 19.9895 0.000259078 20.6999 0.000259078 21.4558C0.000259078 22.8586 1.14137 23.9997 2.54418 23.9997C3.29957 23.9997 4.01047 23.6682 4.49337 23.09C6.16421 21.0926 10.0717 16.437 12.0004 14.2779C13.9905 16.5069 18.1136 21.4242 19.5083 23.092C19.9908 23.6691 20.7012 23.9997 21.4561 23.9997C22.8589 23.9997 24 22.8586 24 21.4558C24 20.7009 23.6694 19.9905 23.0923 19.5076ZM13.0001 8.08777C13.526 7.26648 18.6885 3.16642 21.7368 1.27536C21.9946 1.11669 22.3071 1.10788 22.5718 1.25483C22.8399 1.40427 23 1.67768 23 1.98626C23 2.23188 22.894 2.46185 22.709 2.61808C21.8721 3.32462 20.0733 5.07655 18.169 6.93152C16.4905 8.56683 14.7658 10.2455 13.5613 11.3455C13.4861 11.2744 13.4088 11.2015 13.3536 11.1463C13.0571 10.8498 12.7908 10.5263 12.5437 10.1976C12.9539 9.33688 12.9988 8.604 13.0001 8.08777ZM3.72631 22.4484C3.43382 22.799 3.00266 22.9997 2.54418 22.9997C1.69262 22.9997 1.00023 22.3073 1.00023 21.4557C1.00023 20.9967 1.2009 20.5661 1.55054 20.2741C3.54856 18.603 8.25847 14.6496 10.4217 12.7151C10.6721 12.915 10.9178 13.1244 11.1466 13.3533C11.1952 13.4019 11.2612 13.4722 11.3222 13.5364C9.40553 15.6761 5.42026 20.4237 3.72631 22.4484ZM21.4561 22.9997C20.9976 22.9997 20.5674 22.7995 20.2754 22.4504C18.1539 19.9133 13.0865 13.8792 11.8536 12.6463C10.3468 11.1395 8.06605 10.0116 7.09973 10.0116C7.09486 10.0116 7.08946 10.0121 7.08459 10.0121C6.49571 9.78308 3.67203 6.60049 1.17254 3.53457L1.5002 3.20692L6.14663 7.85335C6.193 7.89985 6.24811 7.93673 6.30878 7.96187C6.36945 7.98701 6.43449 7.99991 6.50016 7.99984C6.62808 7.99984 6.756 7.95099 6.85369 7.85335C7.04901 7.65803 7.04901 7.34162 6.85369 7.14634L2.20725 2.49991L2.50022 2.20694L7.14665 6.85338C7.24429 6.95102 7.37226 6.99986 7.50018 6.99986C7.6281 6.99986 7.75602 6.95102 7.85371 6.85338C8.04903 6.65805 8.04903 6.34165 7.85371 6.14637L3.20727 1.49994L3.53492 1.17228C6.6008 3.67177 9.78292 6.49207 10.0002 6.99986C10.0002 8.04183 11.132 10.3387 12.6466 11.8533C13.8795 13.0862 19.9136 18.1536 22.4507 20.2746C22.7998 20.5671 23 20.9973 23 21.4558C23 22.3073 22.3076 22.9997 21.4561 22.9997Z" fill="#174C6B"/>
</svg>
