<svg width="16" height="16" viewBox="0 0 16 16" fill="none" xmlns="http://www.w3.org/2000/svg">
<path d="M15.3949 13.005C14.2872 12.079 11.0294 9.34734 9.53554 8.01498C10.3442 7.2737 11.4765 6.17128 12.5778 5.09854C13.8386 3.87036 15.0296 2.71053 15.5693 2.25482C15.8431 2.02404 16 1.68483 16 1.32417C16 0.87299 15.7653 0.472932 15.372 0.254185C14.9808 0.0367493 14.5202 0.047468 14.1396 0.283809C12.9111 1.04583 8.00002 4.57283 8.00002 5.33322C8.00002 5.55753 7.99087 5.82137 7.91096 6.12081C7.54375 5.49107 7.33338 4.9141 7.33338 4.66657C7.33338 4.1923 5.72174 2.64738 2.54305 0.0741864C2.41121 -0.0329062 2.21852 -0.0231563 2.09774 0.0976237L0.0977654 2.0976C0.0394584 2.15578 0.00478939 2.2335 0.000460411 2.31575C-0.00386857 2.398 0.02245 2.47894 0.0743282 2.54291C2.64755 5.72159 4.19244 7.33323 4.66672 7.33323C4.94971 7.33323 5.66117 7.60698 6.39254 8.0786C4.91459 9.39234 1.90225 11.9206 0.605947 13.0044C0.220889 13.3263 0.000172719 13.7999 0.000172719 14.3038C0.000172719 15.2391 0.760914 15.9998 1.69612 15.9998C2.19971 15.9998 2.67364 15.7788 2.99558 15.3934C4.10947 14.0617 6.71448 10.958 8.00024 9.51862C9.32698 11.0046 12.0757 14.2828 13.0056 15.3946C13.3272 15.7794 13.8008 15.9998 14.3041 15.9998C15.2393 15.9998 16 15.2391 16 14.3038C16 13.8006 15.7796 13.327 15.3949 13.005ZM8.66674 5.39185C9.01733 4.84432 12.459 2.11095 14.4912 0.850241C14.6631 0.744461 14.8714 0.738586 15.0479 0.836553C15.2266 0.936177 15.3333 1.11846 15.3333 1.32417C15.3333 1.48792 15.2627 1.64123 15.1393 1.74539C14.5814 2.21641 13.3822 3.38437 12.1127 4.62101C10.9936 5.71122 9.84388 6.83033 9.04089 7.5637C8.99076 7.51626 8.93917 7.46764 8.90242 7.43089C8.7047 7.23317 8.52717 7.01755 8.36246 6.7984C8.63595 6.22459 8.66589 5.736 8.66674 5.39185ZM2.48421 14.9656C2.28921 15.1993 2.00178 15.3331 1.69612 15.3331C1.12841 15.3331 0.666822 14.8715 0.666822 14.3038C0.666822 13.9978 0.800602 13.7107 1.03369 13.5161C2.36571 12.402 5.50565 9.76639 6.94782 8.47675C7.11472 8.60997 7.2785 8.74963 7.43109 8.90222C7.46347 8.93459 7.50744 8.98143 7.54815 9.02425C6.27036 10.4507 3.61351 13.6158 2.48421 14.9656ZM14.3041 15.3331C13.9984 15.3331 13.7116 15.1997 13.5169 14.9669C12.1026 13.2755 8.72433 9.25281 7.9024 8.43088C6.89785 7.42633 5.37737 6.6744 4.73315 6.6744C4.7299 6.6744 4.72631 6.67471 4.72306 6.67471C4.33047 6.52206 2.44802 4.40033 0.781696 2.35638L1.00013 2.13795L4.09775 5.23557C4.12867 5.26657 4.16541 5.29116 4.20585 5.30791C4.2463 5.32467 4.28966 5.33327 4.33344 5.33322C4.41872 5.33322 4.504 5.30066 4.56912 5.23557C4.69934 5.10535 4.69934 4.89442 4.56912 4.76423L1.4715 1.66661L1.66681 1.4713L4.76443 4.56892C4.82953 4.63401 4.91484 4.66657 5.00012 4.66657C5.0854 4.66657 5.17068 4.63401 5.2358 4.56892C5.36602 4.4387 5.36602 4.22777 5.2358 4.09758L2.13818 0.999958L2.35662 0.781523C4.40053 2.44785 6.52195 4.32805 6.66679 4.66657C6.66679 5.36122 7.42134 6.89246 8.43108 7.90223C9.25301 8.72416 13.2757 12.1024 14.9671 13.5164C15.1999 13.7114 15.3334 13.9982 15.3334 14.3038C15.3334 14.8716 14.8718 15.3331 14.3041 15.3331Z" fill="#174C6B"/>
</svg>
