<svg width="24" height="25" viewBox="0 0 24 25" fill="none" xmlns="http://www.w3.org/2000/svg">
<path d="M18 8.9C18 7.20261 17.3679 5.57475 16.2426 4.37452C15.1174 3.17428 13.5913 2.5 12 2.5C10.4087 2.5 8.88258 3.17428 7.75736 4.37452C6.63214 5.57475 6 7.20261 6 8.9C6 16.3667 3 18.5 3 18.5H21C21 18.5 18 16.3667 18 8.9Z" stroke="#525252" stroke-width="2" stroke-linecap="round" stroke-linejoin="round"/>
<path d="M13.73 21.5C13.5542 21.8031 13.3019 22.0547 12.9982 22.2295C12.6946 22.4044 12.3504 22.4965 12 22.4965C11.6496 22.4965 11.3054 22.4044 11.0018 22.2295C10.6982 22.0547 10.4458 21.8031 10.27 21.5" stroke="#525252" stroke-width="2" stroke-linecap="round" stroke-linejoin="round"/>
</svg>
