<svg width="24" height="24" viewBox="0 0 24 24" fill="none" xmlns="http://www.w3.org/2000/svg">
<path d="M21.3609 16.4634L19.9664 15.0427C19.7721 14.8459 19.6634 14.5804 19.664 14.3039V10.0078C19.664 6.54 17.3489 3.60328 14.183 2.66109C14.2115 2.51859 14.2265 2.37281 14.2265 2.22656C14.2265 0.998906 13.2276 0 12 0C10.7723 0 9.77342 0.998906 9.77342 2.22656C9.77342 2.37422 9.78795 2.51953 9.81561 2.66156C6.65061 3.60422 4.33592 6.54047 4.33592 10.0078V14.3039C4.33592 14.5819 4.22858 14.8444 4.03358 15.0427L2.63905 16.4634C1.86467 17.2519 1.64905 18.375 2.07702 19.3945C2.50452 20.4136 3.45702 21.0469 4.56233 21.0469H19.4376C20.543 21.0469 21.4955 20.4136 21.923 19.3945C22.3509 18.375 22.1353 17.2519 21.3609 16.4634ZM11.4309 2.36484C11.4206 2.32266 11.414 2.27719 11.414 2.22656C11.414 1.90359 11.677 1.64062 12 1.64062C12.323 1.64062 12.5859 1.90359 12.5859 2.22656C12.5859 2.27719 12.5794 2.32266 12.569 2.36484C12.3811 2.35125 12.1912 2.34375 12 2.34375C11.8087 2.34375 11.6189 2.35125 11.4309 2.36484ZM12.0173 24C13.3837 24 14.497 22.9172 14.5462 21.5625H9.48842C9.53811 22.9172 10.6509 24 12.0173 24Z" fill="#174C6B"/>
</svg>
