<svg width="16" height="16" viewBox="0 0 16 16" fill="none" xmlns="http://www.w3.org/2000/svg">
<g clip-path="url(#clip0_1351_9328)">
<path d="M8.00552 15.9992C6.15536 15.9985 4.36267 15.3563 2.93286 14.1821C1.50305 13.0079 0.52457 11.3743 0.16412 9.55963C-0.196329 7.74493 0.0835512 5.86138 0.956079 4.22988C1.82861 2.59839 3.2398 1.31987 4.94925 0.612148C6.6587 -0.0955738 8.56065 -0.188718 10.3311 0.348582C12.1015 0.885883 13.6309 2.02039 14.6586 3.55882C15.6864 5.09726 16.149 6.94444 15.9676 8.78569C15.7862 10.6269 14.972 12.3483 13.6638 13.6566C12.9223 14.4017 12.0404 14.9923 11.0692 15.3944C10.098 15.7965 9.05668 16.0021 8.00552 15.9992ZM8.00552 0.90574C6.36545 0.906922 4.77653 1.4767 3.50944 2.518C2.24235 3.55931 1.37549 5.00772 1.05653 6.61647C0.737583 8.22523 0.986273 9.89481 1.76024 11.3408C2.5342 12.7867 3.78556 13.9196 5.30112 14.5464C6.81669 15.1733 8.5027 15.2552 10.0719 14.7784C11.6411 14.3015 12.9965 13.2953 13.907 11.9313C14.8176 10.5672 15.2271 8.92961 15.0657 7.2975C14.9043 5.66539 14.182 4.13973 13.0219 2.98043C12.3633 2.32168 11.5812 1.79934 10.7204 1.44333C9.8596 1.08732 8.93703 0.904637 8.00552 0.90574Z" fill="#174C6B"/>
<path d="M9.55243 13.0702C8.90868 13.0676 8.28287 12.8578 7.76762 12.4719C7.25238 12.0859 6.87509 11.5444 6.69161 10.9273C6.69059 10.9194 6.69059 10.9114 6.69161 10.9035C6.2399 9.33444 6.21612 9.31859 4.84198 8.42944C4.82091 8.41662 4.80078 8.40232 4.78175 8.38665C4.26689 8.03973 3.87311 7.54081 3.6553 6.95945C3.43749 6.37808 3.40651 5.74325 3.56667 5.14343C3.72683 4.54362 4.07015 4.00873 4.54877 3.61332C5.0274 3.21791 5.61747 2.9817 6.23673 2.93761C6.30805 2.93761 6.37937 2.92969 6.45069 2.92969C7.09322 2.93431 7.71727 3.1452 8.2309 3.53127C8.74452 3.91735 9.12056 4.45819 9.30359 5.07412C9.30359 5.07412 9.30359 5.08838 9.31152 5.10264C9.76323 6.66857 9.77907 6.68759 11.1611 7.57516L11.2214 7.61636C11.7369 7.96315 12.1313 8.46228 12.3495 9.04405C12.5676 9.62583 12.5987 10.2612 12.4383 10.8615C12.2779 11.4618 11.934 11.997 11.4547 12.3924C10.9754 12.7877 10.3846 13.0236 9.76481 13.067C9.69507 13.067 9.62217 13.0702 9.55243 13.0702ZM6.44277 3.60012H6.28428C5.80078 3.62972 5.33884 3.81061 4.96381 4.1172C4.58878 4.42378 4.31966 4.84054 4.19452 5.30849C4.06938 5.77645 4.09456 6.27191 4.26651 6.72476C4.43845 7.17762 4.74844 7.56494 5.15263 7.83192L5.17957 7.85094C6.70904 8.82885 6.82791 8.98892 7.32083 10.7038L7.33192 10.7387C7.4741 11.2172 7.76677 11.637 8.1665 11.936C8.56623 12.2349 9.0517 12.397 9.55084 12.3981H9.70934C10.1905 12.3651 10.6491 12.1822 11.0209 11.8751C11.3928 11.568 11.659 11.1521 11.7823 10.6858C11.9056 10.2196 11.8797 9.72648 11.7083 9.27572C11.5369 8.82495 11.2286 8.43921 10.8267 8.17268L10.8014 8.15366C9.27189 7.17575 9.15302 7.01567 8.65852 5.30076L8.64901 5.26589C8.5086 4.78831 8.21832 4.36854 7.82104 4.06858C7.42376 3.76863 6.94055 3.60439 6.44277 3.60012Z" fill="#174C6B"/>
<path d="M6.98167 6.22585C6.91433 6.27959 6.83256 6.31217 6.74671 6.31947C6.66086 6.32676 6.57478 6.30845 6.49933 6.26684C6.42388 6.22524 6.36246 6.1622 6.32282 6.0857C6.28318 6.0092 6.2671 5.92267 6.27661 5.83704C6.28613 5.75141 6.32081 5.67052 6.37628 5.60458C6.43174 5.53865 6.5055 5.49064 6.58824 5.46661C6.67099 5.44258 6.75899 5.44361 6.84115 5.46957C6.9233 5.49554 6.99592 5.54527 7.04982 5.61248C7.08569 5.6572 7.11238 5.70856 7.12837 5.76361C7.14436 5.81866 7.14933 5.87633 7.143 5.93331C7.13667 5.99028 7.11916 6.04545 7.09148 6.09565C7.06379 6.14585 7.02648 6.19009 6.98167 6.22585ZM6.53313 4.99752C6.46564 5.05107 6.3838 5.08341 6.29794 5.09047C6.21208 5.09752 6.12606 5.07898 6.05073 5.03717C5.97541 4.99537 5.91416 4.93218 5.87472 4.85559C5.83529 4.77899 5.81943 4.69243 5.82917 4.60683C5.8389 4.52124 5.87378 4.44044 5.9294 4.37466C5.98502 4.30887 6.05889 4.26104 6.14168 4.23722C6.22447 4.21339 6.31246 4.21463 6.39455 4.24078C6.47663 4.26693 6.54912 4.31682 6.60287 4.38415C6.63885 4.42888 6.6656 4.48031 6.68158 4.53544C6.69756 4.59058 6.70245 4.64834 6.69597 4.70538C6.68948 4.76242 6.67175 4.81761 6.6438 4.86776C6.61585 4.9179 6.57824 4.96201 6.53313 4.99752ZM5.61228 6.18306C5.54479 6.2366 5.46295 6.26895 5.37709 6.276C5.29123 6.28306 5.20521 6.26452 5.12988 6.22271C5.05455 6.18091 4.9933 6.11772 4.95387 6.04112C4.91444 5.96453 4.89858 5.87797 4.90831 5.79237C4.91805 5.70677 4.95293 5.62598 5.00855 5.56019C5.06417 5.49441 5.13804 5.44658 5.22083 5.42275C5.30362 5.39893 5.39161 5.40017 5.47369 5.42632C5.55578 5.45247 5.62827 5.50236 5.68202 5.56969C5.7178 5.61451 5.74438 5.66594 5.76024 5.72106C5.7761 5.77617 5.78093 5.83387 5.77445 5.89085C5.76797 5.94783 5.75032 6.00297 5.72249 6.05311C5.69466 6.10326 5.65721 6.14742 5.61228 6.18306ZM13.5671 2.42833C13.5366 2.3978 13.5004 2.37358 13.4606 2.35706C13.4208 2.34054 13.378 2.33203 13.3349 2.33203C13.2918 2.33203 13.2491 2.34054 13.2092 2.35706C13.1694 2.37358 13.1332 2.3978 13.1027 2.42833L9.29886 6.22427C9.43018 6.34721 9.53765 6.49337 9.61585 6.65537C9.63645 6.69341 9.65389 6.73303 9.67132 6.77266L13.5528 2.89113C13.5843 2.86175 13.6096 2.82644 13.6273 2.78723C13.6451 2.74803 13.6549 2.70571 13.6562 2.6627C13.6575 2.61969 13.6503 2.57684 13.6351 2.53662C13.6198 2.4964 13.5967 2.4596 13.5671 2.42833ZM6.52362 9.44963C6.52362 9.42427 6.50619 9.40049 6.49668 9.37672V9.36879C6.47607 9.32283 6.4523 9.27687 6.42694 9.23249C6.40158 9.18811 6.39841 9.18811 6.38415 9.16592L2.43605 13.114C2.37854 13.1762 2.3473 13.2582 2.34887 13.3429C2.35045 13.4276 2.38472 13.5084 2.44451 13.5684C2.50431 13.6284 2.58499 13.6629 2.66967 13.6648C2.75436 13.6667 2.83648 13.6357 2.89886 13.5784L6.62981 9.82843C6.60242 9.70005 6.56695 9.57353 6.52362 9.44963Z" fill="#174C6B"/>
</g>
<defs>
<clipPath id="clip0_1351_9328">
<rect width="16" height="16" fill="white"/>
</clipPath>
</defs>
</svg>
