<svg width="32" height="32" viewBox="0 0 32 32" fill="none" xmlns="http://www.w3.org/2000/svg">
<path d="M8 24.7337V7.26699C8 6.93562 8.26863 6.66699 8.6 6.66699H12.7333C13.0647 6.66699 13.3333 6.93562 13.3333 7.26699V24.7337C13.3333 25.065 13.0647 25.3337 12.7333 25.3337H8.6C8.26863 25.3337 8 25.065 8 24.7337Z" stroke="#174C6B" stroke-width="1.5"/>
<path d="M18.6667 24.7337V7.26699C18.6667 6.93562 18.9353 6.66699 19.2667 6.66699H23.4C23.7314 6.66699 24 6.93562 24 7.26699V24.7337C24 25.065 23.7314 25.3337 23.4 25.3337H19.2667C18.9353 25.3337 18.6667 25.065 18.6667 24.7337Z" stroke="#174C6B" stroke-width="1.5"/>
</svg>
