<svg width="285" height="375" viewBox="0 0 285 375" fill="none" xmlns="http://www.w3.org/2000/svg">
<g clip-path="url(#clip0_18_22)">
<path d="M184.303 41.2137C195.526 41.2137 204.624 32.0865 204.624 20.8276C204.624 9.56861 195.526 0.441406 184.303 0.441406C173.081 0.441406 163.983 9.56861 163.983 20.8276C163.983 32.0865 173.081 41.2137 184.303 41.2137Z" fill="white"/>
<path d="M184.303 41.6571C180.197 41.6571 176.183 40.4355 172.769 38.1467C169.354 35.8579 166.693 32.6048 165.122 28.7987C163.55 24.9926 163.139 20.8045 163.94 16.7639C164.741 12.7234 166.719 9.01194 169.622 6.09888C172.526 3.18582 176.225 1.202 180.253 0.398289C184.28 -0.405422 188.455 0.00707213 192.249 1.58361C196.043 3.16015 199.285 5.82992 201.567 9.25531C203.848 12.6807 205.066 16.7079 205.066 20.8276C205.06 26.35 202.87 31.6446 198.978 35.5496C195.085 39.4545 189.808 41.651 184.303 41.6571ZM184.303 0.886656C180.372 0.886278 176.528 2.05563 173.259 4.24683C169.99 6.43804 167.441 9.55266 165.937 13.1968C164.432 16.841 164.038 20.851 164.805 24.7197C165.572 28.5884 167.465 32.142 170.245 34.9312C173.026 37.7204 176.568 39.6198 180.424 40.3892C184.28 41.1586 188.277 40.7635 191.909 39.2539C195.542 37.7442 198.646 35.1878 200.831 31.9079C203.015 28.6281 204.18 24.7721 204.18 20.8276C204.174 15.5408 202.078 10.4722 198.351 6.73392C194.625 2.99558 189.573 0.892725 184.303 0.886656Z" fill="#222222"/>
<path d="M184.416 31.0819C184.318 31.1438 184.204 31.1779 184.088 31.1806C183.972 31.1833 183.858 31.1545 183.757 31.0972C181.964 30.0939 173.661 25.0719 173.983 18.5039C174.326 11.5614 181.835 12.771 183.698 16.1821C183.732 16.2458 183.784 16.2984 183.846 16.3338C183.909 16.3693 183.981 16.386 184.053 16.3822C184.125 16.3784 184.194 16.3542 184.253 16.3123C184.312 16.2705 184.358 16.2127 184.385 16.1458C185.294 13.952 188.231 12.364 190.999 13.4055C194.29 14.6476 197.643 22.859 184.416 31.0819Z" fill="#174C6B"/>
<path d="M47.8292 263.004C47.8292 309.511 90.6355 332.586 140.293 332.586C189.951 332.586 227.658 309.511 227.658 263.004C227.658 216.497 187.403 178.794 137.752 178.794C88.1021 178.794 47.8292 216.497 47.8292 263.004Z" fill="white"/>
<path d="M140.293 333.031C114.718 333.031 91.5974 326.842 75.1896 315.603C57.0008 303.144 47.3797 284.957 47.3797 263.006C47.3797 216.329 87.9136 178.35 137.735 178.35C187.557 178.35 228.093 216.325 228.093 263.006C228.093 285.173 219.365 303.362 202.852 315.594C187.462 327 165.827 333.031 140.293 333.031ZM137.743 179.239C88.4088 179.239 48.2711 216.816 48.2711 263.006C48.2711 284.652 57.7512 302.586 75.6886 314.872C91.9498 326.011 114.895 332.145 140.293 332.145C193.909 332.145 227.216 305.653 227.216 263.006C227.216 216.814 187.079 179.237 137.743 179.237V179.239Z" fill="#222222"/>
<path d="M108.163 299.377C108.057 299.379 107.954 299.342 107.873 299.274C107.792 299.205 107.738 299.11 107.721 299.005C107.705 298.899 107.727 298.792 107.783 298.702C107.84 298.611 107.927 298.545 108.028 298.514C136.234 289.425 162.155 270.176 182.989 242.847C183.063 242.762 183.166 242.709 183.278 242.698C183.389 242.686 183.501 242.718 183.59 242.786C183.68 242.855 183.739 242.954 183.758 243.065C183.777 243.177 183.752 243.29 183.69 243.384C162.737 270.858 136.676 290.203 108.297 299.356C108.254 299.37 108.209 299.377 108.163 299.377Z" fill="#222222"/>
<path d="M113.771 304.621C113.668 304.62 113.569 304.582 113.491 304.515C113.412 304.449 113.359 304.356 113.342 304.255C113.324 304.153 113.342 304.048 113.393 303.958C113.444 303.869 113.524 303.8 113.621 303.763C133.209 296.549 151.499 284.64 167.981 268.364C168.023 268.323 168.072 268.291 168.126 268.269C168.179 268.247 168.237 268.236 168.295 268.237C168.353 268.237 168.411 268.249 168.464 268.272C168.518 268.295 168.566 268.328 168.607 268.369C168.648 268.411 168.68 268.46 168.702 268.514C168.724 268.568 168.735 268.626 168.734 268.684C168.734 268.742 168.722 268.8 168.699 268.854C168.677 268.907 168.644 268.956 168.602 268.997C152.031 285.36 133.632 297.338 113.923 304.594C113.875 304.613 113.823 304.622 113.771 304.621Z" fill="#222222"/>
<path d="M196.633 311.531C196.545 311.53 196.46 311.502 196.388 311.452C196.316 311.401 196.261 311.331 196.229 311.249C196.197 311.167 196.19 311.077 196.209 310.991C196.228 310.906 196.272 310.827 196.336 310.767C223.232 286.226 227.409 258.745 209.479 224.276C209.45 224.225 209.432 224.168 209.426 224.109C209.419 224.05 209.425 223.991 209.442 223.934C209.459 223.877 209.487 223.824 209.524 223.779C209.562 223.733 209.608 223.695 209.66 223.668C209.713 223.64 209.77 223.624 209.829 223.619C209.887 223.614 209.947 223.621 210.003 223.639C210.059 223.658 210.111 223.687 210.155 223.726C210.2 223.765 210.236 223.812 210.262 223.866C218.879 240.439 222.361 255.14 220.908 268.815C219.264 284.26 211.418 298.196 196.925 311.43C196.842 311.497 196.739 311.533 196.633 311.531Z" fill="#222222"/>
<path d="M40.3301 182.849C40.3301 182.849 34.0176 191.939 36.5662 199.688C36.5662 199.688 21.0269 203.395 17.305 202.209L21.3489 197.2C24.7389 193.004 27.3014 188.199 28.8994 183.042L31.1699 175.711L40.3301 182.849Z" fill="white"/>
<path d="M19.4441 202.881C18.6785 202.908 17.9131 202.824 17.1717 202.631C17.1031 202.609 17.041 202.571 16.9906 202.519C16.9402 202.468 16.903 202.405 16.8824 202.336C16.8617 202.267 16.8582 202.194 16.8721 202.123C16.886 202.052 16.9169 201.986 16.9621 201.93L21.006 196.921C24.3642 192.771 26.9 188.016 28.4766 182.91L30.749 175.581C30.7698 175.513 30.8068 175.45 30.857 175.399C30.9072 175.348 30.969 175.311 31.0371 175.289C31.1051 175.267 31.1774 175.263 31.2477 175.275C31.318 175.288 31.3841 175.318 31.4404 175.362L40.6005 182.499C40.6895 182.569 40.7486 182.67 40.7656 182.782C40.7826 182.894 40.7562 183.008 40.692 183.101C40.6291 183.191 34.5376 192.105 36.9853 199.549C37.0047 199.607 37.0119 199.669 37.0063 199.73C37.0007 199.791 36.9825 199.85 36.9529 199.904C36.9233 199.958 36.8827 200.005 36.8338 200.042C36.7849 200.078 36.7287 200.104 36.6691 200.118C36.1224 200.25 25.0175 202.881 19.4441 202.881ZM18.0993 201.926C22.1127 202.476 33.5681 199.923 36.0043 199.361C34.0157 192.383 38.6062 184.683 39.732 182.942L31.4004 176.445L29.3204 183.174C27.7118 188.385 25.1257 193.241 21.7012 197.479L18.0993 201.926Z" fill="#222222"/>
<path d="M37.3986 195.322C37.3986 195.322 42.2234 205.763 40.9796 208.813C39.932 211.383 12.4669 222.954 3.45531 226.512C3.09235 226.656 2.69758 226.701 2.31181 226.641C1.92603 226.581 1.56324 226.418 1.26091 226.171C0.958579 225.923 0.727686 225.599 0.592081 225.231C0.456477 224.864 0.42108 224.467 0.489552 224.082C1.28194 219.895 5.27628 211.314 20.7489 195.092C21.1449 194.676 21.6479 194.378 22.2024 194.232C22.7568 194.085 23.3409 194.095 23.8899 194.261L30.0976 196.143L28.728 200.422L37.3986 195.322Z" fill="white"/>
<path d="M2.63243 227.112C2.01628 227.11 1.4205 226.891 0.948591 226.493C0.586768 226.198 0.311752 225.81 0.153031 225.371C-0.00569033 224.931 -0.0421255 224.456 0.0476303 223.998C0.893356 219.528 5.11627 210.833 20.4289 194.786C20.8792 194.309 21.4533 193.966 22.0869 193.797C22.7204 193.629 23.3883 193.64 24.0156 193.831L30.2233 195.713C30.2793 195.73 30.3313 195.758 30.3764 195.796C30.4216 195.833 30.4589 195.879 30.4861 195.931C30.5134 195.983 30.5302 196.04 30.5354 196.098C30.5406 196.156 30.5343 196.215 30.5166 196.271L29.4937 199.455L37.1757 194.939C37.2286 194.908 37.2874 194.888 37.3485 194.88C37.4095 194.873 37.4714 194.879 37.5302 194.897C37.589 194.915 37.6434 194.945 37.6899 194.985C37.7365 195.025 37.7742 195.075 37.8005 195.13C38.3015 196.218 42.6672 205.832 41.3891 208.975C40.0386 212.287 3.97149 226.774 3.60959 226.917C3.29896 227.043 2.96746 227.11 2.63243 227.112ZM22.9832 194.569C22.6235 194.57 22.2678 194.644 21.9375 194.787C21.6072 194.93 21.3092 195.139 21.0612 195.4C5.90295 211.288 1.73908 219.811 0.914306 224.164C0.855728 224.467 0.880437 224.78 0.985794 225.071C1.09115 225.361 1.27319 225.617 1.51241 225.811C1.75403 226.016 2.04675 226.151 2.35917 226.202C2.6716 226.253 2.99192 226.218 3.28577 226.1C15.4764 221.292 39.7034 210.774 40.572 208.645C41.4844 206.403 38.6158 199.111 37.2005 195.952L28.9394 200.804C28.8621 200.85 28.7728 200.871 28.6833 200.864C28.5938 200.858 28.5084 200.824 28.4385 200.768C28.3686 200.712 28.3175 200.636 28.2919 200.551C28.2664 200.465 28.2677 200.373 28.2956 200.288L29.5261 196.436L23.7546 194.678C23.5041 194.604 23.2442 194.567 22.9832 194.569Z" fill="#222222"/>
<path d="M15.0116 211.435C14.9014 211.435 14.7952 211.393 14.7145 211.318L10.143 207.101C10.0569 207.021 10.0056 206.911 10.0006 206.794C9.99565 206.677 10.0373 206.562 10.1163 206.476C10.1954 206.389 10.3054 206.338 10.4222 206.333C10.539 206.328 10.653 206.37 10.7392 206.449L15.3107 210.665C15.3743 210.725 15.4184 210.804 15.4374 210.89C15.4564 210.976 15.4494 211.066 15.4173 211.148C15.3852 211.23 15.3295 211.3 15.2572 211.35C15.185 211.401 15.0995 211.428 15.0116 211.429V211.435Z" fill="#222222"/>
<path d="M17.7202 207.97C17.6077 207.97 17.4994 207.927 17.4174 207.85L13.2421 203.908C13.1998 203.868 13.1658 203.82 13.1419 203.767C13.1181 203.714 13.1049 203.656 13.1032 203.598C13.1014 203.54 13.1111 203.482 13.1316 203.427C13.1522 203.373 13.1833 203.323 13.223 203.281C13.2628 203.238 13.3105 203.204 13.3634 203.18C13.4164 203.156 13.4735 203.143 13.5315 203.141C13.5895 203.14 13.6473 203.149 13.7016 203.17C13.7558 203.191 13.8055 203.222 13.8478 203.262L18.0231 207.204C18.0869 207.265 18.1311 207.344 18.15 207.43C18.1689 207.516 18.1616 207.607 18.129 207.689C18.0964 207.771 18.0401 207.841 17.9673 207.891C17.8944 207.941 17.8084 207.968 17.7202 207.968V207.97Z" fill="#222222"/>
<path d="M4.94866 222.578C4.84795 222.578 4.75006 222.544 4.67119 222.482C4.59232 222.419 4.53721 222.331 4.51498 222.232C4.49276 222.134 4.50476 222.03 4.54899 221.94C4.59322 221.849 4.66702 221.776 4.75818 221.733L38.1701 206.161C38.2226 206.136 38.2795 206.121 38.3377 206.118C38.3958 206.115 38.4539 206.123 38.5087 206.143C38.5635 206.163 38.614 206.193 38.6572 206.232C38.7004 206.271 38.7355 206.318 38.7606 206.371C38.7856 206.423 38.8 206.481 38.803 206.539C38.806 206.597 38.7975 206.656 38.7781 206.711C38.7586 206.766 38.7286 206.816 38.6896 206.86C38.6506 206.903 38.6036 206.938 38.551 206.963L5.12962 222.534C5.07316 222.561 5.01143 222.576 4.94866 222.578Z" fill="#222222"/>
<path d="M41.892 289.918L41.2653 293.258C40.0061 299.947 37.7273 306.401 34.509 312.393L31.0995 318.743L51.4159 314.266L50.3912 310.99C48.7759 305.829 49.1973 300.243 51.5683 295.385L52.6902 293.092L41.892 289.918Z" fill="white"/>
<path d="M31.0995 319.181C31.0237 319.179 30.9496 319.158 30.8842 319.12C30.8188 319.082 30.7643 319.027 30.7261 318.961C30.6878 318.896 30.667 318.821 30.6657 318.745C30.6644 318.669 30.6826 318.594 30.7185 318.527L34.1281 312.177C37.3228 306.227 39.5831 299.818 40.8291 293.176L41.4558 289.836C41.4672 289.775 41.4911 289.717 41.5261 289.666C41.561 289.615 41.6063 289.572 41.6588 289.54C41.7114 289.507 41.7702 289.486 41.8313 289.478C41.8925 289.47 41.9547 289.475 42.0139 289.492L52.8293 292.666C52.8911 292.684 52.9482 292.715 52.9966 292.758C53.045 292.8 53.0836 292.853 53.1095 292.912C53.1355 292.971 53.1483 293.035 53.1469 293.099C53.1455 293.164 53.1301 293.227 53.1017 293.285L51.9817 295.578C49.6478 300.335 49.2342 305.811 50.8274 310.866L51.8521 314.14C51.8681 314.199 51.8714 314.262 51.8619 314.323C51.8524 314.384 51.8302 314.443 51.7969 314.495C51.7663 314.548 51.7249 314.595 51.6753 314.631C51.6258 314.667 51.5692 314.692 51.5093 314.705L31.1871 319.177C31.1581 319.181 31.1287 319.183 31.0995 319.181ZM42.2253 290.48L41.6882 293.346C40.4255 300.078 38.135 306.573 34.8976 312.603L31.9452 318.105L50.8578 313.941L49.9778 311.13C48.3196 305.862 48.7501 300.156 51.1797 295.198L52.0712 293.375L42.2253 290.48Z" fill="#222222"/>
<path d="M57.2522 315.068C55.936 313.054 53.9417 310.012 51.3988 306.157C51.2702 305.963 51.0973 305.802 50.8942 305.688C50.6911 305.574 50.4638 305.51 50.2313 305.502C49.9988 305.494 49.7677 305.542 49.5572 305.642C49.3468 305.741 49.1632 305.89 49.0216 306.075L42.892 312.639L42.3853 307.807L35.3376 309.076C34.9493 309.145 34.5784 309.29 34.2468 309.505C33.9152 309.719 33.6295 309.997 33.4062 310.323C30.7166 314.233 21.2689 328.405 18.9469 337.79C18.3603 340.165 20.7222 342.185 22.947 341.189C29.6537 338.178 44.3682 329.926 56.4998 320.014C57.2119 319.428 57.6827 318.599 57.8217 317.686C57.9606 316.773 57.7577 315.84 57.2522 315.068Z" fill="white"/>
<path d="M21.7584 341.893C20.9791 341.891 20.2251 341.614 19.6289 341.111C19.1402 340.703 18.7767 340.164 18.5805 339.558C18.3843 338.951 18.3634 338.301 18.5203 337.683C20.8479 328.275 30.2252 314.178 33.0443 310.071C33.3007 309.696 33.629 309.376 34.01 309.13C34.391 308.884 34.8171 308.717 35.2634 308.638L42.3111 307.371C42.3702 307.36 42.4308 307.362 42.4893 307.376C42.5477 307.389 42.6028 307.415 42.6511 307.451C42.6994 307.486 42.7399 307.532 42.7702 307.584C42.8005 307.636 42.8199 307.693 42.8273 307.753L43.2254 311.629L48.6959 305.771C48.8772 305.536 49.1127 305.349 49.382 305.225C49.6514 305.101 49.9467 305.045 50.2426 305.061C50.5464 305.068 50.8437 305.15 51.1091 305.298C51.3746 305.447 51.6001 305.658 51.7664 305.913C54.3112 309.767 56.3055 312.81 57.6218 314.826C58.1928 315.689 58.4231 316.735 58.2678 317.759C58.1125 318.784 57.5828 319.713 56.7817 320.367C44.5911 330.335 29.9738 338.522 23.1318 341.604C22.6993 341.796 22.2313 341.894 21.7584 341.893ZM41.9949 308.326L35.4196 309.511C35.0882 309.569 34.7717 309.693 34.4887 309.875C34.2057 310.058 33.962 310.295 33.7719 310.574C30.9738 314.642 21.6689 328.634 19.3774 337.901C19.2601 338.357 19.2748 338.838 19.4198 339.287C19.5648 339.736 19.8342 340.134 20.1965 340.434C20.5464 340.736 20.9753 340.929 21.432 340.992C21.8887 341.055 22.3538 340.985 22.7718 340.79C29.5699 337.732 44.0901 329.59 56.2236 319.674C56.8537 319.158 57.2702 318.426 57.392 317.62C57.5138 316.814 57.3323 315.991 56.8827 315.311C55.5665 313.297 53.5741 310.255 51.0293 306.402C50.9406 306.266 50.8203 306.153 50.6786 306.073C50.537 305.994 50.3782 305.95 50.2159 305.945C50.0538 305.94 49.8927 305.973 49.746 306.043C49.5993 306.112 49.4711 306.216 49.3721 306.345L43.2139 312.941C43.1561 313.003 43.0817 313.047 42.9996 313.068C42.9176 313.089 42.8313 313.086 42.7511 313.059C42.6708 313.032 42.6 312.982 42.547 312.916C42.494 312.85 42.461 312.77 42.452 312.685L41.9949 308.326Z" fill="#222222"/>
<path d="M22.3412 337.558C22.24 337.558 22.1419 337.523 22.0633 337.459C21.9847 337.395 21.9303 337.306 21.9094 337.207C21.8884 337.108 21.9021 337.004 21.9481 336.914C21.9941 336.823 22.0697 336.751 22.1622 336.71C30.9928 332.802 54.3531 316.494 54.5893 316.33C54.6366 316.292 54.691 316.265 54.7491 316.25C54.8072 316.234 54.8679 316.231 54.9273 316.24C54.9868 316.249 55.0438 316.27 55.0948 316.302C55.1459 316.333 55.19 316.375 55.2244 316.425C55.2588 316.474 55.2827 316.53 55.2948 316.589C55.3069 316.648 55.3068 316.709 55.2946 316.768C55.2824 316.827 55.2584 316.883 55.2239 316.933C55.1894 316.982 55.1452 317.024 55.0941 317.056C54.8598 317.222 31.4271 333.578 22.5222 337.52C22.4655 337.546 22.4036 337.559 22.3412 337.558Z" fill="#222222"/>
<path d="M31.9566 326.471C31.8395 326.471 31.7272 326.424 31.6442 326.341L26.6308 321.296C26.5858 321.256 26.5494 321.207 26.5239 321.152C26.4984 321.097 26.4844 321.038 26.4827 320.978C26.4809 320.917 26.4916 320.857 26.5139 320.801C26.5362 320.745 26.5697 320.694 26.6124 320.651C26.6551 320.608 26.706 320.575 26.7621 320.552C26.8181 320.53 26.8782 320.52 26.9384 320.522C26.9986 320.524 27.0579 320.538 27.1124 320.564C27.167 320.589 27.2157 320.626 27.2556 320.671L32.269 325.714C32.3334 325.776 32.3779 325.856 32.3965 325.943C32.415 326.03 32.4069 326.121 32.3732 326.204C32.3394 326.286 32.2816 326.357 32.2073 326.406C32.1329 326.455 32.0456 326.48 31.9566 326.479V326.471Z" fill="#222222"/>
<path d="M34.8119 323.129C34.7537 323.129 34.6961 323.117 34.6425 323.094C34.5888 323.072 34.5402 323.039 34.4995 322.997L29.187 317.606C29.1049 317.523 29.0592 317.41 29.0599 317.293C29.0607 317.176 29.1078 317.064 29.1909 316.981C29.274 316.899 29.3863 316.853 29.5031 316.854C29.6199 316.854 29.7316 316.902 29.8137 316.985L35.1262 322.374C35.1907 322.436 35.2352 322.516 35.2538 322.603C35.2723 322.69 35.264 322.782 35.23 322.864C35.196 322.947 35.1379 323.017 35.0633 323.066C34.9887 323.115 34.901 323.14 34.8119 323.138V323.129Z" fill="#222222"/>
<path d="M134.39 156.305C133.71 155.145 98.2546 115.099 82.9706 113.949C64.2618 112.541 37.4462 135.424 27.8061 178.245C27.6662 178.857 27.6991 179.496 27.9009 180.091C28.1028 180.685 28.4657 181.211 28.9489 181.61L37.4519 185.482C37.8058 185.773 38.2153 185.987 38.6551 186.113C39.0948 186.239 39.5556 186.273 40.009 186.213C40.4625 186.154 40.8989 186.002 41.2915 185.767C41.6842 185.531 42.0246 185.218 42.292 184.846C48.6254 176.027 68.0066 150.448 77.6029 153.315C84.0621 155.245 105.916 197.496 105.916 197.496L156.24 182.883L134.39 156.305Z" fill="#222222"/>
<path d="M50.6254 297.679L42.2291 294.789C41.4195 294.51 40.7273 293.965 40.2642 293.242C39.8011 292.52 39.5942 291.662 39.6767 290.807C40.6996 280.428 40.2958 258.477 55.456 233.22C73.4429 203.246 114.579 181.11 114.579 181.11L127.15 159.63L165.627 179.812C165.627 179.812 168.787 198.27 158.37 208.003C147.952 217.735 106.699 229.377 94.2013 240.246C81.7039 251.116 80.3306 248.068 77.4486 261.212C74.6543 273.933 70.9838 281.403 54.4636 296.853C53.9588 297.327 53.3348 297.654 52.6586 297.8C51.9825 297.945 51.2796 297.903 50.6254 297.679Z" fill="#222222"/>
<path d="M87.1802 198.949C87.0879 198.949 86.9977 198.92 86.9224 198.867C86.8472 198.813 86.7907 198.737 86.761 198.649C86.7313 198.561 86.7299 198.467 86.7569 198.378C86.7839 198.289 86.8381 198.212 86.9116 198.156C95.7213 191.383 104.792 185.516 113.872 180.722C113.975 180.674 114.092 180.667 114.199 180.704C114.307 180.74 114.396 180.817 114.449 180.917C114.502 181.018 114.514 181.135 114.483 181.244C114.453 181.354 114.381 181.447 114.283 181.505C105.247 186.283 96.2203 192.115 87.4488 198.859C87.3715 198.917 87.2771 198.949 87.1802 198.949Z" fill="white"/>
<path d="M128.402 37.6823C127.684 37.7835 126.324 37.3497 124.88 36.7573C122.485 38.836 120.321 41.1675 118.424 43.7113C118.005 43.568 113.242 39.7518 111.186 36.356C114.022 35.0184 114.777 33.0577 118.202 30.4932C119.28 29.6849 120.365 25.9184 121.249 24.5941C122.495 22.7232 123.725 21.6359 126.124 21.2231C127.733 20.9479 129.535 21.1983 130.714 22.3315C131.125 22.7571 131.484 23.2291 131.787 23.7379C132.482 24.817 133.181 25.8961 133.882 26.9751C134.247 27.5484 134.628 28.158 134.598 28.8326C134.556 29.8263 126.291 34.7413 132.611 33.8297C137.697 33.0959 141.116 36.5949 138.897 36.3637C136.678 36.1325 130.383 37.4052 128.402 37.6823Z" fill="white"/>
<path d="M118.424 44.1529C118.376 44.153 118.327 44.1446 118.282 44.128C117.729 43.9369 112.893 40.0271 110.819 36.5836C110.787 36.5305 110.767 36.4713 110.759 36.4098C110.752 36.3484 110.757 36.2861 110.775 36.2268C110.793 36.1676 110.823 36.1128 110.863 36.066C110.904 36.0191 110.953 35.9813 111.009 35.9548C112.533 35.2306 113.424 34.3286 114.548 33.1859C115.595 32.0746 116.732 31.052 117.946 30.1283C118.497 29.7156 119.169 28.1123 119.708 26.8243C120.124 25.8363 120.516 24.9018 120.891 24.34C122.131 22.4768 123.428 21.2328 126.059 20.7799C128.051 20.4378 129.868 20.8831 131.028 22.0029C131.467 22.4514 131.85 22.9505 132.171 23.4896L134.267 26.7268C134.613 27.2657 135.089 28.0014 135.053 28.8442C135.032 29.3123 134.529 29.7767 133.099 30.9844C132.28 31.6743 130.779 32.9393 130.691 33.4075C130.794 33.4572 131.207 33.5795 132.562 33.3827C136.36 32.8362 139.177 34.493 139.844 35.502C140.143 35.9568 140.034 36.2797 139.941 36.4326C139.762 36.7307 139.402 36.8524 138.861 36.7976C137.229 36.6256 133.185 37.3212 130.51 37.7779C129.672 37.9231 128.948 38.0474 128.472 38.1142C127.788 38.2117 126.644 37.9327 124.975 37.2658C122.685 39.2762 120.611 41.5224 118.788 43.9675C118.747 44.0254 118.692 44.0724 118.629 44.1046C118.566 44.1369 118.495 44.1534 118.424 44.1529ZM111.83 36.532C113.68 39.3373 117.238 42.3451 118.306 43.1191C120.167 40.6787 122.273 38.4374 124.592 36.4307C124.654 36.3774 124.729 36.3422 124.809 36.3291C124.89 36.3159 124.972 36.3253 125.047 36.3562C127.192 37.2371 128.032 37.2963 128.339 37.2505C128.802 37.1855 129.522 37.0594 130.352 36.9199C133.072 36.4517 137.185 35.7485 138.943 35.93C138.989 35.93 139.03 35.93 139.065 35.93C138.571 35.2516 136.048 33.7802 132.678 34.2656C130.964 34.5121 130.124 34.3687 129.863 33.784C129.491 32.9508 130.625 31.917 132.529 30.3118C133.169 29.7729 134.04 29.0391 134.171 28.783C134.171 28.2785 133.884 27.7778 133.526 27.2217L131.43 23.9846C131.148 23.5011 130.81 23.0522 130.425 22.6469C129.472 21.7373 127.905 21.3665 126.213 21.657C123.885 22.0564 122.771 23.1265 121.632 24.8349C121.303 25.3299 120.925 26.2261 120.529 27.174C119.859 28.7754 119.224 30.2869 118.48 30.8449C117.302 31.7402 116.2 32.7301 115.183 33.805C114.144 34.858 113.238 35.7771 111.83 36.532Z" fill="#222222"/>
<path d="M186.755 188.696C186.755 188.696 185.132 208.628 190.404 208.641C204.456 208.696 220.523 213.56 217.071 207.991C213.17 201.71 203.639 200.068 198.69 199.638C198.312 199.604 197.946 199.488 197.617 199.297C197.288 199.107 197.004 198.848 196.785 198.537C196.565 198.226 196.416 197.87 196.347 197.496C196.277 197.121 196.29 196.736 196.384 196.367L198.683 187.223L186.755 188.696Z" fill="white"/>
<path d="M214.176 211.112C212.121 211.112 209.21 210.777 205.363 210.311C200.721 209.738 195.458 209.109 190.404 209.09C190.041 209.084 189.683 209.001 189.354 208.845C189.026 208.689 188.734 208.464 188.5 208.186C185.071 204.437 186.267 189.31 186.319 188.668C186.327 188.567 186.369 188.472 186.438 188.398C186.507 188.325 186.6 188.278 186.7 188.264L198.622 186.789C198.693 186.78 198.766 186.788 198.833 186.814C198.9 186.839 198.96 186.881 199.008 186.935C199.055 186.989 199.089 187.054 199.106 187.124C199.122 187.195 199.122 187.268 199.104 187.338L196.803 196.48C196.725 196.789 196.715 197.112 196.774 197.426C196.833 197.74 196.959 198.037 197.144 198.297C197.325 198.554 197.56 198.768 197.832 198.925C198.105 199.081 198.408 199.176 198.721 199.203C204.01 199.661 213.477 201.383 217.439 207.764C218.033 208.719 218.14 209.47 217.767 210.057C217.289 210.81 216.113 211.112 214.176 211.112ZM187.17 189.098C187.008 191.431 186.25 204.42 189.147 207.586C189.3 207.775 189.492 207.928 189.709 208.034C189.926 208.141 190.164 208.2 190.406 208.205C195.513 208.224 200.803 208.866 205.469 209.432C211.033 210.107 216.287 210.745 217.024 209.583C217.235 209.251 216.959 208.664 216.691 208.232C212.932 202.178 203.772 200.531 198.646 200.086C198.206 200.047 197.78 199.914 197.396 199.693C197.013 199.473 196.681 199.172 196.425 198.811C196.167 198.446 195.99 198.03 195.908 197.59C195.826 197.15 195.84 196.698 195.949 196.264L198.085 187.741L187.17 189.098Z" fill="#222222"/>
<path d="M164.223 104.146V104.174C148.973 95.533 131.827 97.4076 126.228 98.344C115.872 96.8152 95.7365 88.1643 122.084 41.2712L115.021 31.38C115.021 31.38 42.8977 100.813 116.91 131.82L115.849 139.032C137.038 164.941 168.551 199.488 172.421 183.514C174.574 174.645 174.28 162.658 173.595 153.747C182.564 166.932 185.197 180.835 184.673 191.966C184.673 191.993 184.673 192.048 184.673 192.048L199.212 192.3C199.212 192.3 199.248 192.214 199.277 192.121C218.877 131.327 164.223 104.146 164.223 104.146Z" fill="white"/>
<path d="M199.212 192.736L184.673 192.482C184.614 192.481 184.556 192.468 184.502 192.444C184.448 192.42 184.399 192.386 184.359 192.343C184.319 192.299 184.288 192.249 184.267 192.193C184.247 192.138 184.238 192.079 184.241 192.019V191.945C184.589 184.572 183.703 170.217 174.166 155.398C174.738 163.913 174.909 175.174 172.859 183.619C172.275 186.032 171.044 187.469 169.206 187.89C158.977 190.235 131.175 158.461 115.514 139.313C115.475 139.265 115.447 139.21 115.431 139.151C115.414 139.092 115.41 139.03 115.419 138.969L116.428 132.09C97.3975 124.043 86.3954 112.69 83.7249 98.3421C80.6677 81.9078 89.2698 64.4817 97.0241 52.7522C105.405 40.0768 114.628 31.143 114.722 31.0551C114.767 31.0109 114.821 30.9771 114.881 30.9559C114.941 30.9348 115.004 30.9268 115.067 30.9326C115.13 30.9384 115.191 30.9579 115.246 30.9896C115.301 31.0213 115.348 31.0645 115.384 31.1163L122.449 41.0074C122.498 41.0761 122.527 41.1574 122.531 41.2417C122.536 41.326 122.516 41.4099 122.474 41.4833C110.474 62.8574 106.769 78.5923 111.491 88.2541C114.729 94.8737 121.278 97.1497 126.23 97.8911C131.36 97.0407 148.886 95.0247 164.315 103.708C164.353 103.713 164.391 103.726 164.425 103.744C164.564 103.811 178.307 110.75 189.454 125.057C196.006 133.466 200.397 142.743 202.506 152.625C205.142 164.974 204.199 178.303 199.704 192.243C199.667 192.354 199.627 192.455 199.627 192.455C199.594 192.538 199.537 192.61 199.463 192.66C199.389 192.71 199.302 192.737 199.212 192.736ZM185.134 191.605L198.9 191.846C208.889 160.714 198.911 138.66 188.774 125.634C178.341 112.231 165.61 105.365 164.162 104.614C164.107 104.606 164.054 104.588 164.006 104.56C148.726 95.9037 131.284 97.9504 126.301 98.7835C126.256 98.7912 126.21 98.7912 126.166 98.7835C120.994 98.0191 114.112 95.6476 110.693 88.6554C105.855 78.7547 109.51 62.8249 121.562 41.3055L114.962 32.0546C108.567 38.5633 102.802 45.6657 97.7442 53.2663C90.085 64.8563 81.5839 82.0569 84.5878 98.1911C87.2145 112.304 98.148 123.483 117.08 131.415C117.17 131.453 117.246 131.519 117.294 131.605C117.343 131.691 117.361 131.79 117.346 131.887L116.316 138.908C142.678 171.121 161.884 188.656 169.004 187.03C170.511 186.686 171.49 185.501 171.997 183.414C174.157 174.513 173.819 162.394 173.159 153.794C173.151 153.697 173.176 153.6 173.23 153.519C173.283 153.437 173.361 153.375 173.453 153.343C173.545 153.311 173.645 153.31 173.737 153.34C173.83 153.371 173.909 153.431 173.964 153.512C184.345 168.771 185.448 183.785 185.132 191.605H185.134Z" fill="#222222"/>
<path d="M118.727 121.362C118.682 121.362 118.637 121.355 118.594 121.34C118.539 121.323 118.487 121.295 118.443 121.258C118.398 121.221 118.362 121.175 118.335 121.124C118.308 121.072 118.292 121.016 118.287 120.958C118.282 120.9 118.289 120.842 118.306 120.786L123.449 104.4C123.465 104.342 123.492 104.288 123.529 104.242C123.566 104.195 123.612 104.156 123.664 104.128C123.717 104.099 123.774 104.081 123.833 104.076C123.892 104.07 123.952 104.076 124.009 104.094C124.066 104.112 124.118 104.142 124.163 104.181C124.208 104.219 124.245 104.267 124.272 104.321C124.298 104.374 124.313 104.432 124.317 104.492C124.32 104.552 124.311 104.611 124.291 104.667L119.148 121.052C119.12 121.142 119.064 121.22 118.988 121.276C118.913 121.331 118.821 121.361 118.727 121.362Z" fill="#222222"/>
<path d="M163.008 177.569C162.942 177.569 162.876 177.553 162.817 177.523C162.627 177.435 144.444 168.339 133.882 147.246C133.837 147.142 133.833 147.024 133.871 146.918C133.91 146.811 133.987 146.723 134.088 146.672C134.189 146.621 134.306 146.611 134.414 146.644C134.523 146.677 134.614 146.75 134.67 146.848C145.093 167.662 163.025 176.64 163.204 176.728C163.293 176.772 163.365 176.845 163.407 176.935C163.45 177.025 163.461 177.127 163.439 177.224C163.417 177.321 163.363 177.408 163.286 177.47C163.209 177.533 163.113 177.568 163.014 177.569H163.008Z" fill="#222222"/>
<path d="M143.574 31.494L129.126 42.592C128.319 43.2118 128.166 44.3704 128.784 45.1799L130.769 47.7806C131.386 48.59 132.541 48.7438 133.348 48.124L147.796 37.026C148.603 36.4062 148.756 35.2475 148.138 34.438L146.154 31.8374C145.536 31.0279 144.381 30.8742 143.574 31.494Z" fill="#222222"/>
<path d="M122.222 3.87774L107.775 14.9758C106.968 15.5956 106.814 16.7542 107.432 17.5637L109.518 20.2964C110.136 21.1058 111.29 21.2596 112.097 20.6398L126.545 9.54177C127.352 8.92198 127.505 7.76334 126.887 6.95385L124.802 4.22122C124.184 3.41174 123.029 3.25795 122.222 3.87774Z" fill="#222222"/>
<path d="M142.248 38.263L119.906 8.9884L113.48 13.9246L135.822 43.1992L142.248 38.263Z" fill="#222222"/>
<path d="M124.063 20.7187C124.011 20.8544 123.964 20.9939 123.922 21.1314C122.798 24.8139 127.447 21.9627 128.964 20.6403C128.131 21.5327 126.152 23.2411 125.377 24.2329C124.602 25.2247 124.2 26.5643 125.44 27.3019C127.449 28.4963 130.07 25.1617 131.613 24.1833C130.619 24.8139 129.406 26.3541 128.712 27.3363C128.301 27.9192 127.293 29.5225 128.246 29.897C129.851 30.5219 133.488 27.43 134.703 26.6178C133.64 27.3822 131.701 29.0314 131.011 30.1493C129.735 32.2189 131.63 33.5317 133.514 32.4424C135.206 31.4564 138.817 30.0079 138.581 27.6077C138.51 26.8815 138.2 26.207 137.861 25.5572C136.429 22.6573 134.623 19.9588 132.489 17.5312C129.495 14.1966 125.331 17.3726 124.063 20.7187Z" fill="white"/>
<path d="M132.146 33.2776C131.87 33.2856 131.595 33.2373 131.337 33.1354C131.08 33.0336 130.846 32.8804 130.649 32.6852C129.99 32.0049 129.986 30.9653 130.636 29.9162C130.651 29.8894 130.668 29.8646 130.686 29.8378C129.68 30.3442 128.781 30.5793 128.087 30.3098C127.937 30.256 127.802 30.1673 127.693 30.0511C127.584 29.9348 127.504 29.7943 127.459 29.641C127.268 29.018 127.649 28.1848 128.08 27.4893C127.127 28.0186 126.143 28.2345 125.223 27.6804C124.976 27.545 124.761 27.3573 124.594 27.1302C124.427 26.9031 124.311 26.6422 124.255 26.3656C124.122 25.6452 124.405 24.7661 125.038 23.9578C125.277 23.6612 125.531 23.3773 125.8 23.1074C125.038 23.3998 124.306 23.5011 123.826 23.1896C123.28 22.8322 123.173 22.0965 123.508 20.9996C123.553 20.8518 123.602 20.7047 123.657 20.5582C124.579 18.1217 126.705 16.142 128.8 15.7464C130.297 15.4636 131.686 15.9776 132.813 17.2312C134.828 19.4747 136.657 22.1997 138.251 25.3471C138.596 26.0274 138.939 26.7574 139.013 27.5542C139.24 29.8741 136.573 31.2902 134.632 32.3316C134.301 32.5075 133.994 32.6699 133.733 32.8209C133.253 33.11 132.706 33.2675 132.146 33.2776ZM134.703 26.1764C134.796 26.1768 134.887 26.2068 134.962 26.262C135.037 26.3173 135.093 26.395 135.122 26.4841C135.15 26.5732 135.15 26.669 135.121 26.7579C135.092 26.8468 135.035 26.9242 134.96 26.979C133.893 27.7434 132.019 29.3563 131.386 30.3825C130.964 31.0685 130.924 31.6972 131.282 32.066C131.64 32.4348 132.404 32.5705 133.291 32.0526C133.562 31.894 133.878 31.7259 134.221 31.5443C135.947 30.6271 138.312 29.3716 138.143 27.6421C138.078 26.9981 137.787 26.3809 137.467 25.7503C135.908 22.6775 134.124 20.0174 132.16 17.8274C131.238 16.8012 130.166 16.3942 128.966 16.6178C127.171 16.956 125.282 18.7466 124.476 20.8754C124.426 21.0028 124.383 21.1302 124.344 21.2576C124.116 22.0067 124.177 22.366 124.299 22.4462C124.853 22.8074 127.274 21.5251 128.68 20.304C128.766 20.2333 128.875 20.1976 128.986 20.2041C129.097 20.2106 129.201 20.2588 129.278 20.339C129.355 20.4193 129.4 20.5257 129.402 20.6372C129.404 20.7486 129.365 20.8569 129.291 20.9404C128.958 21.2977 128.451 21.7774 127.916 22.2781C127.103 23.0424 126.183 23.9177 125.729 24.4967C125.276 25.0757 125.032 25.7312 125.12 26.1936C125.152 26.3467 125.219 26.4905 125.314 26.6145C125.409 26.7385 125.531 26.8396 125.67 26.9102C126.882 27.6326 128.573 26.1459 129.931 24.9649C130.387 24.543 130.871 24.1535 131.381 23.7992C131.48 23.7361 131.6 23.715 131.714 23.7407C131.829 23.7663 131.928 23.8365 131.991 23.9358C132.054 24.0352 132.075 24.1555 132.05 24.2704C132.024 24.3852 131.954 24.4852 131.855 24.5483L131.834 24.5598C130.769 25.2496 129.457 27.044 129.078 27.5829C128.449 28.4772 128.238 29.1403 128.316 29.3773C128.316 29.406 128.335 29.4423 128.419 29.4748C129.512 29.9009 132.261 27.86 133.585 26.8778C133.943 26.614 134.246 26.3905 134.468 26.2414C134.539 26.1977 134.62 26.1752 134.703 26.1764Z" fill="#222222"/>
<path d="M163.836 84.8124C170.637 84.8124 176.149 79.282 176.149 72.4599C176.149 65.6378 170.637 60.1074 163.836 60.1074C157.036 60.1074 151.524 65.6378 151.524 72.4599C151.524 79.282 157.036 84.8124 163.836 84.8124Z" fill="white"/>
<path d="M163.838 85.2557C161.314 85.2557 158.847 84.5048 156.748 83.098C154.649 81.6911 153.014 79.6915 152.048 77.3519C151.082 75.0124 150.829 72.4381 151.322 69.9544C151.814 67.4708 153.029 65.1895 154.814 63.3989C156.599 61.6083 158.873 60.3888 161.349 59.8948C163.824 59.4008 166.39 59.6544 168.722 60.6234C171.054 61.5925 173.047 63.2335 174.45 65.3391C175.852 67.4446 176.6 69.92 176.6 72.4523C176.6 75.848 175.256 79.1046 172.863 81.5057C170.469 83.9068 167.223 85.2557 163.838 85.2557ZM163.838 60.5508C161.491 60.5508 159.196 61.2492 157.243 62.5578C155.291 63.8664 153.77 65.7264 152.871 67.9025C151.973 70.0786 151.738 72.4731 152.196 74.7833C152.654 77.0934 153.784 79.2154 155.445 80.8809C157.105 82.5465 159.22 83.6807 161.523 84.1402C163.825 84.5997 166.212 84.3639 168.381 83.4625C170.55 82.5611 172.404 81.0347 173.708 79.0763C175.013 77.1178 175.709 74.8153 175.709 72.4599C175.705 69.3027 174.453 66.2759 172.228 64.0434C170.002 61.8108 166.985 60.5548 163.838 60.5508Z" fill="#222222"/>
<path d="M151.526 72.46C151.526 75.1518 152.403 77.7698 154.023 79.9158C155.643 82.0617 157.917 83.6181 160.499 84.3481C162.092 81.8027 165.715 73.9658 161.134 60.4094C158.407 61.0258 155.97 62.5547 154.224 64.7447C152.478 66.9347 151.526 69.6556 151.526 72.46Z" fill="#222222"/>
<path d="M130.676 70.6693C129.567 69.7712 123.819 67.8315 128.046 61.2444C132.272 54.6573 146.882 54.0688 153.025 57.5754C159.168 61.082 161.286 71.1222 160.968 76.7003C160.65 82.2784 157.473 89.2898 151.118 91.9995C143.65 95.1851 133.703 73.1134 130.676 70.6693Z" fill="white"/>
<path d="M149.608 92.7525C144.309 92.7525 138.396 83.2416 134.35 76.7329C132.661 74.0117 131.2 71.6631 130.398 71.0134C130.191 70.864 129.977 70.7268 129.754 70.6025C128.611 69.926 126.706 68.7909 126.192 66.6315C125.811 65.0168 126.312 63.123 127.674 61.0038C132.055 54.1931 147.034 53.6465 153.244 57.1818C159.454 60.7171 161.751 70.7363 161.41 76.7176C161.078 82.5174 157.823 89.6147 151.292 92.399C150.76 92.6311 150.187 92.7515 149.608 92.7525ZM130.952 70.3235C131.87 71.0669 133.295 73.3601 135.101 76.2628C139.423 83.2168 145.958 93.7214 150.947 91.5926C157.128 88.9554 160.214 82.2002 160.528 76.6756C160.855 70.9198 158.676 61.3114 152.808 57.9596C146.863 54.5676 132.56 55.0282 128.415 61.4834C127.188 63.3944 126.729 65.0569 127.053 66.429C127.474 68.2215 129.116 69.1961 130.204 69.8401C130.463 69.9846 130.714 70.1461 130.952 70.3235Z" fill="#222222"/>
<path d="M129.276 65.9417C128.865 65.4009 128.895 73.7767 128.577 74.6595C128.259 75.5424 125.48 79.4885 125.32 80.1249C125.16 80.7612 127.303 82.0511 127.701 82.4505C128.099 82.8499 128.343 89.8116 129.453 91.241C130.133 92.1162 136.034 90.96 136.343 91.1779C137.137 91.7359 137.617 97.5548 137.139 99.3091C137.139 99.3091 131.263 105.042 131.103 106.32C130.943 107.599 147.484 108.078 153.212 102.819L151.878 99.6664C150.073 95.3858 150.612 91.9652 150.612 91.9652C150.612 91.9652 143.754 92.6073 143.857 86.1521C143.903 83.3487 146.572 80.1191 146.221 78.0152C145.933 76.2781 144.316 75.7411 142.686 75.657C139.84 75.5328 137.138 74.3693 135.088 72.3855C133.223 70.5605 131.025 68.2444 129.276 65.9417Z" fill="white"/>
<path d="M136.56 107.601C133.893 107.601 131.828 107.347 131.143 106.989C130.687 106.754 130.655 106.439 130.674 106.271C130.836 104.973 135.246 100.553 136.752 99.0855C137.152 97.314 136.663 92.355 136.139 91.5983C135.872 91.5983 135.187 91.6747 134.573 91.7454C131.282 92.1162 129.621 92.1754 129.116 91.518C128.407 90.6046 128.061 88.0783 127.712 85.1239C127.596 84.1283 127.465 83.0066 127.362 82.7295C127.255 82.6359 127.032 82.4715 126.815 82.3129C125.585 81.409 124.72 80.7153 124.91 80.0198C124.998 79.6643 125.482 78.8961 126.548 77.224C127.247 76.1329 128.038 74.8984 128.179 74.5085C128.299 74.1818 128.381 72.0109 128.442 70.4248C128.617 65.8385 128.68 65.6359 129.114 65.4983C129.21 65.4686 129.312 65.4697 129.407 65.5016C129.502 65.5335 129.585 65.5945 129.644 65.6761C131.414 67.9445 133.344 70.0838 135.417 72.0778C137.39 73.9847 139.99 75.1026 142.728 75.2213C145.642 75.3723 146.484 76.7883 146.676 77.9502C146.867 79.1522 146.244 80.5758 145.577 82.0836C144.968 83.4576 144.339 84.8793 144.318 86.1673C144.29 87.8643 144.771 89.1847 145.749 90.0925C147.577 91.7913 150.558 91.5352 150.589 91.5314C150.656 91.5254 150.723 91.5347 150.786 91.5585C150.849 91.5823 150.906 91.6201 150.953 91.669C150.998 91.718 151.033 91.7768 151.052 91.8411C151.072 91.9053 151.077 91.9733 151.067 92.0397C151.067 92.0741 150.573 95.4011 152.305 99.502L153.638 102.655C153.674 102.739 153.683 102.833 153.663 102.922C153.644 103.011 153.597 103.092 153.53 103.154C149.815 106.548 141.958 107.601 136.56 107.601ZM131.594 106.236C133.255 107.085 147.32 107.261 152.69 102.703L151.484 99.8365C150.046 96.4273 150.052 93.5685 150.132 92.4238H150.084C149.034 92.4238 146.741 92.2327 145.131 90.7326C143.962 89.6472 143.387 88.1031 143.417 86.1463C143.442 84.6787 144.109 83.1729 144.751 81.7186C145.364 80.3351 145.941 79.028 145.785 78.0878C145.583 76.8648 144.531 76.1959 142.663 76.0985C139.71 75.9684 136.907 74.7608 134.779 72.7027C132.898 70.8838 131.129 68.9528 129.48 66.9201C129.406 67.8183 129.35 69.2859 129.305 70.4516C129.213 72.867 129.148 74.369 128.99 74.8047C128.832 75.2404 128.204 76.2399 127.276 77.6941C126.684 78.619 125.88 79.8726 125.752 80.1975C125.861 80.5204 126.918 81.2963 127.322 81.5925C127.561 81.7573 127.791 81.9373 128.007 82.1314C128.244 82.3683 128.32 82.8537 128.579 85.0131C128.821 87.0693 129.186 90.1727 129.802 90.9696C130.215 91.3384 133.194 91.0021 134.465 90.8587C136.093 90.6676 136.369 90.6677 136.596 90.8167C137.722 91.604 137.998 97.8319 137.566 99.416C137.545 99.4931 137.505 99.5632 137.448 99.6186C134.775 102.24 131.971 105.306 131.585 106.236H131.594Z" fill="#222222"/>
<path d="M142.975 84.7856C142.92 84.7856 142.865 84.7856 142.808 84.7761C142.558 84.7346 142.321 84.6377 142.114 84.4926C141.907 84.3474 141.734 84.1577 141.609 83.9372C141.571 83.8377 141.569 83.7275 141.604 83.6268C141.64 83.5262 141.711 83.4418 141.804 83.3893C141.896 83.3367 142.005 83.3195 142.109 83.3408C142.213 83.3621 142.307 83.4205 142.371 83.5053C142.43 83.6022 142.508 83.6861 142.6 83.7519C142.692 83.8176 142.796 83.8637 142.907 83.8875C143.189 83.92 143.543 83.7097 143.928 83.2874C144.007 83.2005 144.117 83.1487 144.234 83.1433C144.351 83.1379 144.466 83.1795 144.552 83.2588C144.639 83.3381 144.691 83.4487 144.696 83.5662C144.701 83.6838 144.66 83.7986 144.581 83.8856C144.051 84.4875 143.51 84.7856 142.975 84.7856Z" fill="#222222"/>
<path d="M136.061 91.5944C135.947 91.5976 135.835 91.5561 135.751 91.4785C135.667 91.401 135.616 91.2935 135.609 91.1789C135.602 91.0644 135.641 90.9517 135.715 90.8648C135.79 90.7779 135.896 90.7236 136.009 90.7134C137.409 90.5453 138.411 89.9051 138.985 88.8025C139.039 88.6986 139.132 88.6206 139.244 88.5856C139.356 88.5507 139.476 88.5617 139.58 88.6161C139.684 88.6706 139.761 88.7642 139.796 88.8761C139.831 88.9881 139.82 89.1094 139.766 89.2133C139.274 90.1573 138.242 91.3345 136.114 91.5886L136.061 91.5944Z" fill="#222222"/>
<path d="M13.225 140.662C13.1561 140.662 13.0884 140.645 13.0271 140.614C12.9659 140.582 12.9128 140.537 12.8721 140.481C12.8314 140.425 12.8042 140.361 12.7927 140.293C12.7812 140.225 12.7857 140.155 12.8059 140.089C23.6061 107.234 41.9073 80.3714 65.7247 62.393C65.8184 62.3223 65.9363 62.2918 66.0524 62.3083C66.1685 62.3248 66.2733 62.3869 66.3438 62.4809C66.4142 62.5749 66.4446 62.6932 66.4282 62.8096C66.4117 62.9261 66.3499 63.0313 66.2561 63.102C42.5835 80.9752 24.3889 107.685 13.644 140.358C13.6148 140.447 13.5586 140.524 13.4834 140.578C13.4082 140.633 13.3178 140.662 13.225 140.662Z" fill="#222222"/>
<path d="M19.0802 111.56C19.0141 111.559 18.9491 111.544 18.8897 111.514C18.785 111.462 18.7052 111.37 18.6677 111.258C18.6303 111.147 18.6382 111.026 18.6897 110.92C28.9946 90.0064 42.4577 72.6377 58.7017 59.2972C58.746 59.2563 58.798 59.2249 58.8548 59.205C58.9116 59.185 58.9718 59.1768 59.0318 59.181C59.0918 59.1852 59.1503 59.2016 59.2038 59.2293C59.2572 59.257 59.3045 59.2953 59.3427 59.3419C59.3808 59.3885 59.4091 59.4425 59.4258 59.5005C59.4424 59.5585 59.4471 59.6193 59.4395 59.6791C59.432 59.739 59.4123 59.7967 59.3817 59.8486C59.3511 59.9006 59.3103 59.9458 59.2617 59.9813C43.1148 73.2434 29.7375 90.5128 19.4821 111.314C19.4448 111.388 19.3873 111.451 19.3163 111.495C19.2453 111.538 19.1635 111.561 19.0802 111.56Z" fill="#222222"/>
<path d="M250.377 312.341C250.285 312.387 250.179 312.399 250.079 312.375C249.979 312.351 249.89 312.293 249.829 312.21C249.767 312.127 249.737 312.026 249.742 311.923C249.747 311.819 249.789 311.722 249.859 311.646C253.007 308.149 256.104 304.508 259.064 300.822C261.023 298.384 262.958 295.882 264.813 293.385C264.884 293.294 264.988 293.235 265.102 293.22C265.216 293.205 265.331 293.235 265.424 293.304C265.516 293.373 265.578 293.475 265.596 293.589C265.614 293.703 265.588 293.819 265.522 293.914C263.659 296.421 261.712 298.932 259.752 301.378C256.783 305.076 253.674 308.732 250.512 312.238C250.474 312.281 250.428 312.316 250.377 312.341Z" fill="#222222"/>
<path d="M182.054 369.061C177.635 371.192 173.164 373.162 168.64 374.969C168.532 375.012 168.411 375.01 168.304 374.963C168.197 374.917 168.112 374.83 168.069 374.721C168.028 374.612 168.031 374.491 168.077 374.384C168.123 374.277 168.209 374.192 168.317 374.148C204.294 359.777 237.188 334.522 263.438 301.839C265.409 299.381 267.362 296.859 269.24 294.336C269.313 294.251 269.415 294.196 269.527 294.184C269.638 294.171 269.75 294.202 269.84 294.269C269.93 294.336 269.991 294.435 270.011 294.546C270.031 294.657 270.008 294.771 269.946 294.866C268.063 297.396 266.105 299.93 264.125 302.395C241.078 331.086 212.923 354.169 182.054 369.061Z" fill="#222222"/>
<path d="M282.907 222.824C282.869 222.829 282.83 222.829 282.792 222.824C282.677 222.805 282.573 222.741 282.504 222.646C282.435 222.551 282.407 222.432 282.425 222.316C286.552 196.302 283.099 170.735 272.438 148.383C267.433 137.904 260.934 128.212 253.146 119.611C253.105 119.568 253.072 119.518 253.05 119.462C253.029 119.407 253.018 119.348 253.02 119.288C253.022 119.228 253.035 119.17 253.06 119.116C253.085 119.061 253.12 119.013 253.164 118.973C253.208 118.933 253.26 118.902 253.316 118.882C253.372 118.862 253.432 118.854 253.491 118.858C253.55 118.862 253.608 118.878 253.661 118.905C253.714 118.932 253.761 118.969 253.8 119.015C261.643 127.68 268.188 137.444 273.228 148C283.968 170.517 287.446 196.262 283.291 222.455C283.276 222.551 283.23 222.638 283.161 222.705C283.091 222.771 283.002 222.813 282.907 222.824Z" fill="#222222"/>
<path d="M278.276 211.397C277.514 211.474 276.747 211.312 276.081 210.932C275.415 210.552 274.883 209.974 274.56 209.277C274.357 208.839 274.243 208.365 274.224 207.882C274.204 207.399 274.28 206.917 274.447 206.463C274.613 206.01 274.868 205.594 275.195 205.239C275.522 204.885 275.916 204.598 276.354 204.397C277.24 203.989 278.251 203.949 279.165 204.286C280.08 204.624 280.825 205.311 281.236 206.197C281.439 206.636 281.553 207.11 281.573 207.593C281.592 208.076 281.516 208.558 281.35 209.012C281.183 209.466 280.929 209.882 280.601 210.237C280.274 210.591 279.88 210.878 279.442 211.079C279.073 211.249 278.679 211.356 278.276 211.397ZM277.609 204.959C277.168 205.003 276.744 205.152 276.372 205.394C276 205.636 275.691 205.964 275.471 206.35C275.25 206.736 275.125 207.169 275.106 207.614C275.087 208.058 275.174 208.501 275.36 208.905C275.673 209.578 276.239 210.1 276.934 210.357C277.629 210.613 278.397 210.583 279.07 210.273C279.403 210.12 279.702 209.903 279.951 209.634C280.199 209.365 280.392 209.05 280.519 208.705C280.646 208.361 280.703 207.996 280.689 207.629C280.674 207.263 280.588 206.902 280.434 206.57C280.187 206.04 279.783 205.6 279.276 205.312C278.769 205.023 278.185 204.9 277.606 204.959H277.609Z" fill="#222222"/>
<path d="M262.941 150.026C262.917 150.028 262.894 150.028 262.87 150.026C258.695 149.774 254.506 149.156 254.464 149.151C254.392 149.14 254.324 149.111 254.266 149.067C254.207 149.024 254.16 148.966 254.129 148.9C254.098 148.834 254.084 148.761 254.088 148.688C254.092 148.615 254.114 148.544 254.152 148.482L258.723 140.943C258.766 140.875 258.825 140.819 258.896 140.781C258.967 140.744 259.047 140.727 259.127 140.731C259.209 140.734 259.287 140.76 259.355 140.806C259.422 140.852 259.475 140.916 259.508 140.991L263.297 149.399C263.326 149.463 263.339 149.533 263.335 149.603C263.332 149.673 263.312 149.742 263.277 149.803C263.242 149.863 263.193 149.915 263.134 149.953C263.075 149.991 263.008 150.015 262.939 150.022L262.941 150.026ZM255.255 148.369C256.491 148.535 259.283 148.891 262.19 149.095L259.051 142.126L255.255 148.369Z" fill="#222222"/>
<path d="M236.533 13.5181C236.475 13.518 236.418 13.5065 236.365 13.4842C236.311 13.4619 236.263 13.4293 236.222 13.3882L234.533 11.6951C234.487 11.655 234.451 11.6061 234.425 11.5514C234.4 11.4967 234.385 11.4373 234.384 11.3768C234.382 11.3164 234.392 11.2562 234.414 11.1999C234.436 11.1437 234.47 11.0926 234.512 11.0498C234.555 11.0069 234.606 10.9733 234.662 10.9509C234.718 10.9285 234.778 10.9179 234.838 10.9196C234.898 10.9213 234.957 10.9354 235.012 10.961C235.067 10.9866 235.115 11.0231 235.156 11.0683L236.845 12.7614C236.91 12.8229 236.954 12.9026 236.973 12.9899C236.991 13.0772 236.983 13.1681 236.949 13.2507C236.916 13.3333 236.858 13.4037 236.783 13.4528C236.709 13.5019 236.622 13.5273 236.533 13.5258V13.5181Z" fill="#222222"/>
<path d="M242.447 19.4422C242.389 19.4427 242.331 19.4315 242.278 19.4091C242.224 19.3868 242.175 19.3538 242.135 19.3122L240.445 17.6191C240.4 17.5791 240.363 17.5302 240.338 17.4755C240.312 17.4208 240.298 17.3613 240.296 17.3009C240.294 17.2405 240.305 17.1803 240.327 17.124C240.349 17.0678 240.382 17.0167 240.425 16.9738C240.467 16.931 240.518 16.8974 240.574 16.875C240.63 16.8526 240.69 16.842 240.75 16.8437C240.811 16.8454 240.87 16.8595 240.924 16.8851C240.979 16.9106 241.028 16.9471 241.068 16.9923L242.758 18.6874C242.799 18.7282 242.831 18.7769 242.854 18.8305C242.876 18.8841 242.888 18.9417 242.888 18.9998C242.888 19.0579 242.876 19.1154 242.854 19.1691C242.831 19.2227 242.799 19.2714 242.758 19.3122C242.717 19.3537 242.669 19.3866 242.615 19.4089C242.562 19.4312 242.505 19.4425 242.447 19.4422Z" fill="#222222"/>
<path d="M234.847 19.4422C234.789 19.4425 234.732 19.4312 234.679 19.4089C234.625 19.3866 234.577 19.3537 234.536 19.3122C234.495 19.2714 234.463 19.2227 234.44 19.1691C234.418 19.1154 234.406 19.0579 234.406 18.9998C234.406 18.9417 234.418 18.8841 234.44 18.8305C234.463 18.7769 234.495 18.7282 234.536 18.6874L236.226 16.9923C236.266 16.9471 236.315 16.9106 236.37 16.8851C236.424 16.8595 236.483 16.8454 236.544 16.8437C236.604 16.842 236.664 16.8526 236.72 16.875C236.776 16.8974 236.827 16.931 236.869 16.9738C236.912 17.0167 236.945 17.0678 236.967 17.124C236.989 17.1803 237 17.2405 236.998 17.3009C236.996 17.3613 236.982 17.4208 236.956 17.4755C236.931 17.5302 236.894 17.5791 236.849 17.6191L235.159 19.3122C235.119 19.3538 235.07 19.3868 235.016 19.4091C234.963 19.4315 234.905 19.4427 234.847 19.4422Z" fill="#222222"/>
<path d="M240.752 13.5182C240.663 13.5197 240.575 13.4943 240.501 13.4452C240.427 13.3961 240.369 13.3257 240.335 13.2431C240.301 13.1605 240.293 13.0696 240.312 12.9823C240.331 12.895 240.375 12.8154 240.439 12.7538L242.129 11.0607C242.169 11.0155 242.218 10.979 242.272 10.9534C242.327 10.9279 242.386 10.9138 242.447 10.912C242.507 10.9103 242.567 10.921 242.623 10.9433C242.679 10.9657 242.73 10.9994 242.772 11.0422C242.815 11.085 242.848 11.1361 242.87 11.1924C242.892 11.2486 242.903 11.3088 242.901 11.3693C242.899 11.4297 242.885 11.4891 242.859 11.5438C242.834 11.5986 242.797 11.6474 242.752 11.6875L241.062 13.3806C241.022 13.4231 240.974 13.4572 240.921 13.4808C240.868 13.5044 240.81 13.5171 240.752 13.5182Z" fill="#222222"/>
<path d="M228.702 34.9611C227.911 34.9588 227.139 34.7215 226.483 34.2792C225.827 33.8369 225.316 33.2093 225.015 32.4759C224.714 31.7424 224.636 30.9359 224.792 30.1582C224.947 29.3805 225.329 28.6665 225.889 28.1064C226.449 27.5463 227.162 27.1653 227.937 27.0113C228.713 26.8574 229.517 26.9376 230.247 27.2416C230.977 27.5457 231.601 28.0601 232.04 28.7197C232.479 29.3794 232.714 30.1549 232.714 30.9481C232.71 32.0133 232.286 33.0337 231.534 33.7858C230.782 34.538 229.764 34.9606 228.702 34.9611ZM228.702 27.8045C228.084 27.8053 227.48 27.9899 226.967 28.3349C226.453 28.6799 226.053 29.1699 225.817 29.743C225.581 30.3161 225.52 30.9465 225.641 31.5545C225.762 32.1626 226.06 32.721 226.497 33.1592C226.934 33.5974 227.491 33.8957 228.098 34.0163C228.704 34.137 229.332 34.0747 229.903 33.8372C230.474 33.5998 230.962 33.1978 231.305 32.6822C231.648 32.1666 231.832 31.5605 231.832 30.9404C231.83 30.1085 231.5 29.3112 230.913 28.7233C230.326 28.1355 229.531 27.805 228.702 27.8045Z" fill="#222222"/>
<path d="M236.649 51.6304C236.097 51.6304 235.557 51.4662 235.099 51.1586C234.64 50.8509 234.282 50.4137 234.071 49.9022C233.86 49.3906 233.804 48.8277 233.912 48.2846C234.02 47.7416 234.285 47.2428 234.676 46.8512C235.066 46.4597 235.563 46.1931 236.105 46.085C236.646 45.977 237.207 46.0325 237.717 46.2444C238.227 46.4562 238.662 46.8151 238.969 47.2755C239.276 47.7358 239.439 48.2771 239.439 48.8308C239.439 49.5731 239.145 50.2849 238.622 50.8098C238.098 51.3348 237.389 51.6299 236.649 51.6304ZM236.649 46.9179C236.272 46.9179 235.904 47.03 235.591 47.24C235.277 47.45 235.033 47.7484 234.889 48.0976C234.745 48.4468 234.707 48.831 234.781 49.2017C234.854 49.5724 235.036 49.9129 235.302 50.1802C235.568 50.4474 235.908 50.6294 236.277 50.7031C236.647 50.7769 237.03 50.739 237.378 50.5944C237.726 50.4498 238.023 50.2048 238.233 49.8906C238.442 49.5763 238.554 49.2069 238.554 48.8289C238.554 48.3221 238.353 47.836 237.996 47.4776C237.639 47.1193 237.154 46.9179 236.649 46.9179Z" fill="#222222"/>
</g>
<defs>
<clipPath id="clip0_18_22">
<rect width="285" height="375" fill="white"/>
</clipPath>
</defs>
</svg>
