<svg width="24" height="24" viewBox="0 0 24 24" fill="none" xmlns="http://www.w3.org/2000/svg">
<g clip-path="url(#clip0_1117_11820)">
<path d="M12 0C5.3832 0 0 5.3832 0 12C0 18.6168 5.3832 24 12 24C18.6168 24 24 18.6168 24 12C24 5.3832 18.6168 0 12 0ZM12 21.8182C6.58618 21.8182 2.18182 17.4137 2.18182 12C2.18182 6.58625 6.58618 2.18182 12 2.18182C17.4138 2.18182 21.8182 6.58625 21.8182 12C21.8182 17.4137 17.4137 21.8182 12 21.8182Z" fill="#FEFEFF"/>
<path d="M16.4998 7.75699L10.3286 13.9281L7.50023 11.0997C7.07427 10.6737 6.3835 10.6736 5.95747 11.0996C5.53143 11.5256 5.53143 12.2163 5.95747 12.6424L9.55718 16.2422C9.76174 16.4468 10.0392 16.5618 10.3285 16.5618H10.3286C10.6179 16.5618 10.8954 16.4468 11.0999 16.2423L18.0426 9.29983C18.4686 8.87379 18.4686 8.1831 18.0426 7.75706C17.6165 7.33103 16.9258 7.33095 16.4998 7.75699Z" fill="#FEFEFF"/>
</g>
<defs>
<clipPath id="clip0_1117_11820">
<rect width="24" height="24" fill="white"/>
</clipPath>
</defs>
</svg>
