<svg width="24" height="24" viewBox="0 0 24 24" fill="none" xmlns="http://www.w3.org/2000/svg">
<g clip-path="url(#clip0_518_4903)">
<path d="M11.7694 11.6925C14.9938 11.6925 17.6154 9.07096 17.6154 5.84654C17.6154 2.62212 14.9938 0 11.7694 0C8.545 0 5.92288 2.62154 5.92288 5.84596C5.92288 9.07038 8.54442 11.6919 11.7688 11.6919L11.7694 11.6925ZM11.7694 1.84615C13.9727 1.84615 15.7692 3.64327 15.7692 5.84596C15.7692 8.04865 13.9721 9.84577 11.7694 9.84577C9.56673 9.84577 7.76962 8.04865 7.76962 5.84596C7.76962 3.64327 9.56673 1.84615 11.7694 1.84615ZM8.07712 15.3848H13C13.5048 15.3848 13.9231 14.9665 13.9231 14.4617C13.9231 13.9569 13.5048 13.5387 13 13.5387H8.07712C4.17538 13.5387 1 16.714 1 20.6152C1 22.4862 2.51385 24 4.38481 24H12.9631C13.4679 24 13.8862 23.5817 13.8862 23.0769C13.8862 22.5721 13.4679 22.1538 12.9631 22.1538H4.38481C3.53558 22.1538 2.84615 21.4644 2.84615 20.6152C2.85308 17.7288 5.19077 15.3912 8.07712 15.3842V15.3848ZM20.4585 19.3846L22.4154 17.4277C22.7725 17.0706 22.7725 16.4798 22.4154 16.1233C22.0583 15.7667 21.4675 15.7662 21.111 16.1233L19.154 18.0802L17.1971 16.1233C16.84 15.7662 16.2492 15.7662 15.8927 16.1233C15.5362 16.4804 15.5356 17.0712 15.8927 17.4277L17.8496 19.3846L15.8927 21.3415C15.5356 21.6987 15.5356 22.2894 15.8927 22.646C16.0773 22.8306 16.311 22.9165 16.5452 22.9165C16.7794 22.9165 17.0131 22.8306 17.1977 22.646L19.1546 20.689L21.1115 22.646C21.2962 22.8306 21.5298 22.9165 21.764 22.9165C21.9983 22.9165 22.2319 22.8306 22.4165 22.646C22.7737 22.2888 22.7737 21.6981 22.4165 21.3415L20.4596 19.3846H20.4585Z" fill="#E71F1F"/>
</g>
<defs>
<clipPath id="clip0_518_4903">
<rect width="21.6831" height="24" fill="white" transform="translate(1)"/>
</clipPath>
</defs>
</svg>
