<svg width="24" height="24" viewBox="0 0 24 24" fill="none" xmlns="http://www.w3.org/2000/svg">
<g clip-path="url(#clip0_61_614)">
<path d="M23.9675 9.64689C23.9513 9.47765 23.8767 9.31933 23.7565 9.19911C23.6363 9.07889 23.4779 9.00429 23.3087 8.98811C23.1131 8.96946 18.4877 8.56136 15.7942 11.2549C15.2101 11.839 14.7721 12.5139 14.4441 13.2147C13.904 11.0029 12.9432 9.16793 11.6242 7.84896C9.99854 6.22328 7.58907 5.14169 4.65638 4.72117C2.47426 4.40824 0.775085 4.56457 0.703835 4.57146C0.534594 4.58763 0.376267 4.66224 0.25605 4.78245C0.135833 4.90267 0.0612293 5.061 0.0450537 5.23024C0.03821 5.30149 -0.118118 7.00061 0.194772 9.18278C0.615288 12.1155 1.69683 14.525 3.32255 16.1506C4.94823 17.7763 7.35769 18.8579 10.2904 19.2784C11.3704 19.4333 12.3319 19.4732 13.0365 19.4732C13.6749 19.4731 14.6053 19.4606 15.0337 19.4606C16.5317 19.4606 19.667 19.1951 21.7007 17.1613C24.3942 14.4679 23.9862 9.84255 23.9675 9.64689ZM7.99074 11.4824C7.70504 11.1967 7.24173 11.1967 6.95593 11.4824C6.67018 11.7681 6.67018 12.2314 6.95593 12.5172L12.4366 17.9979C10.3248 17.9268 6.6818 17.4404 4.35732 15.1159C1.5871 12.3457 1.43007 7.67857 1.47127 5.99683C3.15305 5.95296 7.81238 6.10675 10.5894 8.88382C12.9072 11.2016 13.3956 14.8468 13.4692 16.9609L7.99074 11.4824ZM20.6659 16.1266C19.3761 17.4164 17.4355 17.8293 16.0411 17.9493L19.2648 14.7255C19.5506 14.4398 19.5506 13.9765 19.2648 13.6907C18.9791 13.405 18.5158 13.405 18.23 13.6907L15.0034 16.9173C15.1216 15.5246 15.5333 13.5853 16.8289 12.2897C18.5076 10.611 21.2882 10.4173 22.5335 10.422C22.538 11.6673 22.3443 14.4482 20.6659 16.1266Z" fill="#174C6B"/>
</g>
<defs>
<clipPath id="clip0_61_614">
<rect width="24" height="24" fill="white"/>
</clipPath>
</defs>
</svg>
