<svg width="24" height="24" viewBox="0 0 24 24" fill="none" xmlns="http://www.w3.org/2000/svg">
<g clip-path="url(#clip0_61_618)">
<path d="M23.2907 5.47155C23.0387 5.22635 22.7417 5.04466 22.4188 4.93404C23.3148 4.01927 23.3092 2.54604 22.4015 1.6385C21.4952 0.732264 20.0251 0.725092 19.1101 1.61726C18.999 1.29912 18.8186 1.00644 18.5765 0.75753C18.1399 0.309078 17.5549 0.0574531 16.9296 0.0490156C16.9186 0.0489219 16.9078 0.0488281 16.8968 0.0488281C16.2833 0.0488281 15.7045 0.283859 15.264 0.712717C14.8156 1.14922 14.564 1.73412 14.5556 2.35681L14.5216 4.31585C12.7537 4.09873 10.9068 4.66708 9.55258 6.02125C8.28706 7.28678 5.85561 10.5597 3.89675 13.6343C2.10088 16.4532 -0.0328662 20.2253 0.000368157 22.1881C0.00983689 22.7464 0.181352 23.1852 0.510227 23.4925C0.836898 23.7977 1.27555 23.9508 1.84419 23.9508C2.50986 23.9507 3.35356 23.7411 4.4037 23.3204C5.78923 22.7654 7.52164 21.8536 9.55282 20.6104C13.1661 18.3988 16.8475 15.659 18.0188 14.4876C19.3708 13.1356 19.9395 11.2925 19.7254 9.52726L21.6889 9.49309C22.3146 9.48465 22.8995 9.23312 23.336 8.78467C23.7725 8.33631 24.0082 7.7447 23.9998 7.11888C23.991 6.493 23.7393 5.90796 23.2907 5.47155ZM16.9146 13.3833C15.8354 14.4625 12.3554 17.0499 8.89512 19.1817C6.99509 20.3521 5.30581 21.2556 4.00991 21.7944C2.2334 22.5329 1.67826 22.3897 1.58671 22.3543C1.55404 22.2555 1.44172 21.6984 2.19627 19.9347C2.66474 18.8396 3.38933 17.4695 4.30794 15.9378L5.46898 17.0988C5.54141 17.1714 5.62747 17.229 5.72222 17.2683C5.81698 17.3076 5.91856 17.3277 6.02112 17.3276C6.2209 17.3276 6.42082 17.2513 6.57326 17.0988C6.87823 16.7939 6.87823 16.2995 6.57326 15.9945L5.15112 14.5724C5.73087 13.659 6.32998 12.7621 6.91601 11.92L8.78191 13.7859C8.9344 13.9384 9.13423 14.0147 9.33405 14.0147C9.53388 14.0147 9.73376 13.9384 9.88619 13.7859C10.1912 13.481 10.1912 12.9866 9.88619 12.6817L7.83424 10.6297C8.5459 9.65223 9.20871 8.79503 9.75691 8.13517L12.0948 10.473C12.1672 10.5456 12.2533 10.6032 12.348 10.6425C12.4428 10.6817 12.5444 10.7019 12.6469 10.7018C12.8467 10.7018 13.0466 10.6255 13.1991 10.473C13.504 10.1681 13.504 9.67365 13.1991 9.36873L10.8102 6.97985C12.5447 5.40213 15.2395 5.4505 16.9146 7.12553C18.6398 8.85081 18.6398 11.6581 16.9146 13.3833ZM22.217 7.69544C22.0715 7.84497 21.8765 7.92878 21.6648 7.93164L19.32 7.97242C19.0283 7.26227 18.5948 6.59716 18.0189 6.0213C17.4454 5.44779 16.7833 5.01551 16.0765 4.7238L16.1172 2.38085C16.1183 2.27827 16.1397 2.17692 16.1803 2.08268C16.2208 1.98843 16.2796 1.90316 16.3533 1.83181C16.5028 1.6864 16.7013 1.60962 16.9085 1.61065C17.0111 1.61179 17.1124 1.63326 17.2067 1.67382C17.3009 1.71438 17.3861 1.77322 17.4575 1.84695C17.5289 1.91977 17.5851 2.00599 17.6231 2.10064C17.661 2.1953 17.6798 2.29652 17.6785 2.39848L17.6551 3.37709C17.6514 3.53306 17.6945 3.68656 17.7789 3.81781C17.8632 3.94905 17.985 4.05202 18.1284 4.11344C18.2718 4.17485 18.4303 4.19189 18.5835 4.16237C18.7367 4.13284 18.8776 4.05811 18.9879 3.94779L20.1929 2.74282C20.4974 2.43837 20.9927 2.43837 21.2972 2.74282C21.6017 3.04732 21.6017 3.5427 21.2972 3.84715L20.0833 5.06097C19.973 5.17129 19.8983 5.31212 19.8687 5.4653C19.8392 5.61849 19.8562 5.77701 19.9176 5.92043C19.9789 6.06391 20.0819 6.1857 20.2131 6.27008C20.3444 6.35446 20.4979 6.39754 20.6539 6.39377L21.6505 6.37024C21.8572 6.3685 22.053 6.44632 22.2016 6.59088C22.2754 6.6623 22.3343 6.74764 22.3749 6.84196C22.4155 6.93628 22.437 7.03771 22.4381 7.14039C22.4398 7.24294 22.4211 7.3448 22.3832 7.44008C22.3452 7.53536 22.2887 7.62215 22.217 7.69544Z" fill="#174C6B"/>
</g>
<defs>
<clipPath id="clip0_61_618">
<rect width="24" height="24" fill="white"/>
</clipPath>
</defs>
</svg>
