<svg width="25" height="24" viewBox="0 0 25 24" fill="none" xmlns="http://www.w3.org/2000/svg">
<g clip-path="url(#clip0_119_616)">
<path d="M7.9 7H5.1C4.76863 7 4.5 7.26863 4.5 7.6V16.4C4.5 16.7314 4.76863 17 5.1 17H7.9C8.23137 17 8.5 16.7314 8.5 16.4V7.6C8.5 7.26863 8.23137 7 7.9 7Z" stroke="#174C6B" stroke-width="1.5" stroke-linecap="round" stroke-linejoin="round"/>
<path d="M19.9 7H17.1C16.7686 7 16.5 7.26863 16.5 7.6V16.4C16.5 16.7314 16.7686 17 17.1 17H19.9C20.2314 17 20.5 16.7314 20.5 16.4V7.6C20.5 7.26863 20.2314 7 19.9 7Z" stroke="#174C6B" stroke-width="1.5" stroke-linecap="round" stroke-linejoin="round"/>
<path d="M1.5 14.4V9.6C1.5 9.26863 1.76863 9 2.1 9H3.9C4.23137 9 4.5 9.26863 4.5 9.6V14.4C4.5 14.7314 4.23137 15 3.9 15H2.1C1.76863 15 1.5 14.7314 1.5 14.4Z" stroke="#174C6B" stroke-width="1.5" stroke-linecap="round" stroke-linejoin="round"/>
<path d="M23.5 14.4V9.6C23.5 9.26863 23.2314 9 22.9 9H21.1C20.7686 9 20.5 9.26863 20.5 9.6V14.4C20.5 14.7314 20.7686 15 21.1 15H22.9C23.2314 15 23.5 14.7314 23.5 14.4Z" stroke="#174C6B" stroke-width="1.5" stroke-linecap="round" stroke-linejoin="round"/>
<path d="M8.5 12H16.5" stroke="#174C6B" stroke-width="1.5" stroke-linecap="round" stroke-linejoin="round"/>
</g>
<defs>
<clipPath id="clip0_119_616">
<rect width="24" height="24" fill="white" transform="translate(0.5)"/>
</clipPath>
</defs>
</svg>
